G04 #@! TF.GenerationSoftware,KiCad,Pcbnew,(5.1.0)-1*
G04 #@! TF.CreationDate,2020-04-16T11:46:00+01:00*
G04 #@! TF.ProjectId,SolarSoilSensor,536f6c61-7253-46f6-996c-53656e736f72,rev?*
G04 #@! TF.SameCoordinates,PX5faea10PY77e7cd0*
G04 #@! TF.FileFunction,Soldermask,Top*
G04 #@! TF.FilePolarity,Negative*
%FSLAX46Y46*%
G04 Gerber Fmt 4.6, Leading zero omitted, Abs format (unit mm)*
G04 Created by KiCad (PCBNEW (5.1.0)-1) date 2020-04-16 11:46:00*
%MOMM*%
%LPD*%
G04 APERTURE LIST*
%ADD10C,0.010000*%
%ADD11C,2.432000*%
%ADD12R,2.432000X2.127200*%
%ADD13O,2.432000X2.127200*%
%ADD14R,3.400000X3.400000*%
%ADD15C,1.924000*%
%ADD16R,2.000000X3.200000*%
%ADD17O,2.000000X3.200000*%
%ADD18C,2.940000*%
%ADD19O,2.686000X1.974800*%
%ADD20R,2.686000X1.974800*%
%ADD21C,2.000200*%
%ADD22R,2.000200X2.000200*%
%ADD23R,2.305000X2.305000*%
%ADD24C,2.305000*%
G04 APERTURE END LIST*
D10*
G36*
X40030948Y-42373D02*
G01*
X40570598Y-42583D01*
X41036714Y-43097D01*
X41434863Y-44049D01*
X41770611Y-45572D01*
X42049525Y-47802D01*
X42277171Y-50873D01*
X42459115Y-54918D01*
X42600925Y-60071D01*
X42708167Y-66467D01*
X42786406Y-74241D01*
X42841211Y-83525D01*
X42878146Y-94454D01*
X42902779Y-107162D01*
X42920676Y-121784D01*
X42926000Y-127000D01*
X42932657Y-134160D01*
X42938956Y-143489D01*
X42944906Y-157276D01*
X42950517Y-177811D01*
X42955800Y-207384D01*
X42960764Y-248284D01*
X42965420Y-302801D01*
X42969776Y-373226D01*
X42973843Y-461846D01*
X42977632Y-570954D01*
X42981151Y-702837D01*
X42984411Y-859787D01*
X42987421Y-1044092D01*
X42990193Y-1258043D01*
X42992734Y-1503929D01*
X42995056Y-1784040D01*
X42997169Y-2100666D01*
X42999082Y-2456096D01*
X43000805Y-2852620D01*
X43002348Y-3292529D01*
X43003721Y-3778111D01*
X43004934Y-4311657D01*
X43005997Y-4895456D01*
X43006919Y-5531798D01*
X43007712Y-6222973D01*
X43008384Y-6971270D01*
X43008945Y-7778980D01*
X43009406Y-8648392D01*
X43009777Y-9581795D01*
X43010066Y-10581480D01*
X43010285Y-11649737D01*
X43010443Y-12788854D01*
X43010550Y-14001123D01*
X43010616Y-15288832D01*
X43010651Y-16654271D01*
X43010664Y-18099730D01*
X43010667Y-19627500D01*
X43010667Y-39135342D01*
X42185673Y-47243088D01*
X42101346Y-48070878D01*
X42018688Y-48880426D01*
X41938157Y-49667337D01*
X41860209Y-50427214D01*
X41785301Y-51155662D01*
X41713890Y-51848284D01*
X41646433Y-52500685D01*
X41583386Y-53108469D01*
X41525207Y-53667241D01*
X41472352Y-54172603D01*
X41425278Y-54620160D01*
X41384442Y-55005517D01*
X41350300Y-55324277D01*
X41323310Y-55572045D01*
X41303928Y-55744425D01*
X41292611Y-55837020D01*
X41292521Y-55837667D01*
X41256423Y-56062990D01*
X41212837Y-56286513D01*
X41168055Y-56477933D01*
X41138726Y-56578500D01*
X40974997Y-56964972D01*
X40765440Y-57298333D01*
X40516789Y-57572486D01*
X40235780Y-57781337D01*
X39929151Y-57918790D01*
X39603637Y-57978748D01*
X39590611Y-57979435D01*
X39421291Y-57981450D01*
X39266711Y-57973050D01*
X39174534Y-57958994D01*
X38859347Y-57835466D01*
X38567670Y-57638568D01*
X38307497Y-57378161D01*
X38086822Y-57064107D01*
X37913638Y-56706268D01*
X37795940Y-56314506D01*
X37781021Y-56239833D01*
X37770451Y-56164049D01*
X37751715Y-56008270D01*
X37725263Y-55776729D01*
X37691544Y-55473658D01*
X37651008Y-55103288D01*
X37604105Y-54669854D01*
X37551283Y-54177586D01*
X37492992Y-53630717D01*
X37429683Y-53033480D01*
X37361804Y-52390107D01*
X37289804Y-51704830D01*
X37214135Y-50981881D01*
X37135244Y-50225494D01*
X37053581Y-49439900D01*
X36969597Y-48629331D01*
X36883740Y-47798020D01*
X36861543Y-47582667D01*
X36004500Y-39264167D01*
X35993781Y-19653250D01*
X35983063Y-42333D01*
X39412198Y-42333D01*
X40030948Y-42373D01*
X40030948Y-42373D01*
G37*
X40030948Y-42373D02*
X40570598Y-42583D01*
X41036714Y-43097D01*
X41434863Y-44049D01*
X41770611Y-45572D01*
X42049525Y-47802D01*
X42277171Y-50873D01*
X42459115Y-54918D01*
X42600925Y-60071D01*
X42708167Y-66467D01*
X42786406Y-74241D01*
X42841211Y-83525D01*
X42878146Y-94454D01*
X42902779Y-107162D01*
X42920676Y-121784D01*
X42926000Y-127000D01*
X42932657Y-134160D01*
X42938956Y-143489D01*
X42944906Y-157276D01*
X42950517Y-177811D01*
X42955800Y-207384D01*
X42960764Y-248284D01*
X42965420Y-302801D01*
X42969776Y-373226D01*
X42973843Y-461846D01*
X42977632Y-570954D01*
X42981151Y-702837D01*
X42984411Y-859787D01*
X42987421Y-1044092D01*
X42990193Y-1258043D01*
X42992734Y-1503929D01*
X42995056Y-1784040D01*
X42997169Y-2100666D01*
X42999082Y-2456096D01*
X43000805Y-2852620D01*
X43002348Y-3292529D01*
X43003721Y-3778111D01*
X43004934Y-4311657D01*
X43005997Y-4895456D01*
X43006919Y-5531798D01*
X43007712Y-6222973D01*
X43008384Y-6971270D01*
X43008945Y-7778980D01*
X43009406Y-8648392D01*
X43009777Y-9581795D01*
X43010066Y-10581480D01*
X43010285Y-11649737D01*
X43010443Y-12788854D01*
X43010550Y-14001123D01*
X43010616Y-15288832D01*
X43010651Y-16654271D01*
X43010664Y-18099730D01*
X43010667Y-19627500D01*
X43010667Y-39135342D01*
X42185673Y-47243088D01*
X42101346Y-48070878D01*
X42018688Y-48880426D01*
X41938157Y-49667337D01*
X41860209Y-50427214D01*
X41785301Y-51155662D01*
X41713890Y-51848284D01*
X41646433Y-52500685D01*
X41583386Y-53108469D01*
X41525207Y-53667241D01*
X41472352Y-54172603D01*
X41425278Y-54620160D01*
X41384442Y-55005517D01*
X41350300Y-55324277D01*
X41323310Y-55572045D01*
X41303928Y-55744425D01*
X41292611Y-55837020D01*
X41292521Y-55837667D01*
X41256423Y-56062990D01*
X41212837Y-56286513D01*
X41168055Y-56477933D01*
X41138726Y-56578500D01*
X40974997Y-56964972D01*
X40765440Y-57298333D01*
X40516789Y-57572486D01*
X40235780Y-57781337D01*
X39929151Y-57918790D01*
X39603637Y-57978748D01*
X39590611Y-57979435D01*
X39421291Y-57981450D01*
X39266711Y-57973050D01*
X39174534Y-57958994D01*
X38859347Y-57835466D01*
X38567670Y-57638568D01*
X38307497Y-57378161D01*
X38086822Y-57064107D01*
X37913638Y-56706268D01*
X37795940Y-56314506D01*
X37781021Y-56239833D01*
X37770451Y-56164049D01*
X37751715Y-56008270D01*
X37725263Y-55776729D01*
X37691544Y-55473658D01*
X37651008Y-55103288D01*
X37604105Y-54669854D01*
X37551283Y-54177586D01*
X37492992Y-53630717D01*
X37429683Y-53033480D01*
X37361804Y-52390107D01*
X37289804Y-51704830D01*
X37214135Y-50981881D01*
X37135244Y-50225494D01*
X37053581Y-49439900D01*
X36969597Y-48629331D01*
X36883740Y-47798020D01*
X36861543Y-47582667D01*
X36004500Y-39264167D01*
X35993781Y-19653250D01*
X35983063Y-42333D01*
X39412198Y-42333D01*
X40030948Y-42373D01*
G36*
X25435842Y-52183D02*
G01*
X26070675Y-54489D01*
X26625918Y-57000D01*
X27106649Y-59818D01*
X27517942Y-63044D01*
X27864876Y-66779D01*
X28152526Y-71123D01*
X28385969Y-76177D01*
X28570282Y-82042D01*
X28710542Y-88820D01*
X28811825Y-96611D01*
X28879207Y-105516D01*
X28917766Y-115635D01*
X28928342Y-121600D01*
X28933849Y-130139D01*
X28939061Y-147869D01*
X28943986Y-177048D01*
X28948633Y-219934D01*
X28953009Y-278786D01*
X28957122Y-355861D01*
X28960980Y-453418D01*
X28964592Y-573714D01*
X28967965Y-719009D01*
X28971108Y-891559D01*
X28974028Y-1093624D01*
X28976734Y-1327461D01*
X28979234Y-1595328D01*
X28981535Y-1899484D01*
X28983647Y-2242187D01*
X28985576Y-2625694D01*
X28987330Y-3052265D01*
X28988919Y-3524156D01*
X28990350Y-4043627D01*
X28991631Y-4612934D01*
X28992770Y-5234338D01*
X28993775Y-5910095D01*
X28994655Y-6642463D01*
X28995417Y-7433702D01*
X28996069Y-8286068D01*
X28996619Y-9201821D01*
X28997076Y-10183218D01*
X28997447Y-11232517D01*
X28997741Y-12351976D01*
X28997966Y-13543854D01*
X28998129Y-14810409D01*
X28998239Y-16153899D01*
X28998304Y-17576582D01*
X28998331Y-19080716D01*
X28998334Y-19743583D01*
X28998334Y-39307466D01*
X28171963Y-47413816D01*
X28087558Y-48240754D01*
X28004854Y-49049009D01*
X27924305Y-49834216D01*
X27846368Y-50592011D01*
X27771496Y-51318032D01*
X27700146Y-52007914D01*
X27632772Y-52657294D01*
X27569831Y-53261808D01*
X27511777Y-53817092D01*
X27459065Y-54318783D01*
X27412151Y-54762517D01*
X27371489Y-55143929D01*
X27337537Y-55458658D01*
X27310747Y-55702337D01*
X27291577Y-55870605D01*
X27280480Y-55959097D01*
X27280331Y-55960109D01*
X27176906Y-56452526D01*
X27022589Y-56883013D01*
X26818729Y-57249343D01*
X26566678Y-57549287D01*
X26267785Y-57780614D01*
X26132399Y-57854918D01*
X25870779Y-57947061D01*
X25579000Y-57990354D01*
X25287868Y-57983150D01*
X25028186Y-57923800D01*
X25005767Y-57915188D01*
X24684765Y-57741817D01*
X24397506Y-57495997D01*
X24151468Y-57185767D01*
X23954128Y-56819168D01*
X23927669Y-56756057D01*
X23847925Y-56526655D01*
X23779903Y-56271768D01*
X23730884Y-56023588D01*
X23708148Y-55814310D01*
X23707402Y-55782038D01*
X23703038Y-55724167D01*
X23690376Y-55586222D01*
X23669834Y-55372346D01*
X23641833Y-55086683D01*
X23606791Y-54733375D01*
X23565127Y-54316564D01*
X23517261Y-53840395D01*
X23463611Y-53309010D01*
X23404598Y-52726552D01*
X23340640Y-52097164D01*
X23272156Y-51424989D01*
X23199565Y-50714170D01*
X23123287Y-49968850D01*
X23043742Y-49193172D01*
X22961347Y-48391278D01*
X22876523Y-47567312D01*
X22860000Y-47406997D01*
X22013334Y-39193418D01*
X22013334Y-40866D01*
X25435842Y-52183D01*
X25435842Y-52183D01*
G37*
X25435842Y-52183D02*
X26070675Y-54489D01*
X26625918Y-57000D01*
X27106649Y-59818D01*
X27517942Y-63044D01*
X27864876Y-66779D01*
X28152526Y-71123D01*
X28385969Y-76177D01*
X28570282Y-82042D01*
X28710542Y-88820D01*
X28811825Y-96611D01*
X28879207Y-105516D01*
X28917766Y-115635D01*
X28928342Y-121600D01*
X28933849Y-130139D01*
X28939061Y-147869D01*
X28943986Y-177048D01*
X28948633Y-219934D01*
X28953009Y-278786D01*
X28957122Y-355861D01*
X28960980Y-453418D01*
X28964592Y-573714D01*
X28967965Y-719009D01*
X28971108Y-891559D01*
X28974028Y-1093624D01*
X28976734Y-1327461D01*
X28979234Y-1595328D01*
X28981535Y-1899484D01*
X28983647Y-2242187D01*
X28985576Y-2625694D01*
X28987330Y-3052265D01*
X28988919Y-3524156D01*
X28990350Y-4043627D01*
X28991631Y-4612934D01*
X28992770Y-5234338D01*
X28993775Y-5910095D01*
X28994655Y-6642463D01*
X28995417Y-7433702D01*
X28996069Y-8286068D01*
X28996619Y-9201821D01*
X28997076Y-10183218D01*
X28997447Y-11232517D01*
X28997741Y-12351976D01*
X28997966Y-13543854D01*
X28998129Y-14810409D01*
X28998239Y-16153899D01*
X28998304Y-17576582D01*
X28998331Y-19080716D01*
X28998334Y-19743583D01*
X28998334Y-39307466D01*
X28171963Y-47413816D01*
X28087558Y-48240754D01*
X28004854Y-49049009D01*
X27924305Y-49834216D01*
X27846368Y-50592011D01*
X27771496Y-51318032D01*
X27700146Y-52007914D01*
X27632772Y-52657294D01*
X27569831Y-53261808D01*
X27511777Y-53817092D01*
X27459065Y-54318783D01*
X27412151Y-54762517D01*
X27371489Y-55143929D01*
X27337537Y-55458658D01*
X27310747Y-55702337D01*
X27291577Y-55870605D01*
X27280480Y-55959097D01*
X27280331Y-55960109D01*
X27176906Y-56452526D01*
X27022589Y-56883013D01*
X26818729Y-57249343D01*
X26566678Y-57549287D01*
X26267785Y-57780614D01*
X26132399Y-57854918D01*
X25870779Y-57947061D01*
X25579000Y-57990354D01*
X25287868Y-57983150D01*
X25028186Y-57923800D01*
X25005767Y-57915188D01*
X24684765Y-57741817D01*
X24397506Y-57495997D01*
X24151468Y-57185767D01*
X23954128Y-56819168D01*
X23927669Y-56756057D01*
X23847925Y-56526655D01*
X23779903Y-56271768D01*
X23730884Y-56023588D01*
X23708148Y-55814310D01*
X23707402Y-55782038D01*
X23703038Y-55724167D01*
X23690376Y-55586222D01*
X23669834Y-55372346D01*
X23641833Y-55086683D01*
X23606791Y-54733375D01*
X23565127Y-54316564D01*
X23517261Y-53840395D01*
X23463611Y-53309010D01*
X23404598Y-52726552D01*
X23340640Y-52097164D01*
X23272156Y-51424989D01*
X23199565Y-50714170D01*
X23123287Y-49968850D01*
X23043742Y-49193172D01*
X22961347Y-48391278D01*
X22876523Y-47567312D01*
X22860000Y-47406997D01*
X22013334Y-39193418D01*
X22013334Y-40866D01*
X25435842Y-52183D01*
G36*
X31754211Y11634241D02*
G01*
X31898167Y11620500D01*
X31931357Y11324166D01*
X31948663Y11109339D01*
X31941805Y10960858D01*
X31907695Y10863071D01*
X31843250Y10800324D01*
X31826167Y10790451D01*
X31736408Y10763466D01*
X31593208Y10741979D01*
X31421279Y10727207D01*
X31245336Y10720366D01*
X31090092Y10722673D01*
X30980261Y10735343D01*
X30948081Y10747228D01*
X30910670Y10810852D01*
X30872538Y10942063D01*
X30838494Y11123962D01*
X30835943Y11141214D01*
X30813422Y11302035D01*
X30797579Y11425787D01*
X30790880Y11492733D01*
X30791196Y11499138D01*
X30832183Y11510857D01*
X30923168Y11531671D01*
X30930948Y11533343D01*
X31014583Y11546359D01*
X31057692Y11525021D01*
X31080672Y11449846D01*
X31091964Y11379538D01*
X31121033Y11190537D01*
X31145147Y11069797D01*
X31173165Y11002050D01*
X31213942Y10972024D01*
X31276338Y10964450D01*
X31332813Y10964333D01*
X31492621Y10972867D01*
X31590237Y11008583D01*
X31637661Y11086650D01*
X31646893Y11222238D01*
X31637944Y11350060D01*
X31610255Y11647981D01*
X31754211Y11634241D01*
X31754211Y11634241D01*
G37*
X31754211Y11634241D02*
X31898167Y11620500D01*
X31931357Y11324166D01*
X31948663Y11109339D01*
X31941805Y10960858D01*
X31907695Y10863071D01*
X31843250Y10800324D01*
X31826167Y10790451D01*
X31736408Y10763466D01*
X31593208Y10741979D01*
X31421279Y10727207D01*
X31245336Y10720366D01*
X31090092Y10722673D01*
X30980261Y10735343D01*
X30948081Y10747228D01*
X30910670Y10810852D01*
X30872538Y10942063D01*
X30838494Y11123962D01*
X30835943Y11141214D01*
X30813422Y11302035D01*
X30797579Y11425787D01*
X30790880Y11492733D01*
X30791196Y11499138D01*
X30832183Y11510857D01*
X30923168Y11531671D01*
X30930948Y11533343D01*
X31014583Y11546359D01*
X31057692Y11525021D01*
X31080672Y11449846D01*
X31091964Y11379538D01*
X31121033Y11190537D01*
X31145147Y11069797D01*
X31173165Y11002050D01*
X31213942Y10972024D01*
X31276338Y10964450D01*
X31332813Y10964333D01*
X31492621Y10972867D01*
X31590237Y11008583D01*
X31637661Y11086650D01*
X31646893Y11222238D01*
X31637944Y11350060D01*
X31610255Y11647981D01*
X31754211Y11634241D01*
G36*
X32345823Y11622930D02*
G01*
X32499393Y11609050D01*
X32671623Y11588805D01*
X32840910Y11564794D01*
X32985649Y11539617D01*
X33084236Y11515873D01*
X33098267Y11510826D01*
X33139986Y11493817D01*
X33166946Y11473158D01*
X33180003Y11434072D01*
X33180013Y11361785D01*
X33167830Y11241521D01*
X33144310Y11058502D01*
X33130520Y10953750D01*
X33116788Y10832811D01*
X33109959Y10752666D01*
X33070795Y10688761D01*
X32979168Y10668627D01*
X32865744Y10694538D01*
X32835333Y10745519D01*
X32838797Y10796515D01*
X32844099Y10850640D01*
X32814832Y10886470D01*
X32735061Y10912378D01*
X32588856Y10936738D01*
X32565813Y10939994D01*
X32452101Y10951249D01*
X32394566Y10935391D01*
X32366242Y10881292D01*
X32359095Y10854692D01*
X32328542Y10779228D01*
X32270644Y10760189D01*
X32202536Y10770109D01*
X32110249Y10791002D01*
X32065799Y10805770D01*
X32065564Y10806024D01*
X32065226Y10852505D01*
X32075685Y10959777D01*
X32093725Y11105130D01*
X32116126Y11265858D01*
X32119661Y11288889D01*
X32427334Y11288889D01*
X32441811Y11225449D01*
X32496967Y11190762D01*
X32610388Y11177221D01*
X32688389Y11176000D01*
X32823060Y11184504D01*
X32885478Y11212095D01*
X32893000Y11234562D01*
X32853313Y11292163D01*
X32741882Y11330164D01*
X32570147Y11344724D01*
X32564917Y11344755D01*
X32461384Y11329371D01*
X32427334Y11288889D01*
X32119661Y11288889D01*
X32139672Y11419251D01*
X32161143Y11542602D01*
X32177322Y11613203D01*
X32181084Y11621195D01*
X32232519Y11627845D01*
X32345823Y11622930D01*
X32345823Y11622930D01*
G37*
X32345823Y11622930D02*
X32499393Y11609050D01*
X32671623Y11588805D01*
X32840910Y11564794D01*
X32985649Y11539617D01*
X33084236Y11515873D01*
X33098267Y11510826D01*
X33139986Y11493817D01*
X33166946Y11473158D01*
X33180003Y11434072D01*
X33180013Y11361785D01*
X33167830Y11241521D01*
X33144310Y11058502D01*
X33130520Y10953750D01*
X33116788Y10832811D01*
X33109959Y10752666D01*
X33070795Y10688761D01*
X32979168Y10668627D01*
X32865744Y10694538D01*
X32835333Y10745519D01*
X32838797Y10796515D01*
X32844099Y10850640D01*
X32814832Y10886470D01*
X32735061Y10912378D01*
X32588856Y10936738D01*
X32565813Y10939994D01*
X32452101Y10951249D01*
X32394566Y10935391D01*
X32366242Y10881292D01*
X32359095Y10854692D01*
X32328542Y10779228D01*
X32270644Y10760189D01*
X32202536Y10770109D01*
X32110249Y10791002D01*
X32065799Y10805770D01*
X32065564Y10806024D01*
X32065226Y10852505D01*
X32075685Y10959777D01*
X32093725Y11105130D01*
X32116126Y11265858D01*
X32119661Y11288889D01*
X32427334Y11288889D01*
X32441811Y11225449D01*
X32496967Y11190762D01*
X32610388Y11177221D01*
X32688389Y11176000D01*
X32823060Y11184504D01*
X32885478Y11212095D01*
X32893000Y11234562D01*
X32853313Y11292163D01*
X32741882Y11330164D01*
X32570147Y11344724D01*
X32564917Y11344755D01*
X32461384Y11329371D01*
X32427334Y11288889D01*
X32119661Y11288889D01*
X32139672Y11419251D01*
X32161143Y11542602D01*
X32177322Y11613203D01*
X32181084Y11621195D01*
X32232519Y11627845D01*
X32345823Y11622930D01*
G36*
X33522200Y11409824D02*
G01*
X33607197Y11374528D01*
X33652068Y11337057D01*
X33653024Y11331386D01*
X33641624Y11270185D01*
X33612887Y11149321D01*
X33572127Y10990710D01*
X33553753Y10922000D01*
X33498669Y10734455D01*
X33449374Y10618666D01*
X33395505Y10563274D01*
X33326696Y10556926D01*
X33244601Y10583277D01*
X33151701Y10621199D01*
X33259300Y11015016D01*
X33306789Y11185262D01*
X33346690Y11321714D01*
X33373488Y11405846D01*
X33380922Y11423445D01*
X33434350Y11430333D01*
X33522200Y11409824D01*
X33522200Y11409824D01*
G37*
X33522200Y11409824D02*
X33607197Y11374528D01*
X33652068Y11337057D01*
X33653024Y11331386D01*
X33641624Y11270185D01*
X33612887Y11149321D01*
X33572127Y10990710D01*
X33553753Y10922000D01*
X33498669Y10734455D01*
X33449374Y10618666D01*
X33395505Y10563274D01*
X33326696Y10556926D01*
X33244601Y10583277D01*
X33151701Y10621199D01*
X33259300Y11015016D01*
X33306789Y11185262D01*
X33346690Y11321714D01*
X33373488Y11405846D01*
X33380922Y11423445D01*
X33434350Y11430333D01*
X33522200Y11409824D01*
G36*
X30462325Y11316561D02*
G01*
X30555852Y11248039D01*
X30605258Y11164559D01*
X30607000Y11147712D01*
X30571001Y11097277D01*
X30487193Y11052291D01*
X30391863Y11028028D01*
X30334081Y11032829D01*
X30243959Y11035560D01*
X30120472Y11005430D01*
X30001808Y10954841D01*
X29930393Y10901709D01*
X29914096Y10824941D01*
X29942485Y10723626D01*
X29999379Y10632066D01*
X30068593Y10584561D01*
X30080607Y10583333D01*
X30174310Y10603133D01*
X30283339Y10652209D01*
X30382276Y10715081D01*
X30445700Y10776265D01*
X30454853Y10811274D01*
X30474278Y10867547D01*
X30568938Y10917145D01*
X30665995Y10943938D01*
X30722733Y10946503D01*
X30725326Y10944785D01*
X30739477Y10893368D01*
X30749151Y10791588D01*
X30750212Y10765629D01*
X30749182Y10682988D01*
X30729343Y10624912D01*
X30674959Y10574534D01*
X30570293Y10514986D01*
X30468543Y10463723D01*
X30302334Y10389169D01*
X30140429Y10330049D01*
X30017470Y10298989D01*
X30016019Y10298790D01*
X29903359Y10291351D01*
X29834662Y10320880D01*
X29771283Y10405788D01*
X29762944Y10419352D01*
X29663011Y10615478D01*
X29606108Y10798032D01*
X29598543Y10931849D01*
X29628189Y10994428D01*
X29707496Y11062177D01*
X29848923Y11144652D01*
X29929667Y11185895D01*
X30091120Y11259952D01*
X30236625Y11315613D01*
X30340239Y11343243D01*
X30357022Y11344645D01*
X30462325Y11316561D01*
X30462325Y11316561D01*
G37*
X30462325Y11316561D02*
X30555852Y11248039D01*
X30605258Y11164559D01*
X30607000Y11147712D01*
X30571001Y11097277D01*
X30487193Y11052291D01*
X30391863Y11028028D01*
X30334081Y11032829D01*
X30243959Y11035560D01*
X30120472Y11005430D01*
X30001808Y10954841D01*
X29930393Y10901709D01*
X29914096Y10824941D01*
X29942485Y10723626D01*
X29999379Y10632066D01*
X30068593Y10584561D01*
X30080607Y10583333D01*
X30174310Y10603133D01*
X30283339Y10652209D01*
X30382276Y10715081D01*
X30445700Y10776265D01*
X30454853Y10811274D01*
X30474278Y10867547D01*
X30568938Y10917145D01*
X30665995Y10943938D01*
X30722733Y10946503D01*
X30725326Y10944785D01*
X30739477Y10893368D01*
X30749151Y10791588D01*
X30750212Y10765629D01*
X30749182Y10682988D01*
X30729343Y10624912D01*
X30674959Y10574534D01*
X30570293Y10514986D01*
X30468543Y10463723D01*
X30302334Y10389169D01*
X30140429Y10330049D01*
X30017470Y10298989D01*
X30016019Y10298790D01*
X29903359Y10291351D01*
X29834662Y10320880D01*
X29771283Y10405788D01*
X29762944Y10419352D01*
X29663011Y10615478D01*
X29606108Y10798032D01*
X29598543Y10931849D01*
X29628189Y10994428D01*
X29707496Y11062177D01*
X29848923Y11144652D01*
X29929667Y11185895D01*
X30091120Y11259952D01*
X30236625Y11315613D01*
X30340239Y11343243D01*
X30357022Y11344645D01*
X30462325Y11316561D01*
G36*
X29297923Y10380167D02*
G01*
X29346638Y10297034D01*
X29355306Y10280015D01*
X29396337Y10184593D01*
X29393427Y10122702D01*
X29347823Y10057765D01*
X29273500Y9969500D01*
X29370068Y10051337D01*
X29444660Y10104121D01*
X29495490Y10099515D01*
X29528282Y10071527D01*
X29553151Y10032733D01*
X29539048Y9988464D01*
X29475745Y9924059D01*
X29360035Y9830332D01*
X29130141Y9650783D01*
X28979571Y9847979D01*
X28935027Y9908756D01*
X29178046Y9908756D01*
X29183837Y9906000D01*
X29222469Y9935802D01*
X29231167Y9948333D01*
X29241954Y9987910D01*
X29236164Y9990666D01*
X29197531Y9960865D01*
X29188834Y9948333D01*
X29178046Y9908756D01*
X28935027Y9908756D01*
X28899002Y9957909D01*
X28845084Y10039953D01*
X28830803Y10070837D01*
X28853118Y10096500D01*
X29083000Y10096500D01*
X29104167Y10075333D01*
X29125334Y10096500D01*
X29104167Y10117666D01*
X29083000Y10096500D01*
X28853118Y10096500D01*
X28862465Y10107249D01*
X28892652Y10133650D01*
X29167667Y10133650D01*
X29188259Y10120978D01*
X29244536Y10175360D01*
X29257733Y10191750D01*
X29294345Y10241893D01*
X29272423Y10231381D01*
X29241750Y10207733D01*
X29183120Y10155511D01*
X29167667Y10133650D01*
X28892652Y10133650D01*
X28940466Y10175467D01*
X29042415Y10257853D01*
X29145921Y10336771D01*
X29228592Y10394585D01*
X29266479Y10414000D01*
X29297923Y10380167D01*
X29297923Y10380167D01*
G37*
X29297923Y10380167D02*
X29346638Y10297034D01*
X29355306Y10280015D01*
X29396337Y10184593D01*
X29393427Y10122702D01*
X29347823Y10057765D01*
X29273500Y9969500D01*
X29370068Y10051337D01*
X29444660Y10104121D01*
X29495490Y10099515D01*
X29528282Y10071527D01*
X29553151Y10032733D01*
X29539048Y9988464D01*
X29475745Y9924059D01*
X29360035Y9830332D01*
X29130141Y9650783D01*
X28979571Y9847979D01*
X28935027Y9908756D01*
X29178046Y9908756D01*
X29183837Y9906000D01*
X29222469Y9935802D01*
X29231167Y9948333D01*
X29241954Y9987910D01*
X29236164Y9990666D01*
X29197531Y9960865D01*
X29188834Y9948333D01*
X29178046Y9908756D01*
X28935027Y9908756D01*
X28899002Y9957909D01*
X28845084Y10039953D01*
X28830803Y10070837D01*
X28853118Y10096500D01*
X29083000Y10096500D01*
X29104167Y10075333D01*
X29125334Y10096500D01*
X29104167Y10117666D01*
X29083000Y10096500D01*
X28853118Y10096500D01*
X28862465Y10107249D01*
X28892652Y10133650D01*
X29167667Y10133650D01*
X29188259Y10120978D01*
X29244536Y10175360D01*
X29257733Y10191750D01*
X29294345Y10241893D01*
X29272423Y10231381D01*
X29241750Y10207733D01*
X29183120Y10155511D01*
X29167667Y10133650D01*
X28892652Y10133650D01*
X28940466Y10175467D01*
X29042415Y10257853D01*
X29145921Y10336771D01*
X29228592Y10394585D01*
X29266479Y10414000D01*
X29297923Y10380167D01*
G36*
X35215000Y10557283D02*
G01*
X35289307Y10494461D01*
X35291007Y10492867D01*
X35387304Y10402401D01*
X35191123Y10172768D01*
X34994942Y9943136D01*
X35351660Y9588500D01*
X35567897Y9814137D01*
X35784134Y10039775D01*
X35999728Y9824181D01*
X35744304Y9568757D01*
X35590187Y9423322D01*
X35468185Y9340015D01*
X35359584Y9319097D01*
X35245673Y9360832D01*
X35107738Y9465480D01*
X34983595Y9579407D01*
X34826590Y9736770D01*
X34734945Y9861084D01*
X34707152Y9971239D01*
X34741706Y10086123D01*
X34837100Y10224627D01*
X34923897Y10328060D01*
X35030122Y10447334D01*
X35115338Y10536825D01*
X35164695Y10581120D01*
X35169877Y10583333D01*
X35215000Y10557283D01*
X35215000Y10557283D01*
G37*
X35215000Y10557283D02*
X35289307Y10494461D01*
X35291007Y10492867D01*
X35387304Y10402401D01*
X35191123Y10172768D01*
X34994942Y9943136D01*
X35351660Y9588500D01*
X35567897Y9814137D01*
X35784134Y10039775D01*
X35999728Y9824181D01*
X35744304Y9568757D01*
X35590187Y9423322D01*
X35468185Y9340015D01*
X35359584Y9319097D01*
X35245673Y9360832D01*
X35107738Y9465480D01*
X34983595Y9579407D01*
X34826590Y9736770D01*
X34734945Y9861084D01*
X34707152Y9971239D01*
X34741706Y10086123D01*
X34837100Y10224627D01*
X34923897Y10328060D01*
X35030122Y10447334D01*
X35115338Y10536825D01*
X35164695Y10581120D01*
X35169877Y10583333D01*
X35215000Y10557283D01*
G36*
X28763798Y9970625D02*
G01*
X28830260Y9921611D01*
X28913424Y9842737D01*
X29007085Y9741859D01*
X29068672Y9657466D01*
X29083000Y9620913D01*
X29049334Y9558267D01*
X28975691Y9533774D01*
X28903102Y9560968D01*
X28902651Y9561416D01*
X28849157Y9579513D01*
X28773667Y9532228D01*
X28757393Y9517384D01*
X28694059Y9448316D01*
X28690633Y9399014D01*
X28723573Y9355218D01*
X28763747Y9294999D01*
X28740140Y9243681D01*
X28710421Y9215121D01*
X28664207Y9181480D01*
X28619321Y9182832D01*
X28556571Y9227942D01*
X28456767Y9325577D01*
X28447137Y9335379D01*
X28347173Y9440731D01*
X28299840Y9506325D01*
X28296708Y9551056D01*
X28329352Y9593822D01*
X28331101Y9595576D01*
X28395565Y9641680D01*
X28454721Y9621113D01*
X28469350Y9609514D01*
X28527762Y9578560D01*
X28586624Y9605277D01*
X28626741Y9642592D01*
X28685015Y9714173D01*
X28682122Y9768665D01*
X28659819Y9799983D01*
X28626549Y9862985D01*
X28659186Y9923147D01*
X28673644Y9938120D01*
X28718494Y9973382D01*
X28763798Y9970625D01*
X28763798Y9970625D01*
G37*
X28763798Y9970625D02*
X28830260Y9921611D01*
X28913424Y9842737D01*
X29007085Y9741859D01*
X29068672Y9657466D01*
X29083000Y9620913D01*
X29049334Y9558267D01*
X28975691Y9533774D01*
X28903102Y9560968D01*
X28902651Y9561416D01*
X28849157Y9579513D01*
X28773667Y9532228D01*
X28757393Y9517384D01*
X28694059Y9448316D01*
X28690633Y9399014D01*
X28723573Y9355218D01*
X28763747Y9294999D01*
X28740140Y9243681D01*
X28710421Y9215121D01*
X28664207Y9181480D01*
X28619321Y9182832D01*
X28556571Y9227942D01*
X28456767Y9325577D01*
X28447137Y9335379D01*
X28347173Y9440731D01*
X28299840Y9506325D01*
X28296708Y9551056D01*
X28329352Y9593822D01*
X28331101Y9595576D01*
X28395565Y9641680D01*
X28454721Y9621113D01*
X28469350Y9609514D01*
X28527762Y9578560D01*
X28586624Y9605277D01*
X28626741Y9642592D01*
X28685015Y9714173D01*
X28682122Y9768665D01*
X28659819Y9799983D01*
X28626549Y9862985D01*
X28659186Y9923147D01*
X28673644Y9938120D01*
X28718494Y9973382D01*
X28763798Y9970625D01*
G36*
X28283112Y9421709D02*
G01*
X28314319Y9403025D01*
X28349400Y9363258D01*
X28330072Y9301001D01*
X28314319Y9274095D01*
X28287440Y9206137D01*
X28308536Y9146481D01*
X28388329Y9079434D01*
X28490334Y9016498D01*
X28530329Y8980291D01*
X28507283Y8933417D01*
X28483223Y8907964D01*
X28432003Y8865915D01*
X28379959Y8865199D01*
X28296343Y8908503D01*
X28266259Y8926920D01*
X28119907Y9017371D01*
X28060339Y8927657D01*
X28011113Y8867643D01*
X27971365Y8876267D01*
X27945861Y8904105D01*
X27923149Y8950495D01*
X27934825Y9011659D01*
X27987697Y9106630D01*
X28053059Y9203694D01*
X28144454Y9333411D01*
X28203037Y9405185D01*
X28244144Y9430717D01*
X28283112Y9421709D01*
X28283112Y9421709D01*
G37*
X28283112Y9421709D02*
X28314319Y9403025D01*
X28349400Y9363258D01*
X28330072Y9301001D01*
X28314319Y9274095D01*
X28287440Y9206137D01*
X28308536Y9146481D01*
X28388329Y9079434D01*
X28490334Y9016498D01*
X28530329Y8980291D01*
X28507283Y8933417D01*
X28483223Y8907964D01*
X28432003Y8865915D01*
X28379959Y8865199D01*
X28296343Y8908503D01*
X28266259Y8926920D01*
X28119907Y9017371D01*
X28060339Y8927657D01*
X28011113Y8867643D01*
X27971365Y8876267D01*
X27945861Y8904105D01*
X27923149Y8950495D01*
X27934825Y9011659D01*
X27987697Y9106630D01*
X28053059Y9203694D01*
X28144454Y9333411D01*
X28203037Y9405185D01*
X28244144Y9430717D01*
X28283112Y9421709D01*
G36*
X36186933Y9486761D02*
G01*
X36298444Y9378915D01*
X36420365Y9211769D01*
X36541534Y9000272D01*
X36593594Y8878251D01*
X36598979Y8789393D01*
X36580903Y8735688D01*
X36514961Y8651521D01*
X36435583Y8649801D01*
X36349103Y8730650D01*
X36348672Y8731250D01*
X36303059Y8792798D01*
X36298400Y8786186D01*
X36330022Y8708142D01*
X36356511Y8618432D01*
X36332906Y8550893D01*
X36276763Y8490240D01*
X36136046Y8388014D01*
X36006934Y8360279D01*
X35936086Y8382564D01*
X35873706Y8442577D01*
X35787132Y8554810D01*
X35691192Y8696348D01*
X35600717Y8844275D01*
X35530537Y8975677D01*
X35517252Y9009458D01*
X35797931Y9009458D01*
X35833734Y8919597D01*
X35890972Y8816082D01*
X35954771Y8723873D01*
X36010257Y8667931D01*
X36035337Y8663143D01*
X36035106Y8708078D01*
X35998933Y8802205D01*
X35953035Y8891539D01*
X35879636Y9005106D01*
X35822270Y9061130D01*
X35798437Y9060703D01*
X35797931Y9009458D01*
X35517252Y9009458D01*
X35496907Y9061185D01*
X35500447Y9164747D01*
X35500691Y9165166D01*
X35771667Y9165166D01*
X35792834Y9144000D01*
X35814000Y9165166D01*
X35792834Y9186333D01*
X35771667Y9165166D01*
X35500691Y9165166D01*
X35531337Y9217663D01*
X36072829Y9217663D01*
X36079743Y9174473D01*
X36125122Y9083036D01*
X36163250Y9015130D01*
X36238221Y8900226D01*
X36292754Y8849544D01*
X36320096Y8868384D01*
X36322000Y8890594D01*
X36300335Y8953097D01*
X36247890Y9046369D01*
X36183492Y9141817D01*
X36125968Y9210848D01*
X36099750Y9228142D01*
X36072829Y9217663D01*
X35531337Y9217663D01*
X35549499Y9248774D01*
X35623496Y9292698D01*
X35701872Y9275951D01*
X35707373Y9271659D01*
X35758014Y9240978D01*
X35771596Y9277016D01*
X35771667Y9283910D01*
X35807341Y9362650D01*
X35894767Y9443609D01*
X36004552Y9504844D01*
X36094610Y9525000D01*
X36186933Y9486761D01*
X36186933Y9486761D01*
G37*
X36186933Y9486761D02*
X36298444Y9378915D01*
X36420365Y9211769D01*
X36541534Y9000272D01*
X36593594Y8878251D01*
X36598979Y8789393D01*
X36580903Y8735688D01*
X36514961Y8651521D01*
X36435583Y8649801D01*
X36349103Y8730650D01*
X36348672Y8731250D01*
X36303059Y8792798D01*
X36298400Y8786186D01*
X36330022Y8708142D01*
X36356511Y8618432D01*
X36332906Y8550893D01*
X36276763Y8490240D01*
X36136046Y8388014D01*
X36006934Y8360279D01*
X35936086Y8382564D01*
X35873706Y8442577D01*
X35787132Y8554810D01*
X35691192Y8696348D01*
X35600717Y8844275D01*
X35530537Y8975677D01*
X35517252Y9009458D01*
X35797931Y9009458D01*
X35833734Y8919597D01*
X35890972Y8816082D01*
X35954771Y8723873D01*
X36010257Y8667931D01*
X36035337Y8663143D01*
X36035106Y8708078D01*
X35998933Y8802205D01*
X35953035Y8891539D01*
X35879636Y9005106D01*
X35822270Y9061130D01*
X35798437Y9060703D01*
X35797931Y9009458D01*
X35517252Y9009458D01*
X35496907Y9061185D01*
X35500447Y9164747D01*
X35500691Y9165166D01*
X35771667Y9165166D01*
X35792834Y9144000D01*
X35814000Y9165166D01*
X35792834Y9186333D01*
X35771667Y9165166D01*
X35500691Y9165166D01*
X35531337Y9217663D01*
X36072829Y9217663D01*
X36079743Y9174473D01*
X36125122Y9083036D01*
X36163250Y9015130D01*
X36238221Y8900226D01*
X36292754Y8849544D01*
X36320096Y8868384D01*
X36322000Y8890594D01*
X36300335Y8953097D01*
X36247890Y9046369D01*
X36183492Y9141817D01*
X36125968Y9210848D01*
X36099750Y9228142D01*
X36072829Y9217663D01*
X35531337Y9217663D01*
X35549499Y9248774D01*
X35623496Y9292698D01*
X35701872Y9275951D01*
X35707373Y9271659D01*
X35758014Y9240978D01*
X35771596Y9277016D01*
X35771667Y9283910D01*
X35807341Y9362650D01*
X35894767Y9443609D01*
X36004552Y9504844D01*
X36094610Y9525000D01*
X36186933Y9486761D01*
G36*
X36575117Y8056740D02*
G01*
X36601882Y7999743D01*
X36640154Y7887723D01*
X36672143Y7778750D01*
X36707566Y7643727D01*
X36718490Y7570893D01*
X36704045Y7541135D01*
X36663357Y7535337D01*
X36661031Y7535333D01*
X36584633Y7560445D01*
X36561703Y7588250D01*
X36543067Y7603099D01*
X36537009Y7567083D01*
X36511141Y7502914D01*
X36457612Y7500699D01*
X36399386Y7554534D01*
X36372405Y7609416D01*
X36345306Y7681159D01*
X36335119Y7681183D01*
X36335990Y7603714D01*
X36337127Y7574634D01*
X36343167Y7423434D01*
X36526073Y7462283D01*
X36648277Y7485949D01*
X36711378Y7484078D01*
X36739016Y7449081D01*
X36751892Y7389804D01*
X36741944Y7327268D01*
X36671729Y7289310D01*
X36626769Y7278294D01*
X36509823Y7247375D01*
X36458651Y7203282D01*
X36455279Y7120385D01*
X36467003Y7050474D01*
X36491955Y6953503D01*
X36536738Y6910922D01*
X36630294Y6900513D01*
X36662585Y6900333D01*
X36830000Y6900333D01*
X36837056Y6688666D01*
X36841905Y6549450D01*
X36846176Y6437259D01*
X36847639Y6403496D01*
X36815778Y6334511D01*
X36777084Y6315726D01*
X36731339Y6320958D01*
X36707064Y6371683D01*
X36696366Y6486295D01*
X36695604Y6505646D01*
X36688208Y6709833D01*
X36672003Y6529916D01*
X36647172Y6401558D01*
X36603865Y6350665D01*
X36597167Y6350000D01*
X36551559Y6390658D01*
X36523296Y6508510D01*
X36520960Y6529916D01*
X36511038Y6625286D01*
X36506539Y6643254D01*
X36506338Y6581083D01*
X36507943Y6498166D01*
X36513646Y6372388D01*
X36534225Y6307180D01*
X36585481Y6278451D01*
X36660667Y6265333D01*
X36747282Y6248683D01*
X36792767Y6215203D01*
X36812708Y6141437D01*
X36821585Y6023185D01*
X36820384Y5878784D01*
X36803069Y5758114D01*
X36788346Y5716268D01*
X36723246Y5648434D01*
X36647170Y5631112D01*
X36589577Y5664481D01*
X36576000Y5715000D01*
X36593728Y5783790D01*
X36618334Y5799666D01*
X36646095Y5836933D01*
X36660217Y5928791D01*
X36660667Y5950777D01*
X36653846Y6050886D01*
X36623212Y6088800D01*
X36565417Y6088361D01*
X36510112Y6072349D01*
X36483747Y6030006D01*
X36478430Y5939017D01*
X36482017Y5852583D01*
X36476985Y5704001D01*
X36443719Y5630645D01*
X36384625Y5634908D01*
X36322266Y5693513D01*
X36292928Y5779042D01*
X36289422Y5909578D01*
X36307535Y6053854D01*
X36343056Y6180605D01*
X36391770Y6258565D01*
X36399076Y6263617D01*
X36446638Y6296375D01*
X36419914Y6305830D01*
X36401633Y6306379D01*
X36369446Y6319861D01*
X36346629Y6368278D01*
X36330244Y6465720D01*
X36317357Y6626277D01*
X36310951Y6741583D01*
X36280328Y7064918D01*
X36225039Y7392945D01*
X36184390Y7565820D01*
X36147248Y7704666D01*
X36491334Y7704666D01*
X36506823Y7669821D01*
X36519556Y7676444D01*
X36524622Y7726684D01*
X36519556Y7732889D01*
X36494389Y7727078D01*
X36491334Y7704666D01*
X36147248Y7704666D01*
X36124599Y7789333D01*
X36279667Y7789333D01*
X36295156Y7754488D01*
X36307889Y7761111D01*
X36312956Y7811351D01*
X36307889Y7817555D01*
X36282722Y7811744D01*
X36279667Y7789333D01*
X36124599Y7789333D01*
X36113275Y7831666D01*
X36449000Y7831666D01*
X36464489Y7796821D01*
X36477222Y7803444D01*
X36482289Y7853684D01*
X36477222Y7859889D01*
X36452055Y7854078D01*
X36449000Y7831666D01*
X36113275Y7831666D01*
X36079976Y7956140D01*
X36312465Y8023726D01*
X36443486Y8054832D01*
X36540480Y8064979D01*
X36575117Y8056740D01*
X36575117Y8056740D01*
G37*
X36575117Y8056740D02*
X36601882Y7999743D01*
X36640154Y7887723D01*
X36672143Y7778750D01*
X36707566Y7643727D01*
X36718490Y7570893D01*
X36704045Y7541135D01*
X36663357Y7535337D01*
X36661031Y7535333D01*
X36584633Y7560445D01*
X36561703Y7588250D01*
X36543067Y7603099D01*
X36537009Y7567083D01*
X36511141Y7502914D01*
X36457612Y7500699D01*
X36399386Y7554534D01*
X36372405Y7609416D01*
X36345306Y7681159D01*
X36335119Y7681183D01*
X36335990Y7603714D01*
X36337127Y7574634D01*
X36343167Y7423434D01*
X36526073Y7462283D01*
X36648277Y7485949D01*
X36711378Y7484078D01*
X36739016Y7449081D01*
X36751892Y7389804D01*
X36741944Y7327268D01*
X36671729Y7289310D01*
X36626769Y7278294D01*
X36509823Y7247375D01*
X36458651Y7203282D01*
X36455279Y7120385D01*
X36467003Y7050474D01*
X36491955Y6953503D01*
X36536738Y6910922D01*
X36630294Y6900513D01*
X36662585Y6900333D01*
X36830000Y6900333D01*
X36837056Y6688666D01*
X36841905Y6549450D01*
X36846176Y6437259D01*
X36847639Y6403496D01*
X36815778Y6334511D01*
X36777084Y6315726D01*
X36731339Y6320958D01*
X36707064Y6371683D01*
X36696366Y6486295D01*
X36695604Y6505646D01*
X36688208Y6709833D01*
X36672003Y6529916D01*
X36647172Y6401558D01*
X36603865Y6350665D01*
X36597167Y6350000D01*
X36551559Y6390658D01*
X36523296Y6508510D01*
X36520960Y6529916D01*
X36511038Y6625286D01*
X36506539Y6643254D01*
X36506338Y6581083D01*
X36507943Y6498166D01*
X36513646Y6372388D01*
X36534225Y6307180D01*
X36585481Y6278451D01*
X36660667Y6265333D01*
X36747282Y6248683D01*
X36792767Y6215203D01*
X36812708Y6141437D01*
X36821585Y6023185D01*
X36820384Y5878784D01*
X36803069Y5758114D01*
X36788346Y5716268D01*
X36723246Y5648434D01*
X36647170Y5631112D01*
X36589577Y5664481D01*
X36576000Y5715000D01*
X36593728Y5783790D01*
X36618334Y5799666D01*
X36646095Y5836933D01*
X36660217Y5928791D01*
X36660667Y5950777D01*
X36653846Y6050886D01*
X36623212Y6088800D01*
X36565417Y6088361D01*
X36510112Y6072349D01*
X36483747Y6030006D01*
X36478430Y5939017D01*
X36482017Y5852583D01*
X36476985Y5704001D01*
X36443719Y5630645D01*
X36384625Y5634908D01*
X36322266Y5693513D01*
X36292928Y5779042D01*
X36289422Y5909578D01*
X36307535Y6053854D01*
X36343056Y6180605D01*
X36391770Y6258565D01*
X36399076Y6263617D01*
X36446638Y6296375D01*
X36419914Y6305830D01*
X36401633Y6306379D01*
X36369446Y6319861D01*
X36346629Y6368278D01*
X36330244Y6465720D01*
X36317357Y6626277D01*
X36310951Y6741583D01*
X36280328Y7064918D01*
X36225039Y7392945D01*
X36184390Y7565820D01*
X36147248Y7704666D01*
X36491334Y7704666D01*
X36506823Y7669821D01*
X36519556Y7676444D01*
X36524622Y7726684D01*
X36519556Y7732889D01*
X36494389Y7727078D01*
X36491334Y7704666D01*
X36147248Y7704666D01*
X36124599Y7789333D01*
X36279667Y7789333D01*
X36295156Y7754488D01*
X36307889Y7761111D01*
X36312956Y7811351D01*
X36307889Y7817555D01*
X36282722Y7811744D01*
X36279667Y7789333D01*
X36124599Y7789333D01*
X36113275Y7831666D01*
X36449000Y7831666D01*
X36464489Y7796821D01*
X36477222Y7803444D01*
X36482289Y7853684D01*
X36477222Y7859889D01*
X36452055Y7854078D01*
X36449000Y7831666D01*
X36113275Y7831666D01*
X36079976Y7956140D01*
X36312465Y8023726D01*
X36443486Y8054832D01*
X36540480Y8064979D01*
X36575117Y8056740D01*
G36*
X36743156Y5541014D02*
G01*
X36731664Y5439816D01*
X36730633Y5433528D01*
X36696784Y5260747D01*
X36657822Y5110818D01*
X36619659Y5003063D01*
X36588210Y4956802D01*
X36584594Y4956342D01*
X36520809Y4974016D01*
X36508070Y4978985D01*
X36479270Y5029904D01*
X36480716Y5099828D01*
X36482242Y5167886D01*
X36440241Y5210109D01*
X36334988Y5245832D01*
X36330498Y5247045D01*
X36222345Y5283999D01*
X36180277Y5326108D01*
X36182872Y5376861D01*
X36210494Y5437299D01*
X36264694Y5457484D01*
X36366678Y5441219D01*
X36436232Y5422328D01*
X36529430Y5402384D01*
X36570527Y5422457D01*
X36584119Y5474813D01*
X36627248Y5554324D01*
X36677345Y5581262D01*
X36727525Y5581301D01*
X36743156Y5541014D01*
X36743156Y5541014D01*
G37*
X36743156Y5541014D02*
X36731664Y5439816D01*
X36730633Y5433528D01*
X36696784Y5260747D01*
X36657822Y5110818D01*
X36619659Y5003063D01*
X36588210Y4956802D01*
X36584594Y4956342D01*
X36520809Y4974016D01*
X36508070Y4978985D01*
X36479270Y5029904D01*
X36480716Y5099828D01*
X36482242Y5167886D01*
X36440241Y5210109D01*
X36334988Y5245832D01*
X36330498Y5247045D01*
X36222345Y5283999D01*
X36180277Y5326108D01*
X36182872Y5376861D01*
X36210494Y5437299D01*
X36264694Y5457484D01*
X36366678Y5441219D01*
X36436232Y5422328D01*
X36529430Y5402384D01*
X36570527Y5422457D01*
X36584119Y5474813D01*
X36627248Y5554324D01*
X36677345Y5581262D01*
X36727525Y5581301D01*
X36743156Y5541014D01*
G36*
X36264394Y5032871D02*
G01*
X36387413Y4995536D01*
X36494964Y4947213D01*
X36556892Y4897335D01*
X36560296Y4890531D01*
X36556330Y4820140D01*
X36520621Y4708865D01*
X36465223Y4582067D01*
X36402188Y4465109D01*
X36343569Y4383354D01*
X36308333Y4360333D01*
X36231550Y4375900D01*
X36119152Y4414347D01*
X36094337Y4424401D01*
X35984372Y4464776D01*
X35945881Y4467073D01*
X35977438Y4436282D01*
X36077622Y4377388D01*
X36113009Y4358968D01*
X36234404Y4279536D01*
X36272218Y4207510D01*
X36271273Y4199844D01*
X36229500Y4132519D01*
X36140153Y4128994D01*
X35999895Y4189455D01*
X35951584Y4217549D01*
X35832737Y4295967D01*
X35781380Y4353620D01*
X35788874Y4406794D01*
X35826952Y4452559D01*
X35891386Y4542624D01*
X35910290Y4582583D01*
X35947591Y4625296D01*
X36238682Y4625296D01*
X36251134Y4590608D01*
X36295090Y4623962D01*
X36302180Y4633008D01*
X36350450Y4709559D01*
X36364334Y4749424D01*
X36341754Y4783669D01*
X36295720Y4764940D01*
X36263029Y4716704D01*
X36238682Y4625296D01*
X35947591Y4625296D01*
X35965016Y4645249D01*
X36004536Y4656666D01*
X36071956Y4692528D01*
X36112034Y4777079D01*
X36112902Y4875765D01*
X36094884Y4919674D01*
X36072333Y5002267D01*
X36092579Y5036845D01*
X36156065Y5049785D01*
X36264394Y5032871D01*
X36264394Y5032871D01*
G37*
X36264394Y5032871D02*
X36387413Y4995536D01*
X36494964Y4947213D01*
X36556892Y4897335D01*
X36560296Y4890531D01*
X36556330Y4820140D01*
X36520621Y4708865D01*
X36465223Y4582067D01*
X36402188Y4465109D01*
X36343569Y4383354D01*
X36308333Y4360333D01*
X36231550Y4375900D01*
X36119152Y4414347D01*
X36094337Y4424401D01*
X35984372Y4464776D01*
X35945881Y4467073D01*
X35977438Y4436282D01*
X36077622Y4377388D01*
X36113009Y4358968D01*
X36234404Y4279536D01*
X36272218Y4207510D01*
X36271273Y4199844D01*
X36229500Y4132519D01*
X36140153Y4128994D01*
X35999895Y4189455D01*
X35951584Y4217549D01*
X35832737Y4295967D01*
X35781380Y4353620D01*
X35788874Y4406794D01*
X35826952Y4452559D01*
X35891386Y4542624D01*
X35910290Y4582583D01*
X35947591Y4625296D01*
X36238682Y4625296D01*
X36251134Y4590608D01*
X36295090Y4623962D01*
X36302180Y4633008D01*
X36350450Y4709559D01*
X36364334Y4749424D01*
X36341754Y4783669D01*
X36295720Y4764940D01*
X36263029Y4716704D01*
X36238682Y4625296D01*
X35947591Y4625296D01*
X35965016Y4645249D01*
X36004536Y4656666D01*
X36071956Y4692528D01*
X36112034Y4777079D01*
X36112902Y4875765D01*
X36094884Y4919674D01*
X36072333Y5002267D01*
X36092579Y5036845D01*
X36156065Y5049785D01*
X36264394Y5032871D01*
G36*
X35897183Y4208907D02*
G01*
X36022419Y4123737D01*
X36104736Y4047379D01*
X36149783Y3991802D01*
X36152667Y3982828D01*
X36130993Y3932908D01*
X36075119Y3837181D01*
X36021677Y3753758D01*
X35909946Y3620391D01*
X35800778Y3554172D01*
X35704974Y3560366D01*
X35673269Y3583842D01*
X35684464Y3626377D01*
X35743918Y3703948D01*
X35793213Y3755213D01*
X35891904Y3856257D01*
X35932015Y3920159D01*
X35918489Y3965753D01*
X35859955Y4009580D01*
X35794630Y4034878D01*
X35742362Y4000306D01*
X35710029Y3955068D01*
X35666692Y3870823D01*
X35660320Y3818921D01*
X35653763Y3764399D01*
X35624441Y3712612D01*
X35575881Y3661560D01*
X35529390Y3678765D01*
X35501195Y3705519D01*
X35453851Y3759212D01*
X35440358Y3809253D01*
X35464913Y3877703D01*
X35531713Y3986620D01*
X35563990Y4035575D01*
X35675169Y4172665D01*
X35781775Y4229585D01*
X35897183Y4208907D01*
X35897183Y4208907D01*
G37*
X35897183Y4208907D02*
X36022419Y4123737D01*
X36104736Y4047379D01*
X36149783Y3991802D01*
X36152667Y3982828D01*
X36130993Y3932908D01*
X36075119Y3837181D01*
X36021677Y3753758D01*
X35909946Y3620391D01*
X35800778Y3554172D01*
X35704974Y3560366D01*
X35673269Y3583842D01*
X35684464Y3626377D01*
X35743918Y3703948D01*
X35793213Y3755213D01*
X35891904Y3856257D01*
X35932015Y3920159D01*
X35918489Y3965753D01*
X35859955Y4009580D01*
X35794630Y4034878D01*
X35742362Y4000306D01*
X35710029Y3955068D01*
X35666692Y3870823D01*
X35660320Y3818921D01*
X35653763Y3764399D01*
X35624441Y3712612D01*
X35575881Y3661560D01*
X35529390Y3678765D01*
X35501195Y3705519D01*
X35453851Y3759212D01*
X35440358Y3809253D01*
X35464913Y3877703D01*
X35531713Y3986620D01*
X35563990Y4035575D01*
X35675169Y4172665D01*
X35781775Y4229585D01*
X35897183Y4208907D01*
G36*
X35371783Y3524555D02*
G01*
X35468134Y3448443D01*
X35553310Y3354300D01*
X35599915Y3268964D01*
X35602334Y3251438D01*
X35574475Y3199110D01*
X35502824Y3111458D01*
X35437981Y3043019D01*
X35303447Y2932511D01*
X35186159Y2881701D01*
X35098623Y2894695D01*
X35072021Y2922854D01*
X35071751Y2977841D01*
X35105227Y3039948D01*
X35149507Y3075223D01*
X35171309Y3069802D01*
X35213833Y3079632D01*
X35286361Y3134167D01*
X35291748Y3139162D01*
X35355437Y3215680D01*
X35352841Y3273440D01*
X35342621Y3287716D01*
X35274446Y3337371D01*
X35243878Y3344333D01*
X35183644Y3319014D01*
X35118355Y3261727D01*
X35074825Y3200476D01*
X35074097Y3167014D01*
X35070196Y3127255D01*
X35019590Y3084798D01*
X34956293Y3062507D01*
X34926855Y3068020D01*
X34883349Y3137162D01*
X34906057Y3238678D01*
X34990309Y3358638D01*
X35041417Y3409789D01*
X35151315Y3494881D01*
X35252510Y3547518D01*
X35291654Y3555798D01*
X35371783Y3524555D01*
X35371783Y3524555D01*
G37*
X35371783Y3524555D02*
X35468134Y3448443D01*
X35553310Y3354300D01*
X35599915Y3268964D01*
X35602334Y3251438D01*
X35574475Y3199110D01*
X35502824Y3111458D01*
X35437981Y3043019D01*
X35303447Y2932511D01*
X35186159Y2881701D01*
X35098623Y2894695D01*
X35072021Y2922854D01*
X35071751Y2977841D01*
X35105227Y3039948D01*
X35149507Y3075223D01*
X35171309Y3069802D01*
X35213833Y3079632D01*
X35286361Y3134167D01*
X35291748Y3139162D01*
X35355437Y3215680D01*
X35352841Y3273440D01*
X35342621Y3287716D01*
X35274446Y3337371D01*
X35243878Y3344333D01*
X35183644Y3319014D01*
X35118355Y3261727D01*
X35074825Y3200476D01*
X35074097Y3167014D01*
X35070196Y3127255D01*
X35019590Y3084798D01*
X34956293Y3062507D01*
X34926855Y3068020D01*
X34883349Y3137162D01*
X34906057Y3238678D01*
X34990309Y3358638D01*
X35041417Y3409789D01*
X35151315Y3494881D01*
X35252510Y3547518D01*
X35291654Y3555798D01*
X35371783Y3524555D01*
G36*
X34140104Y11188143D02*
G01*
X34318850Y11116393D01*
X34552384Y10994187D01*
X34572010Y10983245D01*
X34713352Y10900108D01*
X34794516Y10837415D01*
X34831507Y10778676D01*
X34840333Y10707404D01*
X34840334Y10706854D01*
X34821106Y10596983D01*
X34771922Y10454166D01*
X34732975Y10368657D01*
X34621912Y10196045D01*
X34505675Y10104082D01*
X34386843Y10094456D01*
X34342134Y10112422D01*
X34260763Y10135961D01*
X34215433Y10106194D01*
X34164532Y10037823D01*
X34074663Y9912867D01*
X33951621Y9739646D01*
X33801196Y9526476D01*
X33629183Y9281677D01*
X33441372Y9013568D01*
X33243558Y8730467D01*
X33041531Y8440691D01*
X32841085Y8152561D01*
X32648013Y7874394D01*
X32468106Y7614509D01*
X32307157Y7381225D01*
X32170958Y7182860D01*
X32065303Y7027732D01*
X31995983Y6924160D01*
X31968791Y6880463D01*
X31968653Y6879613D01*
X32011513Y6886927D01*
X32124620Y6914747D01*
X32296874Y6960105D01*
X32517174Y7020035D01*
X32774420Y7091568D01*
X32998604Y7154941D01*
X33277262Y7233637D01*
X33527726Y7303181D01*
X33738914Y7360594D01*
X33899748Y7402897D01*
X33999148Y7427110D01*
X34026984Y7431460D01*
X34007673Y7394213D01*
X33947089Y7292932D01*
X33849791Y7134774D01*
X33720339Y6926894D01*
X33563293Y6676446D01*
X33383212Y6390587D01*
X33184656Y6076471D01*
X32972185Y5741253D01*
X32750359Y5392089D01*
X32523738Y5036135D01*
X32296880Y4680545D01*
X32074347Y4332475D01*
X31860697Y3999079D01*
X31660490Y3687514D01*
X31478287Y3404934D01*
X31318647Y3158495D01*
X31186129Y2955352D01*
X31085293Y2802660D01*
X31020700Y2707575D01*
X30997258Y2677141D01*
X30940453Y2690610D01*
X30882177Y2725258D01*
X30863196Y2742914D01*
X30852257Y2768401D01*
X30851953Y2809059D01*
X30864880Y2872227D01*
X30893629Y2965245D01*
X30940797Y3095451D01*
X31008976Y3270185D01*
X31100761Y3496787D01*
X31218746Y3782595D01*
X31365524Y4134950D01*
X31462173Y4366245D01*
X31605334Y4709534D01*
X31737324Y5027706D01*
X31854758Y5312476D01*
X31954252Y5555562D01*
X32032422Y5748679D01*
X32085884Y5883546D01*
X32111253Y5951879D01*
X32112799Y5958708D01*
X32073354Y5944361D01*
X31968946Y5898110D01*
X31810732Y5825126D01*
X31609867Y5730579D01*
X31377507Y5619640D01*
X31280514Y5572930D01*
X31038948Y5458223D01*
X30824177Y5359875D01*
X30647370Y5282702D01*
X30519696Y5231518D01*
X30452322Y5211139D01*
X30444774Y5212649D01*
X30452575Y5259076D01*
X30479930Y5380233D01*
X30525047Y5568916D01*
X30586131Y5817924D01*
X30661387Y6120055D01*
X30749024Y6468108D01*
X30847245Y6854879D01*
X30954257Y7273168D01*
X31068267Y7715772D01*
X31069191Y7719349D01*
X31183448Y8161854D01*
X31291153Y8579825D01*
X31390474Y8966091D01*
X31479576Y9313485D01*
X31556628Y9614836D01*
X31619796Y9862976D01*
X31667247Y10050736D01*
X31697148Y10170946D01*
X31707666Y10216437D01*
X31707667Y10216491D01*
X31748190Y10223921D01*
X31862522Y10231381D01*
X32039806Y10238514D01*
X32269185Y10244962D01*
X32539801Y10250365D01*
X32840798Y10254366D01*
X32861250Y10254569D01*
X34014834Y10265833D01*
X33824334Y10372198D01*
X33687382Y10472874D01*
X33621984Y10589233D01*
X33623293Y10635068D01*
X33927110Y10635068D01*
X33931180Y10624027D01*
X33990512Y10572384D01*
X34096347Y10509632D01*
X34215346Y10452843D01*
X34314171Y10419084D01*
X34337733Y10415871D01*
X34423628Y10444070D01*
X34448969Y10466916D01*
X34495700Y10549808D01*
X34519915Y10613224D01*
X34526046Y10672510D01*
X34491647Y10722582D01*
X34401382Y10780205D01*
X34336003Y10814307D01*
X34211822Y10873635D01*
X34116331Y10912749D01*
X34080828Y10922000D01*
X34031871Y10886839D01*
X33978397Y10804327D01*
X33937709Y10708918D01*
X33927110Y10635068D01*
X33623293Y10635068D01*
X33626098Y10733243D01*
X33697681Y10916868D01*
X33723107Y10965290D01*
X33807648Y11098009D01*
X33896998Y11179215D01*
X34003652Y11209171D01*
X34140104Y11188143D01*
X34140104Y11188143D01*
G37*
X34140104Y11188143D02*
X34318850Y11116393D01*
X34552384Y10994187D01*
X34572010Y10983245D01*
X34713352Y10900108D01*
X34794516Y10837415D01*
X34831507Y10778676D01*
X34840333Y10707404D01*
X34840334Y10706854D01*
X34821106Y10596983D01*
X34771922Y10454166D01*
X34732975Y10368657D01*
X34621912Y10196045D01*
X34505675Y10104082D01*
X34386843Y10094456D01*
X34342134Y10112422D01*
X34260763Y10135961D01*
X34215433Y10106194D01*
X34164532Y10037823D01*
X34074663Y9912867D01*
X33951621Y9739646D01*
X33801196Y9526476D01*
X33629183Y9281677D01*
X33441372Y9013568D01*
X33243558Y8730467D01*
X33041531Y8440691D01*
X32841085Y8152561D01*
X32648013Y7874394D01*
X32468106Y7614509D01*
X32307157Y7381225D01*
X32170958Y7182860D01*
X32065303Y7027732D01*
X31995983Y6924160D01*
X31968791Y6880463D01*
X31968653Y6879613D01*
X32011513Y6886927D01*
X32124620Y6914747D01*
X32296874Y6960105D01*
X32517174Y7020035D01*
X32774420Y7091568D01*
X32998604Y7154941D01*
X33277262Y7233637D01*
X33527726Y7303181D01*
X33738914Y7360594D01*
X33899748Y7402897D01*
X33999148Y7427110D01*
X34026984Y7431460D01*
X34007673Y7394213D01*
X33947089Y7292932D01*
X33849791Y7134774D01*
X33720339Y6926894D01*
X33563293Y6676446D01*
X33383212Y6390587D01*
X33184656Y6076471D01*
X32972185Y5741253D01*
X32750359Y5392089D01*
X32523738Y5036135D01*
X32296880Y4680545D01*
X32074347Y4332475D01*
X31860697Y3999079D01*
X31660490Y3687514D01*
X31478287Y3404934D01*
X31318647Y3158495D01*
X31186129Y2955352D01*
X31085293Y2802660D01*
X31020700Y2707575D01*
X30997258Y2677141D01*
X30940453Y2690610D01*
X30882177Y2725258D01*
X30863196Y2742914D01*
X30852257Y2768401D01*
X30851953Y2809059D01*
X30864880Y2872227D01*
X30893629Y2965245D01*
X30940797Y3095451D01*
X31008976Y3270185D01*
X31100761Y3496787D01*
X31218746Y3782595D01*
X31365524Y4134950D01*
X31462173Y4366245D01*
X31605334Y4709534D01*
X31737324Y5027706D01*
X31854758Y5312476D01*
X31954252Y5555562D01*
X32032422Y5748679D01*
X32085884Y5883546D01*
X32111253Y5951879D01*
X32112799Y5958708D01*
X32073354Y5944361D01*
X31968946Y5898110D01*
X31810732Y5825126D01*
X31609867Y5730579D01*
X31377507Y5619640D01*
X31280514Y5572930D01*
X31038948Y5458223D01*
X30824177Y5359875D01*
X30647370Y5282702D01*
X30519696Y5231518D01*
X30452322Y5211139D01*
X30444774Y5212649D01*
X30452575Y5259076D01*
X30479930Y5380233D01*
X30525047Y5568916D01*
X30586131Y5817924D01*
X30661387Y6120055D01*
X30749024Y6468108D01*
X30847245Y6854879D01*
X30954257Y7273168D01*
X31068267Y7715772D01*
X31069191Y7719349D01*
X31183448Y8161854D01*
X31291153Y8579825D01*
X31390474Y8966091D01*
X31479576Y9313485D01*
X31556628Y9614836D01*
X31619796Y9862976D01*
X31667247Y10050736D01*
X31697148Y10170946D01*
X31707666Y10216437D01*
X31707667Y10216491D01*
X31748190Y10223921D01*
X31862522Y10231381D01*
X32039806Y10238514D01*
X32269185Y10244962D01*
X32539801Y10250365D01*
X32840798Y10254366D01*
X32861250Y10254569D01*
X34014834Y10265833D01*
X33824334Y10372198D01*
X33687382Y10472874D01*
X33621984Y10589233D01*
X33623293Y10635068D01*
X33927110Y10635068D01*
X33931180Y10624027D01*
X33990512Y10572384D01*
X34096347Y10509632D01*
X34215346Y10452843D01*
X34314171Y10419084D01*
X34337733Y10415871D01*
X34423628Y10444070D01*
X34448969Y10466916D01*
X34495700Y10549808D01*
X34519915Y10613224D01*
X34526046Y10672510D01*
X34491647Y10722582D01*
X34401382Y10780205D01*
X34336003Y10814307D01*
X34211822Y10873635D01*
X34116331Y10912749D01*
X34080828Y10922000D01*
X34031871Y10886839D01*
X33978397Y10804327D01*
X33937709Y10708918D01*
X33927110Y10635068D01*
X33623293Y10635068D01*
X33626098Y10733243D01*
X33697681Y10916868D01*
X33723107Y10965290D01*
X33807648Y11098009D01*
X33896998Y11179215D01*
X34003652Y11209171D01*
X34140104Y11188143D01*
G36*
X34879152Y3061935D02*
G01*
X34935244Y3000719D01*
X35018975Y2875338D01*
X35033219Y2769000D01*
X34974723Y2665059D01*
X34847626Y2552473D01*
X34697124Y2453028D01*
X34584314Y2418175D01*
X34495026Y2445583D01*
X34450168Y2487083D01*
X34379546Y2583870D01*
X34331602Y2665165D01*
X34313491Y2710124D01*
X34530909Y2710124D01*
X34547590Y2683841D01*
X34604821Y2633598D01*
X34666047Y2639237D01*
X34757876Y2703589D01*
X34761560Y2706602D01*
X34827016Y2768867D01*
X34829965Y2814166D01*
X34795008Y2856249D01*
X34743187Y2896726D01*
X34690866Y2888433D01*
X34613498Y2833488D01*
X34539553Y2763115D01*
X34530909Y2710124D01*
X34313491Y2710124D01*
X34306237Y2728128D01*
X34315466Y2781182D01*
X34370226Y2846238D01*
X34463745Y2929937D01*
X34611019Y3049182D01*
X34717789Y3109195D01*
X34801389Y3112579D01*
X34879152Y3061935D01*
X34879152Y3061935D01*
G37*
X34879152Y3061935D02*
X34935244Y3000719D01*
X35018975Y2875338D01*
X35033219Y2769000D01*
X34974723Y2665059D01*
X34847626Y2552473D01*
X34697124Y2453028D01*
X34584314Y2418175D01*
X34495026Y2445583D01*
X34450168Y2487083D01*
X34379546Y2583870D01*
X34331602Y2665165D01*
X34313491Y2710124D01*
X34530909Y2710124D01*
X34547590Y2683841D01*
X34604821Y2633598D01*
X34666047Y2639237D01*
X34757876Y2703589D01*
X34761560Y2706602D01*
X34827016Y2768867D01*
X34829965Y2814166D01*
X34795008Y2856249D01*
X34743187Y2896726D01*
X34690866Y2888433D01*
X34613498Y2833488D01*
X34539553Y2763115D01*
X34530909Y2710124D01*
X34313491Y2710124D01*
X34306237Y2728128D01*
X34315466Y2781182D01*
X34370226Y2846238D01*
X34463745Y2929937D01*
X34611019Y3049182D01*
X34717789Y3109195D01*
X34801389Y3112579D01*
X34879152Y3061935D01*
G36*
X34245892Y2693288D02*
G01*
X34303873Y2603569D01*
X34352439Y2508314D01*
X34455379Y2286129D01*
X34328895Y2220722D01*
X34237901Y2181415D01*
X34169665Y2187125D01*
X34080691Y2241992D01*
X34076873Y2244707D01*
X33951334Y2334098D01*
X33951334Y2189844D01*
X33935383Y2077717D01*
X33875056Y2012710D01*
X33843508Y1996462D01*
X33751992Y1959683D01*
X33692131Y1961701D01*
X33642939Y2014758D01*
X33583432Y2131094D01*
X33572376Y2154639D01*
X33523089Y2278472D01*
X33500579Y2374318D01*
X33504138Y2408639D01*
X33565565Y2454340D01*
X33635263Y2424041D01*
X33700231Y2323690D01*
X33702781Y2317750D01*
X33760834Y2180166D01*
X33782000Y2370288D01*
X33817166Y2512515D01*
X33881683Y2575474D01*
X33974785Y2558840D01*
X34066202Y2490915D01*
X34173517Y2391833D01*
X34141282Y2497666D01*
X34109018Y2599041D01*
X34089162Y2656416D01*
X34086135Y2696325D01*
X34131561Y2716672D01*
X34206249Y2726266D01*
X34245892Y2693288D01*
X34245892Y2693288D01*
G37*
X34245892Y2693288D02*
X34303873Y2603569D01*
X34352439Y2508314D01*
X34455379Y2286129D01*
X34328895Y2220722D01*
X34237901Y2181415D01*
X34169665Y2187125D01*
X34080691Y2241992D01*
X34076873Y2244707D01*
X33951334Y2334098D01*
X33951334Y2189844D01*
X33935383Y2077717D01*
X33875056Y2012710D01*
X33843508Y1996462D01*
X33751992Y1959683D01*
X33692131Y1961701D01*
X33642939Y2014758D01*
X33583432Y2131094D01*
X33572376Y2154639D01*
X33523089Y2278472D01*
X33500579Y2374318D01*
X33504138Y2408639D01*
X33565565Y2454340D01*
X33635263Y2424041D01*
X33700231Y2323690D01*
X33702781Y2317750D01*
X33760834Y2180166D01*
X33782000Y2370288D01*
X33817166Y2512515D01*
X33881683Y2575474D01*
X33974785Y2558840D01*
X34066202Y2490915D01*
X34173517Y2391833D01*
X34141282Y2497666D01*
X34109018Y2599041D01*
X34089162Y2656416D01*
X34086135Y2696325D01*
X34131561Y2716672D01*
X34206249Y2726266D01*
X34245892Y2693288D01*
G36*
X33412886Y2351138D02*
G01*
X33458980Y2281636D01*
X33506319Y2145788D01*
X33509567Y2134694D01*
X33544086Y2006486D01*
X33563083Y1916610D01*
X33563667Y1888328D01*
X33497632Y1861687D01*
X33381590Y1829735D01*
X33249175Y1800307D01*
X33134021Y1781236D01*
X33089979Y1778000D01*
X32996416Y1802231D01*
X32953558Y1880485D01*
X32942371Y1980142D01*
X33104667Y1980142D01*
X33138841Y1962975D01*
X33216881Y1966752D01*
X33302059Y1986467D01*
X33355052Y2014274D01*
X33358826Y2046007D01*
X33295313Y2054169D01*
X33221084Y2044493D01*
X33136692Y2015144D01*
X33104667Y1980142D01*
X32942371Y1980142D01*
X32937449Y2023981D01*
X32982041Y2116058D01*
X33095540Y2171725D01*
X33115700Y2177049D01*
X33231823Y2222111D01*
X33273537Y2284462D01*
X33274000Y2293466D01*
X33307334Y2358688D01*
X33357484Y2370666D01*
X33412886Y2351138D01*
X33412886Y2351138D01*
G37*
X33412886Y2351138D02*
X33458980Y2281636D01*
X33506319Y2145788D01*
X33509567Y2134694D01*
X33544086Y2006486D01*
X33563083Y1916610D01*
X33563667Y1888328D01*
X33497632Y1861687D01*
X33381590Y1829735D01*
X33249175Y1800307D01*
X33134021Y1781236D01*
X33089979Y1778000D01*
X32996416Y1802231D01*
X32953558Y1880485D01*
X32942371Y1980142D01*
X33104667Y1980142D01*
X33138841Y1962975D01*
X33216881Y1966752D01*
X33302059Y1986467D01*
X33355052Y2014274D01*
X33358826Y2046007D01*
X33295313Y2054169D01*
X33221084Y2044493D01*
X33136692Y2015144D01*
X33104667Y1980142D01*
X32942371Y1980142D01*
X32937449Y2023981D01*
X32982041Y2116058D01*
X33095540Y2171725D01*
X33115700Y2177049D01*
X33231823Y2222111D01*
X33273537Y2284462D01*
X33274000Y2293466D01*
X33307334Y2358688D01*
X33357484Y2370666D01*
X33412886Y2351138D01*
G36*
X31135757Y2259133D02*
G01*
X31187534Y2201532D01*
X31185561Y2151964D01*
X31193153Y2070283D01*
X31235844Y1951504D01*
X31270436Y1882635D01*
X31330402Y1771779D01*
X31350177Y1715696D01*
X31331782Y1695764D01*
X31290977Y1693333D01*
X31190276Y1722285D01*
X31142970Y1756077D01*
X31083154Y1830795D01*
X31063699Y1868403D01*
X31028265Y1891958D01*
X30947898Y1856558D01*
X30943503Y1853859D01*
X30815090Y1811362D01*
X30737176Y1816776D01*
X30681416Y1835155D01*
X30672362Y1860174D01*
X30716899Y1907359D01*
X30811259Y1983799D01*
X30910907Y2072790D01*
X30975002Y2149366D01*
X30988000Y2181225D01*
X31019211Y2254930D01*
X31100601Y2269249D01*
X31135757Y2259133D01*
X31135757Y2259133D01*
G37*
X31135757Y2259133D02*
X31187534Y2201532D01*
X31185561Y2151964D01*
X31193153Y2070283D01*
X31235844Y1951504D01*
X31270436Y1882635D01*
X31330402Y1771779D01*
X31350177Y1715696D01*
X31331782Y1695764D01*
X31290977Y1693333D01*
X31190276Y1722285D01*
X31142970Y1756077D01*
X31083154Y1830795D01*
X31063699Y1868403D01*
X31028265Y1891958D01*
X30947898Y1856558D01*
X30943503Y1853859D01*
X30815090Y1811362D01*
X30737176Y1816776D01*
X30681416Y1835155D01*
X30672362Y1860174D01*
X30716899Y1907359D01*
X30811259Y1983799D01*
X30910907Y2072790D01*
X30975002Y2149366D01*
X30988000Y2181225D01*
X31019211Y2254930D01*
X31100601Y2269249D01*
X31135757Y2259133D01*
G36*
X32875661Y2224976D02*
G01*
X32889719Y2190750D01*
X32874523Y2122699D01*
X32839266Y2006708D01*
X32812336Y1927227D01*
X32759893Y1798566D01*
X32705587Y1728934D01*
X32628717Y1694813D01*
X32602509Y1688862D01*
X32520157Y1678957D01*
X32459091Y1700505D01*
X32395166Y1768408D01*
X32333432Y1854922D01*
X32288204Y1915327D01*
X32528980Y1915327D01*
X32539573Y1882404D01*
X32565214Y1829411D01*
X32586365Y1854675D01*
X32598390Y1886928D01*
X32605840Y1958903D01*
X32588342Y1983493D01*
X32533085Y1979970D01*
X32528980Y1915327D01*
X32288204Y1915327D01*
X32259944Y1953068D01*
X32207453Y2006936D01*
X32190174Y2008621D01*
X32177152Y1943283D01*
X32157737Y1833585D01*
X32153715Y1809750D01*
X32128960Y1705436D01*
X32085481Y1660849D01*
X31998005Y1651304D01*
X31991499Y1651305D01*
X31898862Y1664311D01*
X31825502Y1715472D01*
X31744922Y1823750D01*
X31740087Y1831221D01*
X31624341Y2010833D01*
X31623671Y1830916D01*
X31616946Y1715898D01*
X31591003Y1663218D01*
X31538334Y1651000D01*
X31492513Y1659576D01*
X31466967Y1697777D01*
X31455939Y1784310D01*
X31453667Y1926166D01*
X31456480Y2075465D01*
X31468566Y2158717D01*
X31495396Y2194460D01*
X31534871Y2201333D01*
X31663380Y2180689D01*
X31768927Y2108077D01*
X31857932Y1995672D01*
X31961667Y1843012D01*
X31961667Y2170643D01*
X32316286Y2141870D01*
X32494158Y2129824D01*
X32605047Y2130001D01*
X32665970Y2144035D01*
X32693946Y2173564D01*
X32695957Y2178381D01*
X32744274Y2226283D01*
X32816430Y2242597D01*
X32875661Y2224976D01*
X32875661Y2224976D01*
G37*
X32875661Y2224976D02*
X32889719Y2190750D01*
X32874523Y2122699D01*
X32839266Y2006708D01*
X32812336Y1927227D01*
X32759893Y1798566D01*
X32705587Y1728934D01*
X32628717Y1694813D01*
X32602509Y1688862D01*
X32520157Y1678957D01*
X32459091Y1700505D01*
X32395166Y1768408D01*
X32333432Y1854922D01*
X32288204Y1915327D01*
X32528980Y1915327D01*
X32539573Y1882404D01*
X32565214Y1829411D01*
X32586365Y1854675D01*
X32598390Y1886928D01*
X32605840Y1958903D01*
X32588342Y1983493D01*
X32533085Y1979970D01*
X32528980Y1915327D01*
X32288204Y1915327D01*
X32259944Y1953068D01*
X32207453Y2006936D01*
X32190174Y2008621D01*
X32177152Y1943283D01*
X32157737Y1833585D01*
X32153715Y1809750D01*
X32128960Y1705436D01*
X32085481Y1660849D01*
X31998005Y1651304D01*
X31991499Y1651305D01*
X31898862Y1664311D01*
X31825502Y1715472D01*
X31744922Y1823750D01*
X31740087Y1831221D01*
X31624341Y2010833D01*
X31623671Y1830916D01*
X31616946Y1715898D01*
X31591003Y1663218D01*
X31538334Y1651000D01*
X31492513Y1659576D01*
X31466967Y1697777D01*
X31455939Y1784310D01*
X31453667Y1926166D01*
X31456480Y2075465D01*
X31468566Y2158717D01*
X31495396Y2194460D01*
X31534871Y2201333D01*
X31663380Y2180689D01*
X31768927Y2108077D01*
X31857932Y1995672D01*
X31961667Y1843012D01*
X31961667Y2170643D01*
X32316286Y2141870D01*
X32494158Y2129824D01*
X32605047Y2130001D01*
X32665970Y2144035D01*
X32693946Y2173564D01*
X32695957Y2178381D01*
X32744274Y2226283D01*
X32816430Y2242597D01*
X32875661Y2224976D01*
D11*
X19050000Y19685000D03*
X19050000Y12065000D03*
X22225000Y12065000D03*
X22225000Y19685000D03*
X25400000Y12065000D03*
X25400000Y19685000D03*
X41275000Y19050000D03*
X41275000Y11430000D03*
X41275000Y28575000D03*
X48895000Y28575000D03*
X15875000Y19685000D03*
X15875000Y12065000D03*
D12*
X47150000Y11430000D03*
D13*
X57150000Y11430000D03*
D14*
X55515000Y24370000D03*
X9515000Y24370000D03*
D15*
X37385000Y-1390000D03*
X27385000Y-1390000D03*
D16*
X12700000Y31750000D03*
D17*
X25400000Y31750000D03*
D18*
X9525000Y37338000D03*
X9525000Y27940000D03*
D11*
X6985000Y5080000D03*
X9525000Y5080000D03*
D19*
X37465000Y26670000D03*
X37465000Y24130000D03*
X37465000Y21590000D03*
X37465000Y19050000D03*
X29845000Y19050000D03*
X29845000Y21590000D03*
X29845000Y24130000D03*
D20*
X29845000Y26670000D03*
D21*
X31115000Y33020000D03*
X31115000Y35560000D03*
X33655000Y33020000D03*
X33655000Y35560000D03*
X36195000Y33020000D03*
D22*
X36195000Y35560000D03*
D23*
X48895000Y23495000D03*
D24*
X46355000Y23495000D03*
X46355000Y20955000D03*
D11*
X57150000Y37465000D03*
X57150000Y32385000D03*
X49530000Y37465000D03*
X49530000Y32385000D03*
D24*
X36195000Y13970000D03*
X31115000Y13970000D03*
M02*
