M48
; DRILL file {KiCad (5.1.0)-1} date 16/04/2020 11:46:02
; FORMAT={-:-/ absolute / inch / decimal}
; #@! TF.CreationDate,2020-04-16T11:46:02+01:00
; #@! TF.GenerationSoftware,Kicad,Pcbnew,(5.1.0)-1
FMAT,2
INCH
T1C0.0157
T2C0.0197
T3C0.0300
T4C0.0315
T5C0.0320
T6C0.0394
T7C0.0394
T8C0.0400
T9C0.0591
%
G90
G05
T1
X0.9055Y-0.3937
X0.9055Y-0.5906
X0.9055Y-0.7874
X0.9055Y-0.9843
X0.9055Y-1.1811
X0.9055Y-1.378
X0.9055Y-1.5748
X0.9449Y-0.3937
X0.9449Y-0.5906
X0.9449Y-0.7874
X0.9449Y-0.9843
X0.9449Y-1.1811
X0.9449Y-1.378
X0.9449Y-1.5748
X0.9449Y-1.7717
X0.9843Y-0.3937
X0.9843Y-0.5906
X0.9843Y-0.7874
X0.9843Y-0.9843
X0.9843Y-1.1811
X0.9843Y-1.378
X0.9843Y-1.5748
X0.9843Y-1.7717
X1.0236Y-0.3937
X1.0236Y-0.5906
X1.0236Y-0.7874
X1.0236Y-0.9843
X1.0236Y-1.1811
X1.0236Y-1.378
X1.0236Y-1.5748
X1.0236Y-1.7717
X1.063Y-0.3937
X1.063Y-0.5906
X1.063Y-0.7874
X1.063Y-0.9843
X1.063Y-1.1811
X1.063Y-1.378
X1.063Y-1.5748
X1.063Y-1.7717
X1.1024Y-0.3937
X1.1024Y-0.5906
X1.1024Y-0.7874
X1.1024Y-0.9843
X1.1024Y-1.1811
X1.1024Y-1.378
X1.1024Y-1.5748
X1.4567Y-0.3937
X1.4567Y-0.5906
X1.4567Y-0.7874
X1.4567Y-0.9843
X1.4567Y-1.1811
X1.4567Y-1.378
X1.4567Y-1.5748
X1.4961Y-0.3937
X1.4961Y-0.5906
X1.4961Y-0.7874
X1.4961Y-0.9843
X1.4961Y-1.1811
X1.4961Y-1.378
X1.4961Y-1.5748
X1.4961Y-1.7717
X1.5354Y-0.3937
X1.5354Y-0.5906
X1.5354Y-0.7874
X1.5354Y-0.9843
X1.5354Y-1.1811
X1.5354Y-1.378
X1.5354Y-1.5748
X1.5354Y-1.7717
X1.5748Y-0.3937
X1.5748Y-0.5906
X1.5748Y-0.7874
X1.5748Y-0.9843
X1.5748Y-1.1811
X1.5748Y-1.378
X1.5748Y-1.5748
X1.5748Y-1.7717
X1.6142Y-0.3937
X1.6142Y-0.5906
X1.6142Y-0.7874
X1.6142Y-0.9843
X1.6142Y-1.1811
X1.6142Y-1.378
X1.6142Y-1.5748
X1.6142Y-1.7717
X1.6535Y-0.3937
X1.6535Y-0.5906
X1.6535Y-0.7874
X1.6535Y-0.9843
X1.6535Y-1.1811
X1.6535Y-1.378
X1.6535Y-1.5748
T3
X1.0781Y-0.0547
X1.4719Y-0.0547
T4
X1.625Y1.125
X1.925Y1.125
X0.875Y0.775
X0.875Y0.475
X0.625Y0.775
X0.625Y0.475
X0.75Y0.775
X0.75Y0.475
X1.0Y0.775
X1.0Y0.475
X1.825Y0.925
X1.825Y0.825
X1.925Y0.925
X1.625Y0.75
X1.625Y0.45
X1.225Y0.55
X1.425Y0.55
T5
X0.275Y0.2
X0.375Y0.2
X1.175Y1.05
X1.175Y0.95
X1.175Y0.85
X1.175Y0.75
X1.475Y1.05
X1.475Y0.95
X1.475Y0.85
X1.475Y0.75
T6
X1.225Y1.4
X1.225Y1.3
X1.325Y1.4
X1.325Y1.3
X1.425Y1.4
X1.425Y1.3
T7
X1.95Y1.475
X1.95Y1.275
X2.25Y1.475
X2.25Y1.275
X0.375Y1.47
X0.375Y1.1
T8
X1.8563Y0.45
X2.25Y0.45
T9
X0.3746Y0.9594
X2.1856Y0.9594
T2
G00X0.5Y1.2598
M15
G01X0.5Y1.2402
M16
G05
G00X1.0Y1.2598
M15
G01X1.0Y1.2402
M16
G05
T0
M30
