G04 #@! TF.GenerationSoftware,KiCad,Pcbnew,(5.1.0)-1*
G04 #@! TF.CreationDate,2020-04-16T11:46:00+01:00*
G04 #@! TF.ProjectId,SolarSoilSensor,536f6c61-7253-46f6-996c-53656e736f72,rev?*
G04 #@! TF.SameCoordinates,PX5faea10PY77e7cd0*
G04 #@! TF.FileFunction,Copper,L1,Top*
G04 #@! TF.FilePolarity,Positive*
%FSLAX46Y46*%
G04 Gerber Fmt 4.6, Leading zero omitted, Abs format (unit mm)*
G04 Created by KiCad (PCBNEW (5.1.0)-1) date 2020-04-16 11:46:00*
%MOMM*%
%LPD*%
G04 APERTURE LIST*
%ADD10C,0.010000*%
%ADD11C,2.032000*%
%ADD12R,2.032000X1.727200*%
%ADD13O,2.032000X1.727200*%
%ADD14R,3.000000X3.000000*%
%ADD15C,1.524000*%
%ADD16R,1.600000X2.800000*%
%ADD17O,1.600000X2.800000*%
%ADD18C,2.540000*%
%ADD19O,2.286000X1.574800*%
%ADD20R,2.286000X1.574800*%
%ADD21C,1.600200*%
%ADD22R,1.600200X1.600200*%
%ADD23R,1.905000X1.905000*%
%ADD24C,1.905000*%
%ADD25C,0.600000*%
%ADD26C,1.000000*%
%ADD27C,0.254000*%
G04 APERTURE END LIST*
D10*
G36*
X40030948Y-42373D02*
G01*
X40570598Y-42583D01*
X41036714Y-43097D01*
X41434863Y-44049D01*
X41770611Y-45572D01*
X42049525Y-47802D01*
X42277171Y-50873D01*
X42459115Y-54918D01*
X42600925Y-60071D01*
X42708167Y-66467D01*
X42786406Y-74241D01*
X42841211Y-83525D01*
X42878146Y-94454D01*
X42902779Y-107162D01*
X42920676Y-121784D01*
X42926000Y-127000D01*
X42932657Y-134160D01*
X42938956Y-143489D01*
X42944906Y-157276D01*
X42950517Y-177811D01*
X42955800Y-207384D01*
X42960764Y-248284D01*
X42965420Y-302801D01*
X42969776Y-373226D01*
X42973843Y-461846D01*
X42977632Y-570954D01*
X42981151Y-702837D01*
X42984411Y-859787D01*
X42987421Y-1044092D01*
X42990193Y-1258043D01*
X42992734Y-1503929D01*
X42995056Y-1784040D01*
X42997169Y-2100666D01*
X42999082Y-2456096D01*
X43000805Y-2852620D01*
X43002348Y-3292529D01*
X43003721Y-3778111D01*
X43004934Y-4311657D01*
X43005997Y-4895456D01*
X43006919Y-5531798D01*
X43007712Y-6222973D01*
X43008384Y-6971270D01*
X43008945Y-7778980D01*
X43009406Y-8648392D01*
X43009777Y-9581795D01*
X43010066Y-10581480D01*
X43010285Y-11649737D01*
X43010443Y-12788854D01*
X43010550Y-14001123D01*
X43010616Y-15288832D01*
X43010651Y-16654271D01*
X43010664Y-18099730D01*
X43010667Y-19627500D01*
X43010667Y-39135342D01*
X42185673Y-47243088D01*
X42101346Y-48070878D01*
X42018688Y-48880426D01*
X41938157Y-49667337D01*
X41860209Y-50427214D01*
X41785301Y-51155662D01*
X41713890Y-51848284D01*
X41646433Y-52500685D01*
X41583386Y-53108469D01*
X41525207Y-53667241D01*
X41472352Y-54172603D01*
X41425278Y-54620160D01*
X41384442Y-55005517D01*
X41350300Y-55324277D01*
X41323310Y-55572045D01*
X41303928Y-55744425D01*
X41292611Y-55837020D01*
X41292521Y-55837667D01*
X41256423Y-56062990D01*
X41212837Y-56286513D01*
X41168055Y-56477933D01*
X41138726Y-56578500D01*
X40974997Y-56964972D01*
X40765440Y-57298333D01*
X40516789Y-57572486D01*
X40235780Y-57781337D01*
X39929151Y-57918790D01*
X39603637Y-57978748D01*
X39590611Y-57979435D01*
X39421291Y-57981450D01*
X39266711Y-57973050D01*
X39174534Y-57958994D01*
X38859347Y-57835466D01*
X38567670Y-57638568D01*
X38307497Y-57378161D01*
X38086822Y-57064107D01*
X37913638Y-56706268D01*
X37795940Y-56314506D01*
X37781021Y-56239833D01*
X37770451Y-56164049D01*
X37751715Y-56008270D01*
X37725263Y-55776729D01*
X37691544Y-55473658D01*
X37651008Y-55103288D01*
X37604105Y-54669854D01*
X37551283Y-54177586D01*
X37492992Y-53630717D01*
X37429683Y-53033480D01*
X37361804Y-52390107D01*
X37289804Y-51704830D01*
X37214135Y-50981881D01*
X37135244Y-50225494D01*
X37053581Y-49439900D01*
X36969597Y-48629331D01*
X36883740Y-47798020D01*
X36861543Y-47582667D01*
X36004500Y-39264167D01*
X35993781Y-19653250D01*
X35983063Y-42333D01*
X39412198Y-42333D01*
X40030948Y-42373D01*
X40030948Y-42373D01*
G37*
X40030948Y-42373D02*
X40570598Y-42583D01*
X41036714Y-43097D01*
X41434863Y-44049D01*
X41770611Y-45572D01*
X42049525Y-47802D01*
X42277171Y-50873D01*
X42459115Y-54918D01*
X42600925Y-60071D01*
X42708167Y-66467D01*
X42786406Y-74241D01*
X42841211Y-83525D01*
X42878146Y-94454D01*
X42902779Y-107162D01*
X42920676Y-121784D01*
X42926000Y-127000D01*
X42932657Y-134160D01*
X42938956Y-143489D01*
X42944906Y-157276D01*
X42950517Y-177811D01*
X42955800Y-207384D01*
X42960764Y-248284D01*
X42965420Y-302801D01*
X42969776Y-373226D01*
X42973843Y-461846D01*
X42977632Y-570954D01*
X42981151Y-702837D01*
X42984411Y-859787D01*
X42987421Y-1044092D01*
X42990193Y-1258043D01*
X42992734Y-1503929D01*
X42995056Y-1784040D01*
X42997169Y-2100666D01*
X42999082Y-2456096D01*
X43000805Y-2852620D01*
X43002348Y-3292529D01*
X43003721Y-3778111D01*
X43004934Y-4311657D01*
X43005997Y-4895456D01*
X43006919Y-5531798D01*
X43007712Y-6222973D01*
X43008384Y-6971270D01*
X43008945Y-7778980D01*
X43009406Y-8648392D01*
X43009777Y-9581795D01*
X43010066Y-10581480D01*
X43010285Y-11649737D01*
X43010443Y-12788854D01*
X43010550Y-14001123D01*
X43010616Y-15288832D01*
X43010651Y-16654271D01*
X43010664Y-18099730D01*
X43010667Y-19627500D01*
X43010667Y-39135342D01*
X42185673Y-47243088D01*
X42101346Y-48070878D01*
X42018688Y-48880426D01*
X41938157Y-49667337D01*
X41860209Y-50427214D01*
X41785301Y-51155662D01*
X41713890Y-51848284D01*
X41646433Y-52500685D01*
X41583386Y-53108469D01*
X41525207Y-53667241D01*
X41472352Y-54172603D01*
X41425278Y-54620160D01*
X41384442Y-55005517D01*
X41350300Y-55324277D01*
X41323310Y-55572045D01*
X41303928Y-55744425D01*
X41292611Y-55837020D01*
X41292521Y-55837667D01*
X41256423Y-56062990D01*
X41212837Y-56286513D01*
X41168055Y-56477933D01*
X41138726Y-56578500D01*
X40974997Y-56964972D01*
X40765440Y-57298333D01*
X40516789Y-57572486D01*
X40235780Y-57781337D01*
X39929151Y-57918790D01*
X39603637Y-57978748D01*
X39590611Y-57979435D01*
X39421291Y-57981450D01*
X39266711Y-57973050D01*
X39174534Y-57958994D01*
X38859347Y-57835466D01*
X38567670Y-57638568D01*
X38307497Y-57378161D01*
X38086822Y-57064107D01*
X37913638Y-56706268D01*
X37795940Y-56314506D01*
X37781021Y-56239833D01*
X37770451Y-56164049D01*
X37751715Y-56008270D01*
X37725263Y-55776729D01*
X37691544Y-55473658D01*
X37651008Y-55103288D01*
X37604105Y-54669854D01*
X37551283Y-54177586D01*
X37492992Y-53630717D01*
X37429683Y-53033480D01*
X37361804Y-52390107D01*
X37289804Y-51704830D01*
X37214135Y-50981881D01*
X37135244Y-50225494D01*
X37053581Y-49439900D01*
X36969597Y-48629331D01*
X36883740Y-47798020D01*
X36861543Y-47582667D01*
X36004500Y-39264167D01*
X35993781Y-19653250D01*
X35983063Y-42333D01*
X39412198Y-42333D01*
X40030948Y-42373D01*
G36*
X25435842Y-52183D02*
G01*
X26070675Y-54489D01*
X26625918Y-57000D01*
X27106649Y-59818D01*
X27517942Y-63044D01*
X27864876Y-66779D01*
X28152526Y-71123D01*
X28385969Y-76177D01*
X28570282Y-82042D01*
X28710542Y-88820D01*
X28811825Y-96611D01*
X28879207Y-105516D01*
X28917766Y-115635D01*
X28928342Y-121600D01*
X28933849Y-130139D01*
X28939061Y-147869D01*
X28943986Y-177048D01*
X28948633Y-219934D01*
X28953009Y-278786D01*
X28957122Y-355861D01*
X28960980Y-453418D01*
X28964592Y-573714D01*
X28967965Y-719009D01*
X28971108Y-891559D01*
X28974028Y-1093624D01*
X28976734Y-1327461D01*
X28979234Y-1595328D01*
X28981535Y-1899484D01*
X28983647Y-2242187D01*
X28985576Y-2625694D01*
X28987330Y-3052265D01*
X28988919Y-3524156D01*
X28990350Y-4043627D01*
X28991631Y-4612934D01*
X28992770Y-5234338D01*
X28993775Y-5910095D01*
X28994655Y-6642463D01*
X28995417Y-7433702D01*
X28996069Y-8286068D01*
X28996619Y-9201821D01*
X28997076Y-10183218D01*
X28997447Y-11232517D01*
X28997741Y-12351976D01*
X28997966Y-13543854D01*
X28998129Y-14810409D01*
X28998239Y-16153899D01*
X28998304Y-17576582D01*
X28998331Y-19080716D01*
X28998334Y-19743583D01*
X28998334Y-39307466D01*
X28171963Y-47413816D01*
X28087558Y-48240754D01*
X28004854Y-49049009D01*
X27924305Y-49834216D01*
X27846368Y-50592011D01*
X27771496Y-51318032D01*
X27700146Y-52007914D01*
X27632772Y-52657294D01*
X27569831Y-53261808D01*
X27511777Y-53817092D01*
X27459065Y-54318783D01*
X27412151Y-54762517D01*
X27371489Y-55143929D01*
X27337537Y-55458658D01*
X27310747Y-55702337D01*
X27291577Y-55870605D01*
X27280480Y-55959097D01*
X27280331Y-55960109D01*
X27176906Y-56452526D01*
X27022589Y-56883013D01*
X26818729Y-57249343D01*
X26566678Y-57549287D01*
X26267785Y-57780614D01*
X26132399Y-57854918D01*
X25870779Y-57947061D01*
X25579000Y-57990354D01*
X25287868Y-57983150D01*
X25028186Y-57923800D01*
X25005767Y-57915188D01*
X24684765Y-57741817D01*
X24397506Y-57495997D01*
X24151468Y-57185767D01*
X23954128Y-56819168D01*
X23927669Y-56756057D01*
X23847925Y-56526655D01*
X23779903Y-56271768D01*
X23730884Y-56023588D01*
X23708148Y-55814310D01*
X23707402Y-55782038D01*
X23703038Y-55724167D01*
X23690376Y-55586222D01*
X23669834Y-55372346D01*
X23641833Y-55086683D01*
X23606791Y-54733375D01*
X23565127Y-54316564D01*
X23517261Y-53840395D01*
X23463611Y-53309010D01*
X23404598Y-52726552D01*
X23340640Y-52097164D01*
X23272156Y-51424989D01*
X23199565Y-50714170D01*
X23123287Y-49968850D01*
X23043742Y-49193172D01*
X22961347Y-48391278D01*
X22876523Y-47567312D01*
X22860000Y-47406997D01*
X22013334Y-39193418D01*
X22013334Y-40866D01*
X25435842Y-52183D01*
X25435842Y-52183D01*
G37*
X25435842Y-52183D02*
X26070675Y-54489D01*
X26625918Y-57000D01*
X27106649Y-59818D01*
X27517942Y-63044D01*
X27864876Y-66779D01*
X28152526Y-71123D01*
X28385969Y-76177D01*
X28570282Y-82042D01*
X28710542Y-88820D01*
X28811825Y-96611D01*
X28879207Y-105516D01*
X28917766Y-115635D01*
X28928342Y-121600D01*
X28933849Y-130139D01*
X28939061Y-147869D01*
X28943986Y-177048D01*
X28948633Y-219934D01*
X28953009Y-278786D01*
X28957122Y-355861D01*
X28960980Y-453418D01*
X28964592Y-573714D01*
X28967965Y-719009D01*
X28971108Y-891559D01*
X28974028Y-1093624D01*
X28976734Y-1327461D01*
X28979234Y-1595328D01*
X28981535Y-1899484D01*
X28983647Y-2242187D01*
X28985576Y-2625694D01*
X28987330Y-3052265D01*
X28988919Y-3524156D01*
X28990350Y-4043627D01*
X28991631Y-4612934D01*
X28992770Y-5234338D01*
X28993775Y-5910095D01*
X28994655Y-6642463D01*
X28995417Y-7433702D01*
X28996069Y-8286068D01*
X28996619Y-9201821D01*
X28997076Y-10183218D01*
X28997447Y-11232517D01*
X28997741Y-12351976D01*
X28997966Y-13543854D01*
X28998129Y-14810409D01*
X28998239Y-16153899D01*
X28998304Y-17576582D01*
X28998331Y-19080716D01*
X28998334Y-19743583D01*
X28998334Y-39307466D01*
X28171963Y-47413816D01*
X28087558Y-48240754D01*
X28004854Y-49049009D01*
X27924305Y-49834216D01*
X27846368Y-50592011D01*
X27771496Y-51318032D01*
X27700146Y-52007914D01*
X27632772Y-52657294D01*
X27569831Y-53261808D01*
X27511777Y-53817092D01*
X27459065Y-54318783D01*
X27412151Y-54762517D01*
X27371489Y-55143929D01*
X27337537Y-55458658D01*
X27310747Y-55702337D01*
X27291577Y-55870605D01*
X27280480Y-55959097D01*
X27280331Y-55960109D01*
X27176906Y-56452526D01*
X27022589Y-56883013D01*
X26818729Y-57249343D01*
X26566678Y-57549287D01*
X26267785Y-57780614D01*
X26132399Y-57854918D01*
X25870779Y-57947061D01*
X25579000Y-57990354D01*
X25287868Y-57983150D01*
X25028186Y-57923800D01*
X25005767Y-57915188D01*
X24684765Y-57741817D01*
X24397506Y-57495997D01*
X24151468Y-57185767D01*
X23954128Y-56819168D01*
X23927669Y-56756057D01*
X23847925Y-56526655D01*
X23779903Y-56271768D01*
X23730884Y-56023588D01*
X23708148Y-55814310D01*
X23707402Y-55782038D01*
X23703038Y-55724167D01*
X23690376Y-55586222D01*
X23669834Y-55372346D01*
X23641833Y-55086683D01*
X23606791Y-54733375D01*
X23565127Y-54316564D01*
X23517261Y-53840395D01*
X23463611Y-53309010D01*
X23404598Y-52726552D01*
X23340640Y-52097164D01*
X23272156Y-51424989D01*
X23199565Y-50714170D01*
X23123287Y-49968850D01*
X23043742Y-49193172D01*
X22961347Y-48391278D01*
X22876523Y-47567312D01*
X22860000Y-47406997D01*
X22013334Y-39193418D01*
X22013334Y-40866D01*
X25435842Y-52183D01*
G36*
X31754211Y11634241D02*
G01*
X31898167Y11620500D01*
X31931357Y11324166D01*
X31948663Y11109339D01*
X31941805Y10960858D01*
X31907695Y10863071D01*
X31843250Y10800324D01*
X31826167Y10790451D01*
X31736408Y10763466D01*
X31593208Y10741979D01*
X31421279Y10727207D01*
X31245336Y10720366D01*
X31090092Y10722673D01*
X30980261Y10735343D01*
X30948081Y10747228D01*
X30910670Y10810852D01*
X30872538Y10942063D01*
X30838494Y11123962D01*
X30835943Y11141214D01*
X30813422Y11302035D01*
X30797579Y11425787D01*
X30790880Y11492733D01*
X30791196Y11499138D01*
X30832183Y11510857D01*
X30923168Y11531671D01*
X30930948Y11533343D01*
X31014583Y11546359D01*
X31057692Y11525021D01*
X31080672Y11449846D01*
X31091964Y11379538D01*
X31121033Y11190537D01*
X31145147Y11069797D01*
X31173165Y11002050D01*
X31213942Y10972024D01*
X31276338Y10964450D01*
X31332813Y10964333D01*
X31492621Y10972867D01*
X31590237Y11008583D01*
X31637661Y11086650D01*
X31646893Y11222238D01*
X31637944Y11350060D01*
X31610255Y11647981D01*
X31754211Y11634241D01*
X31754211Y11634241D01*
G37*
X31754211Y11634241D02*
X31898167Y11620500D01*
X31931357Y11324166D01*
X31948663Y11109339D01*
X31941805Y10960858D01*
X31907695Y10863071D01*
X31843250Y10800324D01*
X31826167Y10790451D01*
X31736408Y10763466D01*
X31593208Y10741979D01*
X31421279Y10727207D01*
X31245336Y10720366D01*
X31090092Y10722673D01*
X30980261Y10735343D01*
X30948081Y10747228D01*
X30910670Y10810852D01*
X30872538Y10942063D01*
X30838494Y11123962D01*
X30835943Y11141214D01*
X30813422Y11302035D01*
X30797579Y11425787D01*
X30790880Y11492733D01*
X30791196Y11499138D01*
X30832183Y11510857D01*
X30923168Y11531671D01*
X30930948Y11533343D01*
X31014583Y11546359D01*
X31057692Y11525021D01*
X31080672Y11449846D01*
X31091964Y11379538D01*
X31121033Y11190537D01*
X31145147Y11069797D01*
X31173165Y11002050D01*
X31213942Y10972024D01*
X31276338Y10964450D01*
X31332813Y10964333D01*
X31492621Y10972867D01*
X31590237Y11008583D01*
X31637661Y11086650D01*
X31646893Y11222238D01*
X31637944Y11350060D01*
X31610255Y11647981D01*
X31754211Y11634241D01*
G36*
X32345823Y11622930D02*
G01*
X32499393Y11609050D01*
X32671623Y11588805D01*
X32840910Y11564794D01*
X32985649Y11539617D01*
X33084236Y11515873D01*
X33098267Y11510826D01*
X33139986Y11493817D01*
X33166946Y11473158D01*
X33180003Y11434072D01*
X33180013Y11361785D01*
X33167830Y11241521D01*
X33144310Y11058502D01*
X33130520Y10953750D01*
X33116788Y10832811D01*
X33109959Y10752666D01*
X33070795Y10688761D01*
X32979168Y10668627D01*
X32865744Y10694538D01*
X32835333Y10745519D01*
X32838797Y10796515D01*
X32844099Y10850640D01*
X32814832Y10886470D01*
X32735061Y10912378D01*
X32588856Y10936738D01*
X32565813Y10939994D01*
X32452101Y10951249D01*
X32394566Y10935391D01*
X32366242Y10881292D01*
X32359095Y10854692D01*
X32328542Y10779228D01*
X32270644Y10760189D01*
X32202536Y10770109D01*
X32110249Y10791002D01*
X32065799Y10805770D01*
X32065564Y10806024D01*
X32065226Y10852505D01*
X32075685Y10959777D01*
X32093725Y11105130D01*
X32116126Y11265858D01*
X32119661Y11288889D01*
X32427334Y11288889D01*
X32441811Y11225449D01*
X32496967Y11190762D01*
X32610388Y11177221D01*
X32688389Y11176000D01*
X32823060Y11184504D01*
X32885478Y11212095D01*
X32893000Y11234562D01*
X32853313Y11292163D01*
X32741882Y11330164D01*
X32570147Y11344724D01*
X32564917Y11344755D01*
X32461384Y11329371D01*
X32427334Y11288889D01*
X32119661Y11288889D01*
X32139672Y11419251D01*
X32161143Y11542602D01*
X32177322Y11613203D01*
X32181084Y11621195D01*
X32232519Y11627845D01*
X32345823Y11622930D01*
X32345823Y11622930D01*
G37*
X32345823Y11622930D02*
X32499393Y11609050D01*
X32671623Y11588805D01*
X32840910Y11564794D01*
X32985649Y11539617D01*
X33084236Y11515873D01*
X33098267Y11510826D01*
X33139986Y11493817D01*
X33166946Y11473158D01*
X33180003Y11434072D01*
X33180013Y11361785D01*
X33167830Y11241521D01*
X33144310Y11058502D01*
X33130520Y10953750D01*
X33116788Y10832811D01*
X33109959Y10752666D01*
X33070795Y10688761D01*
X32979168Y10668627D01*
X32865744Y10694538D01*
X32835333Y10745519D01*
X32838797Y10796515D01*
X32844099Y10850640D01*
X32814832Y10886470D01*
X32735061Y10912378D01*
X32588856Y10936738D01*
X32565813Y10939994D01*
X32452101Y10951249D01*
X32394566Y10935391D01*
X32366242Y10881292D01*
X32359095Y10854692D01*
X32328542Y10779228D01*
X32270644Y10760189D01*
X32202536Y10770109D01*
X32110249Y10791002D01*
X32065799Y10805770D01*
X32065564Y10806024D01*
X32065226Y10852505D01*
X32075685Y10959777D01*
X32093725Y11105130D01*
X32116126Y11265858D01*
X32119661Y11288889D01*
X32427334Y11288889D01*
X32441811Y11225449D01*
X32496967Y11190762D01*
X32610388Y11177221D01*
X32688389Y11176000D01*
X32823060Y11184504D01*
X32885478Y11212095D01*
X32893000Y11234562D01*
X32853313Y11292163D01*
X32741882Y11330164D01*
X32570147Y11344724D01*
X32564917Y11344755D01*
X32461384Y11329371D01*
X32427334Y11288889D01*
X32119661Y11288889D01*
X32139672Y11419251D01*
X32161143Y11542602D01*
X32177322Y11613203D01*
X32181084Y11621195D01*
X32232519Y11627845D01*
X32345823Y11622930D01*
G36*
X33522200Y11409824D02*
G01*
X33607197Y11374528D01*
X33652068Y11337057D01*
X33653024Y11331386D01*
X33641624Y11270185D01*
X33612887Y11149321D01*
X33572127Y10990710D01*
X33553753Y10922000D01*
X33498669Y10734455D01*
X33449374Y10618666D01*
X33395505Y10563274D01*
X33326696Y10556926D01*
X33244601Y10583277D01*
X33151701Y10621199D01*
X33259300Y11015016D01*
X33306789Y11185262D01*
X33346690Y11321714D01*
X33373488Y11405846D01*
X33380922Y11423445D01*
X33434350Y11430333D01*
X33522200Y11409824D01*
X33522200Y11409824D01*
G37*
X33522200Y11409824D02*
X33607197Y11374528D01*
X33652068Y11337057D01*
X33653024Y11331386D01*
X33641624Y11270185D01*
X33612887Y11149321D01*
X33572127Y10990710D01*
X33553753Y10922000D01*
X33498669Y10734455D01*
X33449374Y10618666D01*
X33395505Y10563274D01*
X33326696Y10556926D01*
X33244601Y10583277D01*
X33151701Y10621199D01*
X33259300Y11015016D01*
X33306789Y11185262D01*
X33346690Y11321714D01*
X33373488Y11405846D01*
X33380922Y11423445D01*
X33434350Y11430333D01*
X33522200Y11409824D01*
G36*
X30462325Y11316561D02*
G01*
X30555852Y11248039D01*
X30605258Y11164559D01*
X30607000Y11147712D01*
X30571001Y11097277D01*
X30487193Y11052291D01*
X30391863Y11028028D01*
X30334081Y11032829D01*
X30243959Y11035560D01*
X30120472Y11005430D01*
X30001808Y10954841D01*
X29930393Y10901709D01*
X29914096Y10824941D01*
X29942485Y10723626D01*
X29999379Y10632066D01*
X30068593Y10584561D01*
X30080607Y10583333D01*
X30174310Y10603133D01*
X30283339Y10652209D01*
X30382276Y10715081D01*
X30445700Y10776265D01*
X30454853Y10811274D01*
X30474278Y10867547D01*
X30568938Y10917145D01*
X30665995Y10943938D01*
X30722733Y10946503D01*
X30725326Y10944785D01*
X30739477Y10893368D01*
X30749151Y10791588D01*
X30750212Y10765629D01*
X30749182Y10682988D01*
X30729343Y10624912D01*
X30674959Y10574534D01*
X30570293Y10514986D01*
X30468543Y10463723D01*
X30302334Y10389169D01*
X30140429Y10330049D01*
X30017470Y10298989D01*
X30016019Y10298790D01*
X29903359Y10291351D01*
X29834662Y10320880D01*
X29771283Y10405788D01*
X29762944Y10419352D01*
X29663011Y10615478D01*
X29606108Y10798032D01*
X29598543Y10931849D01*
X29628189Y10994428D01*
X29707496Y11062177D01*
X29848923Y11144652D01*
X29929667Y11185895D01*
X30091120Y11259952D01*
X30236625Y11315613D01*
X30340239Y11343243D01*
X30357022Y11344645D01*
X30462325Y11316561D01*
X30462325Y11316561D01*
G37*
X30462325Y11316561D02*
X30555852Y11248039D01*
X30605258Y11164559D01*
X30607000Y11147712D01*
X30571001Y11097277D01*
X30487193Y11052291D01*
X30391863Y11028028D01*
X30334081Y11032829D01*
X30243959Y11035560D01*
X30120472Y11005430D01*
X30001808Y10954841D01*
X29930393Y10901709D01*
X29914096Y10824941D01*
X29942485Y10723626D01*
X29999379Y10632066D01*
X30068593Y10584561D01*
X30080607Y10583333D01*
X30174310Y10603133D01*
X30283339Y10652209D01*
X30382276Y10715081D01*
X30445700Y10776265D01*
X30454853Y10811274D01*
X30474278Y10867547D01*
X30568938Y10917145D01*
X30665995Y10943938D01*
X30722733Y10946503D01*
X30725326Y10944785D01*
X30739477Y10893368D01*
X30749151Y10791588D01*
X30750212Y10765629D01*
X30749182Y10682988D01*
X30729343Y10624912D01*
X30674959Y10574534D01*
X30570293Y10514986D01*
X30468543Y10463723D01*
X30302334Y10389169D01*
X30140429Y10330049D01*
X30017470Y10298989D01*
X30016019Y10298790D01*
X29903359Y10291351D01*
X29834662Y10320880D01*
X29771283Y10405788D01*
X29762944Y10419352D01*
X29663011Y10615478D01*
X29606108Y10798032D01*
X29598543Y10931849D01*
X29628189Y10994428D01*
X29707496Y11062177D01*
X29848923Y11144652D01*
X29929667Y11185895D01*
X30091120Y11259952D01*
X30236625Y11315613D01*
X30340239Y11343243D01*
X30357022Y11344645D01*
X30462325Y11316561D01*
G36*
X29297923Y10380167D02*
G01*
X29346638Y10297034D01*
X29355306Y10280015D01*
X29396337Y10184593D01*
X29393427Y10122702D01*
X29347823Y10057765D01*
X29273500Y9969500D01*
X29370068Y10051337D01*
X29444660Y10104121D01*
X29495490Y10099515D01*
X29528282Y10071527D01*
X29553151Y10032733D01*
X29539048Y9988464D01*
X29475745Y9924059D01*
X29360035Y9830332D01*
X29130141Y9650783D01*
X28979571Y9847979D01*
X28935027Y9908756D01*
X29178046Y9908756D01*
X29183837Y9906000D01*
X29222469Y9935802D01*
X29231167Y9948333D01*
X29241954Y9987910D01*
X29236164Y9990666D01*
X29197531Y9960865D01*
X29188834Y9948333D01*
X29178046Y9908756D01*
X28935027Y9908756D01*
X28899002Y9957909D01*
X28845084Y10039953D01*
X28830803Y10070837D01*
X28853118Y10096500D01*
X29083000Y10096500D01*
X29104167Y10075333D01*
X29125334Y10096500D01*
X29104167Y10117666D01*
X29083000Y10096500D01*
X28853118Y10096500D01*
X28862465Y10107249D01*
X28892652Y10133650D01*
X29167667Y10133650D01*
X29188259Y10120978D01*
X29244536Y10175360D01*
X29257733Y10191750D01*
X29294345Y10241893D01*
X29272423Y10231381D01*
X29241750Y10207733D01*
X29183120Y10155511D01*
X29167667Y10133650D01*
X28892652Y10133650D01*
X28940466Y10175467D01*
X29042415Y10257853D01*
X29145921Y10336771D01*
X29228592Y10394585D01*
X29266479Y10414000D01*
X29297923Y10380167D01*
X29297923Y10380167D01*
G37*
X29297923Y10380167D02*
X29346638Y10297034D01*
X29355306Y10280015D01*
X29396337Y10184593D01*
X29393427Y10122702D01*
X29347823Y10057765D01*
X29273500Y9969500D01*
X29370068Y10051337D01*
X29444660Y10104121D01*
X29495490Y10099515D01*
X29528282Y10071527D01*
X29553151Y10032733D01*
X29539048Y9988464D01*
X29475745Y9924059D01*
X29360035Y9830332D01*
X29130141Y9650783D01*
X28979571Y9847979D01*
X28935027Y9908756D01*
X29178046Y9908756D01*
X29183837Y9906000D01*
X29222469Y9935802D01*
X29231167Y9948333D01*
X29241954Y9987910D01*
X29236164Y9990666D01*
X29197531Y9960865D01*
X29188834Y9948333D01*
X29178046Y9908756D01*
X28935027Y9908756D01*
X28899002Y9957909D01*
X28845084Y10039953D01*
X28830803Y10070837D01*
X28853118Y10096500D01*
X29083000Y10096500D01*
X29104167Y10075333D01*
X29125334Y10096500D01*
X29104167Y10117666D01*
X29083000Y10096500D01*
X28853118Y10096500D01*
X28862465Y10107249D01*
X28892652Y10133650D01*
X29167667Y10133650D01*
X29188259Y10120978D01*
X29244536Y10175360D01*
X29257733Y10191750D01*
X29294345Y10241893D01*
X29272423Y10231381D01*
X29241750Y10207733D01*
X29183120Y10155511D01*
X29167667Y10133650D01*
X28892652Y10133650D01*
X28940466Y10175467D01*
X29042415Y10257853D01*
X29145921Y10336771D01*
X29228592Y10394585D01*
X29266479Y10414000D01*
X29297923Y10380167D01*
G36*
X35215000Y10557283D02*
G01*
X35289307Y10494461D01*
X35291007Y10492867D01*
X35387304Y10402401D01*
X35191123Y10172768D01*
X34994942Y9943136D01*
X35351660Y9588500D01*
X35567897Y9814137D01*
X35784134Y10039775D01*
X35999728Y9824181D01*
X35744304Y9568757D01*
X35590187Y9423322D01*
X35468185Y9340015D01*
X35359584Y9319097D01*
X35245673Y9360832D01*
X35107738Y9465480D01*
X34983595Y9579407D01*
X34826590Y9736770D01*
X34734945Y9861084D01*
X34707152Y9971239D01*
X34741706Y10086123D01*
X34837100Y10224627D01*
X34923897Y10328060D01*
X35030122Y10447334D01*
X35115338Y10536825D01*
X35164695Y10581120D01*
X35169877Y10583333D01*
X35215000Y10557283D01*
X35215000Y10557283D01*
G37*
X35215000Y10557283D02*
X35289307Y10494461D01*
X35291007Y10492867D01*
X35387304Y10402401D01*
X35191123Y10172768D01*
X34994942Y9943136D01*
X35351660Y9588500D01*
X35567897Y9814137D01*
X35784134Y10039775D01*
X35999728Y9824181D01*
X35744304Y9568757D01*
X35590187Y9423322D01*
X35468185Y9340015D01*
X35359584Y9319097D01*
X35245673Y9360832D01*
X35107738Y9465480D01*
X34983595Y9579407D01*
X34826590Y9736770D01*
X34734945Y9861084D01*
X34707152Y9971239D01*
X34741706Y10086123D01*
X34837100Y10224627D01*
X34923897Y10328060D01*
X35030122Y10447334D01*
X35115338Y10536825D01*
X35164695Y10581120D01*
X35169877Y10583333D01*
X35215000Y10557283D01*
G36*
X28763798Y9970625D02*
G01*
X28830260Y9921611D01*
X28913424Y9842737D01*
X29007085Y9741859D01*
X29068672Y9657466D01*
X29083000Y9620913D01*
X29049334Y9558267D01*
X28975691Y9533774D01*
X28903102Y9560968D01*
X28902651Y9561416D01*
X28849157Y9579513D01*
X28773667Y9532228D01*
X28757393Y9517384D01*
X28694059Y9448316D01*
X28690633Y9399014D01*
X28723573Y9355218D01*
X28763747Y9294999D01*
X28740140Y9243681D01*
X28710421Y9215121D01*
X28664207Y9181480D01*
X28619321Y9182832D01*
X28556571Y9227942D01*
X28456767Y9325577D01*
X28447137Y9335379D01*
X28347173Y9440731D01*
X28299840Y9506325D01*
X28296708Y9551056D01*
X28329352Y9593822D01*
X28331101Y9595576D01*
X28395565Y9641680D01*
X28454721Y9621113D01*
X28469350Y9609514D01*
X28527762Y9578560D01*
X28586624Y9605277D01*
X28626741Y9642592D01*
X28685015Y9714173D01*
X28682122Y9768665D01*
X28659819Y9799983D01*
X28626549Y9862985D01*
X28659186Y9923147D01*
X28673644Y9938120D01*
X28718494Y9973382D01*
X28763798Y9970625D01*
X28763798Y9970625D01*
G37*
X28763798Y9970625D02*
X28830260Y9921611D01*
X28913424Y9842737D01*
X29007085Y9741859D01*
X29068672Y9657466D01*
X29083000Y9620913D01*
X29049334Y9558267D01*
X28975691Y9533774D01*
X28903102Y9560968D01*
X28902651Y9561416D01*
X28849157Y9579513D01*
X28773667Y9532228D01*
X28757393Y9517384D01*
X28694059Y9448316D01*
X28690633Y9399014D01*
X28723573Y9355218D01*
X28763747Y9294999D01*
X28740140Y9243681D01*
X28710421Y9215121D01*
X28664207Y9181480D01*
X28619321Y9182832D01*
X28556571Y9227942D01*
X28456767Y9325577D01*
X28447137Y9335379D01*
X28347173Y9440731D01*
X28299840Y9506325D01*
X28296708Y9551056D01*
X28329352Y9593822D01*
X28331101Y9595576D01*
X28395565Y9641680D01*
X28454721Y9621113D01*
X28469350Y9609514D01*
X28527762Y9578560D01*
X28586624Y9605277D01*
X28626741Y9642592D01*
X28685015Y9714173D01*
X28682122Y9768665D01*
X28659819Y9799983D01*
X28626549Y9862985D01*
X28659186Y9923147D01*
X28673644Y9938120D01*
X28718494Y9973382D01*
X28763798Y9970625D01*
G36*
X28283112Y9421709D02*
G01*
X28314319Y9403025D01*
X28349400Y9363258D01*
X28330072Y9301001D01*
X28314319Y9274095D01*
X28287440Y9206137D01*
X28308536Y9146481D01*
X28388329Y9079434D01*
X28490334Y9016498D01*
X28530329Y8980291D01*
X28507283Y8933417D01*
X28483223Y8907964D01*
X28432003Y8865915D01*
X28379959Y8865199D01*
X28296343Y8908503D01*
X28266259Y8926920D01*
X28119907Y9017371D01*
X28060339Y8927657D01*
X28011113Y8867643D01*
X27971365Y8876267D01*
X27945861Y8904105D01*
X27923149Y8950495D01*
X27934825Y9011659D01*
X27987697Y9106630D01*
X28053059Y9203694D01*
X28144454Y9333411D01*
X28203037Y9405185D01*
X28244144Y9430717D01*
X28283112Y9421709D01*
X28283112Y9421709D01*
G37*
X28283112Y9421709D02*
X28314319Y9403025D01*
X28349400Y9363258D01*
X28330072Y9301001D01*
X28314319Y9274095D01*
X28287440Y9206137D01*
X28308536Y9146481D01*
X28388329Y9079434D01*
X28490334Y9016498D01*
X28530329Y8980291D01*
X28507283Y8933417D01*
X28483223Y8907964D01*
X28432003Y8865915D01*
X28379959Y8865199D01*
X28296343Y8908503D01*
X28266259Y8926920D01*
X28119907Y9017371D01*
X28060339Y8927657D01*
X28011113Y8867643D01*
X27971365Y8876267D01*
X27945861Y8904105D01*
X27923149Y8950495D01*
X27934825Y9011659D01*
X27987697Y9106630D01*
X28053059Y9203694D01*
X28144454Y9333411D01*
X28203037Y9405185D01*
X28244144Y9430717D01*
X28283112Y9421709D01*
G36*
X36186933Y9486761D02*
G01*
X36298444Y9378915D01*
X36420365Y9211769D01*
X36541534Y9000272D01*
X36593594Y8878251D01*
X36598979Y8789393D01*
X36580903Y8735688D01*
X36514961Y8651521D01*
X36435583Y8649801D01*
X36349103Y8730650D01*
X36348672Y8731250D01*
X36303059Y8792798D01*
X36298400Y8786186D01*
X36330022Y8708142D01*
X36356511Y8618432D01*
X36332906Y8550893D01*
X36276763Y8490240D01*
X36136046Y8388014D01*
X36006934Y8360279D01*
X35936086Y8382564D01*
X35873706Y8442577D01*
X35787132Y8554810D01*
X35691192Y8696348D01*
X35600717Y8844275D01*
X35530537Y8975677D01*
X35517252Y9009458D01*
X35797931Y9009458D01*
X35833734Y8919597D01*
X35890972Y8816082D01*
X35954771Y8723873D01*
X36010257Y8667931D01*
X36035337Y8663143D01*
X36035106Y8708078D01*
X35998933Y8802205D01*
X35953035Y8891539D01*
X35879636Y9005106D01*
X35822270Y9061130D01*
X35798437Y9060703D01*
X35797931Y9009458D01*
X35517252Y9009458D01*
X35496907Y9061185D01*
X35500447Y9164747D01*
X35500691Y9165166D01*
X35771667Y9165166D01*
X35792834Y9144000D01*
X35814000Y9165166D01*
X35792834Y9186333D01*
X35771667Y9165166D01*
X35500691Y9165166D01*
X35531337Y9217663D01*
X36072829Y9217663D01*
X36079743Y9174473D01*
X36125122Y9083036D01*
X36163250Y9015130D01*
X36238221Y8900226D01*
X36292754Y8849544D01*
X36320096Y8868384D01*
X36322000Y8890594D01*
X36300335Y8953097D01*
X36247890Y9046369D01*
X36183492Y9141817D01*
X36125968Y9210848D01*
X36099750Y9228142D01*
X36072829Y9217663D01*
X35531337Y9217663D01*
X35549499Y9248774D01*
X35623496Y9292698D01*
X35701872Y9275951D01*
X35707373Y9271659D01*
X35758014Y9240978D01*
X35771596Y9277016D01*
X35771667Y9283910D01*
X35807341Y9362650D01*
X35894767Y9443609D01*
X36004552Y9504844D01*
X36094610Y9525000D01*
X36186933Y9486761D01*
X36186933Y9486761D01*
G37*
X36186933Y9486761D02*
X36298444Y9378915D01*
X36420365Y9211769D01*
X36541534Y9000272D01*
X36593594Y8878251D01*
X36598979Y8789393D01*
X36580903Y8735688D01*
X36514961Y8651521D01*
X36435583Y8649801D01*
X36349103Y8730650D01*
X36348672Y8731250D01*
X36303059Y8792798D01*
X36298400Y8786186D01*
X36330022Y8708142D01*
X36356511Y8618432D01*
X36332906Y8550893D01*
X36276763Y8490240D01*
X36136046Y8388014D01*
X36006934Y8360279D01*
X35936086Y8382564D01*
X35873706Y8442577D01*
X35787132Y8554810D01*
X35691192Y8696348D01*
X35600717Y8844275D01*
X35530537Y8975677D01*
X35517252Y9009458D01*
X35797931Y9009458D01*
X35833734Y8919597D01*
X35890972Y8816082D01*
X35954771Y8723873D01*
X36010257Y8667931D01*
X36035337Y8663143D01*
X36035106Y8708078D01*
X35998933Y8802205D01*
X35953035Y8891539D01*
X35879636Y9005106D01*
X35822270Y9061130D01*
X35798437Y9060703D01*
X35797931Y9009458D01*
X35517252Y9009458D01*
X35496907Y9061185D01*
X35500447Y9164747D01*
X35500691Y9165166D01*
X35771667Y9165166D01*
X35792834Y9144000D01*
X35814000Y9165166D01*
X35792834Y9186333D01*
X35771667Y9165166D01*
X35500691Y9165166D01*
X35531337Y9217663D01*
X36072829Y9217663D01*
X36079743Y9174473D01*
X36125122Y9083036D01*
X36163250Y9015130D01*
X36238221Y8900226D01*
X36292754Y8849544D01*
X36320096Y8868384D01*
X36322000Y8890594D01*
X36300335Y8953097D01*
X36247890Y9046369D01*
X36183492Y9141817D01*
X36125968Y9210848D01*
X36099750Y9228142D01*
X36072829Y9217663D01*
X35531337Y9217663D01*
X35549499Y9248774D01*
X35623496Y9292698D01*
X35701872Y9275951D01*
X35707373Y9271659D01*
X35758014Y9240978D01*
X35771596Y9277016D01*
X35771667Y9283910D01*
X35807341Y9362650D01*
X35894767Y9443609D01*
X36004552Y9504844D01*
X36094610Y9525000D01*
X36186933Y9486761D01*
G36*
X36575117Y8056740D02*
G01*
X36601882Y7999743D01*
X36640154Y7887723D01*
X36672143Y7778750D01*
X36707566Y7643727D01*
X36718490Y7570893D01*
X36704045Y7541135D01*
X36663357Y7535337D01*
X36661031Y7535333D01*
X36584633Y7560445D01*
X36561703Y7588250D01*
X36543067Y7603099D01*
X36537009Y7567083D01*
X36511141Y7502914D01*
X36457612Y7500699D01*
X36399386Y7554534D01*
X36372405Y7609416D01*
X36345306Y7681159D01*
X36335119Y7681183D01*
X36335990Y7603714D01*
X36337127Y7574634D01*
X36343167Y7423434D01*
X36526073Y7462283D01*
X36648277Y7485949D01*
X36711378Y7484078D01*
X36739016Y7449081D01*
X36751892Y7389804D01*
X36741944Y7327268D01*
X36671729Y7289310D01*
X36626769Y7278294D01*
X36509823Y7247375D01*
X36458651Y7203282D01*
X36455279Y7120385D01*
X36467003Y7050474D01*
X36491955Y6953503D01*
X36536738Y6910922D01*
X36630294Y6900513D01*
X36662585Y6900333D01*
X36830000Y6900333D01*
X36837056Y6688666D01*
X36841905Y6549450D01*
X36846176Y6437259D01*
X36847639Y6403496D01*
X36815778Y6334511D01*
X36777084Y6315726D01*
X36731339Y6320958D01*
X36707064Y6371683D01*
X36696366Y6486295D01*
X36695604Y6505646D01*
X36688208Y6709833D01*
X36672003Y6529916D01*
X36647172Y6401558D01*
X36603865Y6350665D01*
X36597167Y6350000D01*
X36551559Y6390658D01*
X36523296Y6508510D01*
X36520960Y6529916D01*
X36511038Y6625286D01*
X36506539Y6643254D01*
X36506338Y6581083D01*
X36507943Y6498166D01*
X36513646Y6372388D01*
X36534225Y6307180D01*
X36585481Y6278451D01*
X36660667Y6265333D01*
X36747282Y6248683D01*
X36792767Y6215203D01*
X36812708Y6141437D01*
X36821585Y6023185D01*
X36820384Y5878784D01*
X36803069Y5758114D01*
X36788346Y5716268D01*
X36723246Y5648434D01*
X36647170Y5631112D01*
X36589577Y5664481D01*
X36576000Y5715000D01*
X36593728Y5783790D01*
X36618334Y5799666D01*
X36646095Y5836933D01*
X36660217Y5928791D01*
X36660667Y5950777D01*
X36653846Y6050886D01*
X36623212Y6088800D01*
X36565417Y6088361D01*
X36510112Y6072349D01*
X36483747Y6030006D01*
X36478430Y5939017D01*
X36482017Y5852583D01*
X36476985Y5704001D01*
X36443719Y5630645D01*
X36384625Y5634908D01*
X36322266Y5693513D01*
X36292928Y5779042D01*
X36289422Y5909578D01*
X36307535Y6053854D01*
X36343056Y6180605D01*
X36391770Y6258565D01*
X36399076Y6263617D01*
X36446638Y6296375D01*
X36419914Y6305830D01*
X36401633Y6306379D01*
X36369446Y6319861D01*
X36346629Y6368278D01*
X36330244Y6465720D01*
X36317357Y6626277D01*
X36310951Y6741583D01*
X36280328Y7064918D01*
X36225039Y7392945D01*
X36184390Y7565820D01*
X36147248Y7704666D01*
X36491334Y7704666D01*
X36506823Y7669821D01*
X36519556Y7676444D01*
X36524622Y7726684D01*
X36519556Y7732889D01*
X36494389Y7727078D01*
X36491334Y7704666D01*
X36147248Y7704666D01*
X36124599Y7789333D01*
X36279667Y7789333D01*
X36295156Y7754488D01*
X36307889Y7761111D01*
X36312956Y7811351D01*
X36307889Y7817555D01*
X36282722Y7811744D01*
X36279667Y7789333D01*
X36124599Y7789333D01*
X36113275Y7831666D01*
X36449000Y7831666D01*
X36464489Y7796821D01*
X36477222Y7803444D01*
X36482289Y7853684D01*
X36477222Y7859889D01*
X36452055Y7854078D01*
X36449000Y7831666D01*
X36113275Y7831666D01*
X36079976Y7956140D01*
X36312465Y8023726D01*
X36443486Y8054832D01*
X36540480Y8064979D01*
X36575117Y8056740D01*
X36575117Y8056740D01*
G37*
X36575117Y8056740D02*
X36601882Y7999743D01*
X36640154Y7887723D01*
X36672143Y7778750D01*
X36707566Y7643727D01*
X36718490Y7570893D01*
X36704045Y7541135D01*
X36663357Y7535337D01*
X36661031Y7535333D01*
X36584633Y7560445D01*
X36561703Y7588250D01*
X36543067Y7603099D01*
X36537009Y7567083D01*
X36511141Y7502914D01*
X36457612Y7500699D01*
X36399386Y7554534D01*
X36372405Y7609416D01*
X36345306Y7681159D01*
X36335119Y7681183D01*
X36335990Y7603714D01*
X36337127Y7574634D01*
X36343167Y7423434D01*
X36526073Y7462283D01*
X36648277Y7485949D01*
X36711378Y7484078D01*
X36739016Y7449081D01*
X36751892Y7389804D01*
X36741944Y7327268D01*
X36671729Y7289310D01*
X36626769Y7278294D01*
X36509823Y7247375D01*
X36458651Y7203282D01*
X36455279Y7120385D01*
X36467003Y7050474D01*
X36491955Y6953503D01*
X36536738Y6910922D01*
X36630294Y6900513D01*
X36662585Y6900333D01*
X36830000Y6900333D01*
X36837056Y6688666D01*
X36841905Y6549450D01*
X36846176Y6437259D01*
X36847639Y6403496D01*
X36815778Y6334511D01*
X36777084Y6315726D01*
X36731339Y6320958D01*
X36707064Y6371683D01*
X36696366Y6486295D01*
X36695604Y6505646D01*
X36688208Y6709833D01*
X36672003Y6529916D01*
X36647172Y6401558D01*
X36603865Y6350665D01*
X36597167Y6350000D01*
X36551559Y6390658D01*
X36523296Y6508510D01*
X36520960Y6529916D01*
X36511038Y6625286D01*
X36506539Y6643254D01*
X36506338Y6581083D01*
X36507943Y6498166D01*
X36513646Y6372388D01*
X36534225Y6307180D01*
X36585481Y6278451D01*
X36660667Y6265333D01*
X36747282Y6248683D01*
X36792767Y6215203D01*
X36812708Y6141437D01*
X36821585Y6023185D01*
X36820384Y5878784D01*
X36803069Y5758114D01*
X36788346Y5716268D01*
X36723246Y5648434D01*
X36647170Y5631112D01*
X36589577Y5664481D01*
X36576000Y5715000D01*
X36593728Y5783790D01*
X36618334Y5799666D01*
X36646095Y5836933D01*
X36660217Y5928791D01*
X36660667Y5950777D01*
X36653846Y6050886D01*
X36623212Y6088800D01*
X36565417Y6088361D01*
X36510112Y6072349D01*
X36483747Y6030006D01*
X36478430Y5939017D01*
X36482017Y5852583D01*
X36476985Y5704001D01*
X36443719Y5630645D01*
X36384625Y5634908D01*
X36322266Y5693513D01*
X36292928Y5779042D01*
X36289422Y5909578D01*
X36307535Y6053854D01*
X36343056Y6180605D01*
X36391770Y6258565D01*
X36399076Y6263617D01*
X36446638Y6296375D01*
X36419914Y6305830D01*
X36401633Y6306379D01*
X36369446Y6319861D01*
X36346629Y6368278D01*
X36330244Y6465720D01*
X36317357Y6626277D01*
X36310951Y6741583D01*
X36280328Y7064918D01*
X36225039Y7392945D01*
X36184390Y7565820D01*
X36147248Y7704666D01*
X36491334Y7704666D01*
X36506823Y7669821D01*
X36519556Y7676444D01*
X36524622Y7726684D01*
X36519556Y7732889D01*
X36494389Y7727078D01*
X36491334Y7704666D01*
X36147248Y7704666D01*
X36124599Y7789333D01*
X36279667Y7789333D01*
X36295156Y7754488D01*
X36307889Y7761111D01*
X36312956Y7811351D01*
X36307889Y7817555D01*
X36282722Y7811744D01*
X36279667Y7789333D01*
X36124599Y7789333D01*
X36113275Y7831666D01*
X36449000Y7831666D01*
X36464489Y7796821D01*
X36477222Y7803444D01*
X36482289Y7853684D01*
X36477222Y7859889D01*
X36452055Y7854078D01*
X36449000Y7831666D01*
X36113275Y7831666D01*
X36079976Y7956140D01*
X36312465Y8023726D01*
X36443486Y8054832D01*
X36540480Y8064979D01*
X36575117Y8056740D01*
G36*
X36743156Y5541014D02*
G01*
X36731664Y5439816D01*
X36730633Y5433528D01*
X36696784Y5260747D01*
X36657822Y5110818D01*
X36619659Y5003063D01*
X36588210Y4956802D01*
X36584594Y4956342D01*
X36520809Y4974016D01*
X36508070Y4978985D01*
X36479270Y5029904D01*
X36480716Y5099828D01*
X36482242Y5167886D01*
X36440241Y5210109D01*
X36334988Y5245832D01*
X36330498Y5247045D01*
X36222345Y5283999D01*
X36180277Y5326108D01*
X36182872Y5376861D01*
X36210494Y5437299D01*
X36264694Y5457484D01*
X36366678Y5441219D01*
X36436232Y5422328D01*
X36529430Y5402384D01*
X36570527Y5422457D01*
X36584119Y5474813D01*
X36627248Y5554324D01*
X36677345Y5581262D01*
X36727525Y5581301D01*
X36743156Y5541014D01*
X36743156Y5541014D01*
G37*
X36743156Y5541014D02*
X36731664Y5439816D01*
X36730633Y5433528D01*
X36696784Y5260747D01*
X36657822Y5110818D01*
X36619659Y5003063D01*
X36588210Y4956802D01*
X36584594Y4956342D01*
X36520809Y4974016D01*
X36508070Y4978985D01*
X36479270Y5029904D01*
X36480716Y5099828D01*
X36482242Y5167886D01*
X36440241Y5210109D01*
X36334988Y5245832D01*
X36330498Y5247045D01*
X36222345Y5283999D01*
X36180277Y5326108D01*
X36182872Y5376861D01*
X36210494Y5437299D01*
X36264694Y5457484D01*
X36366678Y5441219D01*
X36436232Y5422328D01*
X36529430Y5402384D01*
X36570527Y5422457D01*
X36584119Y5474813D01*
X36627248Y5554324D01*
X36677345Y5581262D01*
X36727525Y5581301D01*
X36743156Y5541014D01*
G36*
X36264394Y5032871D02*
G01*
X36387413Y4995536D01*
X36494964Y4947213D01*
X36556892Y4897335D01*
X36560296Y4890531D01*
X36556330Y4820140D01*
X36520621Y4708865D01*
X36465223Y4582067D01*
X36402188Y4465109D01*
X36343569Y4383354D01*
X36308333Y4360333D01*
X36231550Y4375900D01*
X36119152Y4414347D01*
X36094337Y4424401D01*
X35984372Y4464776D01*
X35945881Y4467073D01*
X35977438Y4436282D01*
X36077622Y4377388D01*
X36113009Y4358968D01*
X36234404Y4279536D01*
X36272218Y4207510D01*
X36271273Y4199844D01*
X36229500Y4132519D01*
X36140153Y4128994D01*
X35999895Y4189455D01*
X35951584Y4217549D01*
X35832737Y4295967D01*
X35781380Y4353620D01*
X35788874Y4406794D01*
X35826952Y4452559D01*
X35891386Y4542624D01*
X35910290Y4582583D01*
X35947591Y4625296D01*
X36238682Y4625296D01*
X36251134Y4590608D01*
X36295090Y4623962D01*
X36302180Y4633008D01*
X36350450Y4709559D01*
X36364334Y4749424D01*
X36341754Y4783669D01*
X36295720Y4764940D01*
X36263029Y4716704D01*
X36238682Y4625296D01*
X35947591Y4625296D01*
X35965016Y4645249D01*
X36004536Y4656666D01*
X36071956Y4692528D01*
X36112034Y4777079D01*
X36112902Y4875765D01*
X36094884Y4919674D01*
X36072333Y5002267D01*
X36092579Y5036845D01*
X36156065Y5049785D01*
X36264394Y5032871D01*
X36264394Y5032871D01*
G37*
X36264394Y5032871D02*
X36387413Y4995536D01*
X36494964Y4947213D01*
X36556892Y4897335D01*
X36560296Y4890531D01*
X36556330Y4820140D01*
X36520621Y4708865D01*
X36465223Y4582067D01*
X36402188Y4465109D01*
X36343569Y4383354D01*
X36308333Y4360333D01*
X36231550Y4375900D01*
X36119152Y4414347D01*
X36094337Y4424401D01*
X35984372Y4464776D01*
X35945881Y4467073D01*
X35977438Y4436282D01*
X36077622Y4377388D01*
X36113009Y4358968D01*
X36234404Y4279536D01*
X36272218Y4207510D01*
X36271273Y4199844D01*
X36229500Y4132519D01*
X36140153Y4128994D01*
X35999895Y4189455D01*
X35951584Y4217549D01*
X35832737Y4295967D01*
X35781380Y4353620D01*
X35788874Y4406794D01*
X35826952Y4452559D01*
X35891386Y4542624D01*
X35910290Y4582583D01*
X35947591Y4625296D01*
X36238682Y4625296D01*
X36251134Y4590608D01*
X36295090Y4623962D01*
X36302180Y4633008D01*
X36350450Y4709559D01*
X36364334Y4749424D01*
X36341754Y4783669D01*
X36295720Y4764940D01*
X36263029Y4716704D01*
X36238682Y4625296D01*
X35947591Y4625296D01*
X35965016Y4645249D01*
X36004536Y4656666D01*
X36071956Y4692528D01*
X36112034Y4777079D01*
X36112902Y4875765D01*
X36094884Y4919674D01*
X36072333Y5002267D01*
X36092579Y5036845D01*
X36156065Y5049785D01*
X36264394Y5032871D01*
G36*
X35897183Y4208907D02*
G01*
X36022419Y4123737D01*
X36104736Y4047379D01*
X36149783Y3991802D01*
X36152667Y3982828D01*
X36130993Y3932908D01*
X36075119Y3837181D01*
X36021677Y3753758D01*
X35909946Y3620391D01*
X35800778Y3554172D01*
X35704974Y3560366D01*
X35673269Y3583842D01*
X35684464Y3626377D01*
X35743918Y3703948D01*
X35793213Y3755213D01*
X35891904Y3856257D01*
X35932015Y3920159D01*
X35918489Y3965753D01*
X35859955Y4009580D01*
X35794630Y4034878D01*
X35742362Y4000306D01*
X35710029Y3955068D01*
X35666692Y3870823D01*
X35660320Y3818921D01*
X35653763Y3764399D01*
X35624441Y3712612D01*
X35575881Y3661560D01*
X35529390Y3678765D01*
X35501195Y3705519D01*
X35453851Y3759212D01*
X35440358Y3809253D01*
X35464913Y3877703D01*
X35531713Y3986620D01*
X35563990Y4035575D01*
X35675169Y4172665D01*
X35781775Y4229585D01*
X35897183Y4208907D01*
X35897183Y4208907D01*
G37*
X35897183Y4208907D02*
X36022419Y4123737D01*
X36104736Y4047379D01*
X36149783Y3991802D01*
X36152667Y3982828D01*
X36130993Y3932908D01*
X36075119Y3837181D01*
X36021677Y3753758D01*
X35909946Y3620391D01*
X35800778Y3554172D01*
X35704974Y3560366D01*
X35673269Y3583842D01*
X35684464Y3626377D01*
X35743918Y3703948D01*
X35793213Y3755213D01*
X35891904Y3856257D01*
X35932015Y3920159D01*
X35918489Y3965753D01*
X35859955Y4009580D01*
X35794630Y4034878D01*
X35742362Y4000306D01*
X35710029Y3955068D01*
X35666692Y3870823D01*
X35660320Y3818921D01*
X35653763Y3764399D01*
X35624441Y3712612D01*
X35575881Y3661560D01*
X35529390Y3678765D01*
X35501195Y3705519D01*
X35453851Y3759212D01*
X35440358Y3809253D01*
X35464913Y3877703D01*
X35531713Y3986620D01*
X35563990Y4035575D01*
X35675169Y4172665D01*
X35781775Y4229585D01*
X35897183Y4208907D01*
G36*
X35371783Y3524555D02*
G01*
X35468134Y3448443D01*
X35553310Y3354300D01*
X35599915Y3268964D01*
X35602334Y3251438D01*
X35574475Y3199110D01*
X35502824Y3111458D01*
X35437981Y3043019D01*
X35303447Y2932511D01*
X35186159Y2881701D01*
X35098623Y2894695D01*
X35072021Y2922854D01*
X35071751Y2977841D01*
X35105227Y3039948D01*
X35149507Y3075223D01*
X35171309Y3069802D01*
X35213833Y3079632D01*
X35286361Y3134167D01*
X35291748Y3139162D01*
X35355437Y3215680D01*
X35352841Y3273440D01*
X35342621Y3287716D01*
X35274446Y3337371D01*
X35243878Y3344333D01*
X35183644Y3319014D01*
X35118355Y3261727D01*
X35074825Y3200476D01*
X35074097Y3167014D01*
X35070196Y3127255D01*
X35019590Y3084798D01*
X34956293Y3062507D01*
X34926855Y3068020D01*
X34883349Y3137162D01*
X34906057Y3238678D01*
X34990309Y3358638D01*
X35041417Y3409789D01*
X35151315Y3494881D01*
X35252510Y3547518D01*
X35291654Y3555798D01*
X35371783Y3524555D01*
X35371783Y3524555D01*
G37*
X35371783Y3524555D02*
X35468134Y3448443D01*
X35553310Y3354300D01*
X35599915Y3268964D01*
X35602334Y3251438D01*
X35574475Y3199110D01*
X35502824Y3111458D01*
X35437981Y3043019D01*
X35303447Y2932511D01*
X35186159Y2881701D01*
X35098623Y2894695D01*
X35072021Y2922854D01*
X35071751Y2977841D01*
X35105227Y3039948D01*
X35149507Y3075223D01*
X35171309Y3069802D01*
X35213833Y3079632D01*
X35286361Y3134167D01*
X35291748Y3139162D01*
X35355437Y3215680D01*
X35352841Y3273440D01*
X35342621Y3287716D01*
X35274446Y3337371D01*
X35243878Y3344333D01*
X35183644Y3319014D01*
X35118355Y3261727D01*
X35074825Y3200476D01*
X35074097Y3167014D01*
X35070196Y3127255D01*
X35019590Y3084798D01*
X34956293Y3062507D01*
X34926855Y3068020D01*
X34883349Y3137162D01*
X34906057Y3238678D01*
X34990309Y3358638D01*
X35041417Y3409789D01*
X35151315Y3494881D01*
X35252510Y3547518D01*
X35291654Y3555798D01*
X35371783Y3524555D01*
G36*
X34879152Y3061935D02*
G01*
X34935244Y3000719D01*
X35018975Y2875338D01*
X35033219Y2769000D01*
X34974723Y2665059D01*
X34847626Y2552473D01*
X34697124Y2453028D01*
X34584314Y2418175D01*
X34495026Y2445583D01*
X34450168Y2487083D01*
X34379546Y2583870D01*
X34331602Y2665165D01*
X34313491Y2710124D01*
X34530909Y2710124D01*
X34547590Y2683841D01*
X34604821Y2633598D01*
X34666047Y2639237D01*
X34757876Y2703589D01*
X34761560Y2706602D01*
X34827016Y2768867D01*
X34829965Y2814166D01*
X34795008Y2856249D01*
X34743187Y2896726D01*
X34690866Y2888433D01*
X34613498Y2833488D01*
X34539553Y2763115D01*
X34530909Y2710124D01*
X34313491Y2710124D01*
X34306237Y2728128D01*
X34315466Y2781182D01*
X34370226Y2846238D01*
X34463745Y2929937D01*
X34611019Y3049182D01*
X34717789Y3109195D01*
X34801389Y3112579D01*
X34879152Y3061935D01*
X34879152Y3061935D01*
G37*
X34879152Y3061935D02*
X34935244Y3000719D01*
X35018975Y2875338D01*
X35033219Y2769000D01*
X34974723Y2665059D01*
X34847626Y2552473D01*
X34697124Y2453028D01*
X34584314Y2418175D01*
X34495026Y2445583D01*
X34450168Y2487083D01*
X34379546Y2583870D01*
X34331602Y2665165D01*
X34313491Y2710124D01*
X34530909Y2710124D01*
X34547590Y2683841D01*
X34604821Y2633598D01*
X34666047Y2639237D01*
X34757876Y2703589D01*
X34761560Y2706602D01*
X34827016Y2768867D01*
X34829965Y2814166D01*
X34795008Y2856249D01*
X34743187Y2896726D01*
X34690866Y2888433D01*
X34613498Y2833488D01*
X34539553Y2763115D01*
X34530909Y2710124D01*
X34313491Y2710124D01*
X34306237Y2728128D01*
X34315466Y2781182D01*
X34370226Y2846238D01*
X34463745Y2929937D01*
X34611019Y3049182D01*
X34717789Y3109195D01*
X34801389Y3112579D01*
X34879152Y3061935D01*
G36*
X34144020Y11186803D02*
G01*
X34324394Y11113671D01*
X34559892Y10990008D01*
X34572010Y10983245D01*
X34713352Y10900108D01*
X34794516Y10837415D01*
X34831507Y10778676D01*
X34840333Y10707404D01*
X34840334Y10706854D01*
X34818190Y10582809D01*
X34761437Y10432332D01*
X34684594Y10284356D01*
X34602180Y10167815D01*
X34544926Y10118162D01*
X34436436Y10091912D01*
X34364042Y10097637D01*
X34296050Y10099068D01*
X34230828Y10055743D01*
X34148341Y9953493D01*
X34136367Y9936641D01*
X34005721Y9751293D01*
X34194849Y9650961D01*
X34351834Y9548585D01*
X34540691Y9396334D01*
X34742504Y9212076D01*
X34938358Y9013679D01*
X35109338Y8819013D01*
X35197757Y8703536D01*
X35430265Y8331816D01*
X35631656Y7924461D01*
X35770693Y7556500D01*
X35823585Y7331093D01*
X35862992Y7047078D01*
X35887639Y6729631D01*
X35896250Y6403925D01*
X35887551Y6095135D01*
X35860265Y5828435D01*
X35858722Y5818709D01*
X35729738Y5275973D01*
X35526234Y4767655D01*
X35253300Y4299347D01*
X34916023Y3876639D01*
X34519492Y3505123D01*
X34068796Y3190389D01*
X33569024Y2938029D01*
X33083500Y2769420D01*
X32880081Y2728514D01*
X32618074Y2698657D01*
X32322930Y2680580D01*
X32020096Y2675018D01*
X31735022Y2682704D01*
X31493156Y2704369D01*
X31395764Y2720802D01*
X31105028Y2781632D01*
X30941083Y2523233D01*
X30862715Y2407553D01*
X30804633Y2336746D01*
X30777524Y2323486D01*
X30776757Y2328333D01*
X30790919Y2401848D01*
X30827661Y2521914D01*
X30858962Y2609118D01*
X30941549Y2826403D01*
X30742524Y2899956D01*
X30724729Y2908079D01*
X32457980Y2908079D01*
X32598502Y2936184D01*
X32723387Y2975849D01*
X32868159Y3041627D01*
X32915822Y3067899D01*
X33011357Y3129196D01*
X33337500Y3129196D01*
X33579713Y3233903D01*
X33754873Y3319215D01*
X33936078Y3422056D01*
X34024213Y3479055D01*
X34226500Y3619500D01*
X34086119Y3632974D01*
X34010361Y3633465D01*
X33936065Y3613526D01*
X33848923Y3564441D01*
X33734625Y3477492D01*
X33578860Y3343963D01*
X33506834Y3280099D01*
X33337500Y3129196D01*
X33011357Y3129196D01*
X33055924Y3157791D01*
X33202359Y3264355D01*
X33339940Y3374762D01*
X33453474Y3476184D01*
X33527772Y3555794D01*
X33547644Y3600763D01*
X33547374Y3601234D01*
X33493991Y3623273D01*
X33387105Y3636041D01*
X33257417Y3639110D01*
X33135629Y3632054D01*
X33052440Y3614446D01*
X33041167Y3608268D01*
X32997919Y3563738D01*
X32915367Y3468715D01*
X32806963Y3338925D01*
X32728407Y3242623D01*
X32457980Y2908079D01*
X30724729Y2908079D01*
X30372389Y3068907D01*
X29995630Y3298832D01*
X29636768Y3571978D01*
X29599614Y3607039D01*
X30090602Y3607039D01*
X30104714Y3561178D01*
X30190197Y3492553D01*
X30349433Y3398611D01*
X30584806Y3276804D01*
X30625928Y3256415D01*
X30811605Y3166740D01*
X30933533Y3113397D01*
X31002429Y3092428D01*
X31029009Y3099876D01*
X31030334Y3107057D01*
X31000218Y3139822D01*
X30920189Y3213285D01*
X31496000Y3213285D01*
X31529921Y3113402D01*
X31612322Y3012211D01*
X31714160Y2939326D01*
X31782641Y2921000D01*
X31843611Y2923468D01*
X31859976Y2940731D01*
X31827033Y2987582D01*
X31740084Y3078810D01*
X31728834Y3090333D01*
X31609028Y3204689D01*
X31534561Y3254150D01*
X31500006Y3241580D01*
X31496000Y3213285D01*
X30920189Y3213285D01*
X30919337Y3214067D01*
X30801886Y3316974D01*
X30725573Y3382223D01*
X30569626Y3509531D01*
X30455435Y3588016D01*
X30445598Y3592355D01*
X30785051Y3592355D01*
X30835251Y3523781D01*
X30934964Y3436955D01*
X31048059Y3361006D01*
X31117630Y3354795D01*
X31150984Y3420354D01*
X31156685Y3498554D01*
X31129040Y3582951D01*
X31118535Y3588262D01*
X31623000Y3588262D01*
X31654875Y3498119D01*
X31746900Y3362087D01*
X31893675Y3187862D01*
X31937018Y3140608D01*
X32067500Y3000382D01*
X32074002Y3145963D01*
X32218090Y3145963D01*
X32228090Y3038368D01*
X32233833Y3019388D01*
X32259904Y2969767D01*
X32293460Y2983146D01*
X32334710Y3031326D01*
X32398618Y3110386D01*
X32493817Y3227947D01*
X32586167Y3341873D01*
X32673529Y3458857D01*
X32729664Y3552368D01*
X32742445Y3602197D01*
X32742419Y3602240D01*
X32686977Y3626758D01*
X32581235Y3638176D01*
X32458563Y3636337D01*
X32352334Y3621082D01*
X32308541Y3604302D01*
X32273806Y3543818D01*
X32244670Y3427835D01*
X32224857Y3285501D01*
X32218090Y3145963D01*
X32074002Y3145963D01*
X32080132Y3283198D01*
X32083439Y3429602D01*
X32079882Y3539452D01*
X32070479Y3588298D01*
X32018799Y3604840D01*
X31911513Y3622433D01*
X31835598Y3631011D01*
X31705798Y3638362D01*
X31640965Y3625645D01*
X31623005Y3589222D01*
X31623000Y3588262D01*
X31118535Y3588262D01*
X31038697Y3628622D01*
X30899871Y3640666D01*
X30806904Y3629498D01*
X30785051Y3592355D01*
X30445598Y3592355D01*
X30364354Y3628187D01*
X30277735Y3640552D01*
X30266962Y3640666D01*
X30145479Y3632685D01*
X30090602Y3607039D01*
X29599614Y3607039D01*
X29435325Y3762071D01*
X31741864Y3762071D01*
X32067500Y3788833D01*
X32077295Y4042833D01*
X32081610Y4181620D01*
X32077445Y4247636D01*
X32059854Y4252704D01*
X32023890Y4208645D01*
X32013795Y4194612D01*
X31944746Y4092244D01*
X31863126Y3963302D01*
X31841182Y3927230D01*
X31741864Y3762071D01*
X29435325Y3762071D01*
X29320326Y3870589D01*
X29179249Y4031804D01*
X28851175Y4493007D01*
X28623510Y4931833D01*
X28912601Y4931833D01*
X29012455Y4745487D01*
X29114608Y4576975D01*
X29247387Y4388741D01*
X29394351Y4201233D01*
X29539061Y4034897D01*
X29665076Y3910180D01*
X29717244Y3868916D01*
X29854170Y3798297D01*
X30014600Y3769774D01*
X30091717Y3767666D01*
X30318779Y3767666D01*
X30166520Y3968750D01*
X30076547Y4096681D01*
X29964075Y4269593D01*
X29847735Y4458461D01*
X29797580Y4543517D01*
X29701676Y4702408D01*
X29616403Y4831937D01*
X29553178Y4915380D01*
X29536688Y4930147D01*
X29802667Y4930147D01*
X29824930Y4863551D01*
X29885151Y4744316D01*
X29973481Y4589682D01*
X30080067Y4416885D01*
X30195060Y4243163D01*
X30196180Y4241535D01*
X30338066Y4043657D01*
X30452755Y3908664D01*
X30554963Y3825881D01*
X30659409Y3784630D01*
X30780810Y3774232D01*
X30837412Y3776321D01*
X30964626Y3787553D01*
X31030288Y3810828D01*
X31057503Y3859561D01*
X31065220Y3908609D01*
X31053990Y4008614D01*
X31008974Y4165234D01*
X30958879Y4298483D01*
X32221342Y4298483D01*
X32222130Y4148711D01*
X32230982Y4008993D01*
X32248215Y3902939D01*
X32254951Y3881521D01*
X32285530Y3818377D01*
X32331561Y3784244D01*
X32416412Y3770286D01*
X32556069Y3767666D01*
X32706546Y3773838D01*
X32829997Y3789809D01*
X32839081Y3792498D01*
X33179334Y3792498D01*
X33180160Y3790951D01*
X33231449Y3778986D01*
X33342571Y3770584D01*
X33478288Y3767666D01*
X33628818Y3770267D01*
X33726422Y3787025D01*
X33735144Y3792087D01*
X34078334Y3792087D01*
X34115905Y3776733D01*
X34209659Y3768253D01*
X34246194Y3767666D01*
X34383284Y3786205D01*
X34506702Y3852908D01*
X34569786Y3904401D01*
X34660324Y3986301D01*
X34692705Y4029779D01*
X34672837Y4051769D01*
X34625720Y4064695D01*
X34534989Y4122621D01*
X34503211Y4184459D01*
X34472614Y4259027D01*
X34445488Y4280501D01*
X34407508Y4248913D01*
X34338553Y4168756D01*
X34254918Y4061706D01*
X34172895Y3949439D01*
X34108780Y3853629D01*
X34078865Y3795951D01*
X34078334Y3792087D01*
X33735144Y3792087D01*
X33802840Y3831374D01*
X33889810Y3916746D01*
X33927809Y3957926D01*
X34051189Y4106260D01*
X34178289Y4280450D01*
X34244303Y4382182D01*
X34319461Y4510710D01*
X34353853Y4589977D01*
X34352597Y4641877D01*
X34320813Y4688305D01*
X34316893Y4692672D01*
X34261495Y4790847D01*
X34247667Y4861083D01*
X34241323Y4908982D01*
X34210167Y4936539D01*
X34136015Y4949320D01*
X34000682Y4952892D01*
X33947370Y4953000D01*
X33788387Y4950300D01*
X33694601Y4938789D01*
X33646627Y4913351D01*
X33625075Y4868868D01*
X33624813Y4867875D01*
X33599081Y4797843D01*
X33545205Y4669160D01*
X33470946Y4499854D01*
X33384063Y4307951D01*
X33379714Y4298493D01*
X33297139Y4113523D01*
X33232204Y3957325D01*
X33190928Y3845212D01*
X33179334Y3792498D01*
X32839081Y3792498D01*
X32886555Y3806551D01*
X32930086Y3857391D01*
X32998239Y3967593D01*
X33081835Y4118893D01*
X33171695Y4293025D01*
X33258640Y4471726D01*
X33333490Y4636729D01*
X33387068Y4769771D01*
X33409524Y4847166D01*
X33409837Y4884146D01*
X33388208Y4909051D01*
X33330504Y4924862D01*
X33222589Y4934556D01*
X33050329Y4941113D01*
X32951207Y4943753D01*
X32480248Y4955674D01*
X32390074Y4763837D01*
X32331792Y4653704D01*
X32282551Y4584323D01*
X32264200Y4572000D01*
X32242693Y4533738D01*
X32228302Y4434696D01*
X32221342Y4298483D01*
X30958879Y4298483D01*
X30935712Y4360103D01*
X30911930Y4416609D01*
X30837961Y4590035D01*
X30775152Y4740020D01*
X30737125Y4833545D01*
X30945667Y4833545D01*
X30959852Y4770770D01*
X30995637Y4667710D01*
X31042869Y4548781D01*
X31091393Y4438401D01*
X31131056Y4360990D01*
X31150964Y4339853D01*
X31155234Y4387852D01*
X31146743Y4489752D01*
X31139404Y4544002D01*
X31113064Y4640733D01*
X31069062Y4737956D01*
X31019160Y4818098D01*
X30975115Y4863585D01*
X30948686Y4856841D01*
X30945667Y4833545D01*
X30737125Y4833545D01*
X30732195Y4845669D01*
X30719623Y4878916D01*
X30698034Y4912424D01*
X30650432Y4934153D01*
X30561372Y4946531D01*
X30415409Y4951987D01*
X30248495Y4953000D01*
X30065726Y4950979D01*
X29919233Y4945514D01*
X29826479Y4937499D01*
X29802667Y4930147D01*
X29536688Y4930147D01*
X29528833Y4937180D01*
X29461965Y4945621D01*
X29338212Y4948115D01*
X29194684Y4944496D01*
X28912601Y4931833D01*
X28623510Y4931833D01*
X28604538Y4968400D01*
X28436298Y5466509D01*
X28343414Y5995860D01*
X28335524Y6153688D01*
X28582307Y6153688D01*
X28599536Y5967587D01*
X28639889Y5742400D01*
X28681871Y5566833D01*
X28738214Y5370095D01*
X28793977Y5241840D01*
X28865228Y5167534D01*
X28968039Y5132649D01*
X29118480Y5122652D01*
X29173448Y5122333D01*
X29473610Y5122333D01*
X29451580Y5238750D01*
X29379488Y5612043D01*
X29319477Y5905540D01*
X29270653Y6123107D01*
X29238691Y6243807D01*
X29429844Y6243807D01*
X29444770Y6104366D01*
X29476356Y5927917D01*
X29519846Y5733547D01*
X29570489Y5540347D01*
X29623531Y5367406D01*
X29674219Y5233814D01*
X29717799Y5158660D01*
X29729407Y5150095D01*
X29795664Y5139131D01*
X29920080Y5130399D01*
X30076148Y5125738D01*
X30081492Y5125675D01*
X30381484Y5122333D01*
X30385284Y5138971D01*
X30480000Y5138971D01*
X30514569Y5124172D01*
X30543500Y5122333D01*
X32599373Y5122333D01*
X33010770Y5122981D01*
X33193878Y5126830D01*
X33348020Y5136637D01*
X33451494Y5150694D01*
X33479379Y5159884D01*
X33517261Y5217286D01*
X33559520Y5328210D01*
X33598444Y5463708D01*
X33626320Y5594830D01*
X33635436Y5692628D01*
X33629243Y5722427D01*
X33573408Y5752637D01*
X33533422Y5757333D01*
X33458683Y5786251D01*
X33364062Y5858261D01*
X33337500Y5884333D01*
X33255823Y5963439D01*
X33198551Y6007839D01*
X33188948Y6011333D01*
X33157377Y5977631D01*
X33090723Y5885664D01*
X32998492Y5749140D01*
X32890190Y5581769D01*
X32880721Y5566833D01*
X32599373Y5122333D01*
X33728759Y5122333D01*
X34009380Y5122333D01*
X34159221Y5124279D01*
X34243311Y5134614D01*
X34280548Y5160079D01*
X34289832Y5207418D01*
X34290000Y5222457D01*
X34264180Y5326040D01*
X34241553Y5365533D01*
X35417050Y5365533D01*
X35420492Y5319990D01*
X35451215Y5318956D01*
X35486471Y5372640D01*
X35510524Y5453557D01*
X35513345Y5482166D01*
X35494160Y5486786D01*
X35454177Y5444180D01*
X35417050Y5365533D01*
X34241553Y5365533D01*
X34202236Y5434156D01*
X34145472Y5532300D01*
X34128471Y5616799D01*
X34128972Y5619782D01*
X34106150Y5691462D01*
X34032082Y5752034D01*
X33939587Y5780341D01*
X33890344Y5773606D01*
X33849219Y5743026D01*
X33817355Y5677205D01*
X33789913Y5560484D01*
X33762055Y5377207D01*
X33757747Y5344583D01*
X33728759Y5122333D01*
X32599373Y5122333D01*
X30543500Y5122333D01*
X30599847Y5144488D01*
X30607000Y5163338D01*
X30575970Y5186630D01*
X30543500Y5179975D01*
X30487799Y5149928D01*
X30480000Y5138971D01*
X30385284Y5138971D01*
X30457452Y5454952D01*
X30500998Y5672062D01*
X30508905Y5817228D01*
X31897972Y5817228D01*
X31901335Y5794540D01*
X31947819Y5775637D01*
X31994237Y5808828D01*
X32004000Y5843170D01*
X31972888Y5864359D01*
X31940743Y5857402D01*
X31897972Y5817228D01*
X30508905Y5817228D01*
X30509573Y5829483D01*
X30473776Y5946844D01*
X30384206Y6043772D01*
X30231461Y6139896D01*
X30095636Y6210345D01*
X29854040Y6318671D01*
X29661536Y6377797D01*
X29523528Y6386764D01*
X29445422Y6344615D01*
X29436329Y6327147D01*
X29429844Y6243807D01*
X29238691Y6243807D01*
X29232121Y6268614D01*
X29202986Y6345929D01*
X29192104Y6359935D01*
X29118110Y6379989D01*
X28992462Y6389380D01*
X28847449Y6388474D01*
X28715362Y6377639D01*
X28628491Y6357242D01*
X28621458Y6353445D01*
X28589261Y6286906D01*
X28582307Y6153688D01*
X28335524Y6153688D01*
X28321320Y6437790D01*
X28338979Y6702588D01*
X28580113Y6702588D01*
X28597328Y6590185D01*
X28621565Y6558155D01*
X28699290Y6536354D01*
X28827229Y6524119D01*
X28972911Y6521815D01*
X29103869Y6529807D01*
X29187634Y6548460D01*
X29193431Y6551731D01*
X29214805Y6603630D01*
X29231697Y6686658D01*
X29422969Y6686658D01*
X29433498Y6588048D01*
X29449889Y6547555D01*
X29518629Y6522300D01*
X29613569Y6524161D01*
X29664793Y6542582D01*
X30189313Y6542582D01*
X30228445Y6522080D01*
X30294264Y6526543D01*
X30387266Y6554721D01*
X30425499Y6627585D01*
X30429895Y6656916D01*
X30428919Y6706305D01*
X30608287Y6706305D01*
X30616825Y6604013D01*
X30638750Y6543537D01*
X30668457Y6543205D01*
X30682827Y6597442D01*
X30679908Y6677212D01*
X30657747Y6753481D01*
X30653406Y6761533D01*
X30623295Y6801151D01*
X30610694Y6771759D01*
X30608287Y6706305D01*
X30428919Y6706305D01*
X30428226Y6741366D01*
X30381092Y6770919D01*
X30334645Y6773333D01*
X30253475Y6762694D01*
X30225422Y6741583D01*
X30214981Y6679454D01*
X30198436Y6611210D01*
X30189313Y6542582D01*
X29664793Y6542582D01*
X29686854Y6550515D01*
X29696467Y6561074D01*
X29692742Y6617409D01*
X29654576Y6710230D01*
X29596697Y6814605D01*
X29585062Y6831449D01*
X31932013Y6831449D01*
X31959517Y6820496D01*
X32021704Y6841362D01*
X32077629Y6900148D01*
X32088667Y6949694D01*
X32070971Y7004579D01*
X32026244Y6989669D01*
X31967025Y6910021D01*
X31960405Y6897975D01*
X31932013Y6831449D01*
X29585062Y6831449D01*
X29533838Y6905604D01*
X29480727Y6958294D01*
X29459972Y6961344D01*
X29437048Y6907854D01*
X29424433Y6804776D01*
X29422969Y6686658D01*
X29231697Y6686658D01*
X29238534Y6720257D01*
X29262545Y6881787D01*
X29284767Y7068398D01*
X29284823Y7068992D01*
X32215667Y7068992D01*
X32224565Y6951262D01*
X32252902Y6909136D01*
X32268584Y6911158D01*
X32326715Y6930628D01*
X32449147Y6970129D01*
X32619385Y7024385D01*
X32820935Y7088119D01*
X32877045Y7105784D01*
X33098867Y7176343D01*
X33252962Y7229033D01*
X33352549Y7270809D01*
X33355118Y7272476D01*
X33964593Y7272476D01*
X33966290Y7218245D01*
X34038715Y7197733D01*
X34076409Y7196666D01*
X34214634Y7159145D01*
X34307318Y7090833D01*
X34382830Y7029184D01*
X34470728Y6997083D01*
X34601137Y6985716D01*
X34669076Y6985000D01*
X34803622Y6989273D01*
X34896319Y7000385D01*
X34925000Y7013416D01*
X34899605Y7063328D01*
X34860730Y7112000D01*
X35094334Y7112000D01*
X35109823Y7077155D01*
X35122556Y7083778D01*
X35127622Y7134017D01*
X35122556Y7140222D01*
X35097389Y7134411D01*
X35094334Y7112000D01*
X34860730Y7112000D01*
X34854939Y7119250D01*
X34776193Y7170938D01*
X34648182Y7194040D01*
X34558606Y7196666D01*
X34426472Y7200506D01*
X34358502Y7217153D01*
X34334343Y7254306D01*
X34332334Y7282241D01*
X34294150Y7366945D01*
X34221527Y7418302D01*
X34134768Y7445685D01*
X34072872Y7417252D01*
X34031027Y7370371D01*
X33964593Y7272476D01*
X33355118Y7272476D01*
X33410847Y7308625D01*
X33441076Y7349433D01*
X33456455Y7400187D01*
X33458848Y7411820D01*
X33504320Y7518891D01*
X33565135Y7564041D01*
X33624875Y7609771D01*
X33623978Y7665984D01*
X33608483Y7700060D01*
X33573489Y7723009D01*
X33504575Y7736999D01*
X33387318Y7744198D01*
X33207293Y7746771D01*
X33084696Y7747000D01*
X32566601Y7747000D01*
X32391134Y7496854D01*
X32289680Y7339352D01*
X32235177Y7215332D01*
X32216206Y7096948D01*
X32215667Y7068992D01*
X29284823Y7068992D01*
X29303128Y7260266D01*
X29315556Y7437568D01*
X29319980Y7580481D01*
X29314327Y7669180D01*
X29311340Y7679946D01*
X29271489Y7720787D01*
X29180537Y7741696D01*
X29040775Y7747000D01*
X28795942Y7747000D01*
X28702971Y7402446D01*
X28633722Y7116883D01*
X28592506Y6880876D01*
X28580113Y6702588D01*
X28338979Y6702588D01*
X28360135Y7019793D01*
X28475880Y7569433D01*
X28626495Y7976069D01*
X28922457Y7976069D01*
X28954245Y7934889D01*
X29035381Y7918725D01*
X29130271Y7916333D01*
X29256390Y7918939D01*
X29316081Y7932983D01*
X29321528Y7949512D01*
X32730722Y7949512D01*
X32762755Y7934050D01*
X32860356Y7922431D01*
X33004451Y7916640D01*
X33049525Y7916333D01*
X33382438Y7916333D01*
X33431924Y8047435D01*
X33456224Y8139744D01*
X33450300Y8235194D01*
X33410899Y8366208D01*
X33395830Y8407269D01*
X33341177Y8530861D01*
X33288347Y8613915D01*
X33257563Y8636000D01*
X33217395Y8604149D01*
X33142722Y8520461D01*
X33047203Y8402732D01*
X32944496Y8268760D01*
X32848258Y8136339D01*
X32772146Y8023268D01*
X32730722Y7949512D01*
X29321528Y7949512D01*
X29327558Y7967806D01*
X29316000Y8011583D01*
X29292168Y8110134D01*
X29267306Y8250188D01*
X29257541Y8318500D01*
X29254280Y8343524D01*
X30964449Y8343524D01*
X31019516Y8320616D01*
X31064834Y8325352D01*
X31119198Y8369218D01*
X31164361Y8477061D01*
X31193837Y8598412D01*
X31226318Y8746335D01*
X31256417Y8867896D01*
X31269328Y8910923D01*
X33430782Y8910923D01*
X33443804Y8868542D01*
X33475959Y8810557D01*
X33485667Y8737233D01*
X33510582Y8599120D01*
X33573932Y8474441D01*
X33658625Y8391519D01*
X33704600Y8374422D01*
X33792129Y8321580D01*
X33829130Y8241710D01*
X33870377Y8131343D01*
X33912417Y8060383D01*
X33957900Y8024175D01*
X34010271Y8044573D01*
X34055666Y8084256D01*
X34137076Y8146475D01*
X34196150Y8170333D01*
X34233688Y8190286D01*
X34213085Y8238522D01*
X34194784Y8255000D01*
X34459334Y8255000D01*
X34474823Y8220155D01*
X34487556Y8226778D01*
X34492622Y8277017D01*
X34487556Y8283222D01*
X34462389Y8277411D01*
X34459334Y8255000D01*
X34194784Y8255000D01*
X34147462Y8297607D01*
X34065870Y8343432D01*
X33955158Y8413804D01*
X33922998Y8498912D01*
X33968001Y8608523D01*
X34018690Y8675196D01*
X34132414Y8810349D01*
X33991236Y8956008D01*
X33888842Y9033398D01*
X34177552Y9033398D01*
X34184167Y9017000D01*
X34222208Y8976615D01*
X34228999Y8974666D01*
X34247181Y9007419D01*
X34247667Y9017000D01*
X34215123Y9057706D01*
X34202835Y9059333D01*
X34177552Y9033398D01*
X33888842Y9033398D01*
X33847386Y9064730D01*
X33700504Y9108209D01*
X33567963Y9085045D01*
X33469839Y8998041D01*
X33430782Y8910923D01*
X31269328Y8910923D01*
X31273138Y8923618D01*
X31284433Y8971575D01*
X31248826Y8953888D01*
X31234265Y8942302D01*
X31181963Y8876404D01*
X31118121Y8764527D01*
X31053659Y8630902D01*
X30999495Y8499759D01*
X30966547Y8395328D01*
X30964449Y8343524D01*
X29254280Y8343524D01*
X29229957Y8530166D01*
X29120818Y8360833D01*
X29005980Y8177929D01*
X28939781Y8053378D01*
X28922457Y7976069D01*
X28626495Y7976069D01*
X28665928Y8082531D01*
X28927650Y8554906D01*
X28968943Y8608272D01*
X30776334Y8608272D01*
X30788257Y8555644D01*
X30824667Y8582063D01*
X30886517Y8688225D01*
X30886871Y8688916D01*
X30957250Y8826500D01*
X30866792Y8745855D01*
X30800360Y8668237D01*
X30776334Y8608272D01*
X28968943Y8608272D01*
X29258417Y8982378D01*
X29619090Y9325982D01*
X30794747Y9325982D01*
X30805585Y9314923D01*
X30872985Y9344049D01*
X30882167Y9355666D01*
X30945477Y9390845D01*
X31042321Y9394261D01*
X31127770Y9365965D01*
X31140679Y9355387D01*
X31194848Y9352421D01*
X31271079Y9406003D01*
X31291684Y9429317D01*
X33799478Y9429317D01*
X33849436Y9365643D01*
X33943511Y9310428D01*
X34062448Y9277133D01*
X34120667Y9272882D01*
X34268834Y9272882D01*
X34163000Y9354700D01*
X34012123Y9461357D01*
X33906706Y9509873D01*
X33835157Y9504659D01*
X33812895Y9487992D01*
X33799478Y9429317D01*
X31291684Y9429317D01*
X31352120Y9497696D01*
X31420718Y9609064D01*
X31451813Y9687868D01*
X31490624Y9823195D01*
X31281731Y9705847D01*
X31150154Y9625161D01*
X31021090Y9534863D01*
X30909115Y9446922D01*
X30828809Y9373305D01*
X30794747Y9325982D01*
X29619090Y9325982D01*
X29655603Y9360767D01*
X29857253Y9502991D01*
X30402697Y9502991D01*
X30426516Y9431955D01*
X30477034Y9398000D01*
X30528288Y9420983D01*
X30630182Y9482520D01*
X30764794Y9571489D01*
X30834874Y9620044D01*
X30971616Y9718555D01*
X31075352Y9797843D01*
X31131437Y9846481D01*
X31136961Y9855816D01*
X31094438Y9847476D01*
X30996133Y9813394D01*
X30863573Y9762347D01*
X30718288Y9703111D01*
X30581804Y9644463D01*
X30475652Y9595179D01*
X30421462Y9564129D01*
X30402697Y9502991D01*
X29857253Y9502991D01*
X30116579Y9685893D01*
X30489051Y9885866D01*
X30694132Y9974988D01*
X30916775Y10058264D01*
X31134516Y10128557D01*
X31324887Y10178731D01*
X31465421Y10201648D01*
X31485282Y10202333D01*
X31559592Y10223711D01*
X31580667Y10259365D01*
X31622080Y10288707D01*
X31742777Y10314212D01*
X31937448Y10335504D01*
X32200781Y10352208D01*
X32527465Y10363949D01*
X32912189Y10370352D01*
X33167003Y10371474D01*
X33409214Y10372148D01*
X33577188Y10374850D01*
X33681353Y10380857D01*
X33732135Y10391446D01*
X33739962Y10407893D01*
X33715260Y10431475D01*
X33706753Y10437567D01*
X33628835Y10540210D01*
X33623217Y10635068D01*
X33927110Y10635068D01*
X33931180Y10624027D01*
X33990512Y10572384D01*
X34096347Y10509632D01*
X34215346Y10452843D01*
X34314171Y10419084D01*
X34337733Y10415871D01*
X34423628Y10444070D01*
X34448969Y10466916D01*
X34495700Y10549808D01*
X34519915Y10613224D01*
X34526046Y10672510D01*
X34491647Y10722582D01*
X34401382Y10780205D01*
X34336003Y10814307D01*
X34211822Y10873635D01*
X34116331Y10912749D01*
X34080828Y10922000D01*
X34031871Y10886839D01*
X33978397Y10804327D01*
X33937709Y10708918D01*
X33927110Y10635068D01*
X33623217Y10635068D01*
X33620058Y10688404D01*
X33680307Y10878989D01*
X33725784Y10970209D01*
X33809652Y11101108D01*
X33899048Y11180712D01*
X34006371Y11209213D01*
X34144020Y11186803D01*
X34144020Y11186803D01*
G37*
X34144020Y11186803D02*
X34324394Y11113671D01*
X34559892Y10990008D01*
X34572010Y10983245D01*
X34713352Y10900108D01*
X34794516Y10837415D01*
X34831507Y10778676D01*
X34840333Y10707404D01*
X34840334Y10706854D01*
X34818190Y10582809D01*
X34761437Y10432332D01*
X34684594Y10284356D01*
X34602180Y10167815D01*
X34544926Y10118162D01*
X34436436Y10091912D01*
X34364042Y10097637D01*
X34296050Y10099068D01*
X34230828Y10055743D01*
X34148341Y9953493D01*
X34136367Y9936641D01*
X34005721Y9751293D01*
X34194849Y9650961D01*
X34351834Y9548585D01*
X34540691Y9396334D01*
X34742504Y9212076D01*
X34938358Y9013679D01*
X35109338Y8819013D01*
X35197757Y8703536D01*
X35430265Y8331816D01*
X35631656Y7924461D01*
X35770693Y7556500D01*
X35823585Y7331093D01*
X35862992Y7047078D01*
X35887639Y6729631D01*
X35896250Y6403925D01*
X35887551Y6095135D01*
X35860265Y5828435D01*
X35858722Y5818709D01*
X35729738Y5275973D01*
X35526234Y4767655D01*
X35253300Y4299347D01*
X34916023Y3876639D01*
X34519492Y3505123D01*
X34068796Y3190389D01*
X33569024Y2938029D01*
X33083500Y2769420D01*
X32880081Y2728514D01*
X32618074Y2698657D01*
X32322930Y2680580D01*
X32020096Y2675018D01*
X31735022Y2682704D01*
X31493156Y2704369D01*
X31395764Y2720802D01*
X31105028Y2781632D01*
X30941083Y2523233D01*
X30862715Y2407553D01*
X30804633Y2336746D01*
X30777524Y2323486D01*
X30776757Y2328333D01*
X30790919Y2401848D01*
X30827661Y2521914D01*
X30858962Y2609118D01*
X30941549Y2826403D01*
X30742524Y2899956D01*
X30724729Y2908079D01*
X32457980Y2908079D01*
X32598502Y2936184D01*
X32723387Y2975849D01*
X32868159Y3041627D01*
X32915822Y3067899D01*
X33011357Y3129196D01*
X33337500Y3129196D01*
X33579713Y3233903D01*
X33754873Y3319215D01*
X33936078Y3422056D01*
X34024213Y3479055D01*
X34226500Y3619500D01*
X34086119Y3632974D01*
X34010361Y3633465D01*
X33936065Y3613526D01*
X33848923Y3564441D01*
X33734625Y3477492D01*
X33578860Y3343963D01*
X33506834Y3280099D01*
X33337500Y3129196D01*
X33011357Y3129196D01*
X33055924Y3157791D01*
X33202359Y3264355D01*
X33339940Y3374762D01*
X33453474Y3476184D01*
X33527772Y3555794D01*
X33547644Y3600763D01*
X33547374Y3601234D01*
X33493991Y3623273D01*
X33387105Y3636041D01*
X33257417Y3639110D01*
X33135629Y3632054D01*
X33052440Y3614446D01*
X33041167Y3608268D01*
X32997919Y3563738D01*
X32915367Y3468715D01*
X32806963Y3338925D01*
X32728407Y3242623D01*
X32457980Y2908079D01*
X30724729Y2908079D01*
X30372389Y3068907D01*
X29995630Y3298832D01*
X29636768Y3571978D01*
X29599614Y3607039D01*
X30090602Y3607039D01*
X30104714Y3561178D01*
X30190197Y3492553D01*
X30349433Y3398611D01*
X30584806Y3276804D01*
X30625928Y3256415D01*
X30811605Y3166740D01*
X30933533Y3113397D01*
X31002429Y3092428D01*
X31029009Y3099876D01*
X31030334Y3107057D01*
X31000218Y3139822D01*
X30920189Y3213285D01*
X31496000Y3213285D01*
X31529921Y3113402D01*
X31612322Y3012211D01*
X31714160Y2939326D01*
X31782641Y2921000D01*
X31843611Y2923468D01*
X31859976Y2940731D01*
X31827033Y2987582D01*
X31740084Y3078810D01*
X31728834Y3090333D01*
X31609028Y3204689D01*
X31534561Y3254150D01*
X31500006Y3241580D01*
X31496000Y3213285D01*
X30920189Y3213285D01*
X30919337Y3214067D01*
X30801886Y3316974D01*
X30725573Y3382223D01*
X30569626Y3509531D01*
X30455435Y3588016D01*
X30445598Y3592355D01*
X30785051Y3592355D01*
X30835251Y3523781D01*
X30934964Y3436955D01*
X31048059Y3361006D01*
X31117630Y3354795D01*
X31150984Y3420354D01*
X31156685Y3498554D01*
X31129040Y3582951D01*
X31118535Y3588262D01*
X31623000Y3588262D01*
X31654875Y3498119D01*
X31746900Y3362087D01*
X31893675Y3187862D01*
X31937018Y3140608D01*
X32067500Y3000382D01*
X32074002Y3145963D01*
X32218090Y3145963D01*
X32228090Y3038368D01*
X32233833Y3019388D01*
X32259904Y2969767D01*
X32293460Y2983146D01*
X32334710Y3031326D01*
X32398618Y3110386D01*
X32493817Y3227947D01*
X32586167Y3341873D01*
X32673529Y3458857D01*
X32729664Y3552368D01*
X32742445Y3602197D01*
X32742419Y3602240D01*
X32686977Y3626758D01*
X32581235Y3638176D01*
X32458563Y3636337D01*
X32352334Y3621082D01*
X32308541Y3604302D01*
X32273806Y3543818D01*
X32244670Y3427835D01*
X32224857Y3285501D01*
X32218090Y3145963D01*
X32074002Y3145963D01*
X32080132Y3283198D01*
X32083439Y3429602D01*
X32079882Y3539452D01*
X32070479Y3588298D01*
X32018799Y3604840D01*
X31911513Y3622433D01*
X31835598Y3631011D01*
X31705798Y3638362D01*
X31640965Y3625645D01*
X31623005Y3589222D01*
X31623000Y3588262D01*
X31118535Y3588262D01*
X31038697Y3628622D01*
X30899871Y3640666D01*
X30806904Y3629498D01*
X30785051Y3592355D01*
X30445598Y3592355D01*
X30364354Y3628187D01*
X30277735Y3640552D01*
X30266962Y3640666D01*
X30145479Y3632685D01*
X30090602Y3607039D01*
X29599614Y3607039D01*
X29435325Y3762071D01*
X31741864Y3762071D01*
X32067500Y3788833D01*
X32077295Y4042833D01*
X32081610Y4181620D01*
X32077445Y4247636D01*
X32059854Y4252704D01*
X32023890Y4208645D01*
X32013795Y4194612D01*
X31944746Y4092244D01*
X31863126Y3963302D01*
X31841182Y3927230D01*
X31741864Y3762071D01*
X29435325Y3762071D01*
X29320326Y3870589D01*
X29179249Y4031804D01*
X28851175Y4493007D01*
X28623510Y4931833D01*
X28912601Y4931833D01*
X29012455Y4745487D01*
X29114608Y4576975D01*
X29247387Y4388741D01*
X29394351Y4201233D01*
X29539061Y4034897D01*
X29665076Y3910180D01*
X29717244Y3868916D01*
X29854170Y3798297D01*
X30014600Y3769774D01*
X30091717Y3767666D01*
X30318779Y3767666D01*
X30166520Y3968750D01*
X30076547Y4096681D01*
X29964075Y4269593D01*
X29847735Y4458461D01*
X29797580Y4543517D01*
X29701676Y4702408D01*
X29616403Y4831937D01*
X29553178Y4915380D01*
X29536688Y4930147D01*
X29802667Y4930147D01*
X29824930Y4863551D01*
X29885151Y4744316D01*
X29973481Y4589682D01*
X30080067Y4416885D01*
X30195060Y4243163D01*
X30196180Y4241535D01*
X30338066Y4043657D01*
X30452755Y3908664D01*
X30554963Y3825881D01*
X30659409Y3784630D01*
X30780810Y3774232D01*
X30837412Y3776321D01*
X30964626Y3787553D01*
X31030288Y3810828D01*
X31057503Y3859561D01*
X31065220Y3908609D01*
X31053990Y4008614D01*
X31008974Y4165234D01*
X30958879Y4298483D01*
X32221342Y4298483D01*
X32222130Y4148711D01*
X32230982Y4008993D01*
X32248215Y3902939D01*
X32254951Y3881521D01*
X32285530Y3818377D01*
X32331561Y3784244D01*
X32416412Y3770286D01*
X32556069Y3767666D01*
X32706546Y3773838D01*
X32829997Y3789809D01*
X32839081Y3792498D01*
X33179334Y3792498D01*
X33180160Y3790951D01*
X33231449Y3778986D01*
X33342571Y3770584D01*
X33478288Y3767666D01*
X33628818Y3770267D01*
X33726422Y3787025D01*
X33735144Y3792087D01*
X34078334Y3792087D01*
X34115905Y3776733D01*
X34209659Y3768253D01*
X34246194Y3767666D01*
X34383284Y3786205D01*
X34506702Y3852908D01*
X34569786Y3904401D01*
X34660324Y3986301D01*
X34692705Y4029779D01*
X34672837Y4051769D01*
X34625720Y4064695D01*
X34534989Y4122621D01*
X34503211Y4184459D01*
X34472614Y4259027D01*
X34445488Y4280501D01*
X34407508Y4248913D01*
X34338553Y4168756D01*
X34254918Y4061706D01*
X34172895Y3949439D01*
X34108780Y3853629D01*
X34078865Y3795951D01*
X34078334Y3792087D01*
X33735144Y3792087D01*
X33802840Y3831374D01*
X33889810Y3916746D01*
X33927809Y3957926D01*
X34051189Y4106260D01*
X34178289Y4280450D01*
X34244303Y4382182D01*
X34319461Y4510710D01*
X34353853Y4589977D01*
X34352597Y4641877D01*
X34320813Y4688305D01*
X34316893Y4692672D01*
X34261495Y4790847D01*
X34247667Y4861083D01*
X34241323Y4908982D01*
X34210167Y4936539D01*
X34136015Y4949320D01*
X34000682Y4952892D01*
X33947370Y4953000D01*
X33788387Y4950300D01*
X33694601Y4938789D01*
X33646627Y4913351D01*
X33625075Y4868868D01*
X33624813Y4867875D01*
X33599081Y4797843D01*
X33545205Y4669160D01*
X33470946Y4499854D01*
X33384063Y4307951D01*
X33379714Y4298493D01*
X33297139Y4113523D01*
X33232204Y3957325D01*
X33190928Y3845212D01*
X33179334Y3792498D01*
X32839081Y3792498D01*
X32886555Y3806551D01*
X32930086Y3857391D01*
X32998239Y3967593D01*
X33081835Y4118893D01*
X33171695Y4293025D01*
X33258640Y4471726D01*
X33333490Y4636729D01*
X33387068Y4769771D01*
X33409524Y4847166D01*
X33409837Y4884146D01*
X33388208Y4909051D01*
X33330504Y4924862D01*
X33222589Y4934556D01*
X33050329Y4941113D01*
X32951207Y4943753D01*
X32480248Y4955674D01*
X32390074Y4763837D01*
X32331792Y4653704D01*
X32282551Y4584323D01*
X32264200Y4572000D01*
X32242693Y4533738D01*
X32228302Y4434696D01*
X32221342Y4298483D01*
X30958879Y4298483D01*
X30935712Y4360103D01*
X30911930Y4416609D01*
X30837961Y4590035D01*
X30775152Y4740020D01*
X30737125Y4833545D01*
X30945667Y4833545D01*
X30959852Y4770770D01*
X30995637Y4667710D01*
X31042869Y4548781D01*
X31091393Y4438401D01*
X31131056Y4360990D01*
X31150964Y4339853D01*
X31155234Y4387852D01*
X31146743Y4489752D01*
X31139404Y4544002D01*
X31113064Y4640733D01*
X31069062Y4737956D01*
X31019160Y4818098D01*
X30975115Y4863585D01*
X30948686Y4856841D01*
X30945667Y4833545D01*
X30737125Y4833545D01*
X30732195Y4845669D01*
X30719623Y4878916D01*
X30698034Y4912424D01*
X30650432Y4934153D01*
X30561372Y4946531D01*
X30415409Y4951987D01*
X30248495Y4953000D01*
X30065726Y4950979D01*
X29919233Y4945514D01*
X29826479Y4937499D01*
X29802667Y4930147D01*
X29536688Y4930147D01*
X29528833Y4937180D01*
X29461965Y4945621D01*
X29338212Y4948115D01*
X29194684Y4944496D01*
X28912601Y4931833D01*
X28623510Y4931833D01*
X28604538Y4968400D01*
X28436298Y5466509D01*
X28343414Y5995860D01*
X28335524Y6153688D01*
X28582307Y6153688D01*
X28599536Y5967587D01*
X28639889Y5742400D01*
X28681871Y5566833D01*
X28738214Y5370095D01*
X28793977Y5241840D01*
X28865228Y5167534D01*
X28968039Y5132649D01*
X29118480Y5122652D01*
X29173448Y5122333D01*
X29473610Y5122333D01*
X29451580Y5238750D01*
X29379488Y5612043D01*
X29319477Y5905540D01*
X29270653Y6123107D01*
X29238691Y6243807D01*
X29429844Y6243807D01*
X29444770Y6104366D01*
X29476356Y5927917D01*
X29519846Y5733547D01*
X29570489Y5540347D01*
X29623531Y5367406D01*
X29674219Y5233814D01*
X29717799Y5158660D01*
X29729407Y5150095D01*
X29795664Y5139131D01*
X29920080Y5130399D01*
X30076148Y5125738D01*
X30081492Y5125675D01*
X30381484Y5122333D01*
X30385284Y5138971D01*
X30480000Y5138971D01*
X30514569Y5124172D01*
X30543500Y5122333D01*
X32599373Y5122333D01*
X33010770Y5122981D01*
X33193878Y5126830D01*
X33348020Y5136637D01*
X33451494Y5150694D01*
X33479379Y5159884D01*
X33517261Y5217286D01*
X33559520Y5328210D01*
X33598444Y5463708D01*
X33626320Y5594830D01*
X33635436Y5692628D01*
X33629243Y5722427D01*
X33573408Y5752637D01*
X33533422Y5757333D01*
X33458683Y5786251D01*
X33364062Y5858261D01*
X33337500Y5884333D01*
X33255823Y5963439D01*
X33198551Y6007839D01*
X33188948Y6011333D01*
X33157377Y5977631D01*
X33090723Y5885664D01*
X32998492Y5749140D01*
X32890190Y5581769D01*
X32880721Y5566833D01*
X32599373Y5122333D01*
X33728759Y5122333D01*
X34009380Y5122333D01*
X34159221Y5124279D01*
X34243311Y5134614D01*
X34280548Y5160079D01*
X34289832Y5207418D01*
X34290000Y5222457D01*
X34264180Y5326040D01*
X34241553Y5365533D01*
X35417050Y5365533D01*
X35420492Y5319990D01*
X35451215Y5318956D01*
X35486471Y5372640D01*
X35510524Y5453557D01*
X35513345Y5482166D01*
X35494160Y5486786D01*
X35454177Y5444180D01*
X35417050Y5365533D01*
X34241553Y5365533D01*
X34202236Y5434156D01*
X34145472Y5532300D01*
X34128471Y5616799D01*
X34128972Y5619782D01*
X34106150Y5691462D01*
X34032082Y5752034D01*
X33939587Y5780341D01*
X33890344Y5773606D01*
X33849219Y5743026D01*
X33817355Y5677205D01*
X33789913Y5560484D01*
X33762055Y5377207D01*
X33757747Y5344583D01*
X33728759Y5122333D01*
X32599373Y5122333D01*
X30543500Y5122333D01*
X30599847Y5144488D01*
X30607000Y5163338D01*
X30575970Y5186630D01*
X30543500Y5179975D01*
X30487799Y5149928D01*
X30480000Y5138971D01*
X30385284Y5138971D01*
X30457452Y5454952D01*
X30500998Y5672062D01*
X30508905Y5817228D01*
X31897972Y5817228D01*
X31901335Y5794540D01*
X31947819Y5775637D01*
X31994237Y5808828D01*
X32004000Y5843170D01*
X31972888Y5864359D01*
X31940743Y5857402D01*
X31897972Y5817228D01*
X30508905Y5817228D01*
X30509573Y5829483D01*
X30473776Y5946844D01*
X30384206Y6043772D01*
X30231461Y6139896D01*
X30095636Y6210345D01*
X29854040Y6318671D01*
X29661536Y6377797D01*
X29523528Y6386764D01*
X29445422Y6344615D01*
X29436329Y6327147D01*
X29429844Y6243807D01*
X29238691Y6243807D01*
X29232121Y6268614D01*
X29202986Y6345929D01*
X29192104Y6359935D01*
X29118110Y6379989D01*
X28992462Y6389380D01*
X28847449Y6388474D01*
X28715362Y6377639D01*
X28628491Y6357242D01*
X28621458Y6353445D01*
X28589261Y6286906D01*
X28582307Y6153688D01*
X28335524Y6153688D01*
X28321320Y6437790D01*
X28338979Y6702588D01*
X28580113Y6702588D01*
X28597328Y6590185D01*
X28621565Y6558155D01*
X28699290Y6536354D01*
X28827229Y6524119D01*
X28972911Y6521815D01*
X29103869Y6529807D01*
X29187634Y6548460D01*
X29193431Y6551731D01*
X29214805Y6603630D01*
X29231697Y6686658D01*
X29422969Y6686658D01*
X29433498Y6588048D01*
X29449889Y6547555D01*
X29518629Y6522300D01*
X29613569Y6524161D01*
X29664793Y6542582D01*
X30189313Y6542582D01*
X30228445Y6522080D01*
X30294264Y6526543D01*
X30387266Y6554721D01*
X30425499Y6627585D01*
X30429895Y6656916D01*
X30428919Y6706305D01*
X30608287Y6706305D01*
X30616825Y6604013D01*
X30638750Y6543537D01*
X30668457Y6543205D01*
X30682827Y6597442D01*
X30679908Y6677212D01*
X30657747Y6753481D01*
X30653406Y6761533D01*
X30623295Y6801151D01*
X30610694Y6771759D01*
X30608287Y6706305D01*
X30428919Y6706305D01*
X30428226Y6741366D01*
X30381092Y6770919D01*
X30334645Y6773333D01*
X30253475Y6762694D01*
X30225422Y6741583D01*
X30214981Y6679454D01*
X30198436Y6611210D01*
X30189313Y6542582D01*
X29664793Y6542582D01*
X29686854Y6550515D01*
X29696467Y6561074D01*
X29692742Y6617409D01*
X29654576Y6710230D01*
X29596697Y6814605D01*
X29585062Y6831449D01*
X31932013Y6831449D01*
X31959517Y6820496D01*
X32021704Y6841362D01*
X32077629Y6900148D01*
X32088667Y6949694D01*
X32070971Y7004579D01*
X32026244Y6989669D01*
X31967025Y6910021D01*
X31960405Y6897975D01*
X31932013Y6831449D01*
X29585062Y6831449D01*
X29533838Y6905604D01*
X29480727Y6958294D01*
X29459972Y6961344D01*
X29437048Y6907854D01*
X29424433Y6804776D01*
X29422969Y6686658D01*
X29231697Y6686658D01*
X29238534Y6720257D01*
X29262545Y6881787D01*
X29284767Y7068398D01*
X29284823Y7068992D01*
X32215667Y7068992D01*
X32224565Y6951262D01*
X32252902Y6909136D01*
X32268584Y6911158D01*
X32326715Y6930628D01*
X32449147Y6970129D01*
X32619385Y7024385D01*
X32820935Y7088119D01*
X32877045Y7105784D01*
X33098867Y7176343D01*
X33252962Y7229033D01*
X33352549Y7270809D01*
X33355118Y7272476D01*
X33964593Y7272476D01*
X33966290Y7218245D01*
X34038715Y7197733D01*
X34076409Y7196666D01*
X34214634Y7159145D01*
X34307318Y7090833D01*
X34382830Y7029184D01*
X34470728Y6997083D01*
X34601137Y6985716D01*
X34669076Y6985000D01*
X34803622Y6989273D01*
X34896319Y7000385D01*
X34925000Y7013416D01*
X34899605Y7063328D01*
X34860730Y7112000D01*
X35094334Y7112000D01*
X35109823Y7077155D01*
X35122556Y7083778D01*
X35127622Y7134017D01*
X35122556Y7140222D01*
X35097389Y7134411D01*
X35094334Y7112000D01*
X34860730Y7112000D01*
X34854939Y7119250D01*
X34776193Y7170938D01*
X34648182Y7194040D01*
X34558606Y7196666D01*
X34426472Y7200506D01*
X34358502Y7217153D01*
X34334343Y7254306D01*
X34332334Y7282241D01*
X34294150Y7366945D01*
X34221527Y7418302D01*
X34134768Y7445685D01*
X34072872Y7417252D01*
X34031027Y7370371D01*
X33964593Y7272476D01*
X33355118Y7272476D01*
X33410847Y7308625D01*
X33441076Y7349433D01*
X33456455Y7400187D01*
X33458848Y7411820D01*
X33504320Y7518891D01*
X33565135Y7564041D01*
X33624875Y7609771D01*
X33623978Y7665984D01*
X33608483Y7700060D01*
X33573489Y7723009D01*
X33504575Y7736999D01*
X33387318Y7744198D01*
X33207293Y7746771D01*
X33084696Y7747000D01*
X32566601Y7747000D01*
X32391134Y7496854D01*
X32289680Y7339352D01*
X32235177Y7215332D01*
X32216206Y7096948D01*
X32215667Y7068992D01*
X29284823Y7068992D01*
X29303128Y7260266D01*
X29315556Y7437568D01*
X29319980Y7580481D01*
X29314327Y7669180D01*
X29311340Y7679946D01*
X29271489Y7720787D01*
X29180537Y7741696D01*
X29040775Y7747000D01*
X28795942Y7747000D01*
X28702971Y7402446D01*
X28633722Y7116883D01*
X28592506Y6880876D01*
X28580113Y6702588D01*
X28338979Y6702588D01*
X28360135Y7019793D01*
X28475880Y7569433D01*
X28626495Y7976069D01*
X28922457Y7976069D01*
X28954245Y7934889D01*
X29035381Y7918725D01*
X29130271Y7916333D01*
X29256390Y7918939D01*
X29316081Y7932983D01*
X29321528Y7949512D01*
X32730722Y7949512D01*
X32762755Y7934050D01*
X32860356Y7922431D01*
X33004451Y7916640D01*
X33049525Y7916333D01*
X33382438Y7916333D01*
X33431924Y8047435D01*
X33456224Y8139744D01*
X33450300Y8235194D01*
X33410899Y8366208D01*
X33395830Y8407269D01*
X33341177Y8530861D01*
X33288347Y8613915D01*
X33257563Y8636000D01*
X33217395Y8604149D01*
X33142722Y8520461D01*
X33047203Y8402732D01*
X32944496Y8268760D01*
X32848258Y8136339D01*
X32772146Y8023268D01*
X32730722Y7949512D01*
X29321528Y7949512D01*
X29327558Y7967806D01*
X29316000Y8011583D01*
X29292168Y8110134D01*
X29267306Y8250188D01*
X29257541Y8318500D01*
X29254280Y8343524D01*
X30964449Y8343524D01*
X31019516Y8320616D01*
X31064834Y8325352D01*
X31119198Y8369218D01*
X31164361Y8477061D01*
X31193837Y8598412D01*
X31226318Y8746335D01*
X31256417Y8867896D01*
X31269328Y8910923D01*
X33430782Y8910923D01*
X33443804Y8868542D01*
X33475959Y8810557D01*
X33485667Y8737233D01*
X33510582Y8599120D01*
X33573932Y8474441D01*
X33658625Y8391519D01*
X33704600Y8374422D01*
X33792129Y8321580D01*
X33829130Y8241710D01*
X33870377Y8131343D01*
X33912417Y8060383D01*
X33957900Y8024175D01*
X34010271Y8044573D01*
X34055666Y8084256D01*
X34137076Y8146475D01*
X34196150Y8170333D01*
X34233688Y8190286D01*
X34213085Y8238522D01*
X34194784Y8255000D01*
X34459334Y8255000D01*
X34474823Y8220155D01*
X34487556Y8226778D01*
X34492622Y8277017D01*
X34487556Y8283222D01*
X34462389Y8277411D01*
X34459334Y8255000D01*
X34194784Y8255000D01*
X34147462Y8297607D01*
X34065870Y8343432D01*
X33955158Y8413804D01*
X33922998Y8498912D01*
X33968001Y8608523D01*
X34018690Y8675196D01*
X34132414Y8810349D01*
X33991236Y8956008D01*
X33888842Y9033398D01*
X34177552Y9033398D01*
X34184167Y9017000D01*
X34222208Y8976615D01*
X34228999Y8974666D01*
X34247181Y9007419D01*
X34247667Y9017000D01*
X34215123Y9057706D01*
X34202835Y9059333D01*
X34177552Y9033398D01*
X33888842Y9033398D01*
X33847386Y9064730D01*
X33700504Y9108209D01*
X33567963Y9085045D01*
X33469839Y8998041D01*
X33430782Y8910923D01*
X31269328Y8910923D01*
X31273138Y8923618D01*
X31284433Y8971575D01*
X31248826Y8953888D01*
X31234265Y8942302D01*
X31181963Y8876404D01*
X31118121Y8764527D01*
X31053659Y8630902D01*
X30999495Y8499759D01*
X30966547Y8395328D01*
X30964449Y8343524D01*
X29254280Y8343524D01*
X29229957Y8530166D01*
X29120818Y8360833D01*
X29005980Y8177929D01*
X28939781Y8053378D01*
X28922457Y7976069D01*
X28626495Y7976069D01*
X28665928Y8082531D01*
X28927650Y8554906D01*
X28968943Y8608272D01*
X30776334Y8608272D01*
X30788257Y8555644D01*
X30824667Y8582063D01*
X30886517Y8688225D01*
X30886871Y8688916D01*
X30957250Y8826500D01*
X30866792Y8745855D01*
X30800360Y8668237D01*
X30776334Y8608272D01*
X28968943Y8608272D01*
X29258417Y8982378D01*
X29619090Y9325982D01*
X30794747Y9325982D01*
X30805585Y9314923D01*
X30872985Y9344049D01*
X30882167Y9355666D01*
X30945477Y9390845D01*
X31042321Y9394261D01*
X31127770Y9365965D01*
X31140679Y9355387D01*
X31194848Y9352421D01*
X31271079Y9406003D01*
X31291684Y9429317D01*
X33799478Y9429317D01*
X33849436Y9365643D01*
X33943511Y9310428D01*
X34062448Y9277133D01*
X34120667Y9272882D01*
X34268834Y9272882D01*
X34163000Y9354700D01*
X34012123Y9461357D01*
X33906706Y9509873D01*
X33835157Y9504659D01*
X33812895Y9487992D01*
X33799478Y9429317D01*
X31291684Y9429317D01*
X31352120Y9497696D01*
X31420718Y9609064D01*
X31451813Y9687868D01*
X31490624Y9823195D01*
X31281731Y9705847D01*
X31150154Y9625161D01*
X31021090Y9534863D01*
X30909115Y9446922D01*
X30828809Y9373305D01*
X30794747Y9325982D01*
X29619090Y9325982D01*
X29655603Y9360767D01*
X29857253Y9502991D01*
X30402697Y9502991D01*
X30426516Y9431955D01*
X30477034Y9398000D01*
X30528288Y9420983D01*
X30630182Y9482520D01*
X30764794Y9571489D01*
X30834874Y9620044D01*
X30971616Y9718555D01*
X31075352Y9797843D01*
X31131437Y9846481D01*
X31136961Y9855816D01*
X31094438Y9847476D01*
X30996133Y9813394D01*
X30863573Y9762347D01*
X30718288Y9703111D01*
X30581804Y9644463D01*
X30475652Y9595179D01*
X30421462Y9564129D01*
X30402697Y9502991D01*
X29857253Y9502991D01*
X30116579Y9685893D01*
X30489051Y9885866D01*
X30694132Y9974988D01*
X30916775Y10058264D01*
X31134516Y10128557D01*
X31324887Y10178731D01*
X31465421Y10201648D01*
X31485282Y10202333D01*
X31559592Y10223711D01*
X31580667Y10259365D01*
X31622080Y10288707D01*
X31742777Y10314212D01*
X31937448Y10335504D01*
X32200781Y10352208D01*
X32527465Y10363949D01*
X32912189Y10370352D01*
X33167003Y10371474D01*
X33409214Y10372148D01*
X33577188Y10374850D01*
X33681353Y10380857D01*
X33732135Y10391446D01*
X33739962Y10407893D01*
X33715260Y10431475D01*
X33706753Y10437567D01*
X33628835Y10540210D01*
X33623217Y10635068D01*
X33927110Y10635068D01*
X33931180Y10624027D01*
X33990512Y10572384D01*
X34096347Y10509632D01*
X34215346Y10452843D01*
X34314171Y10419084D01*
X34337733Y10415871D01*
X34423628Y10444070D01*
X34448969Y10466916D01*
X34495700Y10549808D01*
X34519915Y10613224D01*
X34526046Y10672510D01*
X34491647Y10722582D01*
X34401382Y10780205D01*
X34336003Y10814307D01*
X34211822Y10873635D01*
X34116331Y10912749D01*
X34080828Y10922000D01*
X34031871Y10886839D01*
X33978397Y10804327D01*
X33937709Y10708918D01*
X33927110Y10635068D01*
X33623217Y10635068D01*
X33620058Y10688404D01*
X33680307Y10878989D01*
X33725784Y10970209D01*
X33809652Y11101108D01*
X33899048Y11180712D01*
X34006371Y11209213D01*
X34144020Y11186803D01*
G36*
X34245892Y2693288D02*
G01*
X34303873Y2603569D01*
X34352439Y2508314D01*
X34455379Y2286129D01*
X34328895Y2220722D01*
X34237901Y2181415D01*
X34169665Y2187125D01*
X34080691Y2241992D01*
X34076873Y2244707D01*
X33951334Y2334098D01*
X33951334Y2189844D01*
X33935383Y2077717D01*
X33875056Y2012710D01*
X33843508Y1996462D01*
X33751992Y1959683D01*
X33692131Y1961701D01*
X33642939Y2014758D01*
X33583432Y2131094D01*
X33572376Y2154639D01*
X33523089Y2278472D01*
X33500579Y2374318D01*
X33504138Y2408639D01*
X33565565Y2454340D01*
X33635263Y2424041D01*
X33700231Y2323690D01*
X33702781Y2317750D01*
X33760834Y2180166D01*
X33782000Y2370288D01*
X33817166Y2512515D01*
X33881683Y2575474D01*
X33974785Y2558840D01*
X34066202Y2490915D01*
X34173517Y2391833D01*
X34141282Y2497666D01*
X34109018Y2599041D01*
X34089162Y2656416D01*
X34086135Y2696325D01*
X34131561Y2716672D01*
X34206249Y2726266D01*
X34245892Y2693288D01*
X34245892Y2693288D01*
G37*
X34245892Y2693288D02*
X34303873Y2603569D01*
X34352439Y2508314D01*
X34455379Y2286129D01*
X34328895Y2220722D01*
X34237901Y2181415D01*
X34169665Y2187125D01*
X34080691Y2241992D01*
X34076873Y2244707D01*
X33951334Y2334098D01*
X33951334Y2189844D01*
X33935383Y2077717D01*
X33875056Y2012710D01*
X33843508Y1996462D01*
X33751992Y1959683D01*
X33692131Y1961701D01*
X33642939Y2014758D01*
X33583432Y2131094D01*
X33572376Y2154639D01*
X33523089Y2278472D01*
X33500579Y2374318D01*
X33504138Y2408639D01*
X33565565Y2454340D01*
X33635263Y2424041D01*
X33700231Y2323690D01*
X33702781Y2317750D01*
X33760834Y2180166D01*
X33782000Y2370288D01*
X33817166Y2512515D01*
X33881683Y2575474D01*
X33974785Y2558840D01*
X34066202Y2490915D01*
X34173517Y2391833D01*
X34141282Y2497666D01*
X34109018Y2599041D01*
X34089162Y2656416D01*
X34086135Y2696325D01*
X34131561Y2716672D01*
X34206249Y2726266D01*
X34245892Y2693288D01*
G36*
X33412886Y2351138D02*
G01*
X33458980Y2281636D01*
X33506319Y2145788D01*
X33509567Y2134694D01*
X33544086Y2006486D01*
X33563083Y1916610D01*
X33563667Y1888328D01*
X33497632Y1861687D01*
X33381590Y1829735D01*
X33249175Y1800307D01*
X33134021Y1781236D01*
X33089979Y1778000D01*
X32996416Y1802231D01*
X32953558Y1880485D01*
X32942371Y1980142D01*
X33104667Y1980142D01*
X33138841Y1962975D01*
X33216881Y1966752D01*
X33302059Y1986467D01*
X33355052Y2014274D01*
X33358826Y2046007D01*
X33295313Y2054169D01*
X33221084Y2044493D01*
X33136692Y2015144D01*
X33104667Y1980142D01*
X32942371Y1980142D01*
X32937449Y2023981D01*
X32982041Y2116058D01*
X33095540Y2171725D01*
X33115700Y2177049D01*
X33231823Y2222111D01*
X33273537Y2284462D01*
X33274000Y2293466D01*
X33307334Y2358688D01*
X33357484Y2370666D01*
X33412886Y2351138D01*
X33412886Y2351138D01*
G37*
X33412886Y2351138D02*
X33458980Y2281636D01*
X33506319Y2145788D01*
X33509567Y2134694D01*
X33544086Y2006486D01*
X33563083Y1916610D01*
X33563667Y1888328D01*
X33497632Y1861687D01*
X33381590Y1829735D01*
X33249175Y1800307D01*
X33134021Y1781236D01*
X33089979Y1778000D01*
X32996416Y1802231D01*
X32953558Y1880485D01*
X32942371Y1980142D01*
X33104667Y1980142D01*
X33138841Y1962975D01*
X33216881Y1966752D01*
X33302059Y1986467D01*
X33355052Y2014274D01*
X33358826Y2046007D01*
X33295313Y2054169D01*
X33221084Y2044493D01*
X33136692Y2015144D01*
X33104667Y1980142D01*
X32942371Y1980142D01*
X32937449Y2023981D01*
X32982041Y2116058D01*
X33095540Y2171725D01*
X33115700Y2177049D01*
X33231823Y2222111D01*
X33273537Y2284462D01*
X33274000Y2293466D01*
X33307334Y2358688D01*
X33357484Y2370666D01*
X33412886Y2351138D01*
G36*
X31135757Y2259133D02*
G01*
X31187534Y2201532D01*
X31185561Y2151964D01*
X31193153Y2070283D01*
X31235844Y1951504D01*
X31270436Y1882635D01*
X31330402Y1771779D01*
X31350177Y1715696D01*
X31331782Y1695764D01*
X31290977Y1693333D01*
X31190276Y1722285D01*
X31142970Y1756077D01*
X31083154Y1830795D01*
X31063699Y1868403D01*
X31028265Y1891958D01*
X30947898Y1856558D01*
X30943503Y1853859D01*
X30815090Y1811362D01*
X30737176Y1816776D01*
X30681416Y1835155D01*
X30672362Y1860174D01*
X30716899Y1907359D01*
X30811259Y1983799D01*
X30910907Y2072790D01*
X30975002Y2149366D01*
X30988000Y2181225D01*
X31019211Y2254930D01*
X31100601Y2269249D01*
X31135757Y2259133D01*
X31135757Y2259133D01*
G37*
X31135757Y2259133D02*
X31187534Y2201532D01*
X31185561Y2151964D01*
X31193153Y2070283D01*
X31235844Y1951504D01*
X31270436Y1882635D01*
X31330402Y1771779D01*
X31350177Y1715696D01*
X31331782Y1695764D01*
X31290977Y1693333D01*
X31190276Y1722285D01*
X31142970Y1756077D01*
X31083154Y1830795D01*
X31063699Y1868403D01*
X31028265Y1891958D01*
X30947898Y1856558D01*
X30943503Y1853859D01*
X30815090Y1811362D01*
X30737176Y1816776D01*
X30681416Y1835155D01*
X30672362Y1860174D01*
X30716899Y1907359D01*
X30811259Y1983799D01*
X30910907Y2072790D01*
X30975002Y2149366D01*
X30988000Y2181225D01*
X31019211Y2254930D01*
X31100601Y2269249D01*
X31135757Y2259133D01*
G36*
X32875661Y2224976D02*
G01*
X32889719Y2190750D01*
X32874523Y2122699D01*
X32839266Y2006708D01*
X32812336Y1927227D01*
X32759893Y1798566D01*
X32705587Y1728934D01*
X32628717Y1694813D01*
X32602509Y1688862D01*
X32520157Y1678957D01*
X32459091Y1700505D01*
X32395166Y1768408D01*
X32333432Y1854922D01*
X32288204Y1915327D01*
X32528980Y1915327D01*
X32539573Y1882404D01*
X32565214Y1829411D01*
X32586365Y1854675D01*
X32598390Y1886928D01*
X32605840Y1958903D01*
X32588342Y1983493D01*
X32533085Y1979970D01*
X32528980Y1915327D01*
X32288204Y1915327D01*
X32259944Y1953068D01*
X32207453Y2006936D01*
X32190174Y2008621D01*
X32177152Y1943283D01*
X32157737Y1833585D01*
X32153715Y1809750D01*
X32128960Y1705436D01*
X32085481Y1660849D01*
X31998005Y1651304D01*
X31991499Y1651305D01*
X31898862Y1664311D01*
X31825502Y1715472D01*
X31744922Y1823750D01*
X31740087Y1831221D01*
X31624341Y2010833D01*
X31623671Y1830916D01*
X31616946Y1715898D01*
X31591003Y1663218D01*
X31538334Y1651000D01*
X31492513Y1659576D01*
X31466967Y1697777D01*
X31455939Y1784310D01*
X31453667Y1926166D01*
X31456480Y2075465D01*
X31468566Y2158717D01*
X31495396Y2194460D01*
X31534871Y2201333D01*
X31663380Y2180689D01*
X31768927Y2108077D01*
X31857932Y1995672D01*
X31961667Y1843012D01*
X31961667Y2170643D01*
X32316286Y2141870D01*
X32494158Y2129824D01*
X32605047Y2130001D01*
X32665970Y2144035D01*
X32693946Y2173564D01*
X32695957Y2178381D01*
X32744274Y2226283D01*
X32816430Y2242597D01*
X32875661Y2224976D01*
X32875661Y2224976D01*
G37*
X32875661Y2224976D02*
X32889719Y2190750D01*
X32874523Y2122699D01*
X32839266Y2006708D01*
X32812336Y1927227D01*
X32759893Y1798566D01*
X32705587Y1728934D01*
X32628717Y1694813D01*
X32602509Y1688862D01*
X32520157Y1678957D01*
X32459091Y1700505D01*
X32395166Y1768408D01*
X32333432Y1854922D01*
X32288204Y1915327D01*
X32528980Y1915327D01*
X32539573Y1882404D01*
X32565214Y1829411D01*
X32586365Y1854675D01*
X32598390Y1886928D01*
X32605840Y1958903D01*
X32588342Y1983493D01*
X32533085Y1979970D01*
X32528980Y1915327D01*
X32288204Y1915327D01*
X32259944Y1953068D01*
X32207453Y2006936D01*
X32190174Y2008621D01*
X32177152Y1943283D01*
X32157737Y1833585D01*
X32153715Y1809750D01*
X32128960Y1705436D01*
X32085481Y1660849D01*
X31998005Y1651304D01*
X31991499Y1651305D01*
X31898862Y1664311D01*
X31825502Y1715472D01*
X31744922Y1823750D01*
X31740087Y1831221D01*
X31624341Y2010833D01*
X31623671Y1830916D01*
X31616946Y1715898D01*
X31591003Y1663218D01*
X31538334Y1651000D01*
X31492513Y1659576D01*
X31466967Y1697777D01*
X31455939Y1784310D01*
X31453667Y1926166D01*
X31456480Y2075465D01*
X31468566Y2158717D01*
X31495396Y2194460D01*
X31534871Y2201333D01*
X31663380Y2180689D01*
X31768927Y2108077D01*
X31857932Y1995672D01*
X31961667Y1843012D01*
X31961667Y2170643D01*
X32316286Y2141870D01*
X32494158Y2129824D01*
X32605047Y2130001D01*
X32665970Y2144035D01*
X32693946Y2173564D01*
X32695957Y2178381D01*
X32744274Y2226283D01*
X32816430Y2242597D01*
X32875661Y2224976D01*
D11*
X19050000Y19685000D03*
X19050000Y12065000D03*
X22225000Y12065000D03*
X22225000Y19685000D03*
X25400000Y12065000D03*
X25400000Y19685000D03*
X41275000Y19050000D03*
X41275000Y11430000D03*
X41275000Y28575000D03*
X48895000Y28575000D03*
X15875000Y19685000D03*
X15875000Y12065000D03*
D12*
X47150000Y11430000D03*
D13*
X57150000Y11430000D03*
D14*
X55515000Y24370000D03*
X9515000Y24370000D03*
D15*
X37385000Y-1390000D03*
X27385000Y-1390000D03*
D16*
X12700000Y31750000D03*
D17*
X25400000Y31750000D03*
D18*
X9525000Y37338000D03*
X9525000Y27940000D03*
D11*
X6985000Y5080000D03*
X9525000Y5080000D03*
D19*
X37465000Y26670000D03*
X37465000Y24130000D03*
X37465000Y21590000D03*
X37465000Y19050000D03*
X29845000Y19050000D03*
X29845000Y21590000D03*
X29845000Y24130000D03*
D20*
X29845000Y26670000D03*
D21*
X31115000Y33020000D03*
X31115000Y35560000D03*
X33655000Y33020000D03*
X33655000Y35560000D03*
X36195000Y33020000D03*
D22*
X36195000Y35560000D03*
D23*
X48895000Y23495000D03*
D24*
X46355000Y23495000D03*
X46355000Y20955000D03*
D11*
X57150000Y37465000D03*
X57150000Y32385000D03*
X49530000Y37465000D03*
X49530000Y32385000D03*
D24*
X36195000Y13970000D03*
X31115000Y13970000D03*
D25*
X37000000Y-10000000D03*
X38000000Y-10000000D03*
X39000000Y-10000000D03*
X40000000Y-10000000D03*
X41000000Y-10000000D03*
X42000000Y-10000000D03*
X37000000Y-15000000D03*
X41000000Y-15000000D03*
X39000000Y-15000000D03*
X40000000Y-15000000D03*
X42000000Y-15000000D03*
X38000000Y-15000000D03*
X41000000Y-30000000D03*
X40000000Y-20000000D03*
X38000000Y-30000000D03*
X39000000Y-25000000D03*
X37000000Y-20000000D03*
X40000000Y-30000000D03*
X38000000Y-20000000D03*
X42000000Y-30000000D03*
X42000000Y-20000000D03*
X41000000Y-20000000D03*
X37000000Y-30000000D03*
X37000000Y-25000000D03*
X39000000Y-30000000D03*
X42000000Y-25000000D03*
X40000000Y-25000000D03*
X38000000Y-25000000D03*
X41000000Y-25000000D03*
X39000000Y-20000000D03*
X42000000Y-40000000D03*
X40000000Y-45000000D03*
X38000000Y-35000000D03*
X40000000Y-35000000D03*
X40000000Y-40000000D03*
X38000000Y-40000000D03*
X39000000Y-35000000D03*
X41000000Y-40000000D03*
X37000000Y-35000000D03*
X39000000Y-40000000D03*
X41000000Y-35000000D03*
X37000000Y-40000000D03*
X39000000Y-45000000D03*
X42000000Y-35000000D03*
X41000000Y-45000000D03*
X38000000Y-45000000D03*
X28000000Y-25000000D03*
X26000000Y-30000000D03*
X26000000Y-15000000D03*
X24000000Y-20000000D03*
X26000000Y-20000000D03*
X26000000Y-25000000D03*
X24000000Y-25000000D03*
X25000000Y-20000000D03*
X27000000Y-25000000D03*
X23000000Y-20000000D03*
X25000000Y-25000000D03*
X23000000Y-10000000D03*
X23000000Y-15000000D03*
X24000000Y-15000000D03*
X27000000Y-20000000D03*
X27000000Y-10000000D03*
X25000000Y-10000000D03*
X26000000Y-10000000D03*
X23000000Y-30000000D03*
X23000000Y-25000000D03*
X25000000Y-30000000D03*
X28000000Y-20000000D03*
X27000000Y-30000000D03*
X28000000Y-10000000D03*
X28000000Y-15000000D03*
X27000000Y-15000000D03*
X28000000Y-30000000D03*
X24000000Y-30000000D03*
X24000000Y-10000000D03*
X25000000Y-15000000D03*
X27000000Y-45000000D03*
X25000000Y-40000000D03*
X26000000Y-35000000D03*
X27000000Y-35000000D03*
X28000000Y-35000000D03*
X25000000Y-45000000D03*
X23000000Y-40000000D03*
X24000000Y-40000000D03*
X28000000Y-40000000D03*
X23000000Y-35000000D03*
X27000000Y-40000000D03*
X25000000Y-35000000D03*
X26000000Y-40000000D03*
X24000000Y-35000000D03*
X26000000Y-45000000D03*
X24000000Y-45000000D03*
D26*
X31988000Y19050000D02*
X34401000Y16637000D01*
X29845000Y19050000D02*
X31988000Y19050000D01*
X34401000Y16637000D02*
X43942000Y16637000D01*
X46355000Y19050000D02*
X46355000Y20955000D01*
X43942000Y16637000D02*
X46355000Y19050000D01*
X55515000Y26491320D02*
X53721000Y28285320D01*
X55515000Y24370000D02*
X55515000Y26491320D01*
X53721000Y34036000D02*
X53721000Y32639000D01*
X57150000Y37465000D02*
X53721000Y34036000D01*
X53721000Y28285320D02*
X53721000Y32639000D01*
X14500000Y31750000D02*
X20469000Y37719000D01*
X12700000Y31750000D02*
X14500000Y31750000D01*
X36896202Y37719000D02*
X38862000Y35753202D01*
X20469000Y37719000D02*
X36896202Y37719000D01*
X37465000Y28457400D02*
X37465000Y26670000D01*
X38862000Y29854400D02*
X37465000Y28457400D01*
X38862000Y35753202D02*
X38862000Y29854400D01*
X15875000Y18248160D02*
X17359160Y16764000D01*
X15875000Y19685000D02*
X15875000Y18248160D01*
X17359160Y16764000D02*
X22606000Y16764000D01*
X25400000Y13970000D02*
X25400000Y12065000D01*
X22606000Y16764000D02*
X25400000Y13970000D01*
X29983488Y35560000D02*
X28321000Y33897512D01*
X31115000Y35560000D02*
X29983488Y35560000D01*
X28321000Y33897512D02*
X28321000Y32004000D01*
X29845000Y30480000D02*
X29845000Y26670000D01*
X28321000Y32004000D02*
X29845000Y30480000D01*
X48895000Y17399000D02*
X48895000Y23495000D01*
X45847000Y14351000D02*
X48895000Y17399000D01*
X40767000Y14351000D02*
X45847000Y14351000D01*
X37385000Y-1390000D02*
X39250000Y-1390000D01*
X39250000Y-1390000D02*
X39878000Y-762000D01*
X39878000Y-762000D02*
X39878000Y8763000D01*
X39878000Y8763000D02*
X38989000Y9652000D01*
X38989000Y9652000D02*
X38989000Y12573000D01*
X38989000Y12573000D02*
X40767000Y14351000D01*
X41275000Y24130000D02*
X49530000Y32385000D01*
X37465000Y24130000D02*
X41275000Y24130000D01*
X33655000Y31888488D02*
X33655000Y33020000D01*
X33655000Y22504400D02*
X33655000Y31888488D01*
X37109400Y19050000D02*
X33655000Y22504400D01*
X37465000Y19050000D02*
X37109400Y19050000D01*
X28146999Y16938001D02*
X25400000Y19685000D01*
X25400000Y19685000D02*
X25400000Y22733000D01*
X26797000Y24130000D02*
X29845000Y24130000D01*
X25400000Y22733000D02*
X26797000Y24130000D01*
X27385000Y-1390000D02*
X25407000Y-1390000D01*
X25407000Y-1390000D02*
X25400000Y-1383000D01*
X25400000Y8890000D02*
X28146999Y11636999D01*
X25400000Y-1383000D02*
X25400000Y8890000D01*
X28146999Y11636999D02*
X28146999Y16938001D01*
D27*
G36*
X58940621Y39509494D02*
G01*
X59229965Y39465571D01*
X59508477Y39394276D01*
X59775151Y39297021D01*
X60028789Y39175168D01*
X60268016Y39030105D01*
X60491410Y38863228D01*
X60697465Y38675991D01*
X60884673Y38469886D01*
X61051517Y38246449D01*
X61196557Y38007164D01*
X61318382Y37753489D01*
X61415617Y37486770D01*
X61486901Y37208196D01*
X61530814Y36918820D01*
X61546696Y36602200D01*
X61546695Y4318110D01*
X61530814Y4001510D01*
X61486901Y3712133D01*
X61415618Y3433563D01*
X61318378Y3166835D01*
X61196558Y2913167D01*
X61051517Y2673883D01*
X60884674Y2450445D01*
X60697463Y2244336D01*
X60491413Y2057104D01*
X60268011Y1890221D01*
X60028780Y1745156D01*
X59775159Y1623311D01*
X59508480Y1526053D01*
X59229965Y1454758D01*
X58940621Y1410835D01*
X58664927Y1397000D01*
X41013000Y1397000D01*
X41013000Y8707248D01*
X41018491Y8763000D01*
X41013000Y8818757D01*
X40996577Y8985499D01*
X40931676Y9199447D01*
X40826284Y9396623D01*
X40684449Y9569449D01*
X40641140Y9604992D01*
X40124000Y10122131D01*
X40124000Y10246134D01*
X40222549Y10147585D01*
X40492958Y9966903D01*
X40793421Y9842447D01*
X41112391Y9779000D01*
X41437609Y9779000D01*
X41756579Y9842447D01*
X42057042Y9966903D01*
X42327451Y10147585D01*
X42557415Y10377549D01*
X42738097Y10647958D01*
X42862553Y10948421D01*
X42926000Y11267391D01*
X42926000Y11592609D01*
X42862553Y11911579D01*
X42738097Y12212042D01*
X42683602Y12293600D01*
X45495928Y12293600D01*
X45495928Y10566400D01*
X45508188Y10441918D01*
X45544498Y10322220D01*
X45603463Y10211906D01*
X45682815Y10115215D01*
X45779506Y10035863D01*
X45889820Y9976898D01*
X46009518Y9940588D01*
X46134000Y9928328D01*
X48166000Y9928328D01*
X48290482Y9940588D01*
X48410180Y9976898D01*
X48520494Y10035863D01*
X48617185Y10115215D01*
X48696537Y10211906D01*
X48755502Y10322220D01*
X48791812Y10441918D01*
X48804072Y10566400D01*
X48804072Y11070974D01*
X55542642Y11070974D01*
X55545291Y11055211D01*
X55646314Y10779081D01*
X55799267Y10527965D01*
X55998271Y10311514D01*
X56235679Y10138046D01*
X56502367Y10014227D01*
X56788086Y9944815D01*
X57023000Y10089075D01*
X57023000Y11303000D01*
X57277000Y11303000D01*
X57277000Y10089075D01*
X57511914Y9944815D01*
X57797633Y10014227D01*
X58064321Y10138046D01*
X58301729Y10311514D01*
X58500733Y10527965D01*
X58653686Y10779081D01*
X58754709Y11055211D01*
X58757358Y11070974D01*
X58636217Y11303000D01*
X57277000Y11303000D01*
X57023000Y11303000D01*
X55663783Y11303000D01*
X55542642Y11070974D01*
X48804072Y11070974D01*
X48804072Y11789026D01*
X55542642Y11789026D01*
X55663783Y11557000D01*
X57023000Y11557000D01*
X57023000Y12770925D01*
X57277000Y12770925D01*
X57277000Y11557000D01*
X58636217Y11557000D01*
X58757358Y11789026D01*
X58754709Y11804789D01*
X58653686Y12080919D01*
X58500733Y12332035D01*
X58301729Y12548486D01*
X58064321Y12721954D01*
X57797633Y12845773D01*
X57511914Y12915185D01*
X57277000Y12770925D01*
X57023000Y12770925D01*
X56788086Y12915185D01*
X56502367Y12845773D01*
X56235679Y12721954D01*
X55998271Y12548486D01*
X55799267Y12332035D01*
X55646314Y12080919D01*
X55545291Y11804789D01*
X55542642Y11789026D01*
X48804072Y11789026D01*
X48804072Y12293600D01*
X48791812Y12418082D01*
X48755502Y12537780D01*
X48696537Y12648094D01*
X48617185Y12744785D01*
X48520494Y12824137D01*
X48410180Y12883102D01*
X48290482Y12919412D01*
X48166000Y12931672D01*
X46134000Y12931672D01*
X46009518Y12919412D01*
X45889820Y12883102D01*
X45779506Y12824137D01*
X45682815Y12744785D01*
X45603463Y12648094D01*
X45544498Y12537780D01*
X45508188Y12418082D01*
X45495928Y12293600D01*
X42683602Y12293600D01*
X42557415Y12482451D01*
X42327451Y12712415D01*
X42057042Y12893097D01*
X41756579Y13017553D01*
X41437609Y13081000D01*
X41112391Y13081000D01*
X41099585Y13078453D01*
X41237133Y13216000D01*
X45791249Y13216000D01*
X45847000Y13210509D01*
X45902751Y13216000D01*
X45902752Y13216000D01*
X46069499Y13232423D01*
X46283447Y13297324D01*
X46480623Y13402716D01*
X46653449Y13544551D01*
X46688996Y13587865D01*
X49658141Y16557009D01*
X49701449Y16592551D01*
X49843284Y16765377D01*
X49948676Y16962553D01*
X50013577Y17176501D01*
X50030000Y17343248D01*
X50030000Y17343249D01*
X50035491Y17399000D01*
X50030000Y17454751D01*
X50030000Y21934288D01*
X50091680Y21952998D01*
X50201994Y22011963D01*
X50298685Y22091315D01*
X50378037Y22188006D01*
X50437002Y22298320D01*
X50473312Y22418018D01*
X50485572Y22542500D01*
X50485572Y22870000D01*
X53376928Y22870000D01*
X53389188Y22745518D01*
X53425498Y22625820D01*
X53484463Y22515506D01*
X53563815Y22418815D01*
X53660506Y22339463D01*
X53770820Y22280498D01*
X53890518Y22244188D01*
X54015000Y22231928D01*
X55229250Y22235000D01*
X55388000Y22393750D01*
X55388000Y24243000D01*
X55642000Y24243000D01*
X55642000Y22393750D01*
X55800750Y22235000D01*
X57015000Y22231928D01*
X57139482Y22244188D01*
X57259180Y22280498D01*
X57369494Y22339463D01*
X57466185Y22418815D01*
X57545537Y22515506D01*
X57604502Y22625820D01*
X57640812Y22745518D01*
X57653072Y22870000D01*
X57650000Y24084250D01*
X57491250Y24243000D01*
X55642000Y24243000D01*
X55388000Y24243000D01*
X53538750Y24243000D01*
X53380000Y24084250D01*
X53376928Y22870000D01*
X50485572Y22870000D01*
X50485572Y24447500D01*
X50473312Y24571982D01*
X50437002Y24691680D01*
X50378037Y24801994D01*
X50298685Y24898685D01*
X50201994Y24978037D01*
X50091680Y25037002D01*
X49971982Y25073312D01*
X49847500Y25085572D01*
X47942500Y25085572D01*
X47818018Y25073312D01*
X47698320Y25037002D01*
X47588006Y24978037D01*
X47491315Y24898685D01*
X47411963Y24801994D01*
X47370549Y24724515D01*
X47366972Y24728092D01*
X47106963Y24901824D01*
X46818057Y25021493D01*
X46511355Y25082500D01*
X46198645Y25082500D01*
X45891943Y25021493D01*
X45603037Y24901824D01*
X45343028Y24728092D01*
X45121908Y24506972D01*
X44948176Y24246963D01*
X44828507Y23958057D01*
X44767500Y23651355D01*
X44767500Y23338645D01*
X44828507Y23031943D01*
X44948176Y22743037D01*
X45121908Y22483028D01*
X45343028Y22261908D01*
X45473961Y22174422D01*
X45433070Y22056535D01*
X46355000Y21134605D01*
X47276930Y22056535D01*
X47236039Y22174422D01*
X47366972Y22261908D01*
X47370549Y22265485D01*
X47411963Y22188006D01*
X47491315Y22091315D01*
X47588006Y22011963D01*
X47698320Y21952998D01*
X47760001Y21934287D01*
X47760001Y21704733D01*
X47716081Y21786902D01*
X47456535Y21876930D01*
X46534605Y20955000D01*
X47456535Y20033070D01*
X47716081Y20123098D01*
X47760000Y20213915D01*
X47760000Y17869132D01*
X45376869Y15486000D01*
X40822752Y15486000D01*
X40767000Y15491491D01*
X40544501Y15469577D01*
X40330553Y15404676D01*
X40133377Y15299284D01*
X40003856Y15192989D01*
X40003854Y15192987D01*
X39960551Y15157449D01*
X39925013Y15114146D01*
X38225860Y13414991D01*
X38182552Y13379449D01*
X38040717Y13206623D01*
X38017695Y13163551D01*
X37935324Y13009446D01*
X37870423Y12795498D01*
X37848509Y12573000D01*
X37854001Y12517239D01*
X37854000Y9707752D01*
X37848509Y9652000D01*
X37870057Y9433223D01*
X37870423Y9429502D01*
X37935324Y9215554D01*
X38040716Y9018377D01*
X38182551Y8845551D01*
X38225864Y8810005D01*
X38743001Y8292867D01*
X38743000Y1397000D01*
X34068169Y1397000D01*
X34082163Y1402624D01*
X34104761Y1414385D01*
X34128571Y1423453D01*
X34136543Y1427489D01*
X34168091Y1443737D01*
X34205088Y1467626D01*
X34243411Y1489342D01*
X34257457Y1501439D01*
X34273024Y1511491D01*
X34304664Y1542098D01*
X34308511Y1545412D01*
X34309425Y1545425D01*
X34336475Y1551183D01*
X34363998Y1553961D01*
X34397424Y1564156D01*
X34431594Y1571430D01*
X34457008Y1582331D01*
X34483469Y1590402D01*
X34491697Y1593888D01*
X34582691Y1633195D01*
X34598269Y1641817D01*
X34614904Y1648184D01*
X34622870Y1652234D01*
X34749354Y1717641D01*
X34788302Y1742881D01*
X34828470Y1766126D01*
X34840618Y1776783D01*
X34854175Y1785568D01*
X34887470Y1817883D01*
X34922367Y1848496D01*
X34928626Y1856641D01*
X34931217Y1857377D01*
X34965607Y1874941D01*
X35001216Y1889887D01*
X35021098Y1903282D01*
X35042454Y1914189D01*
X35049944Y1919063D01*
X35200446Y2018509D01*
X35232017Y2044124D01*
X35265269Y2067525D01*
X35271999Y2073403D01*
X35399096Y2185990D01*
X35426052Y2215034D01*
X35455016Y2242072D01*
X35468439Y2260703D01*
X35484066Y2277541D01*
X35504864Y2311264D01*
X35516415Y2327296D01*
X35557854Y2345248D01*
X35577322Y2356050D01*
X35597976Y2364311D01*
X35631801Y2386276D01*
X35667075Y2405848D01*
X35684062Y2420214D01*
X35702731Y2432338D01*
X35709676Y2437962D01*
X35844210Y2548471D01*
X35869277Y2573539D01*
X35896379Y2596397D01*
X35902570Y2602841D01*
X35967413Y2671280D01*
X35979055Y2686260D01*
X35992631Y2699524D01*
X35998335Y2706403D01*
X36069986Y2794055D01*
X36102267Y2842524D01*
X36135147Y2890489D01*
X36139212Y2897997D01*
X36139224Y2898015D01*
X36139231Y2898033D01*
X36139402Y2898348D01*
X36167261Y2950676D01*
X36170446Y2958392D01*
X36174885Y2965457D01*
X36194251Y3016060D01*
X36209806Y3053743D01*
X36241867Y3073190D01*
X36272288Y3095982D01*
X36304363Y3116372D01*
X36322155Y3133341D01*
X36341830Y3148082D01*
X36367242Y3176344D01*
X36394749Y3202580D01*
X36400535Y3209390D01*
X36512266Y3342756D01*
X36532792Y3372784D01*
X36555708Y3401038D01*
X36560580Y3408529D01*
X36614022Y3491952D01*
X36618028Y3499799D01*
X36623296Y3506874D01*
X36627854Y3514560D01*
X36683728Y3610287D01*
X36697726Y3640761D01*
X36714433Y3669851D01*
X36718048Y3678023D01*
X36739722Y3727943D01*
X36751520Y3764538D01*
X36752667Y3767350D01*
X36768560Y3787533D01*
X36773324Y3795094D01*
X36815097Y3862419D01*
X36819035Y3870415D01*
X36824255Y3877646D01*
X36846602Y3926396D01*
X36870279Y3974475D01*
X36872590Y3983089D01*
X36876304Y3991191D01*
X36880677Y4009509D01*
X36881238Y4010798D01*
X36883899Y4023004D01*
X36888751Y4043323D01*
X36889632Y4046609D01*
X36922307Y4092180D01*
X36940536Y4123702D01*
X36961279Y4153633D01*
X36965574Y4161470D01*
X37028609Y4278428D01*
X37037085Y4298668D01*
X37048059Y4317675D01*
X37051693Y4325839D01*
X37107091Y4452636D01*
X37115745Y4479271D01*
X37127222Y4504817D01*
X37130012Y4513307D01*
X37165721Y4624582D01*
X37168757Y4638635D01*
X37173868Y4652072D01*
X37181924Y4699578D01*
X37183179Y4705387D01*
X37186046Y4711291D01*
X37208745Y4752908D01*
X37213278Y4767365D01*
X37219899Y4780999D01*
X37222941Y4789402D01*
X37261104Y4897157D01*
X37266661Y4919609D01*
X37274941Y4941215D01*
X37277248Y4949848D01*
X37316210Y5099777D01*
X37318552Y5114617D01*
X37323066Y5128948D01*
X37324845Y5137705D01*
X37358694Y5310486D01*
X37359215Y5315912D01*
X37360693Y5321166D01*
X37362200Y5329974D01*
X37363231Y5336262D01*
X37363968Y5347626D01*
X37366507Y5358730D01*
X37367577Y5367602D01*
X37379069Y5468800D01*
X37379129Y5472710D01*
X37384132Y5482520D01*
X37386023Y5489194D01*
X37389044Y5495447D01*
X37392069Y5503856D01*
X37406792Y5545702D01*
X37420637Y5602141D01*
X37435250Y5658375D01*
X37436548Y5666999D01*
X37436551Y5667011D01*
X37436551Y5667021D01*
X37436580Y5667211D01*
X37453895Y5787881D01*
X37455617Y5826309D01*
X37460226Y5864526D01*
X37460362Y5873461D01*
X37461563Y6017862D01*
X37459579Y6039985D01*
X37460396Y6062178D01*
X37459789Y6071094D01*
X37450912Y6189346D01*
X37450383Y6192378D01*
X37456634Y6215515D01*
X37469720Y6253113D01*
X37472886Y6275667D01*
X37478827Y6297658D01*
X37481549Y6337385D01*
X37487082Y6376807D01*
X37485807Y6399545D01*
X37487364Y6422272D01*
X37487039Y6431202D01*
X37485647Y6463338D01*
X37481476Y6572892D01*
X37476692Y6710256D01*
X37469645Y6921656D01*
X37463160Y6970851D01*
X37458664Y7020257D01*
X37455011Y7032668D01*
X37453321Y7045491D01*
X37437410Y7092473D01*
X37423398Y7140081D01*
X37417403Y7151549D01*
X37413255Y7163796D01*
X37388516Y7206803D01*
X37374955Y7232743D01*
X37383945Y7289259D01*
X37387055Y7341029D01*
X37391885Y7392656D01*
X37390796Y7403281D01*
X37391436Y7413940D01*
X37384437Y7465296D01*
X37379144Y7516910D01*
X37377307Y7525655D01*
X37364431Y7584932D01*
X37359551Y7600081D01*
X37356922Y7615794D01*
X37353923Y7623731D01*
X37352709Y7656726D01*
X37352680Y7656850D01*
X37352675Y7656975D01*
X37351411Y7665821D01*
X37340487Y7738656D01*
X37333159Y7767765D01*
X37328825Y7797475D01*
X37326617Y7806134D01*
X37291194Y7941157D01*
X37289523Y7945674D01*
X37288689Y7950424D01*
X37286231Y7959016D01*
X37254242Y8067988D01*
X37250674Y8076838D01*
X37248613Y8086162D01*
X37245783Y8094638D01*
X37207511Y8206658D01*
X37194799Y8234599D01*
X37184931Y8263663D01*
X37181189Y8271778D01*
X37154424Y8328775D01*
X37137663Y8356942D01*
X37123590Y8386555D01*
X37119107Y8392587D01*
X37131765Y8409881D01*
X37140573Y8428768D01*
X37151767Y8446354D01*
X37166914Y8485249D01*
X37184558Y8523082D01*
X37187467Y8531531D01*
X37205543Y8585236D01*
X37218180Y8639965D01*
X37231896Y8694442D01*
X37232220Y8700768D01*
X37233645Y8706939D01*
X37235410Y8763046D01*
X37238286Y8819184D01*
X37237807Y8828107D01*
X37232422Y8916965D01*
X37225701Y8959079D01*
X37221609Y9001524D01*
X37215879Y9020618D01*
X37212736Y9040310D01*
X37197966Y9080306D01*
X37185706Y9121159D01*
X37182256Y9129402D01*
X37130196Y9251423D01*
X37114351Y9280358D01*
X37101243Y9310637D01*
X37096855Y9318421D01*
X36975686Y9529918D01*
X36957878Y9554968D01*
X36942642Y9581671D01*
X36937426Y9588927D01*
X36815504Y9756073D01*
X36781914Y9793763D01*
X36749749Y9832704D01*
X36743369Y9838961D01*
X36631858Y9946806D01*
X36626565Y9951007D01*
X36610785Y10003940D01*
X36593959Y10061857D01*
X36592925Y10063851D01*
X36592285Y10065999D01*
X36564185Y10119296D01*
X36536477Y10172750D01*
X36535077Y10174503D01*
X36534031Y10176488D01*
X36496167Y10223246D01*
X36458551Y10270367D01*
X36455522Y10273438D01*
X36455424Y10273559D01*
X36455304Y10273659D01*
X36452276Y10276729D01*
X36236682Y10492323D01*
X36233135Y10495237D01*
X36230169Y10498744D01*
X36184882Y10534872D01*
X36140163Y10571605D01*
X36136119Y10573773D01*
X36132527Y10576639D01*
X36081065Y10603293D01*
X36030083Y10630629D01*
X36025696Y10631970D01*
X36021615Y10634084D01*
X35977612Y10646852D01*
X35973829Y10658504D01*
X35965354Y10673675D01*
X35959102Y10689885D01*
X35934954Y10728095D01*
X35912914Y10767550D01*
X35901657Y10780782D01*
X35892373Y10795473D01*
X35861264Y10828264D01*
X35831980Y10862687D01*
X35825510Y10868851D01*
X35729213Y10959317D01*
X35729185Y10959339D01*
X35728766Y10959737D01*
X35727066Y10961331D01*
X35717542Y10968654D01*
X35709290Y10977384D01*
X35702506Y10983201D01*
X35628199Y11046023D01*
X35584968Y11075860D01*
X35542692Y11107027D01*
X35534984Y11111549D01*
X35489861Y11137599D01*
X35451606Y11154950D01*
X35414535Y11174724D01*
X35394838Y11180699D01*
X35376109Y11189194D01*
X35335227Y11198782D01*
X35315725Y11204697D01*
X35308300Y11214269D01*
X35282502Y11251502D01*
X35270105Y11263509D01*
X35259518Y11277157D01*
X35225323Y11306881D01*
X35192780Y11338400D01*
X35185746Y11343912D01*
X35104582Y11406605D01*
X35074197Y11425653D01*
X35045501Y11447171D01*
X35037830Y11451755D01*
X34896487Y11534892D01*
X34893953Y11536066D01*
X34891678Y11537693D01*
X34883905Y11542102D01*
X34871788Y11548865D01*
X34868388Y11550348D01*
X34865318Y11552427D01*
X34857436Y11556636D01*
X34621938Y11680299D01*
X34596896Y11690470D01*
X34573124Y11703361D01*
X34564866Y11706776D01*
X34384492Y11779908D01*
X34380062Y11781218D01*
X34375948Y11783300D01*
X34320233Y11798905D01*
X34264711Y11815320D01*
X34260117Y11815744D01*
X34255671Y11816989D01*
X34246861Y11818486D01*
X34109212Y11840896D01*
X34104071Y11841224D01*
X34099065Y11842465D01*
X34042075Y11845180D01*
X34017422Y11865767D01*
X33992868Y11882495D01*
X33970168Y11901644D01*
X33941387Y11917566D01*
X33914194Y11936091D01*
X33886864Y11947728D01*
X33860872Y11962107D01*
X33852643Y11965592D01*
X33767646Y12000888D01*
X33721673Y12014901D01*
X33676386Y12030974D01*
X33667699Y12033066D01*
X33579849Y12053575D01*
X33532875Y12059793D01*
X33486277Y12068222D01*
X33471091Y12067971D01*
X33456023Y12069966D01*
X33422923Y12067849D01*
X33405994Y12074233D01*
X33389858Y12083024D01*
X33381607Y12086455D01*
X33339888Y12103464D01*
X33331310Y12106018D01*
X33323277Y12109968D01*
X33314889Y12113051D01*
X33300858Y12118098D01*
X33271365Y12125552D01*
X33242764Y12135929D01*
X33234091Y12138082D01*
X33135504Y12161826D01*
X33119564Y12164049D01*
X33104121Y12168556D01*
X33095328Y12170149D01*
X32950589Y12195326D01*
X32945029Y12195741D01*
X32939624Y12197136D01*
X32930785Y12198452D01*
X32761499Y12222463D01*
X32758314Y12222601D01*
X32755206Y12223324D01*
X32746338Y12224429D01*
X32574108Y12244674D01*
X32569964Y12244754D01*
X32565897Y12245586D01*
X32557003Y12246452D01*
X32403433Y12260332D01*
X32392895Y12260252D01*
X32382485Y12261879D01*
X32373560Y12262329D01*
X32260255Y12267244D01*
X32209810Y12264498D01*
X32159327Y12263646D01*
X32150457Y12262562D01*
X32099022Y12255912D01*
X32095597Y12255123D01*
X32092095Y12254977D01*
X32038819Y12242096D01*
X32023335Y12245053D01*
X31967870Y12256693D01*
X31958980Y12257604D01*
X31815108Y12271337D01*
X31815020Y12271346D01*
X31671064Y12285086D01*
X31613238Y12284936D01*
X31555478Y12285632D01*
X31550859Y12284775D01*
X31546158Y12284763D01*
X31489480Y12273388D01*
X31432668Y12262849D01*
X31428302Y12261111D01*
X31423694Y12260186D01*
X31370288Y12238013D01*
X31316622Y12216646D01*
X31312681Y12214095D01*
X31308335Y12212291D01*
X31260235Y12180154D01*
X31215651Y12151300D01*
X31181677Y12164161D01*
X31177365Y12164885D01*
X31173248Y12166380D01*
X31115771Y12175230D01*
X31058496Y12184850D01*
X31054123Y12184723D01*
X31049797Y12185389D01*
X30991765Y12182910D01*
X30933643Y12181221D01*
X30929372Y12180246D01*
X30925005Y12180059D01*
X30916166Y12178747D01*
X30832530Y12165731D01*
X30819060Y12162261D01*
X30805226Y12160873D01*
X30796476Y12159056D01*
X30789180Y12157488D01*
X30789171Y12157487D01*
X30789033Y12157456D01*
X30788696Y12157384D01*
X30788673Y12157377D01*
X30780446Y12155554D01*
X30689462Y12134740D01*
X30677404Y12130709D01*
X30664853Y12128596D01*
X30656244Y12126199D01*
X30615257Y12114480D01*
X30598497Y12107859D01*
X30580980Y12103629D01*
X30540523Y12084956D01*
X30499088Y12068587D01*
X30483934Y12058837D01*
X30467571Y12051285D01*
X30431511Y12025110D01*
X30394044Y12001005D01*
X30381074Y11988500D01*
X30372727Y11982441D01*
X30355685Y11981885D01*
X30312654Y11983106D01*
X30303743Y11982423D01*
X30286961Y11981022D01*
X30277807Y11979346D01*
X30273851Y11979217D01*
X30261699Y11976397D01*
X30235619Y11971622D01*
X30183988Y11963877D01*
X30175337Y11961634D01*
X30071723Y11934004D01*
X30044483Y11923802D01*
X30016330Y11916504D01*
X30007961Y11913370D01*
X29862456Y11857709D01*
X29847894Y11850438D01*
X29832437Y11845344D01*
X29824289Y11841675D01*
X29662836Y11767618D01*
X29655006Y11763053D01*
X29646528Y11759857D01*
X29638542Y11755848D01*
X29557798Y11714605D01*
X29546518Y11707375D01*
X29534266Y11701959D01*
X29526515Y11697511D01*
X29385089Y11615036D01*
X29342325Y11584138D01*
X29298633Y11554550D01*
X29291798Y11548793D01*
X29277609Y11536672D01*
X29281999Y11581247D01*
X29281999Y11581256D01*
X29287489Y11636998D01*
X29281999Y11692740D01*
X29281999Y12868465D01*
X30193070Y12868465D01*
X30283098Y12608919D01*
X30564616Y12472776D01*
X30867286Y12394171D01*
X31179474Y12376123D01*
X31489185Y12419328D01*
X31784516Y12522123D01*
X31946902Y12608919D01*
X32036930Y12868465D01*
X31115000Y13790395D01*
X30193070Y12868465D01*
X29281999Y12868465D01*
X29281999Y13905526D01*
X29521123Y13905526D01*
X29564328Y13595815D01*
X29667123Y13300484D01*
X29753919Y13138098D01*
X30013465Y13048070D01*
X30935395Y13970000D01*
X31294605Y13970000D01*
X32216535Y13048070D01*
X32476081Y13138098D01*
X32612224Y13419616D01*
X32690829Y13722286D01*
X32708877Y14034474D01*
X32696060Y14126355D01*
X34607500Y14126355D01*
X34607500Y13813645D01*
X34668507Y13506943D01*
X34788176Y13218037D01*
X34961908Y12958028D01*
X35183028Y12736908D01*
X35443037Y12563176D01*
X35731943Y12443507D01*
X36038645Y12382500D01*
X36351355Y12382500D01*
X36658057Y12443507D01*
X36946963Y12563176D01*
X37206972Y12736908D01*
X37428092Y12958028D01*
X37601824Y13218037D01*
X37721493Y13506943D01*
X37782500Y13813645D01*
X37782500Y14126355D01*
X37721493Y14433057D01*
X37601824Y14721963D01*
X37428092Y14981972D01*
X37206972Y15203092D01*
X36946963Y15376824D01*
X36658057Y15496493D01*
X36351355Y15557500D01*
X36038645Y15557500D01*
X35731943Y15496493D01*
X35443037Y15376824D01*
X35183028Y15203092D01*
X34961908Y14981972D01*
X34788176Y14721963D01*
X34668507Y14433057D01*
X34607500Y14126355D01*
X32696060Y14126355D01*
X32665672Y14344185D01*
X32562877Y14639516D01*
X32476081Y14801902D01*
X32216535Y14891930D01*
X31294605Y13970000D01*
X30935395Y13970000D01*
X30013465Y14891930D01*
X29753919Y14801902D01*
X29617776Y14520384D01*
X29539171Y14217714D01*
X29521123Y13905526D01*
X29281999Y13905526D01*
X29281999Y15071535D01*
X30193070Y15071535D01*
X31115000Y14149605D01*
X32036930Y15071535D01*
X31946902Y15331081D01*
X31665384Y15467224D01*
X31362714Y15545829D01*
X31050526Y15563877D01*
X30740815Y15520672D01*
X30445484Y15417877D01*
X30283098Y15331081D01*
X30193070Y15071535D01*
X29281999Y15071535D01*
X29281999Y16882260D01*
X29287489Y16938002D01*
X29281999Y16993744D01*
X29281999Y16993753D01*
X29265576Y17160500D01*
X29200675Y17374448D01*
X29095283Y17571624D01*
X28966587Y17728440D01*
X29087344Y17679707D01*
X29362400Y17627600D01*
X29718000Y17627600D01*
X29718000Y18923000D01*
X29972000Y18923000D01*
X29972000Y17627600D01*
X30327600Y17627600D01*
X30602656Y17679707D01*
X30862262Y17784474D01*
X31096440Y17937875D01*
X31296192Y18134014D01*
X31453841Y18365354D01*
X31563328Y18623004D01*
X31580010Y18702940D01*
X31457852Y18923000D01*
X29972000Y18923000D01*
X29718000Y18923000D01*
X28232148Y18923000D01*
X28109990Y18702940D01*
X28126672Y18623004D01*
X28170673Y18519459D01*
X27051000Y19639131D01*
X27051000Y19847609D01*
X26987553Y20166579D01*
X26863097Y20467042D01*
X26682415Y20737451D01*
X26535000Y20884866D01*
X26535000Y22262869D01*
X27267132Y22995000D01*
X28630259Y22995000D01*
X28695333Y22941595D01*
X28847987Y22860000D01*
X28695333Y22778405D01*
X28478745Y22600655D01*
X28300995Y22384067D01*
X28168916Y22136963D01*
X28087581Y21868839D01*
X28060118Y21590000D01*
X28087581Y21311161D01*
X28168916Y21043037D01*
X28300995Y20795933D01*
X28478745Y20579345D01*
X28695333Y20401595D01*
X28844045Y20322107D01*
X28827738Y20315526D01*
X28593560Y20162125D01*
X28393808Y19965986D01*
X28236159Y19734646D01*
X28126672Y19476996D01*
X28109990Y19397060D01*
X28232148Y19177000D01*
X29718000Y19177000D01*
X29718000Y19197000D01*
X29972000Y19197000D01*
X29972000Y19177000D01*
X31457852Y19177000D01*
X31580010Y19397060D01*
X31563328Y19476996D01*
X31453841Y19734646D01*
X31296192Y19965986D01*
X31096440Y20162125D01*
X30862262Y20315526D01*
X30845955Y20322107D01*
X30994667Y20401595D01*
X31211255Y20579345D01*
X31389005Y20795933D01*
X31521084Y21043037D01*
X31602419Y21311161D01*
X31629882Y21590000D01*
X31602419Y21868839D01*
X31521084Y22136963D01*
X31389005Y22384067D01*
X31211255Y22600655D01*
X30994667Y22778405D01*
X30842013Y22860000D01*
X30994667Y22941595D01*
X31211255Y23119345D01*
X31389005Y23335933D01*
X31521084Y23583037D01*
X31602419Y23851161D01*
X31629882Y24130000D01*
X31602419Y24408839D01*
X31521084Y24676963D01*
X31389005Y24924067D01*
X31211255Y25140655D01*
X31074326Y25253030D01*
X31112482Y25256788D01*
X31232180Y25293098D01*
X31342494Y25352063D01*
X31439185Y25431415D01*
X31518537Y25528106D01*
X31577502Y25638420D01*
X31613812Y25758118D01*
X31626072Y25882600D01*
X31626072Y27457400D01*
X31613812Y27581882D01*
X31577502Y27701580D01*
X31518537Y27811894D01*
X31439185Y27908585D01*
X31342494Y27987937D01*
X31232180Y28046902D01*
X31112482Y28083212D01*
X30988000Y28095472D01*
X30980000Y28095472D01*
X30980000Y30424259D01*
X30985490Y30480001D01*
X30980000Y30535743D01*
X30980000Y30535752D01*
X30963577Y30702499D01*
X30898676Y30916447D01*
X30793284Y31113623D01*
X30651449Y31286449D01*
X30608140Y31321991D01*
X29902905Y32027226D01*
X30301831Y32027226D01*
X30373426Y31783246D01*
X30628954Y31662336D01*
X30903161Y31593600D01*
X31185508Y31579680D01*
X31465147Y31621111D01*
X31731328Y31716300D01*
X31856574Y31783246D01*
X31928169Y32027226D01*
X31115000Y32840395D01*
X30301831Y32027226D01*
X29902905Y32027226D01*
X29456000Y32474131D01*
X29456000Y32949492D01*
X29674680Y32949492D01*
X29716111Y32669853D01*
X29811300Y32403672D01*
X29878246Y32278426D01*
X30122226Y32206831D01*
X30935395Y33020000D01*
X30122226Y33833169D01*
X29878246Y33761574D01*
X29757336Y33506046D01*
X29688600Y33231839D01*
X29674680Y32949492D01*
X29456000Y32949492D01*
X29456000Y33427381D01*
X30364265Y34335645D01*
X30433932Y34289095D01*
X30373426Y34256754D01*
X30301831Y34012774D01*
X31115000Y33199605D01*
X31928169Y34012774D01*
X31856574Y34256754D01*
X31792256Y34287188D01*
X31794775Y34288231D01*
X32029823Y34445285D01*
X32229715Y34645177D01*
X32385000Y34877578D01*
X32540285Y34645177D01*
X32740177Y34445285D01*
X32972578Y34290000D01*
X32740177Y34134715D01*
X32540285Y33934823D01*
X32384095Y33701068D01*
X32351754Y33761574D01*
X32107774Y33833169D01*
X31294605Y33020000D01*
X32107774Y32206831D01*
X32351754Y32278426D01*
X32382188Y32342744D01*
X32383231Y32340225D01*
X32520000Y32135536D01*
X32520000Y31832737D01*
X32520001Y31832727D01*
X32520000Y22560152D01*
X32514509Y22504400D01*
X32520000Y22448649D01*
X32536423Y22281902D01*
X32601324Y22067954D01*
X32706716Y21870777D01*
X32848551Y21697951D01*
X32891865Y21662404D01*
X35699330Y18854938D01*
X35707581Y18771161D01*
X35788916Y18503037D01*
X35920995Y18255933D01*
X36098745Y18039345D01*
X36315333Y17861595D01*
X36562437Y17729516D01*
X36830561Y17648181D01*
X37039525Y17627600D01*
X37890475Y17627600D01*
X38099439Y17648181D01*
X38367563Y17729516D01*
X38614667Y17861595D01*
X38831255Y18039345D01*
X39009005Y18255933D01*
X39141084Y18503037D01*
X39222419Y18771161D01*
X39249882Y19050000D01*
X39233867Y19212609D01*
X39624000Y19212609D01*
X39624000Y18887391D01*
X39687447Y18568421D01*
X39811903Y18267958D01*
X39992585Y17997549D01*
X40222549Y17767585D01*
X40492958Y17586903D01*
X40793421Y17462447D01*
X41112391Y17399000D01*
X41437609Y17399000D01*
X41756579Y17462447D01*
X42057042Y17586903D01*
X42327451Y17767585D01*
X42557415Y17997549D01*
X42738097Y18267958D01*
X42862553Y18568421D01*
X42926000Y18887391D01*
X42926000Y19212609D01*
X42862553Y19531579D01*
X42738097Y19832042D01*
X42723783Y19853465D01*
X45433070Y19853465D01*
X45523098Y19593919D01*
X45804616Y19457776D01*
X46107286Y19379171D01*
X46419474Y19361123D01*
X46729185Y19404328D01*
X47024516Y19507123D01*
X47186902Y19593919D01*
X47276930Y19853465D01*
X46355000Y20775395D01*
X45433070Y19853465D01*
X42723783Y19853465D01*
X42557415Y20102451D01*
X42327451Y20332415D01*
X42057042Y20513097D01*
X41756579Y20637553D01*
X41437609Y20701000D01*
X41112391Y20701000D01*
X40793421Y20637553D01*
X40492958Y20513097D01*
X40222549Y20332415D01*
X39992585Y20102451D01*
X39811903Y19832042D01*
X39687447Y19531579D01*
X39624000Y19212609D01*
X39233867Y19212609D01*
X39222419Y19328839D01*
X39141084Y19596963D01*
X39009005Y19844067D01*
X38831255Y20060655D01*
X38614667Y20238405D01*
X38462013Y20320000D01*
X38614667Y20401595D01*
X38831255Y20579345D01*
X39009005Y20795933D01*
X39059565Y20890526D01*
X44761123Y20890526D01*
X44804328Y20580815D01*
X44907123Y20285484D01*
X44993919Y20123098D01*
X45253465Y20033070D01*
X46175395Y20955000D01*
X45253465Y21876930D01*
X44993919Y21786902D01*
X44857776Y21505384D01*
X44779171Y21202714D01*
X44761123Y20890526D01*
X39059565Y20890526D01*
X39141084Y21043037D01*
X39222419Y21311161D01*
X39249882Y21590000D01*
X39222419Y21868839D01*
X39141084Y22136963D01*
X39009005Y22384067D01*
X38831255Y22600655D01*
X38614667Y22778405D01*
X38462013Y22860000D01*
X38614667Y22941595D01*
X38679741Y22995000D01*
X41219249Y22995000D01*
X41275000Y22989509D01*
X41330751Y22995000D01*
X41330752Y22995000D01*
X41497499Y23011423D01*
X41711447Y23076324D01*
X41908623Y23181716D01*
X42081449Y23323551D01*
X42116996Y23366865D01*
X44620131Y25870000D01*
X53376928Y25870000D01*
X53380000Y24655750D01*
X53538750Y24497000D01*
X55388000Y24497000D01*
X55388000Y26346250D01*
X55642000Y26346250D01*
X55642000Y24497000D01*
X57491250Y24497000D01*
X57650000Y24655750D01*
X57653072Y25870000D01*
X57640812Y25994482D01*
X57604502Y26114180D01*
X57545537Y26224494D01*
X57466185Y26321185D01*
X57369494Y26400537D01*
X57259180Y26459502D01*
X57139482Y26495812D01*
X57015000Y26508072D01*
X55800750Y26505000D01*
X55642000Y26346250D01*
X55388000Y26346250D01*
X55229250Y26505000D01*
X54015000Y26508072D01*
X53890518Y26495812D01*
X53770820Y26459502D01*
X53660506Y26400537D01*
X53563815Y26321185D01*
X53484463Y26224494D01*
X53425498Y26114180D01*
X53389188Y25994482D01*
X53376928Y25870000D01*
X44620131Y25870000D01*
X47244000Y28493868D01*
X47244000Y28412391D01*
X47307447Y28093421D01*
X47431903Y27792958D01*
X47612585Y27522549D01*
X47842549Y27292585D01*
X48112958Y27111903D01*
X48413421Y26987447D01*
X48732391Y26924000D01*
X49057609Y26924000D01*
X49376579Y26987447D01*
X49677042Y27111903D01*
X49947451Y27292585D01*
X50177415Y27522549D01*
X50358097Y27792958D01*
X50482553Y28093421D01*
X50546000Y28412391D01*
X50546000Y28737609D01*
X50482553Y29056579D01*
X50358097Y29357042D01*
X50177415Y29627451D01*
X49947451Y29857415D01*
X49677042Y30038097D01*
X49376579Y30162553D01*
X49057609Y30226000D01*
X48976132Y30226000D01*
X49484132Y30734000D01*
X49692609Y30734000D01*
X50011579Y30797447D01*
X50312042Y30921903D01*
X50582451Y31102585D01*
X50812415Y31332549D01*
X50993097Y31602958D01*
X51117553Y31903421D01*
X51181000Y32222391D01*
X51181000Y32547609D01*
X55499000Y32547609D01*
X55499000Y32222391D01*
X55562447Y31903421D01*
X55686903Y31602958D01*
X55867585Y31332549D01*
X56097549Y31102585D01*
X56367958Y30921903D01*
X56668421Y30797447D01*
X56987391Y30734000D01*
X57312609Y30734000D01*
X57631579Y30797447D01*
X57932042Y30921903D01*
X58202451Y31102585D01*
X58432415Y31332549D01*
X58613097Y31602958D01*
X58737553Y31903421D01*
X58801000Y32222391D01*
X58801000Y32547609D01*
X58737553Y32866579D01*
X58613097Y33167042D01*
X58432415Y33437451D01*
X58202451Y33667415D01*
X57932042Y33848097D01*
X57631579Y33972553D01*
X57312609Y34036000D01*
X56987391Y34036000D01*
X56668421Y33972553D01*
X56367958Y33848097D01*
X56097549Y33667415D01*
X55867585Y33437451D01*
X55686903Y33167042D01*
X55562447Y32866579D01*
X55499000Y32547609D01*
X51181000Y32547609D01*
X51117553Y32866579D01*
X50993097Y33167042D01*
X50812415Y33437451D01*
X50582451Y33667415D01*
X50312042Y33848097D01*
X50011579Y33972553D01*
X49692609Y34036000D01*
X49367391Y34036000D01*
X49048421Y33972553D01*
X48747958Y33848097D01*
X48477549Y33667415D01*
X48247585Y33437451D01*
X48066903Y33167042D01*
X47942447Y32866579D01*
X47879000Y32547609D01*
X47879000Y32339132D01*
X40804869Y25265000D01*
X38679741Y25265000D01*
X38614667Y25318405D01*
X38462013Y25400000D01*
X38614667Y25481595D01*
X38831255Y25659345D01*
X39009005Y25875933D01*
X39141084Y26123037D01*
X39222419Y26391161D01*
X39249882Y26670000D01*
X39222419Y26948839D01*
X39141084Y27216963D01*
X39009005Y27464067D01*
X38831255Y27680655D01*
X38614667Y27858405D01*
X38600000Y27866245D01*
X38600000Y27987269D01*
X39625140Y29012408D01*
X39668449Y29047951D01*
X39699591Y29085898D01*
X39687447Y29056579D01*
X39624000Y28737609D01*
X39624000Y28412391D01*
X39687447Y28093421D01*
X39811903Y27792958D01*
X39992585Y27522549D01*
X40222549Y27292585D01*
X40492958Y27111903D01*
X40793421Y26987447D01*
X41112391Y26924000D01*
X41437609Y26924000D01*
X41756579Y26987447D01*
X42057042Y27111903D01*
X42327451Y27292585D01*
X42557415Y27522549D01*
X42738097Y27792958D01*
X42862553Y28093421D01*
X42926000Y28412391D01*
X42926000Y28737609D01*
X42862553Y29056579D01*
X42738097Y29357042D01*
X42557415Y29627451D01*
X42327451Y29857415D01*
X42057042Y30038097D01*
X41756579Y30162553D01*
X41437609Y30226000D01*
X41112391Y30226000D01*
X40793421Y30162553D01*
X40492958Y30038097D01*
X40222549Y29857415D01*
X39992585Y29627451D01*
X39968120Y29590837D01*
X39980577Y29631901D01*
X39997000Y29798648D01*
X39997000Y29798657D01*
X40002490Y29854399D01*
X39997000Y29910141D01*
X39997000Y35697459D01*
X40002490Y35753203D01*
X39997000Y35808947D01*
X39997000Y35808954D01*
X39980577Y35975701D01*
X39915676Y36189649D01*
X39846977Y36318177D01*
X48562782Y36318177D01*
X48660478Y36052140D01*
X48952821Y35909652D01*
X49267344Y35826936D01*
X49591962Y35807169D01*
X49914198Y35851112D01*
X50221670Y35957076D01*
X50399522Y36052140D01*
X50497218Y36318177D01*
X56182782Y36318177D01*
X56280478Y36052140D01*
X56572821Y35909652D01*
X56887344Y35826936D01*
X57211962Y35807169D01*
X57534198Y35851112D01*
X57841670Y35957076D01*
X58019522Y36052140D01*
X58117218Y36318177D01*
X57150000Y37285395D01*
X56182782Y36318177D01*
X50497218Y36318177D01*
X49530000Y37285395D01*
X48562782Y36318177D01*
X39846977Y36318177D01*
X39810284Y36386825D01*
X39668449Y36559651D01*
X39625141Y36595193D01*
X38817296Y37403038D01*
X47872169Y37403038D01*
X47916112Y37080802D01*
X48022076Y36773330D01*
X48117140Y36595478D01*
X48383177Y36497782D01*
X49350395Y37465000D01*
X49709605Y37465000D01*
X50676823Y36497782D01*
X50942860Y36595478D01*
X51085348Y36887821D01*
X51168064Y37202344D01*
X51180284Y37403038D01*
X55492169Y37403038D01*
X55536112Y37080802D01*
X55642076Y36773330D01*
X55737140Y36595478D01*
X56003177Y36497782D01*
X56970395Y37465000D01*
X57329605Y37465000D01*
X58296823Y36497782D01*
X58562860Y36595478D01*
X58705348Y36887821D01*
X58788064Y37202344D01*
X58807831Y37526962D01*
X58763888Y37849198D01*
X58657924Y38156670D01*
X58562860Y38334522D01*
X58296823Y38432218D01*
X57329605Y37465000D01*
X56970395Y37465000D01*
X56003177Y38432218D01*
X55737140Y38334522D01*
X55594652Y38042179D01*
X55511936Y37727656D01*
X55492169Y37403038D01*
X51180284Y37403038D01*
X51187831Y37526962D01*
X51143888Y37849198D01*
X51037924Y38156670D01*
X50942860Y38334522D01*
X50676823Y38432218D01*
X49709605Y37465000D01*
X49350395Y37465000D01*
X48383177Y38432218D01*
X48117140Y38334522D01*
X47974652Y38042179D01*
X47891936Y37727656D01*
X47872169Y37403038D01*
X38817296Y37403038D01*
X37738198Y38482135D01*
X37702651Y38525449D01*
X37597405Y38611823D01*
X48562782Y38611823D01*
X49530000Y37644605D01*
X50497218Y38611823D01*
X56182782Y38611823D01*
X57150000Y37644605D01*
X58117218Y38611823D01*
X58019522Y38877860D01*
X57727179Y39020348D01*
X57412656Y39103064D01*
X57088038Y39122831D01*
X56765802Y39078888D01*
X56458330Y38972924D01*
X56280478Y38877860D01*
X56182782Y38611823D01*
X50497218Y38611823D01*
X50399522Y38877860D01*
X50107179Y39020348D01*
X49792656Y39103064D01*
X49468038Y39122831D01*
X49145802Y39078888D01*
X48838330Y38972924D01*
X48660478Y38877860D01*
X48562782Y38611823D01*
X37597405Y38611823D01*
X37529825Y38667284D01*
X37332649Y38772676D01*
X37118701Y38837577D01*
X36951954Y38854000D01*
X36951953Y38854000D01*
X36896202Y38859491D01*
X36840451Y38854000D01*
X20524752Y38854000D01*
X20469000Y38859491D01*
X20413248Y38854000D01*
X20246501Y38837577D01*
X20032553Y38772676D01*
X19835377Y38667284D01*
X19662551Y38525449D01*
X19627009Y38482141D01*
X14138072Y32993203D01*
X14138072Y33150000D01*
X14125812Y33274482D01*
X14089502Y33394180D01*
X14030537Y33504494D01*
X13951185Y33601185D01*
X13854494Y33680537D01*
X13744180Y33739502D01*
X13624482Y33775812D01*
X13500000Y33788072D01*
X11900000Y33788072D01*
X11775518Y33775812D01*
X11655820Y33739502D01*
X11545506Y33680537D01*
X11448815Y33601185D01*
X11369463Y33504494D01*
X11310498Y33394180D01*
X11274188Y33274482D01*
X11261928Y33150000D01*
X11261928Y30350000D01*
X11274188Y30225518D01*
X11310498Y30105820D01*
X11369463Y29995506D01*
X11448815Y29898815D01*
X11545506Y29819463D01*
X11655820Y29760498D01*
X11775518Y29724188D01*
X11900000Y29711928D01*
X13500000Y29711928D01*
X13624482Y29724188D01*
X13744180Y29760498D01*
X13854494Y29819463D01*
X13951185Y29898815D01*
X14030537Y29995506D01*
X14089502Y30105820D01*
X14125812Y30225518D01*
X14138072Y30350000D01*
X14138072Y30615000D01*
X14444249Y30615000D01*
X14500000Y30609509D01*
X14555751Y30615000D01*
X14555752Y30615000D01*
X14722499Y30631423D01*
X14936447Y30696324D01*
X15133623Y30801716D01*
X15306449Y30943551D01*
X15341996Y30986865D01*
X15978131Y31623000D01*
X23965000Y31623000D01*
X23965000Y31023000D01*
X24017350Y30745486D01*
X24122834Y30483517D01*
X24277399Y30247161D01*
X24475105Y30045500D01*
X24708354Y29886285D01*
X24968182Y29775633D01*
X25050961Y29758096D01*
X25273000Y29880085D01*
X25273000Y31623000D01*
X25527000Y31623000D01*
X25527000Y29880085D01*
X25749039Y29758096D01*
X25831818Y29775633D01*
X26091646Y29886285D01*
X26324895Y30045500D01*
X26522601Y30247161D01*
X26677166Y30483517D01*
X26782650Y30745486D01*
X26835000Y31023000D01*
X26835000Y31623000D01*
X25527000Y31623000D01*
X25273000Y31623000D01*
X23965000Y31623000D01*
X15978131Y31623000D01*
X16832131Y32477000D01*
X23965000Y32477000D01*
X23965000Y31877000D01*
X25273000Y31877000D01*
X25273000Y33619915D01*
X25527000Y33619915D01*
X25527000Y31877000D01*
X26835000Y31877000D01*
X26835000Y32477000D01*
X26782650Y32754514D01*
X26677166Y33016483D01*
X26522601Y33252839D01*
X26324895Y33454500D01*
X26091646Y33613715D01*
X25831818Y33724367D01*
X25749039Y33741904D01*
X25527000Y33619915D01*
X25273000Y33619915D01*
X25050961Y33741904D01*
X24968182Y33724367D01*
X24708354Y33613715D01*
X24475105Y33454500D01*
X24277399Y33252839D01*
X24122834Y33016483D01*
X24017350Y32754514D01*
X23965000Y32477000D01*
X16832131Y32477000D01*
X20939132Y36584000D01*
X29491521Y36584000D01*
X29349865Y36508284D01*
X29177039Y36366449D01*
X29141497Y36323140D01*
X27557865Y34739508D01*
X27514551Y34703961D01*
X27372716Y34531135D01*
X27290685Y34377664D01*
X27267324Y34333958D01*
X27202423Y34120010D01*
X27180509Y33897512D01*
X27186000Y33841760D01*
X27186001Y32059761D01*
X27180509Y32004000D01*
X27202423Y31781502D01*
X27267324Y31567554D01*
X27288733Y31527501D01*
X27372717Y31370377D01*
X27514552Y31197551D01*
X27557860Y31162009D01*
X28710000Y30009868D01*
X28710001Y28095472D01*
X28702000Y28095472D01*
X28577518Y28083212D01*
X28457820Y28046902D01*
X28347506Y27987937D01*
X28250815Y27908585D01*
X28171463Y27811894D01*
X28112498Y27701580D01*
X28076188Y27581882D01*
X28063928Y27457400D01*
X28063928Y25882600D01*
X28076188Y25758118D01*
X28112498Y25638420D01*
X28171463Y25528106D01*
X28250815Y25431415D01*
X28347506Y25352063D01*
X28457820Y25293098D01*
X28550447Y25265000D01*
X26852741Y25265000D01*
X26796999Y25270490D01*
X26741257Y25265000D01*
X26741248Y25265000D01*
X26574501Y25248577D01*
X26360553Y25183676D01*
X26163377Y25078284D01*
X25990551Y24936449D01*
X25955011Y24893143D01*
X24636860Y23574991D01*
X24593552Y23539449D01*
X24451717Y23366623D01*
X24428695Y23323551D01*
X24346324Y23169446D01*
X24281423Y22955498D01*
X24259509Y22733000D01*
X24265001Y22677239D01*
X24265000Y20884866D01*
X24117585Y20737451D01*
X23936903Y20467042D01*
X23812500Y20166707D01*
X23688097Y20467042D01*
X23507415Y20737451D01*
X23277451Y20967415D01*
X23007042Y21148097D01*
X22706579Y21272553D01*
X22387609Y21336000D01*
X22062391Y21336000D01*
X21743421Y21272553D01*
X21442958Y21148097D01*
X21172549Y20967415D01*
X20942585Y20737451D01*
X20761903Y20467042D01*
X20637500Y20166707D01*
X20513097Y20467042D01*
X20332415Y20737451D01*
X20102451Y20967415D01*
X19832042Y21148097D01*
X19531579Y21272553D01*
X19212609Y21336000D01*
X18887391Y21336000D01*
X18568421Y21272553D01*
X18267958Y21148097D01*
X17997549Y20967415D01*
X17767585Y20737451D01*
X17586903Y20467042D01*
X17462500Y20166707D01*
X17338097Y20467042D01*
X17157415Y20737451D01*
X16927451Y20967415D01*
X16657042Y21148097D01*
X16356579Y21272553D01*
X16037609Y21336000D01*
X15712391Y21336000D01*
X15393421Y21272553D01*
X15092958Y21148097D01*
X14822549Y20967415D01*
X14592585Y20737451D01*
X14411903Y20467042D01*
X14287447Y20166579D01*
X14224000Y19847609D01*
X14224000Y19522391D01*
X14287447Y19203421D01*
X14411903Y18902958D01*
X14592585Y18632549D01*
X14740000Y18485134D01*
X14740000Y18303911D01*
X14734509Y18248160D01*
X14740000Y18192409D01*
X14740000Y18192408D01*
X14756423Y18025661D01*
X14821324Y17811713D01*
X14926717Y17614537D01*
X15068552Y17441711D01*
X15111860Y17406169D01*
X16517168Y16000860D01*
X16552711Y15957551D01*
X16725537Y15815716D01*
X16922713Y15710324D01*
X17086865Y15660529D01*
X17136660Y15645423D01*
X17157653Y15643356D01*
X17303408Y15629000D01*
X17303415Y15629000D01*
X17359159Y15623510D01*
X17414903Y15629000D01*
X22135869Y15629000D01*
X24265000Y13499867D01*
X24265000Y13264866D01*
X24117585Y13117451D01*
X23936903Y12847042D01*
X23812447Y12546579D01*
X23809842Y12533481D01*
X23732924Y12756670D01*
X23637860Y12934522D01*
X23371823Y13032218D01*
X22404605Y12065000D01*
X23371823Y11097782D01*
X23637860Y11195478D01*
X23780348Y11487821D01*
X23809451Y11598483D01*
X23812447Y11583421D01*
X23936903Y11282958D01*
X24117585Y11012549D01*
X24347549Y10782585D01*
X24617958Y10601903D01*
X24918421Y10477447D01*
X25237391Y10414000D01*
X25318869Y10414000D01*
X24636860Y9731991D01*
X24593552Y9696449D01*
X24451717Y9523623D01*
X24397651Y9422471D01*
X24346324Y9326446D01*
X24281423Y9112498D01*
X24259509Y8890000D01*
X24265001Y8834239D01*
X24265000Y1397000D01*
X6298727Y1397000D01*
X6023034Y1410835D01*
X5733689Y1454758D01*
X5455178Y1526052D01*
X5188499Y1623310D01*
X4934870Y1745158D01*
X4695645Y1890219D01*
X4472245Y2057102D01*
X4266192Y2244336D01*
X4078985Y2450442D01*
X3912139Y2673882D01*
X3767099Y2913166D01*
X3645274Y3166842D01*
X3548038Y3433563D01*
X3476753Y3712135D01*
X3432841Y4001510D01*
X3416960Y4318110D01*
X3416960Y5242609D01*
X5334000Y5242609D01*
X5334000Y4917391D01*
X5397447Y4598421D01*
X5521903Y4297958D01*
X5702585Y4027549D01*
X5932549Y3797585D01*
X6202958Y3616903D01*
X6503421Y3492447D01*
X6822391Y3429000D01*
X7147609Y3429000D01*
X7466579Y3492447D01*
X7767042Y3616903D01*
X8037451Y3797585D01*
X8255000Y4015134D01*
X8472549Y3797585D01*
X8742958Y3616903D01*
X9043421Y3492447D01*
X9362391Y3429000D01*
X9687609Y3429000D01*
X10006579Y3492447D01*
X10307042Y3616903D01*
X10577451Y3797585D01*
X10807415Y4027549D01*
X10988097Y4297958D01*
X11112553Y4598421D01*
X11176000Y4917391D01*
X11176000Y5242609D01*
X11112553Y5561579D01*
X10988097Y5862042D01*
X10807415Y6132451D01*
X10577451Y6362415D01*
X10307042Y6543097D01*
X10006579Y6667553D01*
X9687609Y6731000D01*
X9362391Y6731000D01*
X9043421Y6667553D01*
X8742958Y6543097D01*
X8472549Y6362415D01*
X8255000Y6144866D01*
X8037451Y6362415D01*
X7767042Y6543097D01*
X7466579Y6667553D01*
X7147609Y6731000D01*
X6822391Y6731000D01*
X6503421Y6667553D01*
X6202958Y6543097D01*
X5932549Y6362415D01*
X5702585Y6132451D01*
X5521903Y5862042D01*
X5397447Y5561579D01*
X5334000Y5242609D01*
X3416960Y5242609D01*
X3416960Y12227609D01*
X14224000Y12227609D01*
X14224000Y11902391D01*
X14287447Y11583421D01*
X14411903Y11282958D01*
X14592585Y11012549D01*
X14822549Y10782585D01*
X15092958Y10601903D01*
X15393421Y10477447D01*
X15712391Y10414000D01*
X16037609Y10414000D01*
X16356579Y10477447D01*
X16657042Y10601903D01*
X16927451Y10782585D01*
X17157415Y11012549D01*
X17338097Y11282958D01*
X17462500Y11583293D01*
X17586903Y11282958D01*
X17767585Y11012549D01*
X17997549Y10782585D01*
X18267958Y10601903D01*
X18568421Y10477447D01*
X18887391Y10414000D01*
X19212609Y10414000D01*
X19531579Y10477447D01*
X19832042Y10601903D01*
X20102451Y10782585D01*
X20238043Y10918177D01*
X21257782Y10918177D01*
X21355478Y10652140D01*
X21647821Y10509652D01*
X21962344Y10426936D01*
X22286962Y10407169D01*
X22609198Y10451112D01*
X22916670Y10557076D01*
X23094522Y10652140D01*
X23192218Y10918177D01*
X22225000Y11885395D01*
X21257782Y10918177D01*
X20238043Y10918177D01*
X20332415Y11012549D01*
X20513097Y11282958D01*
X20637553Y11583421D01*
X20640158Y11596519D01*
X20717076Y11373330D01*
X20812140Y11195478D01*
X21078177Y11097782D01*
X22045395Y12065000D01*
X21078177Y13032218D01*
X20812140Y12934522D01*
X20669652Y12642179D01*
X20640549Y12531517D01*
X20637553Y12546579D01*
X20513097Y12847042D01*
X20332415Y13117451D01*
X20238043Y13211823D01*
X21257782Y13211823D01*
X22225000Y12244605D01*
X23192218Y13211823D01*
X23094522Y13477860D01*
X22802179Y13620348D01*
X22487656Y13703064D01*
X22163038Y13722831D01*
X21840802Y13678888D01*
X21533330Y13572924D01*
X21355478Y13477860D01*
X21257782Y13211823D01*
X20238043Y13211823D01*
X20102451Y13347415D01*
X19832042Y13528097D01*
X19531579Y13652553D01*
X19212609Y13716000D01*
X18887391Y13716000D01*
X18568421Y13652553D01*
X18267958Y13528097D01*
X17997549Y13347415D01*
X17767585Y13117451D01*
X17586903Y12847042D01*
X17462500Y12546707D01*
X17338097Y12847042D01*
X17157415Y13117451D01*
X16927451Y13347415D01*
X16657042Y13528097D01*
X16356579Y13652553D01*
X16037609Y13716000D01*
X15712391Y13716000D01*
X15393421Y13652553D01*
X15092958Y13528097D01*
X14822549Y13347415D01*
X14592585Y13117451D01*
X14411903Y12847042D01*
X14287447Y12546579D01*
X14224000Y12227609D01*
X3416960Y12227609D01*
X3416960Y25870000D01*
X7376928Y25870000D01*
X7376928Y22870000D01*
X7389188Y22745518D01*
X7425498Y22625820D01*
X7484463Y22515506D01*
X7563815Y22418815D01*
X7660506Y22339463D01*
X7770820Y22280498D01*
X7890518Y22244188D01*
X8015000Y22231928D01*
X11015000Y22231928D01*
X11139482Y22244188D01*
X11259180Y22280498D01*
X11369494Y22339463D01*
X11466185Y22418815D01*
X11545537Y22515506D01*
X11604502Y22625820D01*
X11640812Y22745518D01*
X11653072Y22870000D01*
X11653072Y25870000D01*
X11640812Y25994482D01*
X11604502Y26114180D01*
X11545537Y26224494D01*
X11466185Y26321185D01*
X11369494Y26400537D01*
X11259180Y26459502D01*
X11139482Y26495812D01*
X11015000Y26508072D01*
X10787148Y26508072D01*
X11004710Y26725634D01*
X11213189Y27037644D01*
X11356791Y27384332D01*
X11430000Y27752374D01*
X11430000Y28127626D01*
X11356791Y28495668D01*
X11213189Y28842356D01*
X11004710Y29154366D01*
X10739366Y29419710D01*
X10427356Y29628189D01*
X10080668Y29771791D01*
X9712626Y29845000D01*
X9337374Y29845000D01*
X8969332Y29771791D01*
X8622644Y29628189D01*
X8310634Y29419710D01*
X8045290Y29154366D01*
X7836811Y28842356D01*
X7693209Y28495668D01*
X7620000Y28127626D01*
X7620000Y27752374D01*
X7693209Y27384332D01*
X7836811Y27037644D01*
X8045290Y26725634D01*
X8262852Y26508072D01*
X8015000Y26508072D01*
X7890518Y26495812D01*
X7770820Y26459502D01*
X7660506Y26400537D01*
X7563815Y26321185D01*
X7484463Y26224494D01*
X7425498Y26114180D01*
X7389188Y25994482D01*
X7376928Y25870000D01*
X3416960Y25870000D01*
X3416960Y36602220D01*
X3432841Y36918820D01*
X3476753Y37208193D01*
X3548038Y37486766D01*
X3562204Y37525626D01*
X7620000Y37525626D01*
X7620000Y37150374D01*
X7693209Y36782332D01*
X7836811Y36435644D01*
X8045290Y36123634D01*
X8310634Y35858290D01*
X8622644Y35649811D01*
X8969332Y35506209D01*
X9337374Y35433000D01*
X9712626Y35433000D01*
X10080668Y35506209D01*
X10427356Y35649811D01*
X10739366Y35858290D01*
X11004710Y36123634D01*
X11213189Y36435644D01*
X11356791Y36782332D01*
X11430000Y37150374D01*
X11430000Y37525626D01*
X11356791Y37893668D01*
X11213189Y38240356D01*
X11004710Y38552366D01*
X10739366Y38817710D01*
X10427356Y39026189D01*
X10080668Y39169791D01*
X9712626Y39243000D01*
X9337374Y39243000D01*
X8969332Y39169791D01*
X8622644Y39026189D01*
X8310634Y38817710D01*
X8045290Y38552366D01*
X7836811Y38240356D01*
X7693209Y37893668D01*
X7620000Y37525626D01*
X3562204Y37525626D01*
X3645274Y37753487D01*
X3767101Y38007168D01*
X3912139Y38246448D01*
X4078984Y38469888D01*
X4266191Y38675991D01*
X4472245Y38863227D01*
X4695645Y39030110D01*
X4934873Y39175172D01*
X5188497Y39297018D01*
X5455177Y39394277D01*
X5733689Y39465571D01*
X6023034Y39509494D01*
X6339598Y39525380D01*
X58624056Y39525380D01*
X58940621Y39509494D01*
X58940621Y39509494D01*
G37*
X58940621Y39509494D02*
X59229965Y39465571D01*
X59508477Y39394276D01*
X59775151Y39297021D01*
X60028789Y39175168D01*
X60268016Y39030105D01*
X60491410Y38863228D01*
X60697465Y38675991D01*
X60884673Y38469886D01*
X61051517Y38246449D01*
X61196557Y38007164D01*
X61318382Y37753489D01*
X61415617Y37486770D01*
X61486901Y37208196D01*
X61530814Y36918820D01*
X61546696Y36602200D01*
X61546695Y4318110D01*
X61530814Y4001510D01*
X61486901Y3712133D01*
X61415618Y3433563D01*
X61318378Y3166835D01*
X61196558Y2913167D01*
X61051517Y2673883D01*
X60884674Y2450445D01*
X60697463Y2244336D01*
X60491413Y2057104D01*
X60268011Y1890221D01*
X60028780Y1745156D01*
X59775159Y1623311D01*
X59508480Y1526053D01*
X59229965Y1454758D01*
X58940621Y1410835D01*
X58664927Y1397000D01*
X41013000Y1397000D01*
X41013000Y8707248D01*
X41018491Y8763000D01*
X41013000Y8818757D01*
X40996577Y8985499D01*
X40931676Y9199447D01*
X40826284Y9396623D01*
X40684449Y9569449D01*
X40641140Y9604992D01*
X40124000Y10122131D01*
X40124000Y10246134D01*
X40222549Y10147585D01*
X40492958Y9966903D01*
X40793421Y9842447D01*
X41112391Y9779000D01*
X41437609Y9779000D01*
X41756579Y9842447D01*
X42057042Y9966903D01*
X42327451Y10147585D01*
X42557415Y10377549D01*
X42738097Y10647958D01*
X42862553Y10948421D01*
X42926000Y11267391D01*
X42926000Y11592609D01*
X42862553Y11911579D01*
X42738097Y12212042D01*
X42683602Y12293600D01*
X45495928Y12293600D01*
X45495928Y10566400D01*
X45508188Y10441918D01*
X45544498Y10322220D01*
X45603463Y10211906D01*
X45682815Y10115215D01*
X45779506Y10035863D01*
X45889820Y9976898D01*
X46009518Y9940588D01*
X46134000Y9928328D01*
X48166000Y9928328D01*
X48290482Y9940588D01*
X48410180Y9976898D01*
X48520494Y10035863D01*
X48617185Y10115215D01*
X48696537Y10211906D01*
X48755502Y10322220D01*
X48791812Y10441918D01*
X48804072Y10566400D01*
X48804072Y11070974D01*
X55542642Y11070974D01*
X55545291Y11055211D01*
X55646314Y10779081D01*
X55799267Y10527965D01*
X55998271Y10311514D01*
X56235679Y10138046D01*
X56502367Y10014227D01*
X56788086Y9944815D01*
X57023000Y10089075D01*
X57023000Y11303000D01*
X57277000Y11303000D01*
X57277000Y10089075D01*
X57511914Y9944815D01*
X57797633Y10014227D01*
X58064321Y10138046D01*
X58301729Y10311514D01*
X58500733Y10527965D01*
X58653686Y10779081D01*
X58754709Y11055211D01*
X58757358Y11070974D01*
X58636217Y11303000D01*
X57277000Y11303000D01*
X57023000Y11303000D01*
X55663783Y11303000D01*
X55542642Y11070974D01*
X48804072Y11070974D01*
X48804072Y11789026D01*
X55542642Y11789026D01*
X55663783Y11557000D01*
X57023000Y11557000D01*
X57023000Y12770925D01*
X57277000Y12770925D01*
X57277000Y11557000D01*
X58636217Y11557000D01*
X58757358Y11789026D01*
X58754709Y11804789D01*
X58653686Y12080919D01*
X58500733Y12332035D01*
X58301729Y12548486D01*
X58064321Y12721954D01*
X57797633Y12845773D01*
X57511914Y12915185D01*
X57277000Y12770925D01*
X57023000Y12770925D01*
X56788086Y12915185D01*
X56502367Y12845773D01*
X56235679Y12721954D01*
X55998271Y12548486D01*
X55799267Y12332035D01*
X55646314Y12080919D01*
X55545291Y11804789D01*
X55542642Y11789026D01*
X48804072Y11789026D01*
X48804072Y12293600D01*
X48791812Y12418082D01*
X48755502Y12537780D01*
X48696537Y12648094D01*
X48617185Y12744785D01*
X48520494Y12824137D01*
X48410180Y12883102D01*
X48290482Y12919412D01*
X48166000Y12931672D01*
X46134000Y12931672D01*
X46009518Y12919412D01*
X45889820Y12883102D01*
X45779506Y12824137D01*
X45682815Y12744785D01*
X45603463Y12648094D01*
X45544498Y12537780D01*
X45508188Y12418082D01*
X45495928Y12293600D01*
X42683602Y12293600D01*
X42557415Y12482451D01*
X42327451Y12712415D01*
X42057042Y12893097D01*
X41756579Y13017553D01*
X41437609Y13081000D01*
X41112391Y13081000D01*
X41099585Y13078453D01*
X41237133Y13216000D01*
X45791249Y13216000D01*
X45847000Y13210509D01*
X45902751Y13216000D01*
X45902752Y13216000D01*
X46069499Y13232423D01*
X46283447Y13297324D01*
X46480623Y13402716D01*
X46653449Y13544551D01*
X46688996Y13587865D01*
X49658141Y16557009D01*
X49701449Y16592551D01*
X49843284Y16765377D01*
X49948676Y16962553D01*
X50013577Y17176501D01*
X50030000Y17343248D01*
X50030000Y17343249D01*
X50035491Y17399000D01*
X50030000Y17454751D01*
X50030000Y21934288D01*
X50091680Y21952998D01*
X50201994Y22011963D01*
X50298685Y22091315D01*
X50378037Y22188006D01*
X50437002Y22298320D01*
X50473312Y22418018D01*
X50485572Y22542500D01*
X50485572Y22870000D01*
X53376928Y22870000D01*
X53389188Y22745518D01*
X53425498Y22625820D01*
X53484463Y22515506D01*
X53563815Y22418815D01*
X53660506Y22339463D01*
X53770820Y22280498D01*
X53890518Y22244188D01*
X54015000Y22231928D01*
X55229250Y22235000D01*
X55388000Y22393750D01*
X55388000Y24243000D01*
X55642000Y24243000D01*
X55642000Y22393750D01*
X55800750Y22235000D01*
X57015000Y22231928D01*
X57139482Y22244188D01*
X57259180Y22280498D01*
X57369494Y22339463D01*
X57466185Y22418815D01*
X57545537Y22515506D01*
X57604502Y22625820D01*
X57640812Y22745518D01*
X57653072Y22870000D01*
X57650000Y24084250D01*
X57491250Y24243000D01*
X55642000Y24243000D01*
X55388000Y24243000D01*
X53538750Y24243000D01*
X53380000Y24084250D01*
X53376928Y22870000D01*
X50485572Y22870000D01*
X50485572Y24447500D01*
X50473312Y24571982D01*
X50437002Y24691680D01*
X50378037Y24801994D01*
X50298685Y24898685D01*
X50201994Y24978037D01*
X50091680Y25037002D01*
X49971982Y25073312D01*
X49847500Y25085572D01*
X47942500Y25085572D01*
X47818018Y25073312D01*
X47698320Y25037002D01*
X47588006Y24978037D01*
X47491315Y24898685D01*
X47411963Y24801994D01*
X47370549Y24724515D01*
X47366972Y24728092D01*
X47106963Y24901824D01*
X46818057Y25021493D01*
X46511355Y25082500D01*
X46198645Y25082500D01*
X45891943Y25021493D01*
X45603037Y24901824D01*
X45343028Y24728092D01*
X45121908Y24506972D01*
X44948176Y24246963D01*
X44828507Y23958057D01*
X44767500Y23651355D01*
X44767500Y23338645D01*
X44828507Y23031943D01*
X44948176Y22743037D01*
X45121908Y22483028D01*
X45343028Y22261908D01*
X45473961Y22174422D01*
X45433070Y22056535D01*
X46355000Y21134605D01*
X47276930Y22056535D01*
X47236039Y22174422D01*
X47366972Y22261908D01*
X47370549Y22265485D01*
X47411963Y22188006D01*
X47491315Y22091315D01*
X47588006Y22011963D01*
X47698320Y21952998D01*
X47760001Y21934287D01*
X47760001Y21704733D01*
X47716081Y21786902D01*
X47456535Y21876930D01*
X46534605Y20955000D01*
X47456535Y20033070D01*
X47716081Y20123098D01*
X47760000Y20213915D01*
X47760000Y17869132D01*
X45376869Y15486000D01*
X40822752Y15486000D01*
X40767000Y15491491D01*
X40544501Y15469577D01*
X40330553Y15404676D01*
X40133377Y15299284D01*
X40003856Y15192989D01*
X40003854Y15192987D01*
X39960551Y15157449D01*
X39925013Y15114146D01*
X38225860Y13414991D01*
X38182552Y13379449D01*
X38040717Y13206623D01*
X38017695Y13163551D01*
X37935324Y13009446D01*
X37870423Y12795498D01*
X37848509Y12573000D01*
X37854001Y12517239D01*
X37854000Y9707752D01*
X37848509Y9652000D01*
X37870057Y9433223D01*
X37870423Y9429502D01*
X37935324Y9215554D01*
X38040716Y9018377D01*
X38182551Y8845551D01*
X38225864Y8810005D01*
X38743001Y8292867D01*
X38743000Y1397000D01*
X34068169Y1397000D01*
X34082163Y1402624D01*
X34104761Y1414385D01*
X34128571Y1423453D01*
X34136543Y1427489D01*
X34168091Y1443737D01*
X34205088Y1467626D01*
X34243411Y1489342D01*
X34257457Y1501439D01*
X34273024Y1511491D01*
X34304664Y1542098D01*
X34308511Y1545412D01*
X34309425Y1545425D01*
X34336475Y1551183D01*
X34363998Y1553961D01*
X34397424Y1564156D01*
X34431594Y1571430D01*
X34457008Y1582331D01*
X34483469Y1590402D01*
X34491697Y1593888D01*
X34582691Y1633195D01*
X34598269Y1641817D01*
X34614904Y1648184D01*
X34622870Y1652234D01*
X34749354Y1717641D01*
X34788302Y1742881D01*
X34828470Y1766126D01*
X34840618Y1776783D01*
X34854175Y1785568D01*
X34887470Y1817883D01*
X34922367Y1848496D01*
X34928626Y1856641D01*
X34931217Y1857377D01*
X34965607Y1874941D01*
X35001216Y1889887D01*
X35021098Y1903282D01*
X35042454Y1914189D01*
X35049944Y1919063D01*
X35200446Y2018509D01*
X35232017Y2044124D01*
X35265269Y2067525D01*
X35271999Y2073403D01*
X35399096Y2185990D01*
X35426052Y2215034D01*
X35455016Y2242072D01*
X35468439Y2260703D01*
X35484066Y2277541D01*
X35504864Y2311264D01*
X35516415Y2327296D01*
X35557854Y2345248D01*
X35577322Y2356050D01*
X35597976Y2364311D01*
X35631801Y2386276D01*
X35667075Y2405848D01*
X35684062Y2420214D01*
X35702731Y2432338D01*
X35709676Y2437962D01*
X35844210Y2548471D01*
X35869277Y2573539D01*
X35896379Y2596397D01*
X35902570Y2602841D01*
X35967413Y2671280D01*
X35979055Y2686260D01*
X35992631Y2699524D01*
X35998335Y2706403D01*
X36069986Y2794055D01*
X36102267Y2842524D01*
X36135147Y2890489D01*
X36139212Y2897997D01*
X36139224Y2898015D01*
X36139231Y2898033D01*
X36139402Y2898348D01*
X36167261Y2950676D01*
X36170446Y2958392D01*
X36174885Y2965457D01*
X36194251Y3016060D01*
X36209806Y3053743D01*
X36241867Y3073190D01*
X36272288Y3095982D01*
X36304363Y3116372D01*
X36322155Y3133341D01*
X36341830Y3148082D01*
X36367242Y3176344D01*
X36394749Y3202580D01*
X36400535Y3209390D01*
X36512266Y3342756D01*
X36532792Y3372784D01*
X36555708Y3401038D01*
X36560580Y3408529D01*
X36614022Y3491952D01*
X36618028Y3499799D01*
X36623296Y3506874D01*
X36627854Y3514560D01*
X36683728Y3610287D01*
X36697726Y3640761D01*
X36714433Y3669851D01*
X36718048Y3678023D01*
X36739722Y3727943D01*
X36751520Y3764538D01*
X36752667Y3767350D01*
X36768560Y3787533D01*
X36773324Y3795094D01*
X36815097Y3862419D01*
X36819035Y3870415D01*
X36824255Y3877646D01*
X36846602Y3926396D01*
X36870279Y3974475D01*
X36872590Y3983089D01*
X36876304Y3991191D01*
X36880677Y4009509D01*
X36881238Y4010798D01*
X36883899Y4023004D01*
X36888751Y4043323D01*
X36889632Y4046609D01*
X36922307Y4092180D01*
X36940536Y4123702D01*
X36961279Y4153633D01*
X36965574Y4161470D01*
X37028609Y4278428D01*
X37037085Y4298668D01*
X37048059Y4317675D01*
X37051693Y4325839D01*
X37107091Y4452636D01*
X37115745Y4479271D01*
X37127222Y4504817D01*
X37130012Y4513307D01*
X37165721Y4624582D01*
X37168757Y4638635D01*
X37173868Y4652072D01*
X37181924Y4699578D01*
X37183179Y4705387D01*
X37186046Y4711291D01*
X37208745Y4752908D01*
X37213278Y4767365D01*
X37219899Y4780999D01*
X37222941Y4789402D01*
X37261104Y4897157D01*
X37266661Y4919609D01*
X37274941Y4941215D01*
X37277248Y4949848D01*
X37316210Y5099777D01*
X37318552Y5114617D01*
X37323066Y5128948D01*
X37324845Y5137705D01*
X37358694Y5310486D01*
X37359215Y5315912D01*
X37360693Y5321166D01*
X37362200Y5329974D01*
X37363231Y5336262D01*
X37363968Y5347626D01*
X37366507Y5358730D01*
X37367577Y5367602D01*
X37379069Y5468800D01*
X37379129Y5472710D01*
X37384132Y5482520D01*
X37386023Y5489194D01*
X37389044Y5495447D01*
X37392069Y5503856D01*
X37406792Y5545702D01*
X37420637Y5602141D01*
X37435250Y5658375D01*
X37436548Y5666999D01*
X37436551Y5667011D01*
X37436551Y5667021D01*
X37436580Y5667211D01*
X37453895Y5787881D01*
X37455617Y5826309D01*
X37460226Y5864526D01*
X37460362Y5873461D01*
X37461563Y6017862D01*
X37459579Y6039985D01*
X37460396Y6062178D01*
X37459789Y6071094D01*
X37450912Y6189346D01*
X37450383Y6192378D01*
X37456634Y6215515D01*
X37469720Y6253113D01*
X37472886Y6275667D01*
X37478827Y6297658D01*
X37481549Y6337385D01*
X37487082Y6376807D01*
X37485807Y6399545D01*
X37487364Y6422272D01*
X37487039Y6431202D01*
X37485647Y6463338D01*
X37481476Y6572892D01*
X37476692Y6710256D01*
X37469645Y6921656D01*
X37463160Y6970851D01*
X37458664Y7020257D01*
X37455011Y7032668D01*
X37453321Y7045491D01*
X37437410Y7092473D01*
X37423398Y7140081D01*
X37417403Y7151549D01*
X37413255Y7163796D01*
X37388516Y7206803D01*
X37374955Y7232743D01*
X37383945Y7289259D01*
X37387055Y7341029D01*
X37391885Y7392656D01*
X37390796Y7403281D01*
X37391436Y7413940D01*
X37384437Y7465296D01*
X37379144Y7516910D01*
X37377307Y7525655D01*
X37364431Y7584932D01*
X37359551Y7600081D01*
X37356922Y7615794D01*
X37353923Y7623731D01*
X37352709Y7656726D01*
X37352680Y7656850D01*
X37352675Y7656975D01*
X37351411Y7665821D01*
X37340487Y7738656D01*
X37333159Y7767765D01*
X37328825Y7797475D01*
X37326617Y7806134D01*
X37291194Y7941157D01*
X37289523Y7945674D01*
X37288689Y7950424D01*
X37286231Y7959016D01*
X37254242Y8067988D01*
X37250674Y8076838D01*
X37248613Y8086162D01*
X37245783Y8094638D01*
X37207511Y8206658D01*
X37194799Y8234599D01*
X37184931Y8263663D01*
X37181189Y8271778D01*
X37154424Y8328775D01*
X37137663Y8356942D01*
X37123590Y8386555D01*
X37119107Y8392587D01*
X37131765Y8409881D01*
X37140573Y8428768D01*
X37151767Y8446354D01*
X37166914Y8485249D01*
X37184558Y8523082D01*
X37187467Y8531531D01*
X37205543Y8585236D01*
X37218180Y8639965D01*
X37231896Y8694442D01*
X37232220Y8700768D01*
X37233645Y8706939D01*
X37235410Y8763046D01*
X37238286Y8819184D01*
X37237807Y8828107D01*
X37232422Y8916965D01*
X37225701Y8959079D01*
X37221609Y9001524D01*
X37215879Y9020618D01*
X37212736Y9040310D01*
X37197966Y9080306D01*
X37185706Y9121159D01*
X37182256Y9129402D01*
X37130196Y9251423D01*
X37114351Y9280358D01*
X37101243Y9310637D01*
X37096855Y9318421D01*
X36975686Y9529918D01*
X36957878Y9554968D01*
X36942642Y9581671D01*
X36937426Y9588927D01*
X36815504Y9756073D01*
X36781914Y9793763D01*
X36749749Y9832704D01*
X36743369Y9838961D01*
X36631858Y9946806D01*
X36626565Y9951007D01*
X36610785Y10003940D01*
X36593959Y10061857D01*
X36592925Y10063851D01*
X36592285Y10065999D01*
X36564185Y10119296D01*
X36536477Y10172750D01*
X36535077Y10174503D01*
X36534031Y10176488D01*
X36496167Y10223246D01*
X36458551Y10270367D01*
X36455522Y10273438D01*
X36455424Y10273559D01*
X36455304Y10273659D01*
X36452276Y10276729D01*
X36236682Y10492323D01*
X36233135Y10495237D01*
X36230169Y10498744D01*
X36184882Y10534872D01*
X36140163Y10571605D01*
X36136119Y10573773D01*
X36132527Y10576639D01*
X36081065Y10603293D01*
X36030083Y10630629D01*
X36025696Y10631970D01*
X36021615Y10634084D01*
X35977612Y10646852D01*
X35973829Y10658504D01*
X35965354Y10673675D01*
X35959102Y10689885D01*
X35934954Y10728095D01*
X35912914Y10767550D01*
X35901657Y10780782D01*
X35892373Y10795473D01*
X35861264Y10828264D01*
X35831980Y10862687D01*
X35825510Y10868851D01*
X35729213Y10959317D01*
X35729185Y10959339D01*
X35728766Y10959737D01*
X35727066Y10961331D01*
X35717542Y10968654D01*
X35709290Y10977384D01*
X35702506Y10983201D01*
X35628199Y11046023D01*
X35584968Y11075860D01*
X35542692Y11107027D01*
X35534984Y11111549D01*
X35489861Y11137599D01*
X35451606Y11154950D01*
X35414535Y11174724D01*
X35394838Y11180699D01*
X35376109Y11189194D01*
X35335227Y11198782D01*
X35315725Y11204697D01*
X35308300Y11214269D01*
X35282502Y11251502D01*
X35270105Y11263509D01*
X35259518Y11277157D01*
X35225323Y11306881D01*
X35192780Y11338400D01*
X35185746Y11343912D01*
X35104582Y11406605D01*
X35074197Y11425653D01*
X35045501Y11447171D01*
X35037830Y11451755D01*
X34896487Y11534892D01*
X34893953Y11536066D01*
X34891678Y11537693D01*
X34883905Y11542102D01*
X34871788Y11548865D01*
X34868388Y11550348D01*
X34865318Y11552427D01*
X34857436Y11556636D01*
X34621938Y11680299D01*
X34596896Y11690470D01*
X34573124Y11703361D01*
X34564866Y11706776D01*
X34384492Y11779908D01*
X34380062Y11781218D01*
X34375948Y11783300D01*
X34320233Y11798905D01*
X34264711Y11815320D01*
X34260117Y11815744D01*
X34255671Y11816989D01*
X34246861Y11818486D01*
X34109212Y11840896D01*
X34104071Y11841224D01*
X34099065Y11842465D01*
X34042075Y11845180D01*
X34017422Y11865767D01*
X33992868Y11882495D01*
X33970168Y11901644D01*
X33941387Y11917566D01*
X33914194Y11936091D01*
X33886864Y11947728D01*
X33860872Y11962107D01*
X33852643Y11965592D01*
X33767646Y12000888D01*
X33721673Y12014901D01*
X33676386Y12030974D01*
X33667699Y12033066D01*
X33579849Y12053575D01*
X33532875Y12059793D01*
X33486277Y12068222D01*
X33471091Y12067971D01*
X33456023Y12069966D01*
X33422923Y12067849D01*
X33405994Y12074233D01*
X33389858Y12083024D01*
X33381607Y12086455D01*
X33339888Y12103464D01*
X33331310Y12106018D01*
X33323277Y12109968D01*
X33314889Y12113051D01*
X33300858Y12118098D01*
X33271365Y12125552D01*
X33242764Y12135929D01*
X33234091Y12138082D01*
X33135504Y12161826D01*
X33119564Y12164049D01*
X33104121Y12168556D01*
X33095328Y12170149D01*
X32950589Y12195326D01*
X32945029Y12195741D01*
X32939624Y12197136D01*
X32930785Y12198452D01*
X32761499Y12222463D01*
X32758314Y12222601D01*
X32755206Y12223324D01*
X32746338Y12224429D01*
X32574108Y12244674D01*
X32569964Y12244754D01*
X32565897Y12245586D01*
X32557003Y12246452D01*
X32403433Y12260332D01*
X32392895Y12260252D01*
X32382485Y12261879D01*
X32373560Y12262329D01*
X32260255Y12267244D01*
X32209810Y12264498D01*
X32159327Y12263646D01*
X32150457Y12262562D01*
X32099022Y12255912D01*
X32095597Y12255123D01*
X32092095Y12254977D01*
X32038819Y12242096D01*
X32023335Y12245053D01*
X31967870Y12256693D01*
X31958980Y12257604D01*
X31815108Y12271337D01*
X31815020Y12271346D01*
X31671064Y12285086D01*
X31613238Y12284936D01*
X31555478Y12285632D01*
X31550859Y12284775D01*
X31546158Y12284763D01*
X31489480Y12273388D01*
X31432668Y12262849D01*
X31428302Y12261111D01*
X31423694Y12260186D01*
X31370288Y12238013D01*
X31316622Y12216646D01*
X31312681Y12214095D01*
X31308335Y12212291D01*
X31260235Y12180154D01*
X31215651Y12151300D01*
X31181677Y12164161D01*
X31177365Y12164885D01*
X31173248Y12166380D01*
X31115771Y12175230D01*
X31058496Y12184850D01*
X31054123Y12184723D01*
X31049797Y12185389D01*
X30991765Y12182910D01*
X30933643Y12181221D01*
X30929372Y12180246D01*
X30925005Y12180059D01*
X30916166Y12178747D01*
X30832530Y12165731D01*
X30819060Y12162261D01*
X30805226Y12160873D01*
X30796476Y12159056D01*
X30789180Y12157488D01*
X30789171Y12157487D01*
X30789033Y12157456D01*
X30788696Y12157384D01*
X30788673Y12157377D01*
X30780446Y12155554D01*
X30689462Y12134740D01*
X30677404Y12130709D01*
X30664853Y12128596D01*
X30656244Y12126199D01*
X30615257Y12114480D01*
X30598497Y12107859D01*
X30580980Y12103629D01*
X30540523Y12084956D01*
X30499088Y12068587D01*
X30483934Y12058837D01*
X30467571Y12051285D01*
X30431511Y12025110D01*
X30394044Y12001005D01*
X30381074Y11988500D01*
X30372727Y11982441D01*
X30355685Y11981885D01*
X30312654Y11983106D01*
X30303743Y11982423D01*
X30286961Y11981022D01*
X30277807Y11979346D01*
X30273851Y11979217D01*
X30261699Y11976397D01*
X30235619Y11971622D01*
X30183988Y11963877D01*
X30175337Y11961634D01*
X30071723Y11934004D01*
X30044483Y11923802D01*
X30016330Y11916504D01*
X30007961Y11913370D01*
X29862456Y11857709D01*
X29847894Y11850438D01*
X29832437Y11845344D01*
X29824289Y11841675D01*
X29662836Y11767618D01*
X29655006Y11763053D01*
X29646528Y11759857D01*
X29638542Y11755848D01*
X29557798Y11714605D01*
X29546518Y11707375D01*
X29534266Y11701959D01*
X29526515Y11697511D01*
X29385089Y11615036D01*
X29342325Y11584138D01*
X29298633Y11554550D01*
X29291798Y11548793D01*
X29277609Y11536672D01*
X29281999Y11581247D01*
X29281999Y11581256D01*
X29287489Y11636998D01*
X29281999Y11692740D01*
X29281999Y12868465D01*
X30193070Y12868465D01*
X30283098Y12608919D01*
X30564616Y12472776D01*
X30867286Y12394171D01*
X31179474Y12376123D01*
X31489185Y12419328D01*
X31784516Y12522123D01*
X31946902Y12608919D01*
X32036930Y12868465D01*
X31115000Y13790395D01*
X30193070Y12868465D01*
X29281999Y12868465D01*
X29281999Y13905526D01*
X29521123Y13905526D01*
X29564328Y13595815D01*
X29667123Y13300484D01*
X29753919Y13138098D01*
X30013465Y13048070D01*
X30935395Y13970000D01*
X31294605Y13970000D01*
X32216535Y13048070D01*
X32476081Y13138098D01*
X32612224Y13419616D01*
X32690829Y13722286D01*
X32708877Y14034474D01*
X32696060Y14126355D01*
X34607500Y14126355D01*
X34607500Y13813645D01*
X34668507Y13506943D01*
X34788176Y13218037D01*
X34961908Y12958028D01*
X35183028Y12736908D01*
X35443037Y12563176D01*
X35731943Y12443507D01*
X36038645Y12382500D01*
X36351355Y12382500D01*
X36658057Y12443507D01*
X36946963Y12563176D01*
X37206972Y12736908D01*
X37428092Y12958028D01*
X37601824Y13218037D01*
X37721493Y13506943D01*
X37782500Y13813645D01*
X37782500Y14126355D01*
X37721493Y14433057D01*
X37601824Y14721963D01*
X37428092Y14981972D01*
X37206972Y15203092D01*
X36946963Y15376824D01*
X36658057Y15496493D01*
X36351355Y15557500D01*
X36038645Y15557500D01*
X35731943Y15496493D01*
X35443037Y15376824D01*
X35183028Y15203092D01*
X34961908Y14981972D01*
X34788176Y14721963D01*
X34668507Y14433057D01*
X34607500Y14126355D01*
X32696060Y14126355D01*
X32665672Y14344185D01*
X32562877Y14639516D01*
X32476081Y14801902D01*
X32216535Y14891930D01*
X31294605Y13970000D01*
X30935395Y13970000D01*
X30013465Y14891930D01*
X29753919Y14801902D01*
X29617776Y14520384D01*
X29539171Y14217714D01*
X29521123Y13905526D01*
X29281999Y13905526D01*
X29281999Y15071535D01*
X30193070Y15071535D01*
X31115000Y14149605D01*
X32036930Y15071535D01*
X31946902Y15331081D01*
X31665384Y15467224D01*
X31362714Y15545829D01*
X31050526Y15563877D01*
X30740815Y15520672D01*
X30445484Y15417877D01*
X30283098Y15331081D01*
X30193070Y15071535D01*
X29281999Y15071535D01*
X29281999Y16882260D01*
X29287489Y16938002D01*
X29281999Y16993744D01*
X29281999Y16993753D01*
X29265576Y17160500D01*
X29200675Y17374448D01*
X29095283Y17571624D01*
X28966587Y17728440D01*
X29087344Y17679707D01*
X29362400Y17627600D01*
X29718000Y17627600D01*
X29718000Y18923000D01*
X29972000Y18923000D01*
X29972000Y17627600D01*
X30327600Y17627600D01*
X30602656Y17679707D01*
X30862262Y17784474D01*
X31096440Y17937875D01*
X31296192Y18134014D01*
X31453841Y18365354D01*
X31563328Y18623004D01*
X31580010Y18702940D01*
X31457852Y18923000D01*
X29972000Y18923000D01*
X29718000Y18923000D01*
X28232148Y18923000D01*
X28109990Y18702940D01*
X28126672Y18623004D01*
X28170673Y18519459D01*
X27051000Y19639131D01*
X27051000Y19847609D01*
X26987553Y20166579D01*
X26863097Y20467042D01*
X26682415Y20737451D01*
X26535000Y20884866D01*
X26535000Y22262869D01*
X27267132Y22995000D01*
X28630259Y22995000D01*
X28695333Y22941595D01*
X28847987Y22860000D01*
X28695333Y22778405D01*
X28478745Y22600655D01*
X28300995Y22384067D01*
X28168916Y22136963D01*
X28087581Y21868839D01*
X28060118Y21590000D01*
X28087581Y21311161D01*
X28168916Y21043037D01*
X28300995Y20795933D01*
X28478745Y20579345D01*
X28695333Y20401595D01*
X28844045Y20322107D01*
X28827738Y20315526D01*
X28593560Y20162125D01*
X28393808Y19965986D01*
X28236159Y19734646D01*
X28126672Y19476996D01*
X28109990Y19397060D01*
X28232148Y19177000D01*
X29718000Y19177000D01*
X29718000Y19197000D01*
X29972000Y19197000D01*
X29972000Y19177000D01*
X31457852Y19177000D01*
X31580010Y19397060D01*
X31563328Y19476996D01*
X31453841Y19734646D01*
X31296192Y19965986D01*
X31096440Y20162125D01*
X30862262Y20315526D01*
X30845955Y20322107D01*
X30994667Y20401595D01*
X31211255Y20579345D01*
X31389005Y20795933D01*
X31521084Y21043037D01*
X31602419Y21311161D01*
X31629882Y21590000D01*
X31602419Y21868839D01*
X31521084Y22136963D01*
X31389005Y22384067D01*
X31211255Y22600655D01*
X30994667Y22778405D01*
X30842013Y22860000D01*
X30994667Y22941595D01*
X31211255Y23119345D01*
X31389005Y23335933D01*
X31521084Y23583037D01*
X31602419Y23851161D01*
X31629882Y24130000D01*
X31602419Y24408839D01*
X31521084Y24676963D01*
X31389005Y24924067D01*
X31211255Y25140655D01*
X31074326Y25253030D01*
X31112482Y25256788D01*
X31232180Y25293098D01*
X31342494Y25352063D01*
X31439185Y25431415D01*
X31518537Y25528106D01*
X31577502Y25638420D01*
X31613812Y25758118D01*
X31626072Y25882600D01*
X31626072Y27457400D01*
X31613812Y27581882D01*
X31577502Y27701580D01*
X31518537Y27811894D01*
X31439185Y27908585D01*
X31342494Y27987937D01*
X31232180Y28046902D01*
X31112482Y28083212D01*
X30988000Y28095472D01*
X30980000Y28095472D01*
X30980000Y30424259D01*
X30985490Y30480001D01*
X30980000Y30535743D01*
X30980000Y30535752D01*
X30963577Y30702499D01*
X30898676Y30916447D01*
X30793284Y31113623D01*
X30651449Y31286449D01*
X30608140Y31321991D01*
X29902905Y32027226D01*
X30301831Y32027226D01*
X30373426Y31783246D01*
X30628954Y31662336D01*
X30903161Y31593600D01*
X31185508Y31579680D01*
X31465147Y31621111D01*
X31731328Y31716300D01*
X31856574Y31783246D01*
X31928169Y32027226D01*
X31115000Y32840395D01*
X30301831Y32027226D01*
X29902905Y32027226D01*
X29456000Y32474131D01*
X29456000Y32949492D01*
X29674680Y32949492D01*
X29716111Y32669853D01*
X29811300Y32403672D01*
X29878246Y32278426D01*
X30122226Y32206831D01*
X30935395Y33020000D01*
X30122226Y33833169D01*
X29878246Y33761574D01*
X29757336Y33506046D01*
X29688600Y33231839D01*
X29674680Y32949492D01*
X29456000Y32949492D01*
X29456000Y33427381D01*
X30364265Y34335645D01*
X30433932Y34289095D01*
X30373426Y34256754D01*
X30301831Y34012774D01*
X31115000Y33199605D01*
X31928169Y34012774D01*
X31856574Y34256754D01*
X31792256Y34287188D01*
X31794775Y34288231D01*
X32029823Y34445285D01*
X32229715Y34645177D01*
X32385000Y34877578D01*
X32540285Y34645177D01*
X32740177Y34445285D01*
X32972578Y34290000D01*
X32740177Y34134715D01*
X32540285Y33934823D01*
X32384095Y33701068D01*
X32351754Y33761574D01*
X32107774Y33833169D01*
X31294605Y33020000D01*
X32107774Y32206831D01*
X32351754Y32278426D01*
X32382188Y32342744D01*
X32383231Y32340225D01*
X32520000Y32135536D01*
X32520000Y31832737D01*
X32520001Y31832727D01*
X32520000Y22560152D01*
X32514509Y22504400D01*
X32520000Y22448649D01*
X32536423Y22281902D01*
X32601324Y22067954D01*
X32706716Y21870777D01*
X32848551Y21697951D01*
X32891865Y21662404D01*
X35699330Y18854938D01*
X35707581Y18771161D01*
X35788916Y18503037D01*
X35920995Y18255933D01*
X36098745Y18039345D01*
X36315333Y17861595D01*
X36562437Y17729516D01*
X36830561Y17648181D01*
X37039525Y17627600D01*
X37890475Y17627600D01*
X38099439Y17648181D01*
X38367563Y17729516D01*
X38614667Y17861595D01*
X38831255Y18039345D01*
X39009005Y18255933D01*
X39141084Y18503037D01*
X39222419Y18771161D01*
X39249882Y19050000D01*
X39233867Y19212609D01*
X39624000Y19212609D01*
X39624000Y18887391D01*
X39687447Y18568421D01*
X39811903Y18267958D01*
X39992585Y17997549D01*
X40222549Y17767585D01*
X40492958Y17586903D01*
X40793421Y17462447D01*
X41112391Y17399000D01*
X41437609Y17399000D01*
X41756579Y17462447D01*
X42057042Y17586903D01*
X42327451Y17767585D01*
X42557415Y17997549D01*
X42738097Y18267958D01*
X42862553Y18568421D01*
X42926000Y18887391D01*
X42926000Y19212609D01*
X42862553Y19531579D01*
X42738097Y19832042D01*
X42723783Y19853465D01*
X45433070Y19853465D01*
X45523098Y19593919D01*
X45804616Y19457776D01*
X46107286Y19379171D01*
X46419474Y19361123D01*
X46729185Y19404328D01*
X47024516Y19507123D01*
X47186902Y19593919D01*
X47276930Y19853465D01*
X46355000Y20775395D01*
X45433070Y19853465D01*
X42723783Y19853465D01*
X42557415Y20102451D01*
X42327451Y20332415D01*
X42057042Y20513097D01*
X41756579Y20637553D01*
X41437609Y20701000D01*
X41112391Y20701000D01*
X40793421Y20637553D01*
X40492958Y20513097D01*
X40222549Y20332415D01*
X39992585Y20102451D01*
X39811903Y19832042D01*
X39687447Y19531579D01*
X39624000Y19212609D01*
X39233867Y19212609D01*
X39222419Y19328839D01*
X39141084Y19596963D01*
X39009005Y19844067D01*
X38831255Y20060655D01*
X38614667Y20238405D01*
X38462013Y20320000D01*
X38614667Y20401595D01*
X38831255Y20579345D01*
X39009005Y20795933D01*
X39059565Y20890526D01*
X44761123Y20890526D01*
X44804328Y20580815D01*
X44907123Y20285484D01*
X44993919Y20123098D01*
X45253465Y20033070D01*
X46175395Y20955000D01*
X45253465Y21876930D01*
X44993919Y21786902D01*
X44857776Y21505384D01*
X44779171Y21202714D01*
X44761123Y20890526D01*
X39059565Y20890526D01*
X39141084Y21043037D01*
X39222419Y21311161D01*
X39249882Y21590000D01*
X39222419Y21868839D01*
X39141084Y22136963D01*
X39009005Y22384067D01*
X38831255Y22600655D01*
X38614667Y22778405D01*
X38462013Y22860000D01*
X38614667Y22941595D01*
X38679741Y22995000D01*
X41219249Y22995000D01*
X41275000Y22989509D01*
X41330751Y22995000D01*
X41330752Y22995000D01*
X41497499Y23011423D01*
X41711447Y23076324D01*
X41908623Y23181716D01*
X42081449Y23323551D01*
X42116996Y23366865D01*
X44620131Y25870000D01*
X53376928Y25870000D01*
X53380000Y24655750D01*
X53538750Y24497000D01*
X55388000Y24497000D01*
X55388000Y26346250D01*
X55642000Y26346250D01*
X55642000Y24497000D01*
X57491250Y24497000D01*
X57650000Y24655750D01*
X57653072Y25870000D01*
X57640812Y25994482D01*
X57604502Y26114180D01*
X57545537Y26224494D01*
X57466185Y26321185D01*
X57369494Y26400537D01*
X57259180Y26459502D01*
X57139482Y26495812D01*
X57015000Y26508072D01*
X55800750Y26505000D01*
X55642000Y26346250D01*
X55388000Y26346250D01*
X55229250Y26505000D01*
X54015000Y26508072D01*
X53890518Y26495812D01*
X53770820Y26459502D01*
X53660506Y26400537D01*
X53563815Y26321185D01*
X53484463Y26224494D01*
X53425498Y26114180D01*
X53389188Y25994482D01*
X53376928Y25870000D01*
X44620131Y25870000D01*
X47244000Y28493868D01*
X47244000Y28412391D01*
X47307447Y28093421D01*
X47431903Y27792958D01*
X47612585Y27522549D01*
X47842549Y27292585D01*
X48112958Y27111903D01*
X48413421Y26987447D01*
X48732391Y26924000D01*
X49057609Y26924000D01*
X49376579Y26987447D01*
X49677042Y27111903D01*
X49947451Y27292585D01*
X50177415Y27522549D01*
X50358097Y27792958D01*
X50482553Y28093421D01*
X50546000Y28412391D01*
X50546000Y28737609D01*
X50482553Y29056579D01*
X50358097Y29357042D01*
X50177415Y29627451D01*
X49947451Y29857415D01*
X49677042Y30038097D01*
X49376579Y30162553D01*
X49057609Y30226000D01*
X48976132Y30226000D01*
X49484132Y30734000D01*
X49692609Y30734000D01*
X50011579Y30797447D01*
X50312042Y30921903D01*
X50582451Y31102585D01*
X50812415Y31332549D01*
X50993097Y31602958D01*
X51117553Y31903421D01*
X51181000Y32222391D01*
X51181000Y32547609D01*
X55499000Y32547609D01*
X55499000Y32222391D01*
X55562447Y31903421D01*
X55686903Y31602958D01*
X55867585Y31332549D01*
X56097549Y31102585D01*
X56367958Y30921903D01*
X56668421Y30797447D01*
X56987391Y30734000D01*
X57312609Y30734000D01*
X57631579Y30797447D01*
X57932042Y30921903D01*
X58202451Y31102585D01*
X58432415Y31332549D01*
X58613097Y31602958D01*
X58737553Y31903421D01*
X58801000Y32222391D01*
X58801000Y32547609D01*
X58737553Y32866579D01*
X58613097Y33167042D01*
X58432415Y33437451D01*
X58202451Y33667415D01*
X57932042Y33848097D01*
X57631579Y33972553D01*
X57312609Y34036000D01*
X56987391Y34036000D01*
X56668421Y33972553D01*
X56367958Y33848097D01*
X56097549Y33667415D01*
X55867585Y33437451D01*
X55686903Y33167042D01*
X55562447Y32866579D01*
X55499000Y32547609D01*
X51181000Y32547609D01*
X51117553Y32866579D01*
X50993097Y33167042D01*
X50812415Y33437451D01*
X50582451Y33667415D01*
X50312042Y33848097D01*
X50011579Y33972553D01*
X49692609Y34036000D01*
X49367391Y34036000D01*
X49048421Y33972553D01*
X48747958Y33848097D01*
X48477549Y33667415D01*
X48247585Y33437451D01*
X48066903Y33167042D01*
X47942447Y32866579D01*
X47879000Y32547609D01*
X47879000Y32339132D01*
X40804869Y25265000D01*
X38679741Y25265000D01*
X38614667Y25318405D01*
X38462013Y25400000D01*
X38614667Y25481595D01*
X38831255Y25659345D01*
X39009005Y25875933D01*
X39141084Y26123037D01*
X39222419Y26391161D01*
X39249882Y26670000D01*
X39222419Y26948839D01*
X39141084Y27216963D01*
X39009005Y27464067D01*
X38831255Y27680655D01*
X38614667Y27858405D01*
X38600000Y27866245D01*
X38600000Y27987269D01*
X39625140Y29012408D01*
X39668449Y29047951D01*
X39699591Y29085898D01*
X39687447Y29056579D01*
X39624000Y28737609D01*
X39624000Y28412391D01*
X39687447Y28093421D01*
X39811903Y27792958D01*
X39992585Y27522549D01*
X40222549Y27292585D01*
X40492958Y27111903D01*
X40793421Y26987447D01*
X41112391Y26924000D01*
X41437609Y26924000D01*
X41756579Y26987447D01*
X42057042Y27111903D01*
X42327451Y27292585D01*
X42557415Y27522549D01*
X42738097Y27792958D01*
X42862553Y28093421D01*
X42926000Y28412391D01*
X42926000Y28737609D01*
X42862553Y29056579D01*
X42738097Y29357042D01*
X42557415Y29627451D01*
X42327451Y29857415D01*
X42057042Y30038097D01*
X41756579Y30162553D01*
X41437609Y30226000D01*
X41112391Y30226000D01*
X40793421Y30162553D01*
X40492958Y30038097D01*
X40222549Y29857415D01*
X39992585Y29627451D01*
X39968120Y29590837D01*
X39980577Y29631901D01*
X39997000Y29798648D01*
X39997000Y29798657D01*
X40002490Y29854399D01*
X39997000Y29910141D01*
X39997000Y35697459D01*
X40002490Y35753203D01*
X39997000Y35808947D01*
X39997000Y35808954D01*
X39980577Y35975701D01*
X39915676Y36189649D01*
X39846977Y36318177D01*
X48562782Y36318177D01*
X48660478Y36052140D01*
X48952821Y35909652D01*
X49267344Y35826936D01*
X49591962Y35807169D01*
X49914198Y35851112D01*
X50221670Y35957076D01*
X50399522Y36052140D01*
X50497218Y36318177D01*
X56182782Y36318177D01*
X56280478Y36052140D01*
X56572821Y35909652D01*
X56887344Y35826936D01*
X57211962Y35807169D01*
X57534198Y35851112D01*
X57841670Y35957076D01*
X58019522Y36052140D01*
X58117218Y36318177D01*
X57150000Y37285395D01*
X56182782Y36318177D01*
X50497218Y36318177D01*
X49530000Y37285395D01*
X48562782Y36318177D01*
X39846977Y36318177D01*
X39810284Y36386825D01*
X39668449Y36559651D01*
X39625141Y36595193D01*
X38817296Y37403038D01*
X47872169Y37403038D01*
X47916112Y37080802D01*
X48022076Y36773330D01*
X48117140Y36595478D01*
X48383177Y36497782D01*
X49350395Y37465000D01*
X49709605Y37465000D01*
X50676823Y36497782D01*
X50942860Y36595478D01*
X51085348Y36887821D01*
X51168064Y37202344D01*
X51180284Y37403038D01*
X55492169Y37403038D01*
X55536112Y37080802D01*
X55642076Y36773330D01*
X55737140Y36595478D01*
X56003177Y36497782D01*
X56970395Y37465000D01*
X57329605Y37465000D01*
X58296823Y36497782D01*
X58562860Y36595478D01*
X58705348Y36887821D01*
X58788064Y37202344D01*
X58807831Y37526962D01*
X58763888Y37849198D01*
X58657924Y38156670D01*
X58562860Y38334522D01*
X58296823Y38432218D01*
X57329605Y37465000D01*
X56970395Y37465000D01*
X56003177Y38432218D01*
X55737140Y38334522D01*
X55594652Y38042179D01*
X55511936Y37727656D01*
X55492169Y37403038D01*
X51180284Y37403038D01*
X51187831Y37526962D01*
X51143888Y37849198D01*
X51037924Y38156670D01*
X50942860Y38334522D01*
X50676823Y38432218D01*
X49709605Y37465000D01*
X49350395Y37465000D01*
X48383177Y38432218D01*
X48117140Y38334522D01*
X47974652Y38042179D01*
X47891936Y37727656D01*
X47872169Y37403038D01*
X38817296Y37403038D01*
X37738198Y38482135D01*
X37702651Y38525449D01*
X37597405Y38611823D01*
X48562782Y38611823D01*
X49530000Y37644605D01*
X50497218Y38611823D01*
X56182782Y38611823D01*
X57150000Y37644605D01*
X58117218Y38611823D01*
X58019522Y38877860D01*
X57727179Y39020348D01*
X57412656Y39103064D01*
X57088038Y39122831D01*
X56765802Y39078888D01*
X56458330Y38972924D01*
X56280478Y38877860D01*
X56182782Y38611823D01*
X50497218Y38611823D01*
X50399522Y38877860D01*
X50107179Y39020348D01*
X49792656Y39103064D01*
X49468038Y39122831D01*
X49145802Y39078888D01*
X48838330Y38972924D01*
X48660478Y38877860D01*
X48562782Y38611823D01*
X37597405Y38611823D01*
X37529825Y38667284D01*
X37332649Y38772676D01*
X37118701Y38837577D01*
X36951954Y38854000D01*
X36951953Y38854000D01*
X36896202Y38859491D01*
X36840451Y38854000D01*
X20524752Y38854000D01*
X20469000Y38859491D01*
X20413248Y38854000D01*
X20246501Y38837577D01*
X20032553Y38772676D01*
X19835377Y38667284D01*
X19662551Y38525449D01*
X19627009Y38482141D01*
X14138072Y32993203D01*
X14138072Y33150000D01*
X14125812Y33274482D01*
X14089502Y33394180D01*
X14030537Y33504494D01*
X13951185Y33601185D01*
X13854494Y33680537D01*
X13744180Y33739502D01*
X13624482Y33775812D01*
X13500000Y33788072D01*
X11900000Y33788072D01*
X11775518Y33775812D01*
X11655820Y33739502D01*
X11545506Y33680537D01*
X11448815Y33601185D01*
X11369463Y33504494D01*
X11310498Y33394180D01*
X11274188Y33274482D01*
X11261928Y33150000D01*
X11261928Y30350000D01*
X11274188Y30225518D01*
X11310498Y30105820D01*
X11369463Y29995506D01*
X11448815Y29898815D01*
X11545506Y29819463D01*
X11655820Y29760498D01*
X11775518Y29724188D01*
X11900000Y29711928D01*
X13500000Y29711928D01*
X13624482Y29724188D01*
X13744180Y29760498D01*
X13854494Y29819463D01*
X13951185Y29898815D01*
X14030537Y29995506D01*
X14089502Y30105820D01*
X14125812Y30225518D01*
X14138072Y30350000D01*
X14138072Y30615000D01*
X14444249Y30615000D01*
X14500000Y30609509D01*
X14555751Y30615000D01*
X14555752Y30615000D01*
X14722499Y30631423D01*
X14936447Y30696324D01*
X15133623Y30801716D01*
X15306449Y30943551D01*
X15341996Y30986865D01*
X15978131Y31623000D01*
X23965000Y31623000D01*
X23965000Y31023000D01*
X24017350Y30745486D01*
X24122834Y30483517D01*
X24277399Y30247161D01*
X24475105Y30045500D01*
X24708354Y29886285D01*
X24968182Y29775633D01*
X25050961Y29758096D01*
X25273000Y29880085D01*
X25273000Y31623000D01*
X25527000Y31623000D01*
X25527000Y29880085D01*
X25749039Y29758096D01*
X25831818Y29775633D01*
X26091646Y29886285D01*
X26324895Y30045500D01*
X26522601Y30247161D01*
X26677166Y30483517D01*
X26782650Y30745486D01*
X26835000Y31023000D01*
X26835000Y31623000D01*
X25527000Y31623000D01*
X25273000Y31623000D01*
X23965000Y31623000D01*
X15978131Y31623000D01*
X16832131Y32477000D01*
X23965000Y32477000D01*
X23965000Y31877000D01*
X25273000Y31877000D01*
X25273000Y33619915D01*
X25527000Y33619915D01*
X25527000Y31877000D01*
X26835000Y31877000D01*
X26835000Y32477000D01*
X26782650Y32754514D01*
X26677166Y33016483D01*
X26522601Y33252839D01*
X26324895Y33454500D01*
X26091646Y33613715D01*
X25831818Y33724367D01*
X25749039Y33741904D01*
X25527000Y33619915D01*
X25273000Y33619915D01*
X25050961Y33741904D01*
X24968182Y33724367D01*
X24708354Y33613715D01*
X24475105Y33454500D01*
X24277399Y33252839D01*
X24122834Y33016483D01*
X24017350Y32754514D01*
X23965000Y32477000D01*
X16832131Y32477000D01*
X20939132Y36584000D01*
X29491521Y36584000D01*
X29349865Y36508284D01*
X29177039Y36366449D01*
X29141497Y36323140D01*
X27557865Y34739508D01*
X27514551Y34703961D01*
X27372716Y34531135D01*
X27290685Y34377664D01*
X27267324Y34333958D01*
X27202423Y34120010D01*
X27180509Y33897512D01*
X27186000Y33841760D01*
X27186001Y32059761D01*
X27180509Y32004000D01*
X27202423Y31781502D01*
X27267324Y31567554D01*
X27288733Y31527501D01*
X27372717Y31370377D01*
X27514552Y31197551D01*
X27557860Y31162009D01*
X28710000Y30009868D01*
X28710001Y28095472D01*
X28702000Y28095472D01*
X28577518Y28083212D01*
X28457820Y28046902D01*
X28347506Y27987937D01*
X28250815Y27908585D01*
X28171463Y27811894D01*
X28112498Y27701580D01*
X28076188Y27581882D01*
X28063928Y27457400D01*
X28063928Y25882600D01*
X28076188Y25758118D01*
X28112498Y25638420D01*
X28171463Y25528106D01*
X28250815Y25431415D01*
X28347506Y25352063D01*
X28457820Y25293098D01*
X28550447Y25265000D01*
X26852741Y25265000D01*
X26796999Y25270490D01*
X26741257Y25265000D01*
X26741248Y25265000D01*
X26574501Y25248577D01*
X26360553Y25183676D01*
X26163377Y25078284D01*
X25990551Y24936449D01*
X25955011Y24893143D01*
X24636860Y23574991D01*
X24593552Y23539449D01*
X24451717Y23366623D01*
X24428695Y23323551D01*
X24346324Y23169446D01*
X24281423Y22955498D01*
X24259509Y22733000D01*
X24265001Y22677239D01*
X24265000Y20884866D01*
X24117585Y20737451D01*
X23936903Y20467042D01*
X23812500Y20166707D01*
X23688097Y20467042D01*
X23507415Y20737451D01*
X23277451Y20967415D01*
X23007042Y21148097D01*
X22706579Y21272553D01*
X22387609Y21336000D01*
X22062391Y21336000D01*
X21743421Y21272553D01*
X21442958Y21148097D01*
X21172549Y20967415D01*
X20942585Y20737451D01*
X20761903Y20467042D01*
X20637500Y20166707D01*
X20513097Y20467042D01*
X20332415Y20737451D01*
X20102451Y20967415D01*
X19832042Y21148097D01*
X19531579Y21272553D01*
X19212609Y21336000D01*
X18887391Y21336000D01*
X18568421Y21272553D01*
X18267958Y21148097D01*
X17997549Y20967415D01*
X17767585Y20737451D01*
X17586903Y20467042D01*
X17462500Y20166707D01*
X17338097Y20467042D01*
X17157415Y20737451D01*
X16927451Y20967415D01*
X16657042Y21148097D01*
X16356579Y21272553D01*
X16037609Y21336000D01*
X15712391Y21336000D01*
X15393421Y21272553D01*
X15092958Y21148097D01*
X14822549Y20967415D01*
X14592585Y20737451D01*
X14411903Y20467042D01*
X14287447Y20166579D01*
X14224000Y19847609D01*
X14224000Y19522391D01*
X14287447Y19203421D01*
X14411903Y18902958D01*
X14592585Y18632549D01*
X14740000Y18485134D01*
X14740000Y18303911D01*
X14734509Y18248160D01*
X14740000Y18192409D01*
X14740000Y18192408D01*
X14756423Y18025661D01*
X14821324Y17811713D01*
X14926717Y17614537D01*
X15068552Y17441711D01*
X15111860Y17406169D01*
X16517168Y16000860D01*
X16552711Y15957551D01*
X16725537Y15815716D01*
X16922713Y15710324D01*
X17086865Y15660529D01*
X17136660Y15645423D01*
X17157653Y15643356D01*
X17303408Y15629000D01*
X17303415Y15629000D01*
X17359159Y15623510D01*
X17414903Y15629000D01*
X22135869Y15629000D01*
X24265000Y13499867D01*
X24265000Y13264866D01*
X24117585Y13117451D01*
X23936903Y12847042D01*
X23812447Y12546579D01*
X23809842Y12533481D01*
X23732924Y12756670D01*
X23637860Y12934522D01*
X23371823Y13032218D01*
X22404605Y12065000D01*
X23371823Y11097782D01*
X23637860Y11195478D01*
X23780348Y11487821D01*
X23809451Y11598483D01*
X23812447Y11583421D01*
X23936903Y11282958D01*
X24117585Y11012549D01*
X24347549Y10782585D01*
X24617958Y10601903D01*
X24918421Y10477447D01*
X25237391Y10414000D01*
X25318869Y10414000D01*
X24636860Y9731991D01*
X24593552Y9696449D01*
X24451717Y9523623D01*
X24397651Y9422471D01*
X24346324Y9326446D01*
X24281423Y9112498D01*
X24259509Y8890000D01*
X24265001Y8834239D01*
X24265000Y1397000D01*
X6298727Y1397000D01*
X6023034Y1410835D01*
X5733689Y1454758D01*
X5455178Y1526052D01*
X5188499Y1623310D01*
X4934870Y1745158D01*
X4695645Y1890219D01*
X4472245Y2057102D01*
X4266192Y2244336D01*
X4078985Y2450442D01*
X3912139Y2673882D01*
X3767099Y2913166D01*
X3645274Y3166842D01*
X3548038Y3433563D01*
X3476753Y3712135D01*
X3432841Y4001510D01*
X3416960Y4318110D01*
X3416960Y5242609D01*
X5334000Y5242609D01*
X5334000Y4917391D01*
X5397447Y4598421D01*
X5521903Y4297958D01*
X5702585Y4027549D01*
X5932549Y3797585D01*
X6202958Y3616903D01*
X6503421Y3492447D01*
X6822391Y3429000D01*
X7147609Y3429000D01*
X7466579Y3492447D01*
X7767042Y3616903D01*
X8037451Y3797585D01*
X8255000Y4015134D01*
X8472549Y3797585D01*
X8742958Y3616903D01*
X9043421Y3492447D01*
X9362391Y3429000D01*
X9687609Y3429000D01*
X10006579Y3492447D01*
X10307042Y3616903D01*
X10577451Y3797585D01*
X10807415Y4027549D01*
X10988097Y4297958D01*
X11112553Y4598421D01*
X11176000Y4917391D01*
X11176000Y5242609D01*
X11112553Y5561579D01*
X10988097Y5862042D01*
X10807415Y6132451D01*
X10577451Y6362415D01*
X10307042Y6543097D01*
X10006579Y6667553D01*
X9687609Y6731000D01*
X9362391Y6731000D01*
X9043421Y6667553D01*
X8742958Y6543097D01*
X8472549Y6362415D01*
X8255000Y6144866D01*
X8037451Y6362415D01*
X7767042Y6543097D01*
X7466579Y6667553D01*
X7147609Y6731000D01*
X6822391Y6731000D01*
X6503421Y6667553D01*
X6202958Y6543097D01*
X5932549Y6362415D01*
X5702585Y6132451D01*
X5521903Y5862042D01*
X5397447Y5561579D01*
X5334000Y5242609D01*
X3416960Y5242609D01*
X3416960Y12227609D01*
X14224000Y12227609D01*
X14224000Y11902391D01*
X14287447Y11583421D01*
X14411903Y11282958D01*
X14592585Y11012549D01*
X14822549Y10782585D01*
X15092958Y10601903D01*
X15393421Y10477447D01*
X15712391Y10414000D01*
X16037609Y10414000D01*
X16356579Y10477447D01*
X16657042Y10601903D01*
X16927451Y10782585D01*
X17157415Y11012549D01*
X17338097Y11282958D01*
X17462500Y11583293D01*
X17586903Y11282958D01*
X17767585Y11012549D01*
X17997549Y10782585D01*
X18267958Y10601903D01*
X18568421Y10477447D01*
X18887391Y10414000D01*
X19212609Y10414000D01*
X19531579Y10477447D01*
X19832042Y10601903D01*
X20102451Y10782585D01*
X20238043Y10918177D01*
X21257782Y10918177D01*
X21355478Y10652140D01*
X21647821Y10509652D01*
X21962344Y10426936D01*
X22286962Y10407169D01*
X22609198Y10451112D01*
X22916670Y10557076D01*
X23094522Y10652140D01*
X23192218Y10918177D01*
X22225000Y11885395D01*
X21257782Y10918177D01*
X20238043Y10918177D01*
X20332415Y11012549D01*
X20513097Y11282958D01*
X20637553Y11583421D01*
X20640158Y11596519D01*
X20717076Y11373330D01*
X20812140Y11195478D01*
X21078177Y11097782D01*
X22045395Y12065000D01*
X21078177Y13032218D01*
X20812140Y12934522D01*
X20669652Y12642179D01*
X20640549Y12531517D01*
X20637553Y12546579D01*
X20513097Y12847042D01*
X20332415Y13117451D01*
X20238043Y13211823D01*
X21257782Y13211823D01*
X22225000Y12244605D01*
X23192218Y13211823D01*
X23094522Y13477860D01*
X22802179Y13620348D01*
X22487656Y13703064D01*
X22163038Y13722831D01*
X21840802Y13678888D01*
X21533330Y13572924D01*
X21355478Y13477860D01*
X21257782Y13211823D01*
X20238043Y13211823D01*
X20102451Y13347415D01*
X19832042Y13528097D01*
X19531579Y13652553D01*
X19212609Y13716000D01*
X18887391Y13716000D01*
X18568421Y13652553D01*
X18267958Y13528097D01*
X17997549Y13347415D01*
X17767585Y13117451D01*
X17586903Y12847042D01*
X17462500Y12546707D01*
X17338097Y12847042D01*
X17157415Y13117451D01*
X16927451Y13347415D01*
X16657042Y13528097D01*
X16356579Y13652553D01*
X16037609Y13716000D01*
X15712391Y13716000D01*
X15393421Y13652553D01*
X15092958Y13528097D01*
X14822549Y13347415D01*
X14592585Y13117451D01*
X14411903Y12847042D01*
X14287447Y12546579D01*
X14224000Y12227609D01*
X3416960Y12227609D01*
X3416960Y25870000D01*
X7376928Y25870000D01*
X7376928Y22870000D01*
X7389188Y22745518D01*
X7425498Y22625820D01*
X7484463Y22515506D01*
X7563815Y22418815D01*
X7660506Y22339463D01*
X7770820Y22280498D01*
X7890518Y22244188D01*
X8015000Y22231928D01*
X11015000Y22231928D01*
X11139482Y22244188D01*
X11259180Y22280498D01*
X11369494Y22339463D01*
X11466185Y22418815D01*
X11545537Y22515506D01*
X11604502Y22625820D01*
X11640812Y22745518D01*
X11653072Y22870000D01*
X11653072Y25870000D01*
X11640812Y25994482D01*
X11604502Y26114180D01*
X11545537Y26224494D01*
X11466185Y26321185D01*
X11369494Y26400537D01*
X11259180Y26459502D01*
X11139482Y26495812D01*
X11015000Y26508072D01*
X10787148Y26508072D01*
X11004710Y26725634D01*
X11213189Y27037644D01*
X11356791Y27384332D01*
X11430000Y27752374D01*
X11430000Y28127626D01*
X11356791Y28495668D01*
X11213189Y28842356D01*
X11004710Y29154366D01*
X10739366Y29419710D01*
X10427356Y29628189D01*
X10080668Y29771791D01*
X9712626Y29845000D01*
X9337374Y29845000D01*
X8969332Y29771791D01*
X8622644Y29628189D01*
X8310634Y29419710D01*
X8045290Y29154366D01*
X7836811Y28842356D01*
X7693209Y28495668D01*
X7620000Y28127626D01*
X7620000Y27752374D01*
X7693209Y27384332D01*
X7836811Y27037644D01*
X8045290Y26725634D01*
X8262852Y26508072D01*
X8015000Y26508072D01*
X7890518Y26495812D01*
X7770820Y26459502D01*
X7660506Y26400537D01*
X7563815Y26321185D01*
X7484463Y26224494D01*
X7425498Y26114180D01*
X7389188Y25994482D01*
X7376928Y25870000D01*
X3416960Y25870000D01*
X3416960Y36602220D01*
X3432841Y36918820D01*
X3476753Y37208193D01*
X3548038Y37486766D01*
X3562204Y37525626D01*
X7620000Y37525626D01*
X7620000Y37150374D01*
X7693209Y36782332D01*
X7836811Y36435644D01*
X8045290Y36123634D01*
X8310634Y35858290D01*
X8622644Y35649811D01*
X8969332Y35506209D01*
X9337374Y35433000D01*
X9712626Y35433000D01*
X10080668Y35506209D01*
X10427356Y35649811D01*
X10739366Y35858290D01*
X11004710Y36123634D01*
X11213189Y36435644D01*
X11356791Y36782332D01*
X11430000Y37150374D01*
X11430000Y37525626D01*
X11356791Y37893668D01*
X11213189Y38240356D01*
X11004710Y38552366D01*
X10739366Y38817710D01*
X10427356Y39026189D01*
X10080668Y39169791D01*
X9712626Y39243000D01*
X9337374Y39243000D01*
X8969332Y39169791D01*
X8622644Y39026189D01*
X8310634Y38817710D01*
X8045290Y38552366D01*
X7836811Y38240356D01*
X7693209Y37893668D01*
X7620000Y37525626D01*
X3562204Y37525626D01*
X3645274Y37753487D01*
X3767101Y38007168D01*
X3912139Y38246448D01*
X4078984Y38469888D01*
X4266191Y38675991D01*
X4472245Y38863227D01*
X4695645Y39030110D01*
X4934873Y39175172D01*
X5188497Y39297018D01*
X5455177Y39394277D01*
X5733689Y39465571D01*
X6023034Y39509494D01*
X6339598Y39525380D01*
X58624056Y39525380D01*
X58940621Y39509494D01*
M02*
