G04 #@! TF.GenerationSoftware,KiCad,Pcbnew,(5.1.0)-1*
G04 #@! TF.CreationDate,2020-04-16T11:46:00+01:00*
G04 #@! TF.ProjectId,SolarSoilSensor,536f6c61-7253-46f6-996c-53656e736f72,rev?*
G04 #@! TF.SameCoordinates,PX5faea10PY77e7cd0*
G04 #@! TF.FileFunction,Legend,Top*
G04 #@! TF.FilePolarity,Positive*
%FSLAX46Y46*%
G04 Gerber Fmt 4.6, Leading zero omitted, Abs format (unit mm)*
G04 Created by KiCad (PCBNEW (5.1.0)-1) date 2020-04-16 11:46:00*
%MOMM*%
%LPD*%
G04 APERTURE LIST*
%ADD10C,0.400000*%
%ADD11C,0.300000*%
%ADD12C,0.500000*%
%ADD13C,0.200000*%
%ADD14C,0.304800*%
%ADD15C,0.381000*%
%ADD16C,0.127000*%
%ADD17C,0.203200*%
%ADD18C,0.150000*%
G04 APERTURE END LIST*
D10*
X13975952Y7867381D02*
X14261666Y7791191D01*
X14737857Y7791191D01*
X14928333Y7867381D01*
X15023571Y7943572D01*
X15118809Y8095953D01*
X15118809Y8248334D01*
X15023571Y8400715D01*
X14928333Y8476905D01*
X14737857Y8553096D01*
X14356904Y8629286D01*
X14166428Y8705477D01*
X14071190Y8781667D01*
X13975952Y8934048D01*
X13975952Y9086429D01*
X14071190Y9238810D01*
X14166428Y9315000D01*
X14356904Y9391191D01*
X14833095Y9391191D01*
X15118809Y9315000D01*
X16356904Y9391191D02*
X16737857Y9391191D01*
X16928333Y9315000D01*
X17118809Y9162620D01*
X17214047Y8857858D01*
X17214047Y8324524D01*
X17118809Y8019762D01*
X16928333Y7867381D01*
X16737857Y7791191D01*
X16356904Y7791191D01*
X16166428Y7867381D01*
X15975952Y8019762D01*
X15880714Y8324524D01*
X15880714Y8857858D01*
X15975952Y9162620D01*
X16166428Y9315000D01*
X16356904Y9391191D01*
X19023571Y7791191D02*
X18071190Y7791191D01*
X18071190Y9391191D01*
X19595000Y8248334D02*
X20547380Y8248334D01*
X19404523Y7791191D02*
X20071190Y9391191D01*
X20737857Y7791191D01*
X22547380Y7791191D02*
X21880714Y8553096D01*
X21404523Y7791191D02*
X21404523Y9391191D01*
X22166428Y9391191D01*
X22356904Y9315000D01*
X22452142Y9238810D01*
X22547380Y9086429D01*
X22547380Y8857858D01*
X22452142Y8705477D01*
X22356904Y8629286D01*
X22166428Y8553096D01*
X21404523Y8553096D01*
X13975952Y5067381D02*
X14261666Y4991191D01*
X14737857Y4991191D01*
X14928333Y5067381D01*
X15023571Y5143572D01*
X15118809Y5295953D01*
X15118809Y5448334D01*
X15023571Y5600715D01*
X14928333Y5676905D01*
X14737857Y5753096D01*
X14356904Y5829286D01*
X14166428Y5905477D01*
X14071190Y5981667D01*
X13975952Y6134048D01*
X13975952Y6286429D01*
X14071190Y6438810D01*
X14166428Y6515000D01*
X14356904Y6591191D01*
X14833095Y6591191D01*
X15118809Y6515000D01*
X16356904Y6591191D02*
X16737857Y6591191D01*
X16928333Y6515000D01*
X17118809Y6362620D01*
X17214047Y6057858D01*
X17214047Y5524524D01*
X17118809Y5219762D01*
X16928333Y5067381D01*
X16737857Y4991191D01*
X16356904Y4991191D01*
X16166428Y5067381D01*
X15975952Y5219762D01*
X15880714Y5524524D01*
X15880714Y6057858D01*
X15975952Y6362620D01*
X16166428Y6515000D01*
X16356904Y6591191D01*
X18071190Y4991191D02*
X18071190Y6591191D01*
X19975952Y4991191D02*
X19023571Y4991191D01*
X19023571Y6591191D01*
X13975952Y2267381D02*
X14261666Y2191191D01*
X14737857Y2191191D01*
X14928333Y2267381D01*
X15023571Y2343572D01*
X15118809Y2495953D01*
X15118809Y2648334D01*
X15023571Y2800715D01*
X14928333Y2876905D01*
X14737857Y2953096D01*
X14356904Y3029286D01*
X14166428Y3105477D01*
X14071190Y3181667D01*
X13975952Y3334048D01*
X13975952Y3486429D01*
X14071190Y3638810D01*
X14166428Y3715000D01*
X14356904Y3791191D01*
X14833095Y3791191D01*
X15118809Y3715000D01*
X15975952Y3029286D02*
X16642619Y3029286D01*
X16928333Y2191191D02*
X15975952Y2191191D01*
X15975952Y3791191D01*
X16928333Y3791191D01*
X17785476Y2191191D02*
X17785476Y3791191D01*
X18928333Y2191191D01*
X18928333Y3791191D01*
X19785476Y2267381D02*
X20071190Y2191191D01*
X20547380Y2191191D01*
X20737857Y2267381D01*
X20833095Y2343572D01*
X20928333Y2495953D01*
X20928333Y2648334D01*
X20833095Y2800715D01*
X20737857Y2876905D01*
X20547380Y2953096D01*
X20166428Y3029286D01*
X19975952Y3105477D01*
X19880714Y3181667D01*
X19785476Y3334048D01*
X19785476Y3486429D01*
X19880714Y3638810D01*
X19975952Y3715000D01*
X20166428Y3791191D01*
X20642619Y3791191D01*
X20928333Y3715000D01*
X22166428Y3791191D02*
X22547380Y3791191D01*
X22737857Y3715000D01*
X22928333Y3562620D01*
X23023571Y3257858D01*
X23023571Y2724524D01*
X22928333Y2419762D01*
X22737857Y2267381D01*
X22547380Y2191191D01*
X22166428Y2191191D01*
X21975952Y2267381D01*
X21785476Y2419762D01*
X21690238Y2724524D01*
X21690238Y3257858D01*
X21785476Y3562620D01*
X21975952Y3715000D01*
X22166428Y3791191D01*
X25023571Y2191191D02*
X24356904Y2953096D01*
X23880714Y2191191D02*
X23880714Y3791191D01*
X24642619Y3791191D01*
X24833095Y3715000D01*
X24928333Y3638810D01*
X25023571Y3486429D01*
X25023571Y3257858D01*
X24928333Y3105477D01*
X24833095Y3029286D01*
X24642619Y2953096D01*
X23880714Y2953096D01*
D11*
X54711714Y21936000D02*
X54597428Y21993143D01*
X54426000Y21993143D01*
X54254571Y21936000D01*
X54140285Y21821715D01*
X54083142Y21707429D01*
X54026000Y21478858D01*
X54026000Y21307429D01*
X54083142Y21078858D01*
X54140285Y20964572D01*
X54254571Y20850286D01*
X54426000Y20793143D01*
X54540285Y20793143D01*
X54711714Y20850286D01*
X54768857Y20907429D01*
X54768857Y21307429D01*
X54540285Y21307429D01*
X55283142Y20793143D02*
X55283142Y21993143D01*
X55968857Y20793143D01*
X55968857Y21993143D01*
X56540285Y20793143D02*
X56540285Y21993143D01*
X56826000Y21993143D01*
X56997428Y21936000D01*
X57111714Y21821715D01*
X57168857Y21707429D01*
X57226000Y21478858D01*
X57226000Y21307429D01*
X57168857Y21078858D01*
X57111714Y20964572D01*
X56997428Y20850286D01*
X56826000Y20793143D01*
X56540285Y20793143D01*
D12*
X10540857Y20740715D02*
X8255142Y20740715D01*
X9398000Y19597858D02*
X9398000Y21883572D01*
D13*
X19050000Y18161000D02*
X19050000Y18415000D01*
X19050000Y13589000D02*
X19050000Y13335000D01*
X20066000Y18161000D02*
X18161000Y18161000D01*
X18161000Y18161000D02*
X18161000Y13589000D01*
X18161000Y13589000D02*
X20066000Y13589000D01*
X20066000Y13589000D02*
X20066000Y18161000D01*
X22225000Y13589000D02*
X22225000Y13335000D01*
X22225000Y18161000D02*
X22225000Y18415000D01*
X21209000Y13589000D02*
X23114000Y13589000D01*
X23114000Y13589000D02*
X23114000Y18161000D01*
X23114000Y18161000D02*
X21209000Y18161000D01*
X21209000Y18161000D02*
X21209000Y13589000D01*
X25400000Y13589000D02*
X25400000Y13335000D01*
X25400000Y18161000D02*
X25400000Y18415000D01*
X24384000Y13589000D02*
X26289000Y13589000D01*
X26289000Y13589000D02*
X26289000Y18161000D01*
X26289000Y18161000D02*
X24384000Y18161000D01*
X24384000Y18161000D02*
X24384000Y13589000D01*
X41275000Y17526000D02*
X41275000Y17780000D01*
X41275000Y12954000D02*
X41275000Y12700000D01*
X42291000Y17526000D02*
X40386000Y17526000D01*
X40386000Y17526000D02*
X40386000Y12954000D01*
X40386000Y12954000D02*
X42291000Y12954000D01*
X42291000Y12954000D02*
X42291000Y17526000D01*
X42799000Y28575000D02*
X42545000Y28575000D01*
X47371000Y28575000D02*
X47625000Y28575000D01*
X42799000Y29591000D02*
X42799000Y27686000D01*
X42799000Y27686000D02*
X47371000Y27686000D01*
X47371000Y27686000D02*
X47371000Y29591000D01*
X47371000Y29591000D02*
X42799000Y29591000D01*
X15875000Y18161000D02*
X15875000Y18415000D01*
X15875000Y13589000D02*
X15875000Y13335000D01*
X16891000Y18161000D02*
X14986000Y18161000D01*
X14986000Y18161000D02*
X14986000Y13589000D01*
X14986000Y13589000D02*
X16891000Y13589000D01*
X16891000Y13589000D02*
X16891000Y18161000D01*
D11*
X60650000Y11430000D02*
G75*
G03X60650000Y11430000I-8500000J0D01*
G01*
X25400000Y30226000D02*
X25400000Y29972000D01*
X24130000Y30226000D02*
X25400000Y30226000D01*
X23876000Y27686000D02*
X24130000Y27940000D01*
X24384000Y29210000D02*
X24638000Y28956000D01*
X24384000Y28194000D02*
X24638000Y28956000D01*
X24892000Y29210000D02*
X24384000Y28194000D01*
X24638000Y29210000D02*
X24892000Y29210000D01*
X24384000Y29464000D02*
X24638000Y29210000D01*
X25146000Y29464000D02*
X24638000Y29464000D01*
X24130000Y29718000D02*
X25146000Y29718000D01*
X25400000Y29972000D02*
X24130000Y29972000D01*
X22098000Y37338000D02*
X22098000Y26162000D01*
X22098000Y26162000D02*
X22860000Y26670000D01*
X22860000Y26670000D02*
X22860000Y36830000D01*
X22860000Y36830000D02*
X22098000Y37338000D01*
X22098000Y37338000D02*
X23114000Y36576000D01*
X23114000Y36576000D02*
X23114000Y26670000D01*
X23114000Y26670000D02*
X23368000Y27178000D01*
X23368000Y27178000D02*
X23368000Y36576000D01*
X23368000Y36576000D02*
X23622000Y36068000D01*
X23622000Y36068000D02*
X23622000Y27178000D01*
X23622000Y27178000D02*
X23876000Y27686000D01*
X23876000Y27686000D02*
X23876000Y35814000D01*
X23876000Y35814000D02*
X24130000Y35560000D01*
X24130000Y35560000D02*
X24130000Y27940000D01*
X24130000Y27940000D02*
X24384000Y28194000D01*
X24384000Y28194000D02*
X24384000Y35306000D01*
X24384000Y35306000D02*
X24638000Y34798000D01*
X24638000Y34798000D02*
X24638000Y33274000D01*
X24638000Y33274000D02*
X25146000Y33274000D01*
X25146000Y33274000D02*
X24892000Y33528000D01*
X24892000Y33528000D02*
X25146000Y33528000D01*
X25146000Y33528000D02*
X24892000Y33782000D01*
X24892000Y33782000D02*
X25146000Y34036000D01*
X25146000Y34036000D02*
X24892000Y34290000D01*
X24892000Y34290000D02*
X24892000Y34036000D01*
X24892000Y34036000D02*
X24638000Y33528000D01*
X24638000Y33528000D02*
X24892000Y34544000D01*
X24892000Y34544000D02*
X23622000Y36068000D01*
X23622000Y36068000D02*
X24638000Y33528000D01*
X24638000Y33528000D02*
X23876000Y33528000D01*
X23876000Y33528000D02*
X23876000Y33274000D01*
X23876000Y33274000D02*
X25400000Y33274000D01*
X22606000Y26416000D02*
X22606000Y36830000D01*
X22352000Y26162000D02*
X22352000Y37084000D01*
X21844000Y25908000D02*
X21844000Y37592000D01*
X12700000Y29972000D02*
G75*
G03X20828000Y25400000I6350000J1778000D01*
G01*
X17272000Y25400000D02*
G75*
G03X25400000Y29972000I1778000J6350000D01*
G01*
X25400000Y33274000D02*
G75*
G03X17526000Y38100000I-6350000J-1524000D01*
G01*
X20574000Y38100000D02*
G75*
G03X12700000Y33274000I-1524000J-6350000D01*
G01*
D14*
X9525000Y35687000D02*
X8509000Y35687000D01*
X8509000Y35687000D02*
X8509000Y29591000D01*
X8509000Y29591000D02*
X9525000Y29591000D01*
X9525000Y29591000D02*
X10541000Y29591000D01*
X10541000Y29591000D02*
X10541000Y35687000D01*
X10541000Y35687000D02*
X9525000Y35687000D01*
X8509000Y35179000D02*
X10541000Y35179000D01*
X10541000Y34925000D02*
X8509000Y34925000D01*
D13*
X10668000Y6985000D02*
X10541000Y7112000D01*
X10668000Y6985000D02*
X10668000Y3302000D01*
X6350000Y2667000D02*
G75*
G03X10668000Y3175000I1905000J2413000D01*
G01*
X10541000Y7112000D02*
G75*
G03X6223000Y7366000I-2286000J-2032000D01*
G01*
X5207000Y5080000D02*
G75*
G03X8255000Y2032000I3048000J0D01*
G01*
X8255000Y8128000D02*
G75*
G03X5207000Y5080000I0J-3048000D01*
G01*
D15*
X36195000Y17780000D02*
X31115000Y17780000D01*
X32385000Y27940000D02*
X32385000Y29210000D01*
X34925000Y27940000D02*
X32385000Y27940000D01*
X34925000Y29210000D02*
X34925000Y27940000D01*
X31115000Y29210000D02*
X36195000Y29210000D01*
D14*
X31115000Y17780000D02*
X31115000Y29210000D01*
X36195000Y29210000D02*
X36195000Y17780000D01*
D13*
X37465000Y36830000D02*
X37465000Y31750000D01*
X29845000Y36830000D02*
X37465000Y36830000D01*
X29845000Y31750000D02*
X29845000Y36830000D01*
X37465000Y31750000D02*
X29845000Y31750000D01*
X38400000Y37130000D02*
G75*
G03X38400000Y37130000I-635000J0D01*
G01*
D14*
X46355000Y19685000D02*
X50165000Y23495000D01*
X50165000Y23495000D02*
X50165000Y24765000D01*
X50165000Y24765000D02*
X48895000Y26035000D01*
X48895000Y26035000D02*
X46355000Y26035000D01*
X46355000Y26035000D02*
X43815000Y23495000D01*
X43815000Y23495000D02*
X43815000Y20955000D01*
X43815000Y20955000D02*
X45085000Y19685000D01*
X45085000Y19685000D02*
X46355000Y19685000D01*
D16*
X55880000Y34925000D02*
G75*
G03X55880000Y34925000I-2540000J0D01*
G01*
X49530000Y38735000D02*
X57150000Y38735000D01*
X57150000Y38735000D02*
X57150000Y31115000D01*
X57150000Y31115000D02*
X49530000Y31115000D01*
X49530000Y38735000D02*
X49530000Y31115000D01*
D15*
X37465000Y12700000D02*
X37465000Y15240000D01*
X37465000Y15240000D02*
X29845000Y15240000D01*
X29845000Y15240000D02*
X29845000Y12700000D01*
X29845000Y12700000D02*
X37465000Y12700000D01*
D14*
X37465000Y13335000D02*
X36830000Y12700000D01*
D17*
X19681976Y15663334D02*
X19016738Y15240000D01*
X19681976Y14937620D02*
X18284976Y14937620D01*
X18284976Y15421429D01*
X18351500Y15542381D01*
X18418023Y15602858D01*
X18551071Y15663334D01*
X18750642Y15663334D01*
X18883690Y15602858D01*
X18950214Y15542381D01*
X19016738Y15421429D01*
X19016738Y14937620D01*
X19681976Y16872858D02*
X19681976Y16147143D01*
X19681976Y16510000D02*
X18284976Y16510000D01*
X18484547Y16389048D01*
X18617595Y16268096D01*
X18684119Y16147143D01*
X22856976Y15663334D02*
X22191738Y15240000D01*
X22856976Y14937620D02*
X21459976Y14937620D01*
X21459976Y15421429D01*
X21526500Y15542381D01*
X21593023Y15602858D01*
X21726071Y15663334D01*
X21925642Y15663334D01*
X22058690Y15602858D01*
X22125214Y15542381D01*
X22191738Y15421429D01*
X22191738Y14937620D01*
X21593023Y16147143D02*
X21526500Y16207620D01*
X21459976Y16328572D01*
X21459976Y16630953D01*
X21526500Y16751905D01*
X21593023Y16812381D01*
X21726071Y16872858D01*
X21859119Y16872858D01*
X22058690Y16812381D01*
X22856976Y16086667D01*
X22856976Y16872858D01*
X26031976Y15663334D02*
X25366738Y15240000D01*
X26031976Y14937620D02*
X24634976Y14937620D01*
X24634976Y15421429D01*
X24701500Y15542381D01*
X24768023Y15602858D01*
X24901071Y15663334D01*
X25100642Y15663334D01*
X25233690Y15602858D01*
X25300214Y15542381D01*
X25366738Y15421429D01*
X25366738Y14937620D01*
X24634976Y16086667D02*
X24634976Y16872858D01*
X25167166Y16449524D01*
X25167166Y16630953D01*
X25233690Y16751905D01*
X25300214Y16812381D01*
X25433261Y16872858D01*
X25765880Y16872858D01*
X25898928Y16812381D01*
X25965452Y16751905D01*
X26031976Y16630953D01*
X26031976Y16268096D01*
X25965452Y16147143D01*
X25898928Y16086667D01*
X41906976Y15028334D02*
X41241738Y14605000D01*
X41906976Y14302620D02*
X40509976Y14302620D01*
X40509976Y14786429D01*
X40576500Y14907381D01*
X40643023Y14967858D01*
X40776071Y15028334D01*
X40975642Y15028334D01*
X41108690Y14967858D01*
X41175214Y14907381D01*
X41241738Y14786429D01*
X41241738Y14302620D01*
X40975642Y16116905D02*
X41906976Y16116905D01*
X40443452Y15814524D02*
X41441309Y15512143D01*
X41441309Y16298334D01*
X44873333Y27943024D02*
X44450000Y28608262D01*
X44147619Y27943024D02*
X44147619Y29340024D01*
X44631428Y29340024D01*
X44752380Y29273500D01*
X44812857Y29206977D01*
X44873333Y29073929D01*
X44873333Y28874358D01*
X44812857Y28741310D01*
X44752380Y28674786D01*
X44631428Y28608262D01*
X44147619Y28608262D01*
X46022380Y29340024D02*
X45417619Y29340024D01*
X45357142Y28674786D01*
X45417619Y28741310D01*
X45538571Y28807834D01*
X45840952Y28807834D01*
X45961904Y28741310D01*
X46022380Y28674786D01*
X46082857Y28541739D01*
X46082857Y28209120D01*
X46022380Y28076072D01*
X45961904Y28009548D01*
X45840952Y27943024D01*
X45538571Y27943024D01*
X45417619Y28009548D01*
X45357142Y28076072D01*
X16506976Y15663334D02*
X15841738Y15240000D01*
X16506976Y14937620D02*
X15109976Y14937620D01*
X15109976Y15421429D01*
X15176500Y15542381D01*
X15243023Y15602858D01*
X15376071Y15663334D01*
X15575642Y15663334D01*
X15708690Y15602858D01*
X15775214Y15542381D01*
X15841738Y15421429D01*
X15841738Y14937620D01*
X15109976Y16751905D02*
X15109976Y16510000D01*
X15176500Y16389048D01*
X15243023Y16328572D01*
X15442595Y16207620D01*
X15708690Y16147143D01*
X16240880Y16147143D01*
X16373928Y16207620D01*
X16440452Y16268096D01*
X16506976Y16389048D01*
X16506976Y16630953D01*
X16440452Y16751905D01*
X16373928Y16812381D01*
X16240880Y16872858D01*
X15908261Y16872858D01*
X15775214Y16812381D01*
X15708690Y16751905D01*
X15642166Y16630953D01*
X15642166Y16389048D01*
X15708690Y16268096D01*
X15775214Y16207620D01*
X15908261Y16147143D01*
D18*
X51507142Y12477620D02*
X51030952Y12477620D01*
X51030952Y13477620D01*
X51792857Y12525239D02*
X51935714Y12477620D01*
X52173809Y12477620D01*
X52269047Y12525239D01*
X52316666Y12572858D01*
X52364285Y12668096D01*
X52364285Y12763334D01*
X52316666Y12858572D01*
X52269047Y12906191D01*
X52173809Y12953810D01*
X51983333Y13001429D01*
X51888095Y13049048D01*
X51840476Y13096667D01*
X51792857Y13191905D01*
X51792857Y13287143D01*
X51840476Y13382381D01*
X51888095Y13430000D01*
X51983333Y13477620D01*
X52221428Y13477620D01*
X52364285Y13430000D01*
X53316666Y12477620D02*
X52745238Y12477620D01*
X53030952Y12477620D02*
X53030952Y13477620D01*
X52935714Y13334762D01*
X52840476Y13239524D01*
X52745238Y13191905D01*
X50197619Y10977620D02*
X50197619Y11977620D01*
X50578571Y11977620D01*
X50673809Y11930000D01*
X50721428Y11882381D01*
X50769047Y11787143D01*
X50769047Y11644286D01*
X50721428Y11549048D01*
X50673809Y11501429D01*
X50578571Y11453810D01*
X50197619Y11453810D01*
X51197619Y10977620D02*
X51197619Y11977620D01*
X51673809Y11501429D02*
X52007142Y11501429D01*
X52150000Y10977620D02*
X51673809Y10977620D01*
X51673809Y11977620D01*
X52150000Y11977620D01*
X52483333Y11977620D02*
X53150000Y11977620D01*
X52483333Y10977620D01*
X53150000Y10977620D01*
X53721428Y11977620D02*
X53911904Y11977620D01*
X54007142Y11930000D01*
X54102380Y11834762D01*
X54150000Y11644286D01*
X54150000Y11310953D01*
X54102380Y11120477D01*
X54007142Y11025239D01*
X53911904Y10977620D01*
X53721428Y10977620D01*
X53626190Y11025239D01*
X53530952Y11120477D01*
X53483333Y11310953D01*
X53483333Y11644286D01*
X53530952Y11834762D01*
X53626190Y11930000D01*
X53721428Y11977620D01*
D11*
X18833333Y26205715D02*
X18771428Y26143810D01*
X18585714Y26081905D01*
X18461904Y26081905D01*
X18276190Y26143810D01*
X18152380Y26267620D01*
X18090476Y26391429D01*
X18028571Y26639048D01*
X18028571Y26824762D01*
X18090476Y27072381D01*
X18152380Y27196191D01*
X18276190Y27320000D01*
X18461904Y27381905D01*
X18585714Y27381905D01*
X18771428Y27320000D01*
X18833333Y27258096D01*
X20071428Y26081905D02*
X19328571Y26081905D01*
X19700000Y26081905D02*
X19700000Y27381905D01*
X19576190Y27196191D01*
X19452380Y27072381D01*
X19328571Y27010477D01*
D17*
X19040928Y33231667D02*
X19040928Y33147000D01*
X18986500Y33062334D01*
X18932071Y33020000D01*
X18823214Y32977667D01*
X18605500Y32935334D01*
X18333357Y32935334D01*
X18115642Y32977667D01*
X18006785Y33020000D01*
X17952357Y33062334D01*
X17897928Y33147000D01*
X17897928Y33231667D01*
X17952357Y33316334D01*
X18006785Y33358667D01*
X18115642Y33401000D01*
X18333357Y33443334D01*
X18605500Y33443334D01*
X18823214Y33401000D01*
X18932071Y33358667D01*
X18986500Y33316334D01*
X19040928Y33231667D01*
X18006785Y32554334D02*
X17952357Y32512000D01*
X17897928Y32554334D01*
X17952357Y32596667D01*
X18006785Y32554334D01*
X17897928Y32554334D01*
X18659928Y31750000D02*
X17897928Y31750000D01*
X19095357Y31961667D02*
X18278928Y32173334D01*
X18278928Y31623000D01*
X19040928Y31369000D02*
X19040928Y30776334D01*
X17897928Y31157334D01*
X18496642Y30141334D02*
X18496642Y30437667D01*
X17897928Y30437667D02*
X19040928Y30437667D01*
X19040928Y30014334D01*
D12*
X12128619Y37159429D02*
X14033380Y37159429D01*
X13081000Y36207048D02*
X13081000Y38111810D01*
D11*
X10113095Y31298477D02*
X8813095Y31298477D01*
X8813095Y31608000D01*
X8875000Y31793715D01*
X8998809Y31917524D01*
X9122619Y31979429D01*
X9370238Y32041334D01*
X9555952Y32041334D01*
X9803571Y31979429D01*
X9927380Y31917524D01*
X10051190Y31793715D01*
X10113095Y31608000D01*
X10113095Y31298477D01*
X10113095Y33279429D02*
X10113095Y32536572D01*
X10113095Y32908000D02*
X8813095Y32908000D01*
X8998809Y32784191D01*
X9122619Y32660381D01*
X9184523Y32536572D01*
X7295476Y8809905D02*
X7295476Y10109905D01*
X7605000Y10109905D01*
X7790714Y10048000D01*
X7914523Y9924191D01*
X7976428Y9800381D01*
X8038333Y9552762D01*
X8038333Y9367048D01*
X7976428Y9119429D01*
X7914523Y8995620D01*
X7790714Y8871810D01*
X7605000Y8809905D01*
X7295476Y8809905D01*
X8533571Y9986096D02*
X8595476Y10048000D01*
X8719285Y10109905D01*
X9028809Y10109905D01*
X9152619Y10048000D01*
X9214523Y9986096D01*
X9276428Y9862286D01*
X9276428Y9738477D01*
X9214523Y9552762D01*
X8471666Y8809905D01*
X9276428Y8809905D01*
X4622857Y7915286D02*
X5537142Y7915286D01*
X5080000Y7458143D02*
X5080000Y8372429D01*
X28038571Y28667143D02*
X28038571Y29867143D01*
X29295714Y28781429D02*
X29238571Y28724286D01*
X29067142Y28667143D01*
X28952857Y28667143D01*
X28781428Y28724286D01*
X28667142Y28838572D01*
X28610000Y28952858D01*
X28552857Y29181429D01*
X28552857Y29352858D01*
X28610000Y29581429D01*
X28667142Y29695715D01*
X28781428Y29810000D01*
X28952857Y29867143D01*
X29067142Y29867143D01*
X29238571Y29810000D01*
X29295714Y29752858D01*
X30438571Y28667143D02*
X29752857Y28667143D01*
X30095714Y28667143D02*
X30095714Y29867143D01*
X29981428Y29695715D01*
X29867142Y29581429D01*
X29752857Y29524286D01*
D18*
X33741666Y18805096D02*
X33741666Y19281286D01*
X34027380Y18709858D02*
X33027380Y19043191D01*
X34027380Y19376524D01*
X33027380Y19567000D02*
X33027380Y20138429D01*
X34027380Y19852715D02*
X33027380Y19852715D01*
X33027380Y20328905D02*
X33027380Y20900334D01*
X34027380Y20614620D02*
X33027380Y20614620D01*
X34027380Y21233667D02*
X33027380Y21233667D01*
X34027380Y21709858D02*
X33027380Y21709858D01*
X34027380Y22281286D01*
X33027380Y22281286D01*
X33551190Y22947953D02*
X34027380Y22947953D01*
X33027380Y22614620D02*
X33551190Y22947953D01*
X33027380Y23281286D01*
X33455952Y23757477D02*
X33408333Y23662239D01*
X33360714Y23614620D01*
X33265476Y23567000D01*
X33217857Y23567000D01*
X33122619Y23614620D01*
X33075000Y23662239D01*
X33027380Y23757477D01*
X33027380Y23947953D01*
X33075000Y24043191D01*
X33122619Y24090810D01*
X33217857Y24138429D01*
X33265476Y24138429D01*
X33360714Y24090810D01*
X33408333Y24043191D01*
X33455952Y23947953D01*
X33455952Y23757477D01*
X33503571Y23662239D01*
X33551190Y23614620D01*
X33646428Y23567000D01*
X33836904Y23567000D01*
X33932142Y23614620D01*
X33979761Y23662239D01*
X34027380Y23757477D01*
X34027380Y23947953D01*
X33979761Y24043191D01*
X33932142Y24090810D01*
X33836904Y24138429D01*
X33646428Y24138429D01*
X33551190Y24090810D01*
X33503571Y24043191D01*
X33455952Y23947953D01*
X33027380Y25043191D02*
X33027380Y24567000D01*
X33503571Y24519381D01*
X33455952Y24567000D01*
X33408333Y24662239D01*
X33408333Y24900334D01*
X33455952Y24995572D01*
X33503571Y25043191D01*
X33598809Y25090810D01*
X33836904Y25090810D01*
X33932142Y25043191D01*
X33979761Y24995572D01*
X34027380Y24900334D01*
X34027380Y24662239D01*
X33979761Y24567000D01*
X33932142Y24519381D01*
X33646428Y25519381D02*
X33646428Y26281286D01*
X34027380Y26757477D02*
X33027380Y26757477D01*
X33027380Y27138429D01*
X33075000Y27233667D01*
X33122619Y27281286D01*
X33217857Y27328905D01*
X33360714Y27328905D01*
X33455952Y27281286D01*
X33503571Y27233667D01*
X33551190Y27138429D01*
X33551190Y26757477D01*
X28408380Y35861667D02*
X29122666Y35861667D01*
X29265523Y35814048D01*
X29360761Y35718810D01*
X29408380Y35575953D01*
X29408380Y35480715D01*
X29408380Y36861667D02*
X29408380Y36290239D01*
X29408380Y36575953D02*
X28408380Y36575953D01*
X28551238Y36480715D01*
X28646476Y36385477D01*
X28694095Y36290239D01*
X29408380Y32424810D02*
X28408380Y32424810D01*
X29360761Y32853381D02*
X29408380Y32996239D01*
X29408380Y33234334D01*
X29360761Y33329572D01*
X29313142Y33377191D01*
X29217904Y33424810D01*
X29122666Y33424810D01*
X29027428Y33377191D01*
X28979809Y33329572D01*
X28932190Y33234334D01*
X28884571Y33043858D01*
X28836952Y32948620D01*
X28789333Y32901000D01*
X28694095Y32853381D01*
X28598857Y32853381D01*
X28503619Y32901000D01*
X28456000Y32948620D01*
X28408380Y33043858D01*
X28408380Y33281953D01*
X28456000Y33424810D01*
X29408380Y33853381D02*
X28408380Y33853381D01*
X28408380Y34234334D01*
X28456000Y34329572D01*
X28503619Y34377191D01*
X28598857Y34424810D01*
X28741714Y34424810D01*
X28836952Y34377191D01*
X28884571Y34329572D01*
X28932190Y34234334D01*
X28932190Y33853381D01*
D17*
X43083238Y24843620D02*
X42986476Y24892000D01*
X42889714Y24988762D01*
X42744571Y25133905D01*
X42647809Y25182286D01*
X42551047Y25182286D01*
X42599428Y24940381D02*
X42502666Y24988762D01*
X42405904Y25085524D01*
X42357523Y25279048D01*
X42357523Y25617715D01*
X42405904Y25811239D01*
X42502666Y25908000D01*
X42599428Y25956381D01*
X42792952Y25956381D01*
X42889714Y25908000D01*
X42986476Y25811239D01*
X43034857Y25617715D01*
X43034857Y25279048D01*
X42986476Y25085524D01*
X42889714Y24988762D01*
X42792952Y24940381D01*
X42599428Y24940381D01*
X44002476Y24940381D02*
X43421904Y24940381D01*
X43712190Y24940381D02*
X43712190Y25956381D01*
X43615428Y25811239D01*
X43518666Y25714477D01*
X43421904Y25666096D01*
X51985333Y34513762D02*
X52130476Y34465381D01*
X52372380Y34465381D01*
X52469142Y34513762D01*
X52517523Y34562143D01*
X52565904Y34658905D01*
X52565904Y34755667D01*
X52517523Y34852429D01*
X52469142Y34900810D01*
X52372380Y34949191D01*
X52178857Y34997572D01*
X52082095Y35045953D01*
X52033714Y35094334D01*
X51985333Y35191096D01*
X51985333Y35287858D01*
X52033714Y35384620D01*
X52082095Y35433000D01*
X52178857Y35481381D01*
X52420761Y35481381D01*
X52565904Y35433000D01*
X52904571Y35481381D02*
X53146476Y34465381D01*
X53340000Y35191096D01*
X53533523Y34465381D01*
X53775428Y35481381D01*
X54694666Y34465381D02*
X54114095Y34465381D01*
X54404380Y34465381D02*
X54404380Y35481381D01*
X54307619Y35336239D01*
X54210857Y35239477D01*
X54114095Y35191096D01*
X52279247Y29433762D02*
X52424390Y29385381D01*
X52666295Y29385381D01*
X52763057Y29433762D01*
X52811438Y29482143D01*
X52859819Y29578905D01*
X52859819Y29675667D01*
X52811438Y29772429D01*
X52763057Y29820810D01*
X52666295Y29869191D01*
X52472771Y29917572D01*
X52376009Y29965953D01*
X52327628Y30014334D01*
X52279247Y30111096D01*
X52279247Y30207858D01*
X52327628Y30304620D01*
X52376009Y30353000D01*
X52472771Y30401381D01*
X52714676Y30401381D01*
X52859819Y30353000D01*
X53295247Y29917572D02*
X53633914Y29917572D01*
X53779057Y29385381D02*
X53295247Y29385381D01*
X53295247Y30401381D01*
X53779057Y30401381D01*
X54069342Y30401381D02*
X54649914Y30401381D01*
X54359628Y29385381D02*
X54359628Y30401381D01*
X33358666Y13607143D02*
X33310285Y13558762D01*
X33165142Y13510381D01*
X33068380Y13510381D01*
X32923238Y13558762D01*
X32826476Y13655524D01*
X32778095Y13752286D01*
X32729714Y13945810D01*
X32729714Y14090953D01*
X32778095Y14284477D01*
X32826476Y14381239D01*
X32923238Y14478000D01*
X33068380Y14526381D01*
X33165142Y14526381D01*
X33310285Y14478000D01*
X33358666Y14429620D01*
X33745714Y14429620D02*
X33794095Y14478000D01*
X33890857Y14526381D01*
X34132761Y14526381D01*
X34229523Y14478000D01*
X34277904Y14429620D01*
X34326285Y14332858D01*
X34326285Y14236096D01*
X34277904Y14090953D01*
X33697333Y13510381D01*
X34326285Y13510381D01*
M02*
