G04 #@! TF.GenerationSoftware,KiCad,Pcbnew,(5.1.0)-1*
G04 #@! TF.CreationDate,2020-04-16T11:46:00+01:00*
G04 #@! TF.ProjectId,SolarSoilSensor,536f6c61-7253-46f6-996c-53656e736f72,rev?*
G04 #@! TF.SameCoordinates,PX5faea10PY77e7cd0*
G04 #@! TF.FileFunction,Copper,L2,Bot*
G04 #@! TF.FilePolarity,Positive*
%FSLAX46Y46*%
G04 Gerber Fmt 4.6, Leading zero omitted, Abs format (unit mm)*
G04 Created by KiCad (PCBNEW (5.1.0)-1) date 2020-04-16 11:46:00*
%MOMM*%
%LPD*%
G04 APERTURE LIST*
%ADD10C,0.250000*%
%ADD11C,0.010000*%
%ADD12C,2.032000*%
%ADD13R,2.032000X1.727200*%
%ADD14O,2.032000X1.727200*%
%ADD15R,3.000000X3.000000*%
%ADD16C,1.524000*%
%ADD17R,1.600000X2.800000*%
%ADD18O,1.600000X2.800000*%
%ADD19C,2.540000*%
%ADD20O,2.286000X1.574800*%
%ADD21R,2.286000X1.574800*%
%ADD22C,1.600200*%
%ADD23R,1.600200X1.600200*%
%ADD24R,1.905000X1.905000*%
%ADD25C,1.905000*%
%ADD26C,0.600000*%
%ADD27C,1.000000*%
%ADD28C,0.254000*%
G04 APERTURE END LIST*
D10*
X54419047Y13517620D02*
X54990476Y13517620D01*
X54704761Y13517620D02*
X54704761Y14517620D01*
X54800000Y14374762D01*
X54895238Y14279524D01*
X54990476Y14231905D01*
X53514285Y14517620D02*
X53990476Y14517620D01*
X54038095Y14041429D01*
X53990476Y14089048D01*
X53895238Y14136667D01*
X53657142Y14136667D01*
X53561904Y14089048D01*
X53514285Y14041429D01*
X53466666Y13946191D01*
X53466666Y13708096D01*
X53514285Y13612858D01*
X53561904Y13565239D01*
X53657142Y13517620D01*
X53895238Y13517620D01*
X53990476Y13565239D01*
X54038095Y13612858D01*
X52323809Y14565239D02*
X53180952Y13279524D01*
X51561904Y14184286D02*
X51561904Y13517620D01*
X51800000Y14565239D02*
X52038095Y13850953D01*
X51419047Y13850953D01*
X50323809Y14565239D02*
X51180952Y13279524D01*
X50038095Y14422381D02*
X49990476Y14470000D01*
X49895238Y14517620D01*
X49657142Y14517620D01*
X49561904Y14470000D01*
X49514285Y14422381D01*
X49466666Y14327143D01*
X49466666Y14231905D01*
X49514285Y14089048D01*
X50085714Y13517620D01*
X49466666Y13517620D01*
X48847619Y14517620D02*
X48752380Y14517620D01*
X48657142Y14470000D01*
X48609523Y14422381D01*
X48561904Y14327143D01*
X48514285Y14136667D01*
X48514285Y13898572D01*
X48561904Y13708096D01*
X48609523Y13612858D01*
X48657142Y13565239D01*
X48752380Y13517620D01*
X48847619Y13517620D01*
X48942857Y13565239D01*
X48990476Y13612858D01*
X49038095Y13708096D01*
X49085714Y13898572D01*
X49085714Y14136667D01*
X49038095Y14327143D01*
X48990476Y14422381D01*
X48942857Y14470000D01*
X48847619Y14517620D01*
X48133333Y14422381D02*
X48085714Y14470000D01*
X47990476Y14517620D01*
X47752380Y14517620D01*
X47657142Y14470000D01*
X47609523Y14422381D01*
X47561904Y14327143D01*
X47561904Y14231905D01*
X47609523Y14089048D01*
X48180952Y13517620D01*
X47561904Y13517620D01*
X46942857Y14517620D02*
X46847619Y14517620D01*
X46752380Y14470000D01*
X46704761Y14422381D01*
X46657142Y14327143D01*
X46609523Y14136667D01*
X46609523Y13898572D01*
X46657142Y13708096D01*
X46704761Y13612858D01*
X46752380Y13565239D01*
X46847619Y13517620D01*
X46942857Y13517620D01*
X47038095Y13565239D01*
X47085714Y13612858D01*
X47133333Y13708096D01*
X47180952Y13898572D01*
X47180952Y14136667D01*
X47133333Y14327143D01*
X47085714Y14422381D01*
X47038095Y14470000D01*
X46942857Y14517620D01*
D11*
G36*
X40030948Y-42373D02*
G01*
X40570598Y-42583D01*
X41036714Y-43097D01*
X41434863Y-44049D01*
X41770611Y-45572D01*
X42049525Y-47802D01*
X42277171Y-50873D01*
X42459115Y-54918D01*
X42600925Y-60071D01*
X42708167Y-66467D01*
X42786406Y-74241D01*
X42841211Y-83525D01*
X42878146Y-94454D01*
X42902779Y-107162D01*
X42920676Y-121784D01*
X42926000Y-127000D01*
X42932657Y-134160D01*
X42938956Y-143489D01*
X42944906Y-157276D01*
X42950517Y-177811D01*
X42955800Y-207384D01*
X42960764Y-248284D01*
X42965420Y-302801D01*
X42969776Y-373226D01*
X42973843Y-461846D01*
X42977632Y-570954D01*
X42981151Y-702837D01*
X42984411Y-859787D01*
X42987421Y-1044092D01*
X42990193Y-1258043D01*
X42992734Y-1503929D01*
X42995056Y-1784040D01*
X42997169Y-2100666D01*
X42999082Y-2456096D01*
X43000805Y-2852620D01*
X43002348Y-3292529D01*
X43003721Y-3778111D01*
X43004934Y-4311657D01*
X43005997Y-4895456D01*
X43006919Y-5531798D01*
X43007712Y-6222973D01*
X43008384Y-6971270D01*
X43008945Y-7778980D01*
X43009406Y-8648392D01*
X43009777Y-9581795D01*
X43010066Y-10581480D01*
X43010285Y-11649737D01*
X43010443Y-12788854D01*
X43010550Y-14001123D01*
X43010616Y-15288832D01*
X43010651Y-16654271D01*
X43010664Y-18099730D01*
X43010667Y-19627500D01*
X43010667Y-39135342D01*
X42185673Y-47243088D01*
X42101346Y-48070878D01*
X42018688Y-48880426D01*
X41938157Y-49667337D01*
X41860209Y-50427214D01*
X41785301Y-51155662D01*
X41713890Y-51848284D01*
X41646433Y-52500685D01*
X41583386Y-53108469D01*
X41525207Y-53667241D01*
X41472352Y-54172603D01*
X41425278Y-54620160D01*
X41384442Y-55005517D01*
X41350300Y-55324277D01*
X41323310Y-55572045D01*
X41303928Y-55744425D01*
X41292611Y-55837020D01*
X41292521Y-55837667D01*
X41256423Y-56062990D01*
X41212837Y-56286513D01*
X41168055Y-56477933D01*
X41138726Y-56578500D01*
X40974997Y-56964972D01*
X40765440Y-57298333D01*
X40516789Y-57572486D01*
X40235780Y-57781337D01*
X39929151Y-57918790D01*
X39603637Y-57978748D01*
X39590611Y-57979435D01*
X39421291Y-57981450D01*
X39266711Y-57973050D01*
X39174534Y-57958994D01*
X38859347Y-57835466D01*
X38567670Y-57638568D01*
X38307497Y-57378161D01*
X38086822Y-57064107D01*
X37913638Y-56706268D01*
X37795940Y-56314506D01*
X37781021Y-56239833D01*
X37770451Y-56164049D01*
X37751715Y-56008270D01*
X37725263Y-55776729D01*
X37691544Y-55473658D01*
X37651008Y-55103288D01*
X37604105Y-54669854D01*
X37551283Y-54177586D01*
X37492992Y-53630717D01*
X37429683Y-53033480D01*
X37361804Y-52390107D01*
X37289804Y-51704830D01*
X37214135Y-50981881D01*
X37135244Y-50225494D01*
X37053581Y-49439900D01*
X36969597Y-48629331D01*
X36883740Y-47798020D01*
X36861543Y-47582667D01*
X36004500Y-39264167D01*
X35993781Y-19653250D01*
X35983063Y-42333D01*
X39412198Y-42333D01*
X40030948Y-42373D01*
X40030948Y-42373D01*
G37*
X40030948Y-42373D02*
X40570598Y-42583D01*
X41036714Y-43097D01*
X41434863Y-44049D01*
X41770611Y-45572D01*
X42049525Y-47802D01*
X42277171Y-50873D01*
X42459115Y-54918D01*
X42600925Y-60071D01*
X42708167Y-66467D01*
X42786406Y-74241D01*
X42841211Y-83525D01*
X42878146Y-94454D01*
X42902779Y-107162D01*
X42920676Y-121784D01*
X42926000Y-127000D01*
X42932657Y-134160D01*
X42938956Y-143489D01*
X42944906Y-157276D01*
X42950517Y-177811D01*
X42955800Y-207384D01*
X42960764Y-248284D01*
X42965420Y-302801D01*
X42969776Y-373226D01*
X42973843Y-461846D01*
X42977632Y-570954D01*
X42981151Y-702837D01*
X42984411Y-859787D01*
X42987421Y-1044092D01*
X42990193Y-1258043D01*
X42992734Y-1503929D01*
X42995056Y-1784040D01*
X42997169Y-2100666D01*
X42999082Y-2456096D01*
X43000805Y-2852620D01*
X43002348Y-3292529D01*
X43003721Y-3778111D01*
X43004934Y-4311657D01*
X43005997Y-4895456D01*
X43006919Y-5531798D01*
X43007712Y-6222973D01*
X43008384Y-6971270D01*
X43008945Y-7778980D01*
X43009406Y-8648392D01*
X43009777Y-9581795D01*
X43010066Y-10581480D01*
X43010285Y-11649737D01*
X43010443Y-12788854D01*
X43010550Y-14001123D01*
X43010616Y-15288832D01*
X43010651Y-16654271D01*
X43010664Y-18099730D01*
X43010667Y-19627500D01*
X43010667Y-39135342D01*
X42185673Y-47243088D01*
X42101346Y-48070878D01*
X42018688Y-48880426D01*
X41938157Y-49667337D01*
X41860209Y-50427214D01*
X41785301Y-51155662D01*
X41713890Y-51848284D01*
X41646433Y-52500685D01*
X41583386Y-53108469D01*
X41525207Y-53667241D01*
X41472352Y-54172603D01*
X41425278Y-54620160D01*
X41384442Y-55005517D01*
X41350300Y-55324277D01*
X41323310Y-55572045D01*
X41303928Y-55744425D01*
X41292611Y-55837020D01*
X41292521Y-55837667D01*
X41256423Y-56062990D01*
X41212837Y-56286513D01*
X41168055Y-56477933D01*
X41138726Y-56578500D01*
X40974997Y-56964972D01*
X40765440Y-57298333D01*
X40516789Y-57572486D01*
X40235780Y-57781337D01*
X39929151Y-57918790D01*
X39603637Y-57978748D01*
X39590611Y-57979435D01*
X39421291Y-57981450D01*
X39266711Y-57973050D01*
X39174534Y-57958994D01*
X38859347Y-57835466D01*
X38567670Y-57638568D01*
X38307497Y-57378161D01*
X38086822Y-57064107D01*
X37913638Y-56706268D01*
X37795940Y-56314506D01*
X37781021Y-56239833D01*
X37770451Y-56164049D01*
X37751715Y-56008270D01*
X37725263Y-55776729D01*
X37691544Y-55473658D01*
X37651008Y-55103288D01*
X37604105Y-54669854D01*
X37551283Y-54177586D01*
X37492992Y-53630717D01*
X37429683Y-53033480D01*
X37361804Y-52390107D01*
X37289804Y-51704830D01*
X37214135Y-50981881D01*
X37135244Y-50225494D01*
X37053581Y-49439900D01*
X36969597Y-48629331D01*
X36883740Y-47798020D01*
X36861543Y-47582667D01*
X36004500Y-39264167D01*
X35993781Y-19653250D01*
X35983063Y-42333D01*
X39412198Y-42333D01*
X40030948Y-42373D01*
G36*
X25435842Y-52183D02*
G01*
X26070675Y-54489D01*
X26625918Y-57000D01*
X27106649Y-59818D01*
X27517942Y-63044D01*
X27864876Y-66779D01*
X28152526Y-71123D01*
X28385969Y-76177D01*
X28570282Y-82042D01*
X28710542Y-88820D01*
X28811825Y-96611D01*
X28879207Y-105516D01*
X28917766Y-115635D01*
X28928342Y-121600D01*
X28933849Y-130139D01*
X28939061Y-147869D01*
X28943986Y-177048D01*
X28948633Y-219934D01*
X28953009Y-278786D01*
X28957122Y-355861D01*
X28960980Y-453418D01*
X28964592Y-573714D01*
X28967965Y-719009D01*
X28971108Y-891559D01*
X28974028Y-1093624D01*
X28976734Y-1327461D01*
X28979234Y-1595328D01*
X28981535Y-1899484D01*
X28983647Y-2242187D01*
X28985576Y-2625694D01*
X28987330Y-3052265D01*
X28988919Y-3524156D01*
X28990350Y-4043627D01*
X28991631Y-4612934D01*
X28992770Y-5234338D01*
X28993775Y-5910095D01*
X28994655Y-6642463D01*
X28995417Y-7433702D01*
X28996069Y-8286068D01*
X28996619Y-9201821D01*
X28997076Y-10183218D01*
X28997447Y-11232517D01*
X28997741Y-12351976D01*
X28997966Y-13543854D01*
X28998129Y-14810409D01*
X28998239Y-16153899D01*
X28998304Y-17576582D01*
X28998331Y-19080716D01*
X28998334Y-19743583D01*
X28998334Y-39307466D01*
X28171963Y-47413816D01*
X28087558Y-48240754D01*
X28004854Y-49049009D01*
X27924305Y-49834216D01*
X27846368Y-50592011D01*
X27771496Y-51318032D01*
X27700146Y-52007914D01*
X27632772Y-52657294D01*
X27569831Y-53261808D01*
X27511777Y-53817092D01*
X27459065Y-54318783D01*
X27412151Y-54762517D01*
X27371489Y-55143929D01*
X27337537Y-55458658D01*
X27310747Y-55702337D01*
X27291577Y-55870605D01*
X27280480Y-55959097D01*
X27280331Y-55960109D01*
X27176906Y-56452526D01*
X27022589Y-56883013D01*
X26818729Y-57249343D01*
X26566678Y-57549287D01*
X26267785Y-57780614D01*
X26132399Y-57854918D01*
X25870779Y-57947061D01*
X25579000Y-57990354D01*
X25287868Y-57983150D01*
X25028186Y-57923800D01*
X25005767Y-57915188D01*
X24684765Y-57741817D01*
X24397506Y-57495997D01*
X24151468Y-57185767D01*
X23954128Y-56819168D01*
X23927669Y-56756057D01*
X23847925Y-56526655D01*
X23779903Y-56271768D01*
X23730884Y-56023588D01*
X23708148Y-55814310D01*
X23707402Y-55782038D01*
X23703038Y-55724167D01*
X23690376Y-55586222D01*
X23669834Y-55372346D01*
X23641833Y-55086683D01*
X23606791Y-54733375D01*
X23565127Y-54316564D01*
X23517261Y-53840395D01*
X23463611Y-53309010D01*
X23404598Y-52726552D01*
X23340640Y-52097164D01*
X23272156Y-51424989D01*
X23199565Y-50714170D01*
X23123287Y-49968850D01*
X23043742Y-49193172D01*
X22961347Y-48391278D01*
X22876523Y-47567312D01*
X22860000Y-47406997D01*
X22013334Y-39193418D01*
X22013334Y-40866D01*
X25435842Y-52183D01*
X25435842Y-52183D01*
G37*
X25435842Y-52183D02*
X26070675Y-54489D01*
X26625918Y-57000D01*
X27106649Y-59818D01*
X27517942Y-63044D01*
X27864876Y-66779D01*
X28152526Y-71123D01*
X28385969Y-76177D01*
X28570282Y-82042D01*
X28710542Y-88820D01*
X28811825Y-96611D01*
X28879207Y-105516D01*
X28917766Y-115635D01*
X28928342Y-121600D01*
X28933849Y-130139D01*
X28939061Y-147869D01*
X28943986Y-177048D01*
X28948633Y-219934D01*
X28953009Y-278786D01*
X28957122Y-355861D01*
X28960980Y-453418D01*
X28964592Y-573714D01*
X28967965Y-719009D01*
X28971108Y-891559D01*
X28974028Y-1093624D01*
X28976734Y-1327461D01*
X28979234Y-1595328D01*
X28981535Y-1899484D01*
X28983647Y-2242187D01*
X28985576Y-2625694D01*
X28987330Y-3052265D01*
X28988919Y-3524156D01*
X28990350Y-4043627D01*
X28991631Y-4612934D01*
X28992770Y-5234338D01*
X28993775Y-5910095D01*
X28994655Y-6642463D01*
X28995417Y-7433702D01*
X28996069Y-8286068D01*
X28996619Y-9201821D01*
X28997076Y-10183218D01*
X28997447Y-11232517D01*
X28997741Y-12351976D01*
X28997966Y-13543854D01*
X28998129Y-14810409D01*
X28998239Y-16153899D01*
X28998304Y-17576582D01*
X28998331Y-19080716D01*
X28998334Y-19743583D01*
X28998334Y-39307466D01*
X28171963Y-47413816D01*
X28087558Y-48240754D01*
X28004854Y-49049009D01*
X27924305Y-49834216D01*
X27846368Y-50592011D01*
X27771496Y-51318032D01*
X27700146Y-52007914D01*
X27632772Y-52657294D01*
X27569831Y-53261808D01*
X27511777Y-53817092D01*
X27459065Y-54318783D01*
X27412151Y-54762517D01*
X27371489Y-55143929D01*
X27337537Y-55458658D01*
X27310747Y-55702337D01*
X27291577Y-55870605D01*
X27280480Y-55959097D01*
X27280331Y-55960109D01*
X27176906Y-56452526D01*
X27022589Y-56883013D01*
X26818729Y-57249343D01*
X26566678Y-57549287D01*
X26267785Y-57780614D01*
X26132399Y-57854918D01*
X25870779Y-57947061D01*
X25579000Y-57990354D01*
X25287868Y-57983150D01*
X25028186Y-57923800D01*
X25005767Y-57915188D01*
X24684765Y-57741817D01*
X24397506Y-57495997D01*
X24151468Y-57185767D01*
X23954128Y-56819168D01*
X23927669Y-56756057D01*
X23847925Y-56526655D01*
X23779903Y-56271768D01*
X23730884Y-56023588D01*
X23708148Y-55814310D01*
X23707402Y-55782038D01*
X23703038Y-55724167D01*
X23690376Y-55586222D01*
X23669834Y-55372346D01*
X23641833Y-55086683D01*
X23606791Y-54733375D01*
X23565127Y-54316564D01*
X23517261Y-53840395D01*
X23463611Y-53309010D01*
X23404598Y-52726552D01*
X23340640Y-52097164D01*
X23272156Y-51424989D01*
X23199565Y-50714170D01*
X23123287Y-49968850D01*
X23043742Y-49193172D01*
X22961347Y-48391278D01*
X22876523Y-47567312D01*
X22860000Y-47406997D01*
X22013334Y-39193418D01*
X22013334Y-40866D01*
X25435842Y-52183D01*
D12*
X19050000Y19685000D03*
X19050000Y12065000D03*
X22225000Y12065000D03*
X22225000Y19685000D03*
X25400000Y12065000D03*
X25400000Y19685000D03*
X41275000Y19050000D03*
X41275000Y11430000D03*
X41275000Y28575000D03*
X48895000Y28575000D03*
X15875000Y19685000D03*
X15875000Y12065000D03*
D13*
X47150000Y11430000D03*
D14*
X57150000Y11430000D03*
D15*
X55515000Y24370000D03*
X9515000Y24370000D03*
D16*
X37385000Y-1390000D03*
X27385000Y-1390000D03*
D17*
X12700000Y31750000D03*
D18*
X25400000Y31750000D03*
D19*
X9525000Y37338000D03*
X9525000Y27940000D03*
D12*
X6985000Y5080000D03*
X9525000Y5080000D03*
D20*
X37465000Y26670000D03*
X37465000Y24130000D03*
X37465000Y21590000D03*
X37465000Y19050000D03*
X29845000Y19050000D03*
X29845000Y21590000D03*
X29845000Y24130000D03*
D21*
X29845000Y26670000D03*
D22*
X31115000Y33020000D03*
X31115000Y35560000D03*
X33655000Y33020000D03*
X33655000Y35560000D03*
X36195000Y33020000D03*
D23*
X36195000Y35560000D03*
D24*
X48895000Y23495000D03*
D25*
X46355000Y23495000D03*
X46355000Y20955000D03*
D12*
X57150000Y37465000D03*
X57150000Y32385000D03*
X49530000Y37465000D03*
X49530000Y32385000D03*
D25*
X36195000Y13970000D03*
X31115000Y13970000D03*
D26*
X37000000Y-10000000D03*
X38000000Y-10000000D03*
X39000000Y-10000000D03*
X40000000Y-10000000D03*
X41000000Y-10000000D03*
X42000000Y-10000000D03*
X37000000Y-15000000D03*
X41000000Y-15000000D03*
X39000000Y-15000000D03*
X40000000Y-15000000D03*
X42000000Y-15000000D03*
X38000000Y-15000000D03*
X41000000Y-30000000D03*
X40000000Y-20000000D03*
X38000000Y-30000000D03*
X39000000Y-25000000D03*
X37000000Y-20000000D03*
X40000000Y-30000000D03*
X38000000Y-20000000D03*
X42000000Y-30000000D03*
X42000000Y-20000000D03*
X41000000Y-20000000D03*
X37000000Y-30000000D03*
X37000000Y-25000000D03*
X39000000Y-30000000D03*
X42000000Y-25000000D03*
X40000000Y-25000000D03*
X38000000Y-25000000D03*
X41000000Y-25000000D03*
X39000000Y-20000000D03*
X42000000Y-40000000D03*
X40000000Y-45000000D03*
X38000000Y-35000000D03*
X40000000Y-35000000D03*
X40000000Y-40000000D03*
X38000000Y-40000000D03*
X39000000Y-35000000D03*
X41000000Y-40000000D03*
X37000000Y-35000000D03*
X39000000Y-40000000D03*
X41000000Y-35000000D03*
X37000000Y-40000000D03*
X39000000Y-45000000D03*
X42000000Y-35000000D03*
X41000000Y-45000000D03*
X38000000Y-45000000D03*
X28000000Y-25000000D03*
X26000000Y-30000000D03*
X26000000Y-15000000D03*
X24000000Y-20000000D03*
X26000000Y-20000000D03*
X26000000Y-25000000D03*
X24000000Y-25000000D03*
X25000000Y-20000000D03*
X27000000Y-25000000D03*
X23000000Y-20000000D03*
X25000000Y-25000000D03*
X23000000Y-10000000D03*
X23000000Y-15000000D03*
X24000000Y-15000000D03*
X27000000Y-20000000D03*
X27000000Y-10000000D03*
X25000000Y-10000000D03*
X26000000Y-10000000D03*
X23000000Y-30000000D03*
X23000000Y-25000000D03*
X25000000Y-30000000D03*
X28000000Y-20000000D03*
X27000000Y-30000000D03*
X28000000Y-10000000D03*
X28000000Y-15000000D03*
X27000000Y-15000000D03*
X28000000Y-30000000D03*
X24000000Y-30000000D03*
X24000000Y-10000000D03*
X25000000Y-15000000D03*
X27000000Y-45000000D03*
X25000000Y-40000000D03*
X26000000Y-35000000D03*
X27000000Y-35000000D03*
X28000000Y-35000000D03*
X25000000Y-45000000D03*
X23000000Y-40000000D03*
X24000000Y-40000000D03*
X28000000Y-40000000D03*
X23000000Y-35000000D03*
X27000000Y-40000000D03*
X25000000Y-35000000D03*
X26000000Y-40000000D03*
X24000000Y-35000000D03*
X26000000Y-45000000D03*
X24000000Y-45000000D03*
D27*
X49530000Y37465000D02*
X57150000Y37465000D01*
X57150000Y20613680D02*
X57150000Y12700000D01*
X55515000Y22248680D02*
X57150000Y20613680D01*
X55515000Y24370000D02*
X55515000Y22248680D01*
X57150000Y12700000D02*
X57150000Y13970000D01*
X57150000Y12700000D02*
X57150000Y11430000D01*
X31115000Y13970000D02*
X29845000Y15240000D01*
X29845000Y15240000D02*
X29845000Y19050000D01*
X27200000Y31750000D02*
X25400000Y31750000D01*
X30861000Y30099000D02*
X28851000Y30099000D01*
X28851000Y30099000D02*
X27200000Y31750000D01*
X30861000Y31634488D02*
X30861000Y30099000D01*
X31115000Y31888488D02*
X30861000Y31634488D01*
X31115000Y33020000D02*
X31115000Y31888488D01*
X22225000Y12065000D02*
X22225000Y14224000D01*
X23241000Y15240000D02*
X29845000Y15240000D01*
X22225000Y14224000D02*
X23241000Y15240000D01*
X54221320Y20955000D02*
X55515000Y22248680D01*
X46355000Y20955000D02*
X54221320Y20955000D01*
X32131000Y28829000D02*
X30861000Y30099000D01*
X32131000Y20955000D02*
X32131000Y28829000D01*
X30226000Y19050000D02*
X32131000Y20955000D01*
X29845000Y19050000D02*
X30226000Y19050000D01*
X9515000Y27930000D02*
X9525000Y27940000D01*
X9515000Y24370000D02*
X9515000Y27930000D01*
X19050000Y13501840D02*
X17946840Y14605000D01*
X19050000Y12065000D02*
X19050000Y13501840D01*
X17946840Y14605000D02*
X12065000Y14605000D01*
X9515000Y17155000D02*
X9515000Y24370000D01*
X12065000Y14605000D02*
X9515000Y17155000D01*
X10900000Y31750000D02*
X12700000Y31750000D01*
X9525000Y33125000D02*
X10900000Y31750000D01*
X9525000Y37338000D02*
X9525000Y33125000D01*
X13970000Y19685000D02*
X15875000Y19685000D01*
X12700000Y31750000D02*
X12700000Y20955000D01*
X12700000Y20955000D02*
X13970000Y19685000D01*
X37465000Y31750000D02*
X36195000Y33020000D01*
X37465000Y26670000D02*
X37465000Y31750000D01*
X35322000Y26670000D02*
X37465000Y26670000D01*
X34163000Y25511000D02*
X35322000Y26670000D01*
X34163000Y16002000D02*
X34163000Y25511000D01*
X36195000Y13970000D02*
X34163000Y16002000D01*
X46355000Y23495000D02*
X46355000Y27305000D01*
X46355000Y27471840D02*
X46355000Y27305000D01*
X47458160Y28575000D02*
X46355000Y27471840D01*
X48895000Y28575000D02*
X47458160Y28575000D01*
X19050000Y19685000D02*
X22225000Y19685000D01*
X27702000Y21590000D02*
X26432000Y22860000D01*
X29845000Y21590000D02*
X27702000Y21590000D01*
X26432000Y22860000D02*
X23495000Y22860000D01*
X23495000Y22860000D02*
X22225000Y21590000D01*
X22225000Y21590000D02*
X22225000Y19685000D01*
X37385000Y-1390000D02*
X37385000Y-312370D01*
X49530000Y32385000D02*
X57150000Y32385000D01*
X33655000Y36691512D02*
X34936488Y37973000D01*
X33655000Y35560000D02*
X33655000Y36691512D01*
X43942000Y37973000D02*
X49530000Y32385000D01*
X34936488Y37973000D02*
X43942000Y37973000D01*
X44196000Y32385000D02*
X49530000Y32385000D01*
X44196000Y17526000D02*
X44196000Y32385000D01*
X36703000Y10033000D02*
X44196000Y17526000D01*
X10414000Y10033000D02*
X36703000Y10033000D01*
X9525000Y9144000D02*
X10414000Y10033000D01*
X9525000Y5080000D02*
X9525000Y9144000D01*
X6985000Y5080000D02*
X6985000Y8890000D01*
X6985000Y8890000D02*
X10160000Y12065000D01*
X10160000Y12065000D02*
X15875000Y12065000D01*
X39608000Y21590000D02*
X41275000Y23257000D01*
X37465000Y21590000D02*
X39608000Y21590000D01*
X41275000Y23257000D02*
X41275000Y28575000D01*
X38735000Y35560000D02*
X36195000Y35560000D01*
X41275000Y28575000D02*
X41275000Y33020000D01*
X41275000Y33020000D02*
X38735000Y35560000D01*
X37465000Y19050000D02*
X41275000Y19050000D01*
X41275000Y11430000D02*
X47150000Y11430000D01*
D28*
G36*
X58940621Y39509494D02*
G01*
X59229965Y39465571D01*
X59508477Y39394276D01*
X59775151Y39297021D01*
X60028789Y39175168D01*
X60268016Y39030105D01*
X60491410Y38863228D01*
X60697465Y38675991D01*
X60884673Y38469886D01*
X61051517Y38246449D01*
X61196557Y38007164D01*
X61318382Y37753489D01*
X61415617Y37486770D01*
X61486901Y37208196D01*
X61530814Y36918820D01*
X61546696Y36602200D01*
X61546695Y4318110D01*
X61530814Y4001510D01*
X61486901Y3712133D01*
X61415617Y3433560D01*
X61318378Y3166835D01*
X61196558Y2913167D01*
X61051517Y2673883D01*
X60884674Y2450445D01*
X60697463Y2244336D01*
X60491413Y2057104D01*
X60268011Y1890221D01*
X60028780Y1745156D01*
X59775159Y1623311D01*
X59508480Y1526053D01*
X59229965Y1454758D01*
X58940621Y1410835D01*
X58664927Y1397000D01*
X33537758Y1397000D01*
X33529128Y1398061D01*
X33514820Y1397000D01*
X31448906Y1397000D01*
X31434595Y1398063D01*
X31425940Y1397000D01*
X6298727Y1397000D01*
X6023034Y1410835D01*
X5733689Y1454758D01*
X5455178Y1526052D01*
X5188499Y1623310D01*
X4934870Y1745158D01*
X4695645Y1890219D01*
X4472245Y2057102D01*
X4266192Y2244336D01*
X4078985Y2450442D01*
X3912139Y2673882D01*
X3767099Y2913166D01*
X3645274Y3166842D01*
X3548038Y3433563D01*
X3476753Y3712135D01*
X3432841Y4001510D01*
X3416960Y4318110D01*
X3416960Y5242609D01*
X5334000Y5242609D01*
X5334000Y4917391D01*
X5397447Y4598421D01*
X5521903Y4297958D01*
X5702585Y4027549D01*
X5932549Y3797585D01*
X6202958Y3616903D01*
X6503421Y3492447D01*
X6822391Y3429000D01*
X7147609Y3429000D01*
X7466579Y3492447D01*
X7767042Y3616903D01*
X8037451Y3797585D01*
X8255000Y4015134D01*
X8472549Y3797585D01*
X8742958Y3616903D01*
X9043421Y3492447D01*
X9362391Y3429000D01*
X9687609Y3429000D01*
X10006579Y3492447D01*
X10307042Y3616903D01*
X10577451Y3797585D01*
X10807415Y4027549D01*
X10988097Y4297958D01*
X11112553Y4598421D01*
X11176000Y4917391D01*
X11176000Y5242609D01*
X11112553Y5561579D01*
X10988097Y5862042D01*
X10807415Y6132451D01*
X10660000Y6279866D01*
X10660000Y8673869D01*
X10884132Y8898000D01*
X36647249Y8898000D01*
X36703000Y8892509D01*
X36758751Y8898000D01*
X36758752Y8898000D01*
X36925499Y8914423D01*
X37139447Y8979324D01*
X37336623Y9084716D01*
X37509449Y9226551D01*
X37544996Y9269865D01*
X39624000Y11348869D01*
X39624000Y11267391D01*
X39687447Y10948421D01*
X39811903Y10647958D01*
X39992585Y10377549D01*
X40222549Y10147585D01*
X40492958Y9966903D01*
X40793421Y9842447D01*
X41112391Y9779000D01*
X41437609Y9779000D01*
X41756579Y9842447D01*
X42057042Y9966903D01*
X42327451Y10147585D01*
X42474866Y10295000D01*
X45559048Y10295000D01*
X45603463Y10211906D01*
X45682815Y10115215D01*
X45779506Y10035863D01*
X45889820Y9976898D01*
X46009518Y9940588D01*
X46134000Y9928328D01*
X48166000Y9928328D01*
X48290482Y9940588D01*
X48410180Y9976898D01*
X48520494Y10035863D01*
X48617185Y10115215D01*
X48696537Y10211906D01*
X48755502Y10322220D01*
X48791812Y10441918D01*
X48804072Y10566400D01*
X48804072Y11070974D01*
X55542642Y11070974D01*
X55545291Y11055211D01*
X55646314Y10779081D01*
X55799267Y10527965D01*
X55998271Y10311514D01*
X56235679Y10138046D01*
X56502367Y10014227D01*
X56788086Y9944815D01*
X57023000Y10089075D01*
X57023000Y11303000D01*
X57277000Y11303000D01*
X57277000Y10089075D01*
X57511914Y9944815D01*
X57797633Y10014227D01*
X58064321Y10138046D01*
X58301729Y10311514D01*
X58500733Y10527965D01*
X58653686Y10779081D01*
X58754709Y11055211D01*
X58757358Y11070974D01*
X58636217Y11303000D01*
X57277000Y11303000D01*
X57023000Y11303000D01*
X55663783Y11303000D01*
X55542642Y11070974D01*
X48804072Y11070974D01*
X48804072Y12293600D01*
X48796794Y12367500D01*
X55831873Y12367500D01*
X55799267Y12332035D01*
X55646314Y12080919D01*
X55545291Y11804789D01*
X55542642Y11789026D01*
X55663783Y11557000D01*
X57023000Y11557000D01*
X57023000Y12770925D01*
X57277000Y12770925D01*
X57277000Y11557000D01*
X58636217Y11557000D01*
X58757358Y11789026D01*
X58754709Y11804789D01*
X58653686Y12080919D01*
X58500733Y12332035D01*
X58301729Y12548486D01*
X58064321Y12721954D01*
X57797633Y12845773D01*
X57511914Y12915185D01*
X57277000Y12770925D01*
X57023000Y12770925D01*
X56788086Y12915185D01*
X56502367Y12845773D01*
X56235679Y12721954D01*
X55998271Y12548486D01*
X55940953Y12486143D01*
X55940953Y15387500D01*
X45659048Y15387500D01*
X45659048Y12715825D01*
X45603463Y12648094D01*
X45559048Y12565000D01*
X42474866Y12565000D01*
X42327451Y12712415D01*
X42057042Y12893097D01*
X41756579Y13017553D01*
X41437609Y13081000D01*
X41356132Y13081000D01*
X44959141Y16684009D01*
X45002449Y16719551D01*
X45144284Y16892377D01*
X45249676Y17089553D01*
X45314577Y17303501D01*
X45331000Y17470248D01*
X45331000Y17470255D01*
X45336490Y17525999D01*
X45331000Y17581743D01*
X45331000Y19751392D01*
X45433071Y19853463D01*
X45523098Y19593919D01*
X45804616Y19457776D01*
X46107286Y19379171D01*
X46419474Y19361123D01*
X46729185Y19404328D01*
X47024516Y19507123D01*
X47186902Y19593919D01*
X47276930Y19853465D01*
X46355000Y20775395D01*
X46340858Y20761252D01*
X46161253Y20940857D01*
X46175395Y20955000D01*
X46534605Y20955000D01*
X47456535Y20033070D01*
X47716081Y20123098D01*
X47852224Y20404616D01*
X47930829Y20707286D01*
X47948877Y21019474D01*
X47905672Y21329185D01*
X47802877Y21624516D01*
X47716081Y21786902D01*
X47456535Y21876930D01*
X46534605Y20955000D01*
X46175395Y20955000D01*
X46161253Y20969142D01*
X46340858Y21148747D01*
X46355000Y21134605D01*
X47276930Y22056535D01*
X47236039Y22174422D01*
X47366972Y22261908D01*
X47370549Y22265485D01*
X47411963Y22188006D01*
X47491315Y22091315D01*
X47588006Y22011963D01*
X47698320Y21952998D01*
X47818018Y21916688D01*
X47942500Y21904428D01*
X49847500Y21904428D01*
X49971982Y21916688D01*
X50091680Y21952998D01*
X50201994Y22011963D01*
X50298685Y22091315D01*
X50378037Y22188006D01*
X50437002Y22298320D01*
X50473312Y22418018D01*
X50485572Y22542500D01*
X50485572Y22870000D01*
X53376928Y22870000D01*
X53389188Y22745518D01*
X53425498Y22625820D01*
X53484463Y22515506D01*
X53563815Y22418815D01*
X53660506Y22339463D01*
X53770820Y22280498D01*
X53890518Y22244188D01*
X54015000Y22231928D01*
X55229250Y22235000D01*
X55388000Y22393750D01*
X55388000Y24243000D01*
X55642000Y24243000D01*
X55642000Y22393750D01*
X55800750Y22235000D01*
X57015000Y22231928D01*
X57139482Y22244188D01*
X57259180Y22280498D01*
X57369494Y22339463D01*
X57466185Y22418815D01*
X57545537Y22515506D01*
X57604502Y22625820D01*
X57640812Y22745518D01*
X57653072Y22870000D01*
X57650000Y24084250D01*
X57491250Y24243000D01*
X55642000Y24243000D01*
X55388000Y24243000D01*
X53538750Y24243000D01*
X53380000Y24084250D01*
X53376928Y22870000D01*
X50485572Y22870000D01*
X50485572Y24447500D01*
X50473312Y24571982D01*
X50437002Y24691680D01*
X50378037Y24801994D01*
X50298685Y24898685D01*
X50201994Y24978037D01*
X50091680Y25037002D01*
X49971982Y25073312D01*
X49847500Y25085572D01*
X47942500Y25085572D01*
X47818018Y25073312D01*
X47698320Y25037002D01*
X47588006Y24978037D01*
X47491315Y24898685D01*
X47490000Y24897083D01*
X47490000Y25870000D01*
X53376928Y25870000D01*
X53380000Y24655750D01*
X53538750Y24497000D01*
X55388000Y24497000D01*
X55388000Y26346250D01*
X55642000Y26346250D01*
X55642000Y24497000D01*
X57491250Y24497000D01*
X57650000Y24655750D01*
X57653072Y25870000D01*
X57640812Y25994482D01*
X57604502Y26114180D01*
X57545537Y26224494D01*
X57466185Y26321185D01*
X57369494Y26400537D01*
X57259180Y26459502D01*
X57139482Y26495812D01*
X57015000Y26508072D01*
X55800750Y26505000D01*
X55642000Y26346250D01*
X55388000Y26346250D01*
X55229250Y26505000D01*
X54015000Y26508072D01*
X53890518Y26495812D01*
X53770820Y26459502D01*
X53660506Y26400537D01*
X53563815Y26321185D01*
X53484463Y26224494D01*
X53425498Y26114180D01*
X53389188Y25994482D01*
X53376928Y25870000D01*
X47490000Y25870000D01*
X47490000Y27001709D01*
X47811713Y27323421D01*
X47842549Y27292585D01*
X48112958Y27111903D01*
X48413421Y26987447D01*
X48732391Y26924000D01*
X49057609Y26924000D01*
X49376579Y26987447D01*
X49677042Y27111903D01*
X49947451Y27292585D01*
X50177415Y27522549D01*
X50358097Y27792958D01*
X50482553Y28093421D01*
X50546000Y28412391D01*
X50546000Y28737609D01*
X50482553Y29056579D01*
X50358097Y29357042D01*
X50177415Y29627451D01*
X49947451Y29857415D01*
X49677042Y30038097D01*
X49376579Y30162553D01*
X49057609Y30226000D01*
X48732391Y30226000D01*
X48413421Y30162553D01*
X48112958Y30038097D01*
X47842549Y29857415D01*
X47695134Y29710000D01*
X47513912Y29710000D01*
X47458160Y29715491D01*
X47402408Y29710000D01*
X47235661Y29693577D01*
X47021713Y29628676D01*
X46824537Y29523284D01*
X46651711Y29381449D01*
X46616168Y29338140D01*
X45591864Y28313836D01*
X45548551Y28278289D01*
X45406716Y28105463D01*
X45331000Y27963807D01*
X45331000Y31250000D01*
X48330134Y31250000D01*
X48477549Y31102585D01*
X48747958Y30921903D01*
X49048421Y30797447D01*
X49367391Y30734000D01*
X49692609Y30734000D01*
X50011579Y30797447D01*
X50312042Y30921903D01*
X50582451Y31102585D01*
X50729866Y31250000D01*
X55950134Y31250000D01*
X56097549Y31102585D01*
X56367958Y30921903D01*
X56668421Y30797447D01*
X56987391Y30734000D01*
X57312609Y30734000D01*
X57631579Y30797447D01*
X57932042Y30921903D01*
X58202451Y31102585D01*
X58432415Y31332549D01*
X58613097Y31602958D01*
X58737553Y31903421D01*
X58801000Y32222391D01*
X58801000Y32547609D01*
X58737553Y32866579D01*
X58613097Y33167042D01*
X58432415Y33437451D01*
X58202451Y33667415D01*
X57932042Y33848097D01*
X57631579Y33972553D01*
X57312609Y34036000D01*
X56987391Y34036000D01*
X56668421Y33972553D01*
X56367958Y33848097D01*
X56097549Y33667415D01*
X55950134Y33520000D01*
X50729866Y33520000D01*
X50582451Y33667415D01*
X50312042Y33848097D01*
X50011579Y33972553D01*
X49692609Y34036000D01*
X49484132Y34036000D01*
X47201955Y36318177D01*
X48562782Y36318177D01*
X48660478Y36052140D01*
X48952821Y35909652D01*
X49267344Y35826936D01*
X49591962Y35807169D01*
X49914198Y35851112D01*
X50221670Y35957076D01*
X50399522Y36052140D01*
X50497218Y36318177D01*
X56182782Y36318177D01*
X56280478Y36052140D01*
X56572821Y35909652D01*
X56887344Y35826936D01*
X57211962Y35807169D01*
X57534198Y35851112D01*
X57841670Y35957076D01*
X58019522Y36052140D01*
X58117218Y36318177D01*
X57150000Y37285395D01*
X56182782Y36318177D01*
X50497218Y36318177D01*
X49530000Y37285395D01*
X48562782Y36318177D01*
X47201955Y36318177D01*
X46117094Y37403038D01*
X47872169Y37403038D01*
X47916112Y37080802D01*
X48022076Y36773330D01*
X48117140Y36595478D01*
X48383177Y36497782D01*
X49350395Y37465000D01*
X49709605Y37465000D01*
X50676823Y36497782D01*
X50942860Y36595478D01*
X51085348Y36887821D01*
X51168064Y37202344D01*
X51180284Y37403038D01*
X55492169Y37403038D01*
X55536112Y37080802D01*
X55642076Y36773330D01*
X55737140Y36595478D01*
X56003177Y36497782D01*
X56970395Y37465000D01*
X57329605Y37465000D01*
X58296823Y36497782D01*
X58562860Y36595478D01*
X58705348Y36887821D01*
X58788064Y37202344D01*
X58807831Y37526962D01*
X58763888Y37849198D01*
X58657924Y38156670D01*
X58562860Y38334522D01*
X58296823Y38432218D01*
X57329605Y37465000D01*
X56970395Y37465000D01*
X56003177Y38432218D01*
X55737140Y38334522D01*
X55594652Y38042179D01*
X55511936Y37727656D01*
X55492169Y37403038D01*
X51180284Y37403038D01*
X51187831Y37526962D01*
X51143888Y37849198D01*
X51037924Y38156670D01*
X50942860Y38334522D01*
X50676823Y38432218D01*
X49709605Y37465000D01*
X49350395Y37465000D01*
X48383177Y38432218D01*
X48117140Y38334522D01*
X47974652Y38042179D01*
X47891936Y37727656D01*
X47872169Y37403038D01*
X46117094Y37403038D01*
X44908309Y38611823D01*
X48562782Y38611823D01*
X49530000Y37644605D01*
X50497218Y38611823D01*
X56182782Y38611823D01*
X57150000Y37644605D01*
X58117218Y38611823D01*
X58019522Y38877860D01*
X57727179Y39020348D01*
X57412656Y39103064D01*
X57088038Y39122831D01*
X56765802Y39078888D01*
X56458330Y38972924D01*
X56280478Y38877860D01*
X56182782Y38611823D01*
X50497218Y38611823D01*
X50399522Y38877860D01*
X50107179Y39020348D01*
X49792656Y39103064D01*
X49468038Y39122831D01*
X49145802Y39078888D01*
X48838330Y38972924D01*
X48660478Y38877860D01*
X48562782Y38611823D01*
X44908309Y38611823D01*
X44783996Y38736135D01*
X44748449Y38779449D01*
X44575623Y38921284D01*
X44378447Y39026676D01*
X44164499Y39091577D01*
X43997752Y39108000D01*
X43997751Y39108000D01*
X43942000Y39113491D01*
X43886249Y39108000D01*
X34992240Y39108000D01*
X34936488Y39113491D01*
X34880736Y39108000D01*
X34766187Y39096718D01*
X34713989Y39091577D01*
X34500041Y39026676D01*
X34302865Y38921284D01*
X34173344Y38814989D01*
X34173343Y38814988D01*
X34130039Y38779449D01*
X34094501Y38736146D01*
X32891860Y37533503D01*
X32848552Y37497961D01*
X32706717Y37325135D01*
X32601324Y37127959D01*
X32536423Y36914011D01*
X32524609Y36794059D01*
X32514509Y36691512D01*
X32520000Y36635761D01*
X32520000Y36444464D01*
X32385000Y36242422D01*
X32229715Y36474823D01*
X32029823Y36674715D01*
X31794775Y36831769D01*
X31533603Y36939950D01*
X31256345Y36995100D01*
X30973655Y36995100D01*
X30696397Y36939950D01*
X30435225Y36831769D01*
X30200177Y36674715D01*
X30000285Y36474823D01*
X29843231Y36239775D01*
X29735050Y35978603D01*
X29679900Y35701345D01*
X29679900Y35418655D01*
X29735050Y35141397D01*
X29843231Y34880225D01*
X30000285Y34645177D01*
X30200177Y34445285D01*
X30433932Y34289095D01*
X30373426Y34256754D01*
X30301831Y34012774D01*
X31115000Y33199605D01*
X31928169Y34012774D01*
X31856574Y34256754D01*
X31792256Y34287188D01*
X31794775Y34288231D01*
X32029823Y34445285D01*
X32229715Y34645177D01*
X32385000Y34877578D01*
X32540285Y34645177D01*
X32740177Y34445285D01*
X32972578Y34290000D01*
X32740177Y34134715D01*
X32540285Y33934823D01*
X32384095Y33701068D01*
X32351754Y33761574D01*
X32107774Y33833169D01*
X31294605Y33020000D01*
X32107774Y32206831D01*
X32351754Y32278426D01*
X32382188Y32342744D01*
X32383231Y32340225D01*
X32540285Y32105177D01*
X32740177Y31905285D01*
X32975225Y31748231D01*
X33236397Y31640050D01*
X33513655Y31584900D01*
X33796345Y31584900D01*
X34073603Y31640050D01*
X34334775Y31748231D01*
X34569823Y31905285D01*
X34769715Y32105177D01*
X34925000Y32337578D01*
X35080285Y32105177D01*
X35280177Y31905285D01*
X35515225Y31748231D01*
X35776397Y31640050D01*
X36017846Y31592023D01*
X36330001Y31279867D01*
X36330000Y27866245D01*
X36315333Y27858405D01*
X36250259Y27805000D01*
X35377752Y27805000D01*
X35322000Y27810491D01*
X35266248Y27805000D01*
X35099501Y27788577D01*
X34885553Y27723676D01*
X34688377Y27618284D01*
X34558856Y27511989D01*
X34558854Y27511987D01*
X34515551Y27476449D01*
X34480013Y27433146D01*
X33399860Y26352991D01*
X33356552Y26317449D01*
X33214717Y26144623D01*
X33158384Y26039230D01*
X33109324Y25947446D01*
X33044423Y25733498D01*
X33022509Y25511000D01*
X33028001Y25455239D01*
X33028000Y16057752D01*
X33022509Y16002000D01*
X33028000Y15946249D01*
X33044423Y15779502D01*
X33109324Y15565554D01*
X33214716Y15368377D01*
X33356551Y15195551D01*
X33399865Y15160004D01*
X34607500Y13952368D01*
X34607500Y13813645D01*
X34668507Y13506943D01*
X34788176Y13218037D01*
X34961908Y12958028D01*
X35183028Y12736908D01*
X35443037Y12563176D01*
X35731943Y12443507D01*
X36038645Y12382500D01*
X36351355Y12382500D01*
X36658057Y12443507D01*
X36946963Y12563176D01*
X37206972Y12736908D01*
X37428092Y12958028D01*
X37601824Y13218037D01*
X37721493Y13506943D01*
X37782500Y13813645D01*
X37782500Y14126355D01*
X37721493Y14433057D01*
X37601824Y14721963D01*
X37428092Y14981972D01*
X37206972Y15203092D01*
X36946963Y15376824D01*
X36658057Y15496493D01*
X36351355Y15557500D01*
X36212632Y15557500D01*
X35298000Y16472131D01*
X35298000Y25040868D01*
X35792132Y25535000D01*
X36250259Y25535000D01*
X36315333Y25481595D01*
X36467987Y25400000D01*
X36315333Y25318405D01*
X36098745Y25140655D01*
X35920995Y24924067D01*
X35788916Y24676963D01*
X35707581Y24408839D01*
X35680118Y24130000D01*
X35707581Y23851161D01*
X35788916Y23583037D01*
X35920995Y23335933D01*
X36098745Y23119345D01*
X36315333Y22941595D01*
X36467987Y22860000D01*
X36315333Y22778405D01*
X36098745Y22600655D01*
X35920995Y22384067D01*
X35788916Y22136963D01*
X35707581Y21868839D01*
X35680118Y21590000D01*
X35707581Y21311161D01*
X35788916Y21043037D01*
X35920995Y20795933D01*
X36098745Y20579345D01*
X36315333Y20401595D01*
X36467987Y20320000D01*
X36315333Y20238405D01*
X36098745Y20060655D01*
X35920995Y19844067D01*
X35788916Y19596963D01*
X35707581Y19328839D01*
X35680118Y19050000D01*
X35707581Y18771161D01*
X35788916Y18503037D01*
X35920995Y18255933D01*
X36098745Y18039345D01*
X36315333Y17861595D01*
X36562437Y17729516D01*
X36830561Y17648181D01*
X37039525Y17627600D01*
X37890475Y17627600D01*
X38099439Y17648181D01*
X38367563Y17729516D01*
X38614667Y17861595D01*
X38679741Y17915000D01*
X40075134Y17915000D01*
X40222549Y17767585D01*
X40492958Y17586903D01*
X40793421Y17462447D01*
X41112391Y17399000D01*
X41437609Y17399000D01*
X41756579Y17462447D01*
X42057042Y17586903D01*
X42327451Y17767585D01*
X42557415Y17997549D01*
X42738097Y18267958D01*
X42862553Y18568421D01*
X42926000Y18887391D01*
X42926000Y19212609D01*
X42862553Y19531579D01*
X42738097Y19832042D01*
X42557415Y20102451D01*
X42327451Y20332415D01*
X42057042Y20513097D01*
X41756579Y20637553D01*
X41437609Y20701000D01*
X41112391Y20701000D01*
X40793421Y20637553D01*
X40492958Y20513097D01*
X40222549Y20332415D01*
X40075134Y20185000D01*
X38679741Y20185000D01*
X38614667Y20238405D01*
X38462013Y20320000D01*
X38614667Y20401595D01*
X38679741Y20455000D01*
X39552249Y20455000D01*
X39608000Y20449509D01*
X39663751Y20455000D01*
X39663752Y20455000D01*
X39830499Y20471423D01*
X40044447Y20536324D01*
X40241623Y20641716D01*
X40414449Y20783551D01*
X40449996Y20826865D01*
X42038140Y22415009D01*
X42081449Y22450551D01*
X42223284Y22623377D01*
X42328676Y22820553D01*
X42393577Y23034501D01*
X42410000Y23201248D01*
X42410000Y23201249D01*
X42415491Y23256999D01*
X42410000Y23312751D01*
X42410000Y27375134D01*
X42557415Y27522549D01*
X42738097Y27792958D01*
X42862553Y28093421D01*
X42926000Y28412391D01*
X42926000Y28737609D01*
X42862553Y29056579D01*
X42738097Y29357042D01*
X42557415Y29627451D01*
X42410000Y29774866D01*
X42410000Y32964259D01*
X42415490Y33020001D01*
X42410000Y33075743D01*
X42410000Y33075752D01*
X42393577Y33242499D01*
X42328676Y33456447D01*
X42223284Y33653623D01*
X42081449Y33826449D01*
X42038141Y33861991D01*
X39576996Y36323135D01*
X39541449Y36366449D01*
X39368623Y36508284D01*
X39171447Y36613676D01*
X38957499Y36678577D01*
X38790752Y36695000D01*
X38790751Y36695000D01*
X38735000Y36700491D01*
X38679249Y36695000D01*
X37536110Y36695000D01*
X37525637Y36714594D01*
X37446285Y36811285D01*
X37413733Y36838000D01*
X43471869Y36838000D01*
X46789868Y33520000D01*
X44251752Y33520000D01*
X44196000Y33525491D01*
X44140249Y33520000D01*
X44140248Y33520000D01*
X43973501Y33503577D01*
X43759553Y33438676D01*
X43562377Y33333284D01*
X43389551Y33191449D01*
X43247716Y33018623D01*
X43142324Y32821447D01*
X43077423Y32607499D01*
X43055509Y32385000D01*
X43061001Y32329238D01*
X43061000Y17996132D01*
X36232869Y11168000D01*
X26786284Y11168000D01*
X26863097Y11282958D01*
X26987553Y11583421D01*
X27051000Y11902391D01*
X27051000Y12227609D01*
X26987553Y12546579D01*
X26863097Y12847042D01*
X26848783Y12868465D01*
X30193070Y12868465D01*
X30283098Y12608919D01*
X30564616Y12472776D01*
X30867286Y12394171D01*
X31179474Y12376123D01*
X31489185Y12419328D01*
X31784516Y12522123D01*
X31946902Y12608919D01*
X32036930Y12868465D01*
X31115000Y13790395D01*
X30193070Y12868465D01*
X26848783Y12868465D01*
X26682415Y13117451D01*
X26452451Y13347415D01*
X26182042Y13528097D01*
X25881579Y13652553D01*
X25562609Y13716000D01*
X25237391Y13716000D01*
X24918421Y13652553D01*
X24617958Y13528097D01*
X24347549Y13347415D01*
X24117585Y13117451D01*
X23936903Y12847042D01*
X23812447Y12546579D01*
X23809842Y12533481D01*
X23732924Y12756670D01*
X23637860Y12934522D01*
X23371823Y13032218D01*
X22404605Y12065000D01*
X22418748Y12050857D01*
X22239143Y11871252D01*
X22225000Y11885395D01*
X22210858Y11871252D01*
X22031253Y12050857D01*
X22045395Y12065000D01*
X21078177Y13032218D01*
X20812140Y12934522D01*
X20669652Y12642179D01*
X20640549Y12531517D01*
X20637553Y12546579D01*
X20513097Y12847042D01*
X20332415Y13117451D01*
X20238043Y13211823D01*
X21257782Y13211823D01*
X22225000Y12244605D01*
X23192218Y13211823D01*
X23094522Y13477860D01*
X22802179Y13620348D01*
X22487656Y13703064D01*
X22163038Y13722831D01*
X21840802Y13678888D01*
X21533330Y13572924D01*
X21355478Y13477860D01*
X21257782Y13211823D01*
X20238043Y13211823D01*
X20185000Y13264866D01*
X20185000Y13446088D01*
X20190491Y13501840D01*
X20168577Y13724339D01*
X20113615Y13905526D01*
X29521123Y13905526D01*
X29564328Y13595815D01*
X29667123Y13300484D01*
X29753919Y13138098D01*
X30013465Y13048070D01*
X30935395Y13970000D01*
X31294605Y13970000D01*
X32216535Y13048070D01*
X32476081Y13138098D01*
X32612224Y13419616D01*
X32690829Y13722286D01*
X32708877Y14034474D01*
X32665672Y14344185D01*
X32562877Y14639516D01*
X32476081Y14801902D01*
X32216535Y14891930D01*
X31294605Y13970000D01*
X30935395Y13970000D01*
X30013465Y14891930D01*
X29753919Y14801902D01*
X29617776Y14520384D01*
X29539171Y14217714D01*
X29521123Y13905526D01*
X20113615Y13905526D01*
X20103676Y13938287D01*
X19998284Y14135463D01*
X19971127Y14168554D01*
X19856449Y14308289D01*
X19813140Y14343832D01*
X19085437Y15071535D01*
X30193070Y15071535D01*
X31115000Y14149605D01*
X32036930Y15071535D01*
X31946902Y15331081D01*
X31665384Y15467224D01*
X31362714Y15545829D01*
X31050526Y15563877D01*
X30740815Y15520672D01*
X30445484Y15417877D01*
X30283098Y15331081D01*
X30193070Y15071535D01*
X19085437Y15071535D01*
X18788836Y15368136D01*
X18753289Y15411449D01*
X18580463Y15553284D01*
X18383287Y15658676D01*
X18169339Y15723577D01*
X18002592Y15740000D01*
X18002591Y15740000D01*
X17946840Y15745491D01*
X17891089Y15740000D01*
X12535133Y15740000D01*
X10650000Y17625131D01*
X10650000Y22231928D01*
X11015000Y22231928D01*
X11139482Y22244188D01*
X11259180Y22280498D01*
X11369494Y22339463D01*
X11466185Y22418815D01*
X11545537Y22515506D01*
X11565001Y22551920D01*
X11565001Y21010761D01*
X11559509Y20955000D01*
X11581423Y20732502D01*
X11646324Y20518554D01*
X11683959Y20448144D01*
X11751717Y20321377D01*
X11893552Y20148551D01*
X11936860Y20113009D01*
X13128008Y18921860D01*
X13163551Y18878551D01*
X13336377Y18736716D01*
X13533553Y18631324D01*
X13697705Y18581529D01*
X13747500Y18566423D01*
X13768493Y18564356D01*
X13914248Y18550000D01*
X13914255Y18550000D01*
X13969999Y18544510D01*
X14025743Y18550000D01*
X14675134Y18550000D01*
X14822549Y18402585D01*
X15092958Y18221903D01*
X15393421Y18097447D01*
X15712391Y18034000D01*
X16037609Y18034000D01*
X16356579Y18097447D01*
X16657042Y18221903D01*
X16927451Y18402585D01*
X17157415Y18632549D01*
X17338097Y18902958D01*
X17462500Y19203293D01*
X17586903Y18902958D01*
X17767585Y18632549D01*
X17997549Y18402585D01*
X18267958Y18221903D01*
X18568421Y18097447D01*
X18887391Y18034000D01*
X19212609Y18034000D01*
X19531579Y18097447D01*
X19832042Y18221903D01*
X20102451Y18402585D01*
X20249866Y18550000D01*
X21025134Y18550000D01*
X21172549Y18402585D01*
X21442958Y18221903D01*
X21743421Y18097447D01*
X22062391Y18034000D01*
X22387609Y18034000D01*
X22706579Y18097447D01*
X23007042Y18221903D01*
X23277451Y18402585D01*
X23507415Y18632549D01*
X23688097Y18902958D01*
X23812500Y19203293D01*
X23936903Y18902958D01*
X24117585Y18632549D01*
X24347549Y18402585D01*
X24617958Y18221903D01*
X24918421Y18097447D01*
X25237391Y18034000D01*
X25562609Y18034000D01*
X25881579Y18097447D01*
X26182042Y18221903D01*
X26452451Y18402585D01*
X26682415Y18632549D01*
X26729448Y18702940D01*
X28109990Y18702940D01*
X28126672Y18623004D01*
X28236159Y18365354D01*
X28393808Y18134014D01*
X28593560Y17937875D01*
X28827738Y17784474D01*
X29087344Y17679707D01*
X29362400Y17627600D01*
X29718000Y17627600D01*
X29718000Y18923000D01*
X29972000Y18923000D01*
X29972000Y17627600D01*
X30327600Y17627600D01*
X30602656Y17679707D01*
X30862262Y17784474D01*
X31096440Y17937875D01*
X31296192Y18134014D01*
X31453841Y18365354D01*
X31563328Y18623004D01*
X31580010Y18702940D01*
X31457852Y18923000D01*
X29972000Y18923000D01*
X29718000Y18923000D01*
X28232148Y18923000D01*
X28109990Y18702940D01*
X26729448Y18702940D01*
X26863097Y18902958D01*
X26987553Y19203421D01*
X27051000Y19522391D01*
X27051000Y19847609D01*
X26987553Y20166579D01*
X26863097Y20467042D01*
X26682415Y20737451D01*
X26452451Y20967415D01*
X26182042Y21148097D01*
X25881579Y21272553D01*
X25562609Y21336000D01*
X25237391Y21336000D01*
X24918421Y21272553D01*
X24617958Y21148097D01*
X24347549Y20967415D01*
X24117585Y20737451D01*
X23936903Y20467042D01*
X23812500Y20166707D01*
X23688097Y20467042D01*
X23507415Y20737451D01*
X23360000Y20884866D01*
X23360000Y21119869D01*
X23965132Y21725000D01*
X25961869Y21725000D01*
X26860008Y20826860D01*
X26895551Y20783551D01*
X27068377Y20641716D01*
X27265553Y20536324D01*
X27413485Y20491449D01*
X27479500Y20471423D01*
X27500493Y20469356D01*
X27646248Y20455000D01*
X27646255Y20455000D01*
X27701999Y20449510D01*
X27757743Y20455000D01*
X28630259Y20455000D01*
X28695333Y20401595D01*
X28844045Y20322107D01*
X28827738Y20315526D01*
X28593560Y20162125D01*
X28393808Y19965986D01*
X28236159Y19734646D01*
X28126672Y19476996D01*
X28109990Y19397060D01*
X28232148Y19177000D01*
X29718000Y19177000D01*
X29718000Y19197000D01*
X29972000Y19197000D01*
X29972000Y19177000D01*
X31457852Y19177000D01*
X31580010Y19397060D01*
X31563328Y19476996D01*
X31453841Y19734646D01*
X31296192Y19965986D01*
X31096440Y20162125D01*
X30862262Y20315526D01*
X30845955Y20322107D01*
X30994667Y20401595D01*
X31211255Y20579345D01*
X31389005Y20795933D01*
X31521084Y21043037D01*
X31602419Y21311161D01*
X31629882Y21590000D01*
X31602419Y21868839D01*
X31521084Y22136963D01*
X31389005Y22384067D01*
X31211255Y22600655D01*
X30994667Y22778405D01*
X30842013Y22860000D01*
X30994667Y22941595D01*
X31211255Y23119345D01*
X31389005Y23335933D01*
X31521084Y23583037D01*
X31602419Y23851161D01*
X31629882Y24130000D01*
X31602419Y24408839D01*
X31521084Y24676963D01*
X31389005Y24924067D01*
X31211255Y25140655D01*
X31074326Y25253030D01*
X31112482Y25256788D01*
X31232180Y25293098D01*
X31342494Y25352063D01*
X31439185Y25431415D01*
X31518537Y25528106D01*
X31577502Y25638420D01*
X31613812Y25758118D01*
X31626072Y25882600D01*
X31626072Y27457400D01*
X31613812Y27581882D01*
X31577502Y27701580D01*
X31518537Y27811894D01*
X31439185Y27908585D01*
X31342494Y27987937D01*
X31232180Y28046902D01*
X31112482Y28083212D01*
X30988000Y28095472D01*
X28702000Y28095472D01*
X28577518Y28083212D01*
X28457820Y28046902D01*
X28347506Y27987937D01*
X28250815Y27908585D01*
X28171463Y27811894D01*
X28112498Y27701580D01*
X28076188Y27581882D01*
X28063928Y27457400D01*
X28063928Y25882600D01*
X28076188Y25758118D01*
X28112498Y25638420D01*
X28171463Y25528106D01*
X28250815Y25431415D01*
X28347506Y25352063D01*
X28457820Y25293098D01*
X28577518Y25256788D01*
X28615674Y25253030D01*
X28478745Y25140655D01*
X28300995Y24924067D01*
X28168916Y24676963D01*
X28087581Y24408839D01*
X28060118Y24130000D01*
X28087581Y23851161D01*
X28168916Y23583037D01*
X28300995Y23335933D01*
X28478745Y23119345D01*
X28695333Y22941595D01*
X28847987Y22860000D01*
X28695333Y22778405D01*
X28630259Y22725000D01*
X28172132Y22725000D01*
X27273996Y23623135D01*
X27238449Y23666449D01*
X27065623Y23808284D01*
X26868447Y23913676D01*
X26654499Y23978577D01*
X26487752Y23995000D01*
X26487751Y23995000D01*
X26432000Y24000491D01*
X26376249Y23995000D01*
X23550743Y23995000D01*
X23494999Y24000490D01*
X23439255Y23995000D01*
X23439248Y23995000D01*
X23293493Y23980644D01*
X23272500Y23978577D01*
X23222705Y23963471D01*
X23058553Y23913676D01*
X22861377Y23808284D01*
X22688551Y23666449D01*
X22653008Y23623140D01*
X21461865Y22431996D01*
X21418551Y22396449D01*
X21276716Y22223623D01*
X21208229Y22095491D01*
X21171324Y22026446D01*
X21106423Y21812498D01*
X21084509Y21590000D01*
X21090000Y21534248D01*
X21090000Y20884866D01*
X21025134Y20820000D01*
X20249866Y20820000D01*
X20102451Y20967415D01*
X19832042Y21148097D01*
X19531579Y21272553D01*
X19212609Y21336000D01*
X18887391Y21336000D01*
X18568421Y21272553D01*
X18267958Y21148097D01*
X17997549Y20967415D01*
X17767585Y20737451D01*
X17586903Y20467042D01*
X17462500Y20166707D01*
X17338097Y20467042D01*
X17157415Y20737451D01*
X16927451Y20967415D01*
X16657042Y21148097D01*
X16356579Y21272553D01*
X16037609Y21336000D01*
X15712391Y21336000D01*
X15393421Y21272553D01*
X15092958Y21148097D01*
X14822549Y20967415D01*
X14675134Y20820000D01*
X14440132Y20820000D01*
X13835000Y21425131D01*
X13835000Y29809043D01*
X13854494Y29819463D01*
X13951185Y29898815D01*
X14030537Y29995506D01*
X14089502Y30105820D01*
X14125812Y30225518D01*
X14138072Y30350000D01*
X14138072Y31623000D01*
X23965000Y31623000D01*
X23965000Y31023000D01*
X24017350Y30745486D01*
X24122834Y30483517D01*
X24277399Y30247161D01*
X24475105Y30045500D01*
X24708354Y29886285D01*
X24968182Y29775633D01*
X25050961Y29758096D01*
X25273000Y29880085D01*
X25273000Y31623000D01*
X25527000Y31623000D01*
X25527000Y29880085D01*
X25749039Y29758096D01*
X25831818Y29775633D01*
X26091646Y29886285D01*
X26324895Y30045500D01*
X26522601Y30247161D01*
X26677166Y30483517D01*
X26782650Y30745486D01*
X26835000Y31023000D01*
X26835000Y31623000D01*
X25527000Y31623000D01*
X25273000Y31623000D01*
X23965000Y31623000D01*
X14138072Y31623000D01*
X14138072Y32477000D01*
X23965000Y32477000D01*
X23965000Y31877000D01*
X25273000Y31877000D01*
X25273000Y33619915D01*
X25527000Y33619915D01*
X25527000Y31877000D01*
X26835000Y31877000D01*
X26835000Y32027226D01*
X30301831Y32027226D01*
X30373426Y31783246D01*
X30628954Y31662336D01*
X30903161Y31593600D01*
X31185508Y31579680D01*
X31465147Y31621111D01*
X31731328Y31716300D01*
X31856574Y31783246D01*
X31928169Y32027226D01*
X31115000Y32840395D01*
X30301831Y32027226D01*
X26835000Y32027226D01*
X26835000Y32477000D01*
X26782650Y32754514D01*
X26704141Y32949492D01*
X29674680Y32949492D01*
X29716111Y32669853D01*
X29811300Y32403672D01*
X29878246Y32278426D01*
X30122226Y32206831D01*
X30935395Y33020000D01*
X30122226Y33833169D01*
X29878246Y33761574D01*
X29757336Y33506046D01*
X29688600Y33231839D01*
X29674680Y32949492D01*
X26704141Y32949492D01*
X26677166Y33016483D01*
X26522601Y33252839D01*
X26324895Y33454500D01*
X26091646Y33613715D01*
X25831818Y33724367D01*
X25749039Y33741904D01*
X25527000Y33619915D01*
X25273000Y33619915D01*
X25050961Y33741904D01*
X24968182Y33724367D01*
X24708354Y33613715D01*
X24475105Y33454500D01*
X24277399Y33252839D01*
X24122834Y33016483D01*
X24017350Y32754514D01*
X23965000Y32477000D01*
X14138072Y32477000D01*
X14138072Y33150000D01*
X14125812Y33274482D01*
X14089502Y33394180D01*
X14030537Y33504494D01*
X13951185Y33601185D01*
X13854494Y33680537D01*
X13744180Y33739502D01*
X13624482Y33775812D01*
X13500000Y33788072D01*
X11900000Y33788072D01*
X11775518Y33775812D01*
X11655820Y33739502D01*
X11545506Y33680537D01*
X11448815Y33601185D01*
X11369463Y33504494D01*
X11310498Y33394180D01*
X11274188Y33274482D01*
X11261928Y33150000D01*
X11261928Y32993204D01*
X10660000Y33595132D01*
X10660000Y35805259D01*
X10739366Y35858290D01*
X11004710Y36123634D01*
X11213189Y36435644D01*
X11356791Y36782332D01*
X11430000Y37150374D01*
X11430000Y37525626D01*
X11356791Y37893668D01*
X11213189Y38240356D01*
X11004710Y38552366D01*
X10739366Y38817710D01*
X10427356Y39026189D01*
X10080668Y39169791D01*
X9712626Y39243000D01*
X9337374Y39243000D01*
X8969332Y39169791D01*
X8622644Y39026189D01*
X8310634Y38817710D01*
X8045290Y38552366D01*
X7836811Y38240356D01*
X7693209Y37893668D01*
X7620000Y37525626D01*
X7620000Y37150374D01*
X7693209Y36782332D01*
X7836811Y36435644D01*
X8045290Y36123634D01*
X8310634Y35858290D01*
X8390000Y35805259D01*
X8390001Y33180761D01*
X8384509Y33125000D01*
X8406423Y32902502D01*
X8471324Y32688554D01*
X8520384Y32596770D01*
X8576717Y32491377D01*
X8718552Y32318551D01*
X8761860Y32283009D01*
X10058013Y30986854D01*
X10093551Y30943551D01*
X10136854Y30908013D01*
X10136856Y30908011D01*
X10266377Y30801716D01*
X10463553Y30696324D01*
X10677501Y30631423D01*
X10900000Y30609509D01*
X10955752Y30615000D01*
X11261928Y30615000D01*
X11261928Y30350000D01*
X11274188Y30225518D01*
X11310498Y30105820D01*
X11369463Y29995506D01*
X11448815Y29898815D01*
X11545506Y29819463D01*
X11565000Y29809043D01*
X11565001Y26188081D01*
X11545537Y26224494D01*
X11466185Y26321185D01*
X11369494Y26400537D01*
X11259180Y26459502D01*
X11139482Y26495812D01*
X11015000Y26508072D01*
X10787148Y26508072D01*
X11004710Y26725634D01*
X11213189Y27037644D01*
X11356791Y27384332D01*
X11430000Y27752374D01*
X11430000Y28127626D01*
X11356791Y28495668D01*
X11213189Y28842356D01*
X11004710Y29154366D01*
X10739366Y29419710D01*
X10427356Y29628189D01*
X10080668Y29771791D01*
X9712626Y29845000D01*
X9337374Y29845000D01*
X8969332Y29771791D01*
X8622644Y29628189D01*
X8310634Y29419710D01*
X8045290Y29154366D01*
X7836811Y28842356D01*
X7693209Y28495668D01*
X7620000Y28127626D01*
X7620000Y27752374D01*
X7693209Y27384332D01*
X7836811Y27037644D01*
X8045290Y26725634D01*
X8262852Y26508072D01*
X8015000Y26508072D01*
X7890518Y26495812D01*
X7770820Y26459502D01*
X7660506Y26400537D01*
X7563815Y26321185D01*
X7484463Y26224494D01*
X7425498Y26114180D01*
X7389188Y25994482D01*
X7376928Y25870000D01*
X7376928Y22870000D01*
X7389188Y22745518D01*
X7425498Y22625820D01*
X7484463Y22515506D01*
X7563815Y22418815D01*
X7660506Y22339463D01*
X7770820Y22280498D01*
X7890518Y22244188D01*
X8015000Y22231928D01*
X8380001Y22231928D01*
X8380000Y17210752D01*
X8374509Y17155000D01*
X8394672Y16950283D01*
X8396423Y16932502D01*
X8461324Y16718554D01*
X8566716Y16521377D01*
X8708551Y16348551D01*
X8751865Y16313004D01*
X11223013Y13841854D01*
X11258551Y13798551D01*
X11301854Y13763013D01*
X11301856Y13763011D01*
X11320754Y13747502D01*
X11431377Y13656716D01*
X11628553Y13551324D01*
X11842501Y13486423D01*
X11929444Y13477860D01*
X12065000Y13464509D01*
X12120752Y13470000D01*
X15006010Y13470000D01*
X14822549Y13347415D01*
X14675134Y13200000D01*
X10215751Y13200000D01*
X10159999Y13205491D01*
X10104248Y13200000D01*
X9937501Y13183577D01*
X9723553Y13118676D01*
X9526377Y13013284D01*
X9353551Y12871449D01*
X9318009Y12828141D01*
X6221860Y9731991D01*
X6178552Y9696449D01*
X6036717Y9523623D01*
X5980384Y9418230D01*
X5931324Y9326446D01*
X5866423Y9112498D01*
X5844509Y8890000D01*
X5850001Y8834239D01*
X5850000Y6279866D01*
X5702585Y6132451D01*
X5521903Y5862042D01*
X5397447Y5561579D01*
X5334000Y5242609D01*
X3416960Y5242609D01*
X3416960Y36602220D01*
X3432841Y36918820D01*
X3476753Y37208193D01*
X3548038Y37486766D01*
X3645274Y37753487D01*
X3767101Y38007168D01*
X3912139Y38246448D01*
X4078984Y38469888D01*
X4266191Y38675991D01*
X4472245Y38863227D01*
X4695645Y39030110D01*
X4934873Y39175172D01*
X5188497Y39297018D01*
X5455177Y39394277D01*
X5733689Y39465571D01*
X6023034Y39509494D01*
X6339598Y39525380D01*
X58624056Y39525380D01*
X58940621Y39509494D01*
X58940621Y39509494D01*
G37*
X58940621Y39509494D02*
X59229965Y39465571D01*
X59508477Y39394276D01*
X59775151Y39297021D01*
X60028789Y39175168D01*
X60268016Y39030105D01*
X60491410Y38863228D01*
X60697465Y38675991D01*
X60884673Y38469886D01*
X61051517Y38246449D01*
X61196557Y38007164D01*
X61318382Y37753489D01*
X61415617Y37486770D01*
X61486901Y37208196D01*
X61530814Y36918820D01*
X61546696Y36602200D01*
X61546695Y4318110D01*
X61530814Y4001510D01*
X61486901Y3712133D01*
X61415617Y3433560D01*
X61318378Y3166835D01*
X61196558Y2913167D01*
X61051517Y2673883D01*
X60884674Y2450445D01*
X60697463Y2244336D01*
X60491413Y2057104D01*
X60268011Y1890221D01*
X60028780Y1745156D01*
X59775159Y1623311D01*
X59508480Y1526053D01*
X59229965Y1454758D01*
X58940621Y1410835D01*
X58664927Y1397000D01*
X33537758Y1397000D01*
X33529128Y1398061D01*
X33514820Y1397000D01*
X31448906Y1397000D01*
X31434595Y1398063D01*
X31425940Y1397000D01*
X6298727Y1397000D01*
X6023034Y1410835D01*
X5733689Y1454758D01*
X5455178Y1526052D01*
X5188499Y1623310D01*
X4934870Y1745158D01*
X4695645Y1890219D01*
X4472245Y2057102D01*
X4266192Y2244336D01*
X4078985Y2450442D01*
X3912139Y2673882D01*
X3767099Y2913166D01*
X3645274Y3166842D01*
X3548038Y3433563D01*
X3476753Y3712135D01*
X3432841Y4001510D01*
X3416960Y4318110D01*
X3416960Y5242609D01*
X5334000Y5242609D01*
X5334000Y4917391D01*
X5397447Y4598421D01*
X5521903Y4297958D01*
X5702585Y4027549D01*
X5932549Y3797585D01*
X6202958Y3616903D01*
X6503421Y3492447D01*
X6822391Y3429000D01*
X7147609Y3429000D01*
X7466579Y3492447D01*
X7767042Y3616903D01*
X8037451Y3797585D01*
X8255000Y4015134D01*
X8472549Y3797585D01*
X8742958Y3616903D01*
X9043421Y3492447D01*
X9362391Y3429000D01*
X9687609Y3429000D01*
X10006579Y3492447D01*
X10307042Y3616903D01*
X10577451Y3797585D01*
X10807415Y4027549D01*
X10988097Y4297958D01*
X11112553Y4598421D01*
X11176000Y4917391D01*
X11176000Y5242609D01*
X11112553Y5561579D01*
X10988097Y5862042D01*
X10807415Y6132451D01*
X10660000Y6279866D01*
X10660000Y8673869D01*
X10884132Y8898000D01*
X36647249Y8898000D01*
X36703000Y8892509D01*
X36758751Y8898000D01*
X36758752Y8898000D01*
X36925499Y8914423D01*
X37139447Y8979324D01*
X37336623Y9084716D01*
X37509449Y9226551D01*
X37544996Y9269865D01*
X39624000Y11348869D01*
X39624000Y11267391D01*
X39687447Y10948421D01*
X39811903Y10647958D01*
X39992585Y10377549D01*
X40222549Y10147585D01*
X40492958Y9966903D01*
X40793421Y9842447D01*
X41112391Y9779000D01*
X41437609Y9779000D01*
X41756579Y9842447D01*
X42057042Y9966903D01*
X42327451Y10147585D01*
X42474866Y10295000D01*
X45559048Y10295000D01*
X45603463Y10211906D01*
X45682815Y10115215D01*
X45779506Y10035863D01*
X45889820Y9976898D01*
X46009518Y9940588D01*
X46134000Y9928328D01*
X48166000Y9928328D01*
X48290482Y9940588D01*
X48410180Y9976898D01*
X48520494Y10035863D01*
X48617185Y10115215D01*
X48696537Y10211906D01*
X48755502Y10322220D01*
X48791812Y10441918D01*
X48804072Y10566400D01*
X48804072Y11070974D01*
X55542642Y11070974D01*
X55545291Y11055211D01*
X55646314Y10779081D01*
X55799267Y10527965D01*
X55998271Y10311514D01*
X56235679Y10138046D01*
X56502367Y10014227D01*
X56788086Y9944815D01*
X57023000Y10089075D01*
X57023000Y11303000D01*
X57277000Y11303000D01*
X57277000Y10089075D01*
X57511914Y9944815D01*
X57797633Y10014227D01*
X58064321Y10138046D01*
X58301729Y10311514D01*
X58500733Y10527965D01*
X58653686Y10779081D01*
X58754709Y11055211D01*
X58757358Y11070974D01*
X58636217Y11303000D01*
X57277000Y11303000D01*
X57023000Y11303000D01*
X55663783Y11303000D01*
X55542642Y11070974D01*
X48804072Y11070974D01*
X48804072Y12293600D01*
X48796794Y12367500D01*
X55831873Y12367500D01*
X55799267Y12332035D01*
X55646314Y12080919D01*
X55545291Y11804789D01*
X55542642Y11789026D01*
X55663783Y11557000D01*
X57023000Y11557000D01*
X57023000Y12770925D01*
X57277000Y12770925D01*
X57277000Y11557000D01*
X58636217Y11557000D01*
X58757358Y11789026D01*
X58754709Y11804789D01*
X58653686Y12080919D01*
X58500733Y12332035D01*
X58301729Y12548486D01*
X58064321Y12721954D01*
X57797633Y12845773D01*
X57511914Y12915185D01*
X57277000Y12770925D01*
X57023000Y12770925D01*
X56788086Y12915185D01*
X56502367Y12845773D01*
X56235679Y12721954D01*
X55998271Y12548486D01*
X55940953Y12486143D01*
X55940953Y15387500D01*
X45659048Y15387500D01*
X45659048Y12715825D01*
X45603463Y12648094D01*
X45559048Y12565000D01*
X42474866Y12565000D01*
X42327451Y12712415D01*
X42057042Y12893097D01*
X41756579Y13017553D01*
X41437609Y13081000D01*
X41356132Y13081000D01*
X44959141Y16684009D01*
X45002449Y16719551D01*
X45144284Y16892377D01*
X45249676Y17089553D01*
X45314577Y17303501D01*
X45331000Y17470248D01*
X45331000Y17470255D01*
X45336490Y17525999D01*
X45331000Y17581743D01*
X45331000Y19751392D01*
X45433071Y19853463D01*
X45523098Y19593919D01*
X45804616Y19457776D01*
X46107286Y19379171D01*
X46419474Y19361123D01*
X46729185Y19404328D01*
X47024516Y19507123D01*
X47186902Y19593919D01*
X47276930Y19853465D01*
X46355000Y20775395D01*
X46340858Y20761252D01*
X46161253Y20940857D01*
X46175395Y20955000D01*
X46534605Y20955000D01*
X47456535Y20033070D01*
X47716081Y20123098D01*
X47852224Y20404616D01*
X47930829Y20707286D01*
X47948877Y21019474D01*
X47905672Y21329185D01*
X47802877Y21624516D01*
X47716081Y21786902D01*
X47456535Y21876930D01*
X46534605Y20955000D01*
X46175395Y20955000D01*
X46161253Y20969142D01*
X46340858Y21148747D01*
X46355000Y21134605D01*
X47276930Y22056535D01*
X47236039Y22174422D01*
X47366972Y22261908D01*
X47370549Y22265485D01*
X47411963Y22188006D01*
X47491315Y22091315D01*
X47588006Y22011963D01*
X47698320Y21952998D01*
X47818018Y21916688D01*
X47942500Y21904428D01*
X49847500Y21904428D01*
X49971982Y21916688D01*
X50091680Y21952998D01*
X50201994Y22011963D01*
X50298685Y22091315D01*
X50378037Y22188006D01*
X50437002Y22298320D01*
X50473312Y22418018D01*
X50485572Y22542500D01*
X50485572Y22870000D01*
X53376928Y22870000D01*
X53389188Y22745518D01*
X53425498Y22625820D01*
X53484463Y22515506D01*
X53563815Y22418815D01*
X53660506Y22339463D01*
X53770820Y22280498D01*
X53890518Y22244188D01*
X54015000Y22231928D01*
X55229250Y22235000D01*
X55388000Y22393750D01*
X55388000Y24243000D01*
X55642000Y24243000D01*
X55642000Y22393750D01*
X55800750Y22235000D01*
X57015000Y22231928D01*
X57139482Y22244188D01*
X57259180Y22280498D01*
X57369494Y22339463D01*
X57466185Y22418815D01*
X57545537Y22515506D01*
X57604502Y22625820D01*
X57640812Y22745518D01*
X57653072Y22870000D01*
X57650000Y24084250D01*
X57491250Y24243000D01*
X55642000Y24243000D01*
X55388000Y24243000D01*
X53538750Y24243000D01*
X53380000Y24084250D01*
X53376928Y22870000D01*
X50485572Y22870000D01*
X50485572Y24447500D01*
X50473312Y24571982D01*
X50437002Y24691680D01*
X50378037Y24801994D01*
X50298685Y24898685D01*
X50201994Y24978037D01*
X50091680Y25037002D01*
X49971982Y25073312D01*
X49847500Y25085572D01*
X47942500Y25085572D01*
X47818018Y25073312D01*
X47698320Y25037002D01*
X47588006Y24978037D01*
X47491315Y24898685D01*
X47490000Y24897083D01*
X47490000Y25870000D01*
X53376928Y25870000D01*
X53380000Y24655750D01*
X53538750Y24497000D01*
X55388000Y24497000D01*
X55388000Y26346250D01*
X55642000Y26346250D01*
X55642000Y24497000D01*
X57491250Y24497000D01*
X57650000Y24655750D01*
X57653072Y25870000D01*
X57640812Y25994482D01*
X57604502Y26114180D01*
X57545537Y26224494D01*
X57466185Y26321185D01*
X57369494Y26400537D01*
X57259180Y26459502D01*
X57139482Y26495812D01*
X57015000Y26508072D01*
X55800750Y26505000D01*
X55642000Y26346250D01*
X55388000Y26346250D01*
X55229250Y26505000D01*
X54015000Y26508072D01*
X53890518Y26495812D01*
X53770820Y26459502D01*
X53660506Y26400537D01*
X53563815Y26321185D01*
X53484463Y26224494D01*
X53425498Y26114180D01*
X53389188Y25994482D01*
X53376928Y25870000D01*
X47490000Y25870000D01*
X47490000Y27001709D01*
X47811713Y27323421D01*
X47842549Y27292585D01*
X48112958Y27111903D01*
X48413421Y26987447D01*
X48732391Y26924000D01*
X49057609Y26924000D01*
X49376579Y26987447D01*
X49677042Y27111903D01*
X49947451Y27292585D01*
X50177415Y27522549D01*
X50358097Y27792958D01*
X50482553Y28093421D01*
X50546000Y28412391D01*
X50546000Y28737609D01*
X50482553Y29056579D01*
X50358097Y29357042D01*
X50177415Y29627451D01*
X49947451Y29857415D01*
X49677042Y30038097D01*
X49376579Y30162553D01*
X49057609Y30226000D01*
X48732391Y30226000D01*
X48413421Y30162553D01*
X48112958Y30038097D01*
X47842549Y29857415D01*
X47695134Y29710000D01*
X47513912Y29710000D01*
X47458160Y29715491D01*
X47402408Y29710000D01*
X47235661Y29693577D01*
X47021713Y29628676D01*
X46824537Y29523284D01*
X46651711Y29381449D01*
X46616168Y29338140D01*
X45591864Y28313836D01*
X45548551Y28278289D01*
X45406716Y28105463D01*
X45331000Y27963807D01*
X45331000Y31250000D01*
X48330134Y31250000D01*
X48477549Y31102585D01*
X48747958Y30921903D01*
X49048421Y30797447D01*
X49367391Y30734000D01*
X49692609Y30734000D01*
X50011579Y30797447D01*
X50312042Y30921903D01*
X50582451Y31102585D01*
X50729866Y31250000D01*
X55950134Y31250000D01*
X56097549Y31102585D01*
X56367958Y30921903D01*
X56668421Y30797447D01*
X56987391Y30734000D01*
X57312609Y30734000D01*
X57631579Y30797447D01*
X57932042Y30921903D01*
X58202451Y31102585D01*
X58432415Y31332549D01*
X58613097Y31602958D01*
X58737553Y31903421D01*
X58801000Y32222391D01*
X58801000Y32547609D01*
X58737553Y32866579D01*
X58613097Y33167042D01*
X58432415Y33437451D01*
X58202451Y33667415D01*
X57932042Y33848097D01*
X57631579Y33972553D01*
X57312609Y34036000D01*
X56987391Y34036000D01*
X56668421Y33972553D01*
X56367958Y33848097D01*
X56097549Y33667415D01*
X55950134Y33520000D01*
X50729866Y33520000D01*
X50582451Y33667415D01*
X50312042Y33848097D01*
X50011579Y33972553D01*
X49692609Y34036000D01*
X49484132Y34036000D01*
X47201955Y36318177D01*
X48562782Y36318177D01*
X48660478Y36052140D01*
X48952821Y35909652D01*
X49267344Y35826936D01*
X49591962Y35807169D01*
X49914198Y35851112D01*
X50221670Y35957076D01*
X50399522Y36052140D01*
X50497218Y36318177D01*
X56182782Y36318177D01*
X56280478Y36052140D01*
X56572821Y35909652D01*
X56887344Y35826936D01*
X57211962Y35807169D01*
X57534198Y35851112D01*
X57841670Y35957076D01*
X58019522Y36052140D01*
X58117218Y36318177D01*
X57150000Y37285395D01*
X56182782Y36318177D01*
X50497218Y36318177D01*
X49530000Y37285395D01*
X48562782Y36318177D01*
X47201955Y36318177D01*
X46117094Y37403038D01*
X47872169Y37403038D01*
X47916112Y37080802D01*
X48022076Y36773330D01*
X48117140Y36595478D01*
X48383177Y36497782D01*
X49350395Y37465000D01*
X49709605Y37465000D01*
X50676823Y36497782D01*
X50942860Y36595478D01*
X51085348Y36887821D01*
X51168064Y37202344D01*
X51180284Y37403038D01*
X55492169Y37403038D01*
X55536112Y37080802D01*
X55642076Y36773330D01*
X55737140Y36595478D01*
X56003177Y36497782D01*
X56970395Y37465000D01*
X57329605Y37465000D01*
X58296823Y36497782D01*
X58562860Y36595478D01*
X58705348Y36887821D01*
X58788064Y37202344D01*
X58807831Y37526962D01*
X58763888Y37849198D01*
X58657924Y38156670D01*
X58562860Y38334522D01*
X58296823Y38432218D01*
X57329605Y37465000D01*
X56970395Y37465000D01*
X56003177Y38432218D01*
X55737140Y38334522D01*
X55594652Y38042179D01*
X55511936Y37727656D01*
X55492169Y37403038D01*
X51180284Y37403038D01*
X51187831Y37526962D01*
X51143888Y37849198D01*
X51037924Y38156670D01*
X50942860Y38334522D01*
X50676823Y38432218D01*
X49709605Y37465000D01*
X49350395Y37465000D01*
X48383177Y38432218D01*
X48117140Y38334522D01*
X47974652Y38042179D01*
X47891936Y37727656D01*
X47872169Y37403038D01*
X46117094Y37403038D01*
X44908309Y38611823D01*
X48562782Y38611823D01*
X49530000Y37644605D01*
X50497218Y38611823D01*
X56182782Y38611823D01*
X57150000Y37644605D01*
X58117218Y38611823D01*
X58019522Y38877860D01*
X57727179Y39020348D01*
X57412656Y39103064D01*
X57088038Y39122831D01*
X56765802Y39078888D01*
X56458330Y38972924D01*
X56280478Y38877860D01*
X56182782Y38611823D01*
X50497218Y38611823D01*
X50399522Y38877860D01*
X50107179Y39020348D01*
X49792656Y39103064D01*
X49468038Y39122831D01*
X49145802Y39078888D01*
X48838330Y38972924D01*
X48660478Y38877860D01*
X48562782Y38611823D01*
X44908309Y38611823D01*
X44783996Y38736135D01*
X44748449Y38779449D01*
X44575623Y38921284D01*
X44378447Y39026676D01*
X44164499Y39091577D01*
X43997752Y39108000D01*
X43997751Y39108000D01*
X43942000Y39113491D01*
X43886249Y39108000D01*
X34992240Y39108000D01*
X34936488Y39113491D01*
X34880736Y39108000D01*
X34766187Y39096718D01*
X34713989Y39091577D01*
X34500041Y39026676D01*
X34302865Y38921284D01*
X34173344Y38814989D01*
X34173343Y38814988D01*
X34130039Y38779449D01*
X34094501Y38736146D01*
X32891860Y37533503D01*
X32848552Y37497961D01*
X32706717Y37325135D01*
X32601324Y37127959D01*
X32536423Y36914011D01*
X32524609Y36794059D01*
X32514509Y36691512D01*
X32520000Y36635761D01*
X32520000Y36444464D01*
X32385000Y36242422D01*
X32229715Y36474823D01*
X32029823Y36674715D01*
X31794775Y36831769D01*
X31533603Y36939950D01*
X31256345Y36995100D01*
X30973655Y36995100D01*
X30696397Y36939950D01*
X30435225Y36831769D01*
X30200177Y36674715D01*
X30000285Y36474823D01*
X29843231Y36239775D01*
X29735050Y35978603D01*
X29679900Y35701345D01*
X29679900Y35418655D01*
X29735050Y35141397D01*
X29843231Y34880225D01*
X30000285Y34645177D01*
X30200177Y34445285D01*
X30433932Y34289095D01*
X30373426Y34256754D01*
X30301831Y34012774D01*
X31115000Y33199605D01*
X31928169Y34012774D01*
X31856574Y34256754D01*
X31792256Y34287188D01*
X31794775Y34288231D01*
X32029823Y34445285D01*
X32229715Y34645177D01*
X32385000Y34877578D01*
X32540285Y34645177D01*
X32740177Y34445285D01*
X32972578Y34290000D01*
X32740177Y34134715D01*
X32540285Y33934823D01*
X32384095Y33701068D01*
X32351754Y33761574D01*
X32107774Y33833169D01*
X31294605Y33020000D01*
X32107774Y32206831D01*
X32351754Y32278426D01*
X32382188Y32342744D01*
X32383231Y32340225D01*
X32540285Y32105177D01*
X32740177Y31905285D01*
X32975225Y31748231D01*
X33236397Y31640050D01*
X33513655Y31584900D01*
X33796345Y31584900D01*
X34073603Y31640050D01*
X34334775Y31748231D01*
X34569823Y31905285D01*
X34769715Y32105177D01*
X34925000Y32337578D01*
X35080285Y32105177D01*
X35280177Y31905285D01*
X35515225Y31748231D01*
X35776397Y31640050D01*
X36017846Y31592023D01*
X36330001Y31279867D01*
X36330000Y27866245D01*
X36315333Y27858405D01*
X36250259Y27805000D01*
X35377752Y27805000D01*
X35322000Y27810491D01*
X35266248Y27805000D01*
X35099501Y27788577D01*
X34885553Y27723676D01*
X34688377Y27618284D01*
X34558856Y27511989D01*
X34558854Y27511987D01*
X34515551Y27476449D01*
X34480013Y27433146D01*
X33399860Y26352991D01*
X33356552Y26317449D01*
X33214717Y26144623D01*
X33158384Y26039230D01*
X33109324Y25947446D01*
X33044423Y25733498D01*
X33022509Y25511000D01*
X33028001Y25455239D01*
X33028000Y16057752D01*
X33022509Y16002000D01*
X33028000Y15946249D01*
X33044423Y15779502D01*
X33109324Y15565554D01*
X33214716Y15368377D01*
X33356551Y15195551D01*
X33399865Y15160004D01*
X34607500Y13952368D01*
X34607500Y13813645D01*
X34668507Y13506943D01*
X34788176Y13218037D01*
X34961908Y12958028D01*
X35183028Y12736908D01*
X35443037Y12563176D01*
X35731943Y12443507D01*
X36038645Y12382500D01*
X36351355Y12382500D01*
X36658057Y12443507D01*
X36946963Y12563176D01*
X37206972Y12736908D01*
X37428092Y12958028D01*
X37601824Y13218037D01*
X37721493Y13506943D01*
X37782500Y13813645D01*
X37782500Y14126355D01*
X37721493Y14433057D01*
X37601824Y14721963D01*
X37428092Y14981972D01*
X37206972Y15203092D01*
X36946963Y15376824D01*
X36658057Y15496493D01*
X36351355Y15557500D01*
X36212632Y15557500D01*
X35298000Y16472131D01*
X35298000Y25040868D01*
X35792132Y25535000D01*
X36250259Y25535000D01*
X36315333Y25481595D01*
X36467987Y25400000D01*
X36315333Y25318405D01*
X36098745Y25140655D01*
X35920995Y24924067D01*
X35788916Y24676963D01*
X35707581Y24408839D01*
X35680118Y24130000D01*
X35707581Y23851161D01*
X35788916Y23583037D01*
X35920995Y23335933D01*
X36098745Y23119345D01*
X36315333Y22941595D01*
X36467987Y22860000D01*
X36315333Y22778405D01*
X36098745Y22600655D01*
X35920995Y22384067D01*
X35788916Y22136963D01*
X35707581Y21868839D01*
X35680118Y21590000D01*
X35707581Y21311161D01*
X35788916Y21043037D01*
X35920995Y20795933D01*
X36098745Y20579345D01*
X36315333Y20401595D01*
X36467987Y20320000D01*
X36315333Y20238405D01*
X36098745Y20060655D01*
X35920995Y19844067D01*
X35788916Y19596963D01*
X35707581Y19328839D01*
X35680118Y19050000D01*
X35707581Y18771161D01*
X35788916Y18503037D01*
X35920995Y18255933D01*
X36098745Y18039345D01*
X36315333Y17861595D01*
X36562437Y17729516D01*
X36830561Y17648181D01*
X37039525Y17627600D01*
X37890475Y17627600D01*
X38099439Y17648181D01*
X38367563Y17729516D01*
X38614667Y17861595D01*
X38679741Y17915000D01*
X40075134Y17915000D01*
X40222549Y17767585D01*
X40492958Y17586903D01*
X40793421Y17462447D01*
X41112391Y17399000D01*
X41437609Y17399000D01*
X41756579Y17462447D01*
X42057042Y17586903D01*
X42327451Y17767585D01*
X42557415Y17997549D01*
X42738097Y18267958D01*
X42862553Y18568421D01*
X42926000Y18887391D01*
X42926000Y19212609D01*
X42862553Y19531579D01*
X42738097Y19832042D01*
X42557415Y20102451D01*
X42327451Y20332415D01*
X42057042Y20513097D01*
X41756579Y20637553D01*
X41437609Y20701000D01*
X41112391Y20701000D01*
X40793421Y20637553D01*
X40492958Y20513097D01*
X40222549Y20332415D01*
X40075134Y20185000D01*
X38679741Y20185000D01*
X38614667Y20238405D01*
X38462013Y20320000D01*
X38614667Y20401595D01*
X38679741Y20455000D01*
X39552249Y20455000D01*
X39608000Y20449509D01*
X39663751Y20455000D01*
X39663752Y20455000D01*
X39830499Y20471423D01*
X40044447Y20536324D01*
X40241623Y20641716D01*
X40414449Y20783551D01*
X40449996Y20826865D01*
X42038140Y22415009D01*
X42081449Y22450551D01*
X42223284Y22623377D01*
X42328676Y22820553D01*
X42393577Y23034501D01*
X42410000Y23201248D01*
X42410000Y23201249D01*
X42415491Y23256999D01*
X42410000Y23312751D01*
X42410000Y27375134D01*
X42557415Y27522549D01*
X42738097Y27792958D01*
X42862553Y28093421D01*
X42926000Y28412391D01*
X42926000Y28737609D01*
X42862553Y29056579D01*
X42738097Y29357042D01*
X42557415Y29627451D01*
X42410000Y29774866D01*
X42410000Y32964259D01*
X42415490Y33020001D01*
X42410000Y33075743D01*
X42410000Y33075752D01*
X42393577Y33242499D01*
X42328676Y33456447D01*
X42223284Y33653623D01*
X42081449Y33826449D01*
X42038141Y33861991D01*
X39576996Y36323135D01*
X39541449Y36366449D01*
X39368623Y36508284D01*
X39171447Y36613676D01*
X38957499Y36678577D01*
X38790752Y36695000D01*
X38790751Y36695000D01*
X38735000Y36700491D01*
X38679249Y36695000D01*
X37536110Y36695000D01*
X37525637Y36714594D01*
X37446285Y36811285D01*
X37413733Y36838000D01*
X43471869Y36838000D01*
X46789868Y33520000D01*
X44251752Y33520000D01*
X44196000Y33525491D01*
X44140249Y33520000D01*
X44140248Y33520000D01*
X43973501Y33503577D01*
X43759553Y33438676D01*
X43562377Y33333284D01*
X43389551Y33191449D01*
X43247716Y33018623D01*
X43142324Y32821447D01*
X43077423Y32607499D01*
X43055509Y32385000D01*
X43061001Y32329238D01*
X43061000Y17996132D01*
X36232869Y11168000D01*
X26786284Y11168000D01*
X26863097Y11282958D01*
X26987553Y11583421D01*
X27051000Y11902391D01*
X27051000Y12227609D01*
X26987553Y12546579D01*
X26863097Y12847042D01*
X26848783Y12868465D01*
X30193070Y12868465D01*
X30283098Y12608919D01*
X30564616Y12472776D01*
X30867286Y12394171D01*
X31179474Y12376123D01*
X31489185Y12419328D01*
X31784516Y12522123D01*
X31946902Y12608919D01*
X32036930Y12868465D01*
X31115000Y13790395D01*
X30193070Y12868465D01*
X26848783Y12868465D01*
X26682415Y13117451D01*
X26452451Y13347415D01*
X26182042Y13528097D01*
X25881579Y13652553D01*
X25562609Y13716000D01*
X25237391Y13716000D01*
X24918421Y13652553D01*
X24617958Y13528097D01*
X24347549Y13347415D01*
X24117585Y13117451D01*
X23936903Y12847042D01*
X23812447Y12546579D01*
X23809842Y12533481D01*
X23732924Y12756670D01*
X23637860Y12934522D01*
X23371823Y13032218D01*
X22404605Y12065000D01*
X22418748Y12050857D01*
X22239143Y11871252D01*
X22225000Y11885395D01*
X22210858Y11871252D01*
X22031253Y12050857D01*
X22045395Y12065000D01*
X21078177Y13032218D01*
X20812140Y12934522D01*
X20669652Y12642179D01*
X20640549Y12531517D01*
X20637553Y12546579D01*
X20513097Y12847042D01*
X20332415Y13117451D01*
X20238043Y13211823D01*
X21257782Y13211823D01*
X22225000Y12244605D01*
X23192218Y13211823D01*
X23094522Y13477860D01*
X22802179Y13620348D01*
X22487656Y13703064D01*
X22163038Y13722831D01*
X21840802Y13678888D01*
X21533330Y13572924D01*
X21355478Y13477860D01*
X21257782Y13211823D01*
X20238043Y13211823D01*
X20185000Y13264866D01*
X20185000Y13446088D01*
X20190491Y13501840D01*
X20168577Y13724339D01*
X20113615Y13905526D01*
X29521123Y13905526D01*
X29564328Y13595815D01*
X29667123Y13300484D01*
X29753919Y13138098D01*
X30013465Y13048070D01*
X30935395Y13970000D01*
X31294605Y13970000D01*
X32216535Y13048070D01*
X32476081Y13138098D01*
X32612224Y13419616D01*
X32690829Y13722286D01*
X32708877Y14034474D01*
X32665672Y14344185D01*
X32562877Y14639516D01*
X32476081Y14801902D01*
X32216535Y14891930D01*
X31294605Y13970000D01*
X30935395Y13970000D01*
X30013465Y14891930D01*
X29753919Y14801902D01*
X29617776Y14520384D01*
X29539171Y14217714D01*
X29521123Y13905526D01*
X20113615Y13905526D01*
X20103676Y13938287D01*
X19998284Y14135463D01*
X19971127Y14168554D01*
X19856449Y14308289D01*
X19813140Y14343832D01*
X19085437Y15071535D01*
X30193070Y15071535D01*
X31115000Y14149605D01*
X32036930Y15071535D01*
X31946902Y15331081D01*
X31665384Y15467224D01*
X31362714Y15545829D01*
X31050526Y15563877D01*
X30740815Y15520672D01*
X30445484Y15417877D01*
X30283098Y15331081D01*
X30193070Y15071535D01*
X19085437Y15071535D01*
X18788836Y15368136D01*
X18753289Y15411449D01*
X18580463Y15553284D01*
X18383287Y15658676D01*
X18169339Y15723577D01*
X18002592Y15740000D01*
X18002591Y15740000D01*
X17946840Y15745491D01*
X17891089Y15740000D01*
X12535133Y15740000D01*
X10650000Y17625131D01*
X10650000Y22231928D01*
X11015000Y22231928D01*
X11139482Y22244188D01*
X11259180Y22280498D01*
X11369494Y22339463D01*
X11466185Y22418815D01*
X11545537Y22515506D01*
X11565001Y22551920D01*
X11565001Y21010761D01*
X11559509Y20955000D01*
X11581423Y20732502D01*
X11646324Y20518554D01*
X11683959Y20448144D01*
X11751717Y20321377D01*
X11893552Y20148551D01*
X11936860Y20113009D01*
X13128008Y18921860D01*
X13163551Y18878551D01*
X13336377Y18736716D01*
X13533553Y18631324D01*
X13697705Y18581529D01*
X13747500Y18566423D01*
X13768493Y18564356D01*
X13914248Y18550000D01*
X13914255Y18550000D01*
X13969999Y18544510D01*
X14025743Y18550000D01*
X14675134Y18550000D01*
X14822549Y18402585D01*
X15092958Y18221903D01*
X15393421Y18097447D01*
X15712391Y18034000D01*
X16037609Y18034000D01*
X16356579Y18097447D01*
X16657042Y18221903D01*
X16927451Y18402585D01*
X17157415Y18632549D01*
X17338097Y18902958D01*
X17462500Y19203293D01*
X17586903Y18902958D01*
X17767585Y18632549D01*
X17997549Y18402585D01*
X18267958Y18221903D01*
X18568421Y18097447D01*
X18887391Y18034000D01*
X19212609Y18034000D01*
X19531579Y18097447D01*
X19832042Y18221903D01*
X20102451Y18402585D01*
X20249866Y18550000D01*
X21025134Y18550000D01*
X21172549Y18402585D01*
X21442958Y18221903D01*
X21743421Y18097447D01*
X22062391Y18034000D01*
X22387609Y18034000D01*
X22706579Y18097447D01*
X23007042Y18221903D01*
X23277451Y18402585D01*
X23507415Y18632549D01*
X23688097Y18902958D01*
X23812500Y19203293D01*
X23936903Y18902958D01*
X24117585Y18632549D01*
X24347549Y18402585D01*
X24617958Y18221903D01*
X24918421Y18097447D01*
X25237391Y18034000D01*
X25562609Y18034000D01*
X25881579Y18097447D01*
X26182042Y18221903D01*
X26452451Y18402585D01*
X26682415Y18632549D01*
X26729448Y18702940D01*
X28109990Y18702940D01*
X28126672Y18623004D01*
X28236159Y18365354D01*
X28393808Y18134014D01*
X28593560Y17937875D01*
X28827738Y17784474D01*
X29087344Y17679707D01*
X29362400Y17627600D01*
X29718000Y17627600D01*
X29718000Y18923000D01*
X29972000Y18923000D01*
X29972000Y17627600D01*
X30327600Y17627600D01*
X30602656Y17679707D01*
X30862262Y17784474D01*
X31096440Y17937875D01*
X31296192Y18134014D01*
X31453841Y18365354D01*
X31563328Y18623004D01*
X31580010Y18702940D01*
X31457852Y18923000D01*
X29972000Y18923000D01*
X29718000Y18923000D01*
X28232148Y18923000D01*
X28109990Y18702940D01*
X26729448Y18702940D01*
X26863097Y18902958D01*
X26987553Y19203421D01*
X27051000Y19522391D01*
X27051000Y19847609D01*
X26987553Y20166579D01*
X26863097Y20467042D01*
X26682415Y20737451D01*
X26452451Y20967415D01*
X26182042Y21148097D01*
X25881579Y21272553D01*
X25562609Y21336000D01*
X25237391Y21336000D01*
X24918421Y21272553D01*
X24617958Y21148097D01*
X24347549Y20967415D01*
X24117585Y20737451D01*
X23936903Y20467042D01*
X23812500Y20166707D01*
X23688097Y20467042D01*
X23507415Y20737451D01*
X23360000Y20884866D01*
X23360000Y21119869D01*
X23965132Y21725000D01*
X25961869Y21725000D01*
X26860008Y20826860D01*
X26895551Y20783551D01*
X27068377Y20641716D01*
X27265553Y20536324D01*
X27413485Y20491449D01*
X27479500Y20471423D01*
X27500493Y20469356D01*
X27646248Y20455000D01*
X27646255Y20455000D01*
X27701999Y20449510D01*
X27757743Y20455000D01*
X28630259Y20455000D01*
X28695333Y20401595D01*
X28844045Y20322107D01*
X28827738Y20315526D01*
X28593560Y20162125D01*
X28393808Y19965986D01*
X28236159Y19734646D01*
X28126672Y19476996D01*
X28109990Y19397060D01*
X28232148Y19177000D01*
X29718000Y19177000D01*
X29718000Y19197000D01*
X29972000Y19197000D01*
X29972000Y19177000D01*
X31457852Y19177000D01*
X31580010Y19397060D01*
X31563328Y19476996D01*
X31453841Y19734646D01*
X31296192Y19965986D01*
X31096440Y20162125D01*
X30862262Y20315526D01*
X30845955Y20322107D01*
X30994667Y20401595D01*
X31211255Y20579345D01*
X31389005Y20795933D01*
X31521084Y21043037D01*
X31602419Y21311161D01*
X31629882Y21590000D01*
X31602419Y21868839D01*
X31521084Y22136963D01*
X31389005Y22384067D01*
X31211255Y22600655D01*
X30994667Y22778405D01*
X30842013Y22860000D01*
X30994667Y22941595D01*
X31211255Y23119345D01*
X31389005Y23335933D01*
X31521084Y23583037D01*
X31602419Y23851161D01*
X31629882Y24130000D01*
X31602419Y24408839D01*
X31521084Y24676963D01*
X31389005Y24924067D01*
X31211255Y25140655D01*
X31074326Y25253030D01*
X31112482Y25256788D01*
X31232180Y25293098D01*
X31342494Y25352063D01*
X31439185Y25431415D01*
X31518537Y25528106D01*
X31577502Y25638420D01*
X31613812Y25758118D01*
X31626072Y25882600D01*
X31626072Y27457400D01*
X31613812Y27581882D01*
X31577502Y27701580D01*
X31518537Y27811894D01*
X31439185Y27908585D01*
X31342494Y27987937D01*
X31232180Y28046902D01*
X31112482Y28083212D01*
X30988000Y28095472D01*
X28702000Y28095472D01*
X28577518Y28083212D01*
X28457820Y28046902D01*
X28347506Y27987937D01*
X28250815Y27908585D01*
X28171463Y27811894D01*
X28112498Y27701580D01*
X28076188Y27581882D01*
X28063928Y27457400D01*
X28063928Y25882600D01*
X28076188Y25758118D01*
X28112498Y25638420D01*
X28171463Y25528106D01*
X28250815Y25431415D01*
X28347506Y25352063D01*
X28457820Y25293098D01*
X28577518Y25256788D01*
X28615674Y25253030D01*
X28478745Y25140655D01*
X28300995Y24924067D01*
X28168916Y24676963D01*
X28087581Y24408839D01*
X28060118Y24130000D01*
X28087581Y23851161D01*
X28168916Y23583037D01*
X28300995Y23335933D01*
X28478745Y23119345D01*
X28695333Y22941595D01*
X28847987Y22860000D01*
X28695333Y22778405D01*
X28630259Y22725000D01*
X28172132Y22725000D01*
X27273996Y23623135D01*
X27238449Y23666449D01*
X27065623Y23808284D01*
X26868447Y23913676D01*
X26654499Y23978577D01*
X26487752Y23995000D01*
X26487751Y23995000D01*
X26432000Y24000491D01*
X26376249Y23995000D01*
X23550743Y23995000D01*
X23494999Y24000490D01*
X23439255Y23995000D01*
X23439248Y23995000D01*
X23293493Y23980644D01*
X23272500Y23978577D01*
X23222705Y23963471D01*
X23058553Y23913676D01*
X22861377Y23808284D01*
X22688551Y23666449D01*
X22653008Y23623140D01*
X21461865Y22431996D01*
X21418551Y22396449D01*
X21276716Y22223623D01*
X21208229Y22095491D01*
X21171324Y22026446D01*
X21106423Y21812498D01*
X21084509Y21590000D01*
X21090000Y21534248D01*
X21090000Y20884866D01*
X21025134Y20820000D01*
X20249866Y20820000D01*
X20102451Y20967415D01*
X19832042Y21148097D01*
X19531579Y21272553D01*
X19212609Y21336000D01*
X18887391Y21336000D01*
X18568421Y21272553D01*
X18267958Y21148097D01*
X17997549Y20967415D01*
X17767585Y20737451D01*
X17586903Y20467042D01*
X17462500Y20166707D01*
X17338097Y20467042D01*
X17157415Y20737451D01*
X16927451Y20967415D01*
X16657042Y21148097D01*
X16356579Y21272553D01*
X16037609Y21336000D01*
X15712391Y21336000D01*
X15393421Y21272553D01*
X15092958Y21148097D01*
X14822549Y20967415D01*
X14675134Y20820000D01*
X14440132Y20820000D01*
X13835000Y21425131D01*
X13835000Y29809043D01*
X13854494Y29819463D01*
X13951185Y29898815D01*
X14030537Y29995506D01*
X14089502Y30105820D01*
X14125812Y30225518D01*
X14138072Y30350000D01*
X14138072Y31623000D01*
X23965000Y31623000D01*
X23965000Y31023000D01*
X24017350Y30745486D01*
X24122834Y30483517D01*
X24277399Y30247161D01*
X24475105Y30045500D01*
X24708354Y29886285D01*
X24968182Y29775633D01*
X25050961Y29758096D01*
X25273000Y29880085D01*
X25273000Y31623000D01*
X25527000Y31623000D01*
X25527000Y29880085D01*
X25749039Y29758096D01*
X25831818Y29775633D01*
X26091646Y29886285D01*
X26324895Y30045500D01*
X26522601Y30247161D01*
X26677166Y30483517D01*
X26782650Y30745486D01*
X26835000Y31023000D01*
X26835000Y31623000D01*
X25527000Y31623000D01*
X25273000Y31623000D01*
X23965000Y31623000D01*
X14138072Y31623000D01*
X14138072Y32477000D01*
X23965000Y32477000D01*
X23965000Y31877000D01*
X25273000Y31877000D01*
X25273000Y33619915D01*
X25527000Y33619915D01*
X25527000Y31877000D01*
X26835000Y31877000D01*
X26835000Y32027226D01*
X30301831Y32027226D01*
X30373426Y31783246D01*
X30628954Y31662336D01*
X30903161Y31593600D01*
X31185508Y31579680D01*
X31465147Y31621111D01*
X31731328Y31716300D01*
X31856574Y31783246D01*
X31928169Y32027226D01*
X31115000Y32840395D01*
X30301831Y32027226D01*
X26835000Y32027226D01*
X26835000Y32477000D01*
X26782650Y32754514D01*
X26704141Y32949492D01*
X29674680Y32949492D01*
X29716111Y32669853D01*
X29811300Y32403672D01*
X29878246Y32278426D01*
X30122226Y32206831D01*
X30935395Y33020000D01*
X30122226Y33833169D01*
X29878246Y33761574D01*
X29757336Y33506046D01*
X29688600Y33231839D01*
X29674680Y32949492D01*
X26704141Y32949492D01*
X26677166Y33016483D01*
X26522601Y33252839D01*
X26324895Y33454500D01*
X26091646Y33613715D01*
X25831818Y33724367D01*
X25749039Y33741904D01*
X25527000Y33619915D01*
X25273000Y33619915D01*
X25050961Y33741904D01*
X24968182Y33724367D01*
X24708354Y33613715D01*
X24475105Y33454500D01*
X24277399Y33252839D01*
X24122834Y33016483D01*
X24017350Y32754514D01*
X23965000Y32477000D01*
X14138072Y32477000D01*
X14138072Y33150000D01*
X14125812Y33274482D01*
X14089502Y33394180D01*
X14030537Y33504494D01*
X13951185Y33601185D01*
X13854494Y33680537D01*
X13744180Y33739502D01*
X13624482Y33775812D01*
X13500000Y33788072D01*
X11900000Y33788072D01*
X11775518Y33775812D01*
X11655820Y33739502D01*
X11545506Y33680537D01*
X11448815Y33601185D01*
X11369463Y33504494D01*
X11310498Y33394180D01*
X11274188Y33274482D01*
X11261928Y33150000D01*
X11261928Y32993204D01*
X10660000Y33595132D01*
X10660000Y35805259D01*
X10739366Y35858290D01*
X11004710Y36123634D01*
X11213189Y36435644D01*
X11356791Y36782332D01*
X11430000Y37150374D01*
X11430000Y37525626D01*
X11356791Y37893668D01*
X11213189Y38240356D01*
X11004710Y38552366D01*
X10739366Y38817710D01*
X10427356Y39026189D01*
X10080668Y39169791D01*
X9712626Y39243000D01*
X9337374Y39243000D01*
X8969332Y39169791D01*
X8622644Y39026189D01*
X8310634Y38817710D01*
X8045290Y38552366D01*
X7836811Y38240356D01*
X7693209Y37893668D01*
X7620000Y37525626D01*
X7620000Y37150374D01*
X7693209Y36782332D01*
X7836811Y36435644D01*
X8045290Y36123634D01*
X8310634Y35858290D01*
X8390000Y35805259D01*
X8390001Y33180761D01*
X8384509Y33125000D01*
X8406423Y32902502D01*
X8471324Y32688554D01*
X8520384Y32596770D01*
X8576717Y32491377D01*
X8718552Y32318551D01*
X8761860Y32283009D01*
X10058013Y30986854D01*
X10093551Y30943551D01*
X10136854Y30908013D01*
X10136856Y30908011D01*
X10266377Y30801716D01*
X10463553Y30696324D01*
X10677501Y30631423D01*
X10900000Y30609509D01*
X10955752Y30615000D01*
X11261928Y30615000D01*
X11261928Y30350000D01*
X11274188Y30225518D01*
X11310498Y30105820D01*
X11369463Y29995506D01*
X11448815Y29898815D01*
X11545506Y29819463D01*
X11565000Y29809043D01*
X11565001Y26188081D01*
X11545537Y26224494D01*
X11466185Y26321185D01*
X11369494Y26400537D01*
X11259180Y26459502D01*
X11139482Y26495812D01*
X11015000Y26508072D01*
X10787148Y26508072D01*
X11004710Y26725634D01*
X11213189Y27037644D01*
X11356791Y27384332D01*
X11430000Y27752374D01*
X11430000Y28127626D01*
X11356791Y28495668D01*
X11213189Y28842356D01*
X11004710Y29154366D01*
X10739366Y29419710D01*
X10427356Y29628189D01*
X10080668Y29771791D01*
X9712626Y29845000D01*
X9337374Y29845000D01*
X8969332Y29771791D01*
X8622644Y29628189D01*
X8310634Y29419710D01*
X8045290Y29154366D01*
X7836811Y28842356D01*
X7693209Y28495668D01*
X7620000Y28127626D01*
X7620000Y27752374D01*
X7693209Y27384332D01*
X7836811Y27037644D01*
X8045290Y26725634D01*
X8262852Y26508072D01*
X8015000Y26508072D01*
X7890518Y26495812D01*
X7770820Y26459502D01*
X7660506Y26400537D01*
X7563815Y26321185D01*
X7484463Y26224494D01*
X7425498Y26114180D01*
X7389188Y25994482D01*
X7376928Y25870000D01*
X7376928Y22870000D01*
X7389188Y22745518D01*
X7425498Y22625820D01*
X7484463Y22515506D01*
X7563815Y22418815D01*
X7660506Y22339463D01*
X7770820Y22280498D01*
X7890518Y22244188D01*
X8015000Y22231928D01*
X8380001Y22231928D01*
X8380000Y17210752D01*
X8374509Y17155000D01*
X8394672Y16950283D01*
X8396423Y16932502D01*
X8461324Y16718554D01*
X8566716Y16521377D01*
X8708551Y16348551D01*
X8751865Y16313004D01*
X11223013Y13841854D01*
X11258551Y13798551D01*
X11301854Y13763013D01*
X11301856Y13763011D01*
X11320754Y13747502D01*
X11431377Y13656716D01*
X11628553Y13551324D01*
X11842501Y13486423D01*
X11929444Y13477860D01*
X12065000Y13464509D01*
X12120752Y13470000D01*
X15006010Y13470000D01*
X14822549Y13347415D01*
X14675134Y13200000D01*
X10215751Y13200000D01*
X10159999Y13205491D01*
X10104248Y13200000D01*
X9937501Y13183577D01*
X9723553Y13118676D01*
X9526377Y13013284D01*
X9353551Y12871449D01*
X9318009Y12828141D01*
X6221860Y9731991D01*
X6178552Y9696449D01*
X6036717Y9523623D01*
X5980384Y9418230D01*
X5931324Y9326446D01*
X5866423Y9112498D01*
X5844509Y8890000D01*
X5850001Y8834239D01*
X5850000Y6279866D01*
X5702585Y6132451D01*
X5521903Y5862042D01*
X5397447Y5561579D01*
X5334000Y5242609D01*
X3416960Y5242609D01*
X3416960Y36602220D01*
X3432841Y36918820D01*
X3476753Y37208193D01*
X3548038Y37486766D01*
X3645274Y37753487D01*
X3767101Y38007168D01*
X3912139Y38246448D01*
X4078984Y38469888D01*
X4266191Y38675991D01*
X4472245Y38863227D01*
X4695645Y39030110D01*
X4934873Y39175172D01*
X5188497Y39297018D01*
X5455177Y39394277D01*
X5733689Y39465571D01*
X6023034Y39509494D01*
X6339598Y39525380D01*
X58624056Y39525380D01*
X58940621Y39509494D01*
M02*
