  0
SECTION
  2
HEADER
  9
$ACADVER
  1
AC1014
  9
$HANDSEED
  5
FFFF
  9
$MEASUREMENT
 70
     1
  0
ENDSEC
  0
SECTION
  2
TABLES
  0
TABLE
  2
VPORT
  5
8
330
0
100
AcDbSymbolTable
 70
     4
  0
VPORT
  5
2E
330
8
100
AcDbSymbolTableRecord
100
AcDbViewportTableRecord
  2
*ACTIVE
 70
     0
 10
0.0
 20
0.0
 11
1.0
 21
1.0
 12
210.0
 22
148.5
 13
0.0
 23
0.0
 14
10.0
 24
10.0
 15
10.0
 25
10.0
 16
0.0
 26
0.0
 36
1.0
 17
0.0
 27
0.0
 37
0.0
 40
341.0
 41
1.24
 42
50.0
 43
0.0
 44
0.0
 50
0.0
 51
0.0
 71
     0
 72
   100
 73
     1
 74
     3
 75
     0
 76
     0
 77
     0
 78
     0
  0
ENDTAB
  0
TABLE
  2
LTYPE
  5
5
330
0
100
AcDbSymbolTable
 70
     1
  0
LTYPE
  5
14
330
5
100
AcDbSymbolTableRecord
100
AcDbLinetypeTableRecord
  2
BYBLOCK
 70
     0
  3

 72
    65
 73
     0
 40
0.0
  0
LTYPE
  5
15
330
5
100
AcDbSymbolTableRecord
100
AcDbLinetypeTableRecord
  2
BYLAYER
 70
     0
  3

 72
    65
 73
     0
 40
0.0
  0
LTYPE
  5
16
330
5
100
AcDbSymbolTableRecord
100
AcDbLinetypeTableRecord
  2
CONTINUOUS
 70
     0
  3
Solid line
 72
    65
 73
     0
 40
0.0
  0
ENDTAB
  0
TABLE
  2
LAYER
  5
2
100
AcDbSymbolTable
 70
2
  0
LAYER
  5
50
100
AcDbSymbolTableRecord
100
AcDbLayerTableRecord
  2
0
 70
0
  6
CONTINUOUS
  0
LAYER
  5
51
100
AcDbSymbolTableRecord
100
AcDbLayerTableRecord
  2
Layer_1
 70
0
  6
CONTINUOUS
  0
ENDTAB
  0
TABLE
  2
STYLE
  5
3
330
0
100
AcDbSymbolTable
 70
     1
  0
STYLE
  5
11
330
3
100
AcDbSymbolTableRecord
100
AcDbTextStyleTableRecord
  2
STANDARD
 70
     0
 40
0.0
 41
1.0
 50
0.0
 71
     0
 42
2.5
  3
txt
  4

  0
ENDTAB
  0
TABLE
  2
VIEW
  5
6
330
0
100
AcDbSymbolTable
 70
     0
  0
ENDTAB
  0
TABLE
  2
UCS
  5
7
330
0
100
AcDbSymbolTable
 70
     0
  0
ENDTAB
  0
TABLE
  2
APPID
  5
9
330
0
100
AcDbSymbolTable
 70
     2
  0
APPID
  5
12
330
9
100
AcDbSymbolTableRecord
100
AcDbRegAppTableRecord
  2
ACAD
 70
     0
  0
ENDTAB
  0
TABLE
  2
DIMSTYLE
  5
A
330
0
100
AcDbSymbolTable
 70
     1
  0
DIMSTYLE
105
27
330
A
100
AcDbSymbolTableRecord
100
AcDbDimStyleTableRecord
  2
ISO-25
 70
     0
  3

  4

  5

  6

  7

 40
1.0
 41
2.5
 42
0.625
 43
3.75
 44
1.25
 45
0.0
 46
0.0
 47
0.0
 48
0.0
140
2.5
141
2.5
142
0.0
143
0.03937007874016
144
1.0
145
0.0
146
1.0
147
0.625
 71
     0
 72
     0
 73
     0
 74
     0
 75
     0
 76
     0
 77
     1
 78
     8
170
     0
171
     3
172
     1
173
     0
174
     0
175
     0
176
     0
177
     0
178
     0
270
     2
271
     2
272
     2
273
     2
274
     3
340
11
275
     0
280
     0
281
     0
282
     0
283
     0
284
     8
285
     0
286
     0
287
     3
288
     0
  0
ENDTAB
  0
TABLE
  2
BLOCK_RECORD
  5
1
330
0
100
AcDbSymbolTable
 70
     1
  0
BLOCK_RECORD
  5
1F
330
1
100
AcDbSymbolTableRecord
100
AcDbBlockTableRecord
  2
*MODEL_SPACE
  0
BLOCK_RECORD
  5
1B
330
1
100
AcDbSymbolTableRecord
100
AcDbBlockTableRecord
  2
*PAPER_SPACE
  0
ENDTAB
  0
ENDSEC
  0
SECTION
  2
BLOCKS
  0
BLOCK
  5
20
330
1F
100
AcDbEntity
  8
0
100
AcDbBlockBegin
  2
*MODEL_SPACE
 70
     0
 10
0.0
 20
0.0
 30
0.0
  3
*MODEL_SPACE
  1

  0
ENDBLK
  5
21
330
1F
100
AcDbEntity
  8
0
100
AcDbBlockEnd
  0
BLOCK
  5
1C
330
1B
100
AcDbEntity
 67
     1
  8
0
100
AcDbBlockBegin
  2
*PAPER_SPACE
  1

  0
ENDBLK
  5
1D
330
1B
100
AcDbEntity
 67
     1
  8
0
100
AcDbBlockEnd
  0
ENDSEC
  0
SECTION
  2
ENTITIES
  0
LINE
  5
100
100
AcDbEntity
  8
Layer_1
 62
7
100
AcDbLine
 10
38.981570
 20
276.070724
 30
0.0
 11
38.613420
 21
276.052224
 31
0.0
  0
LINE
  5
101
100
AcDbEntity
  8
Layer_1
 62
7
100
AcDbLine
 10
38.613420
 20
276.052224
 30
0.0
 11
38.256150
 21
275.998024
 31
0.0
  0
LINE
  5
102
100
AcDbEntity
  8
Layer_1
 62
7
100
AcDbLine
 10
38.256150
 20
275.998024
 30
0.0
 11
37.911520
 21
275.909824
 31
0.0
  0
LINE
  5
103
100
AcDbEntity
  8
Layer_1
 62
7
100
AcDbLine
 10
37.911520
 20
275.909824
 30
0.0
 11
37.581330
 21
275.789394
 31
0.0
  0
LINE
  5
104
100
AcDbEntity
  8
Layer_1
 62
7
100
AcDbLine
 10
37.581330
 20
275.789394
 30
0.0
 11
37.267330
 21
275.638544
 31
0.0
  0
LINE
  5
105
100
AcDbEntity
  8
Layer_1
 62
7
100
AcDbLine
 10
37.267330
 20
275.638544
 30
0.0
 11
36.971320
 21
275.459054
 31
0.0
  0
LINE
  5
106
100
AcDbEntity
  8
Layer_1
 62
7
100
AcDbLine
 10
36.971320
 20
275.459054
 30
0.0
 11
36.695070
 21
275.252684
 31
0.0
  0
LINE
  5
107
100
AcDbEntity
  8
Layer_1
 62
7
100
AcDbLine
 10
36.695070
 20
275.252684
 30
0.0
 11
36.440350
 21
275.021234
 31
0.0
  0
LINE
  5
108
100
AcDbEntity
  8
Layer_1
 62
7
100
AcDbLine
 10
36.440350
 20
275.021234
 30
0.0
 11
36.208940
 21
274.766464
 31
0.0
  0
LINE
  5
109
100
AcDbEntity
  8
Layer_1
 62
7
100
AcDbLine
 10
36.208940
 20
274.766464
 30
0.0
 11
36.002620
 21
274.490164
 31
0.0
  0
LINE
  5
10a
100
AcDbEntity
  8
Layer_1
 62
7
100
AcDbLine
 10
36.002620
 20
274.490164
 30
0.0
 11
35.823170
 21
274.194104
 31
0.0
  0
LINE
  5
10b
100
AcDbEntity
  8
Layer_1
 62
7
100
AcDbLine
 10
35.823170
 20
274.194104
 30
0.0
 11
35.672360
 21
273.880074
 31
0.0
  0
LINE
  5
10c
100
AcDbEntity
  8
Layer_1
 62
7
100
AcDbLine
 10
35.672360
 20
273.880074
 30
0.0
 11
35.551970
 21
273.549844
 31
0.0
  0
LINE
  5
10d
100
AcDbEntity
  8
Layer_1
 62
7
100
AcDbLine
 10
35.551970
 20
273.549844
 30
0.0
 11
35.463770
 21
273.205194
 31
0.0
  0
LINE
  5
10e
100
AcDbEntity
  8
Layer_1
 62
7
100
AcDbLine
 10
35.463770
 20
273.205194
 30
0.0
 11
35.409570
 21
272.847904
 31
0.0
  0
LINE
  5
10f
100
AcDbEntity
  8
Layer_1
 62
7
100
AcDbLine
 10
35.409570
 20
272.847904
 30
0.0
 11
35.391070
 21
272.479754
 31
0.0
  0
LINE
  5
110
100
AcDbEntity
  8
Layer_1
 62
7
100
AcDbLine
 10
35.391070
 20
272.479754
 30
0.0
 11
35.391070
 21
240.161314
 31
0.0
  0
LINE
  5
111
100
AcDbEntity
  8
Layer_1
 62
7
100
AcDbLine
 10
35.391070
 20
240.161314
 30
0.0
 11
35.409570
 21
239.793154
 31
0.0
  0
LINE
  5
112
100
AcDbEntity
  8
Layer_1
 62
7
100
AcDbLine
 10
35.409570
 20
239.793154
 30
0.0
 11
35.463770
 21
239.435864
 31
0.0
  0
LINE
  5
113
100
AcDbEntity
  8
Layer_1
 62
7
100
AcDbLine
 10
35.463770
 20
239.435864
 30
0.0
 11
35.551970
 21
239.091214
 31
0.0
  0
LINE
  5
114
100
AcDbEntity
  8
Layer_1
 62
7
100
AcDbLine
 10
35.551970
 20
239.091214
 30
0.0
 11
35.672360
 21
238.760984
 31
0.0
  0
LINE
  5
115
100
AcDbEntity
  8
Layer_1
 62
7
100
AcDbLine
 10
35.672360
 20
238.760984
 30
0.0
 11
35.823170
 21
238.446954
 31
0.0
  0
LINE
  5
116
100
AcDbEntity
  8
Layer_1
 62
7
100
AcDbLine
 10
35.823170
 20
238.446954
 30
0.0
 11
36.002620
 21
238.150904
 31
0.0
  0
LINE
  5
117
100
AcDbEntity
  8
Layer_1
 62
7
100
AcDbLine
 10
36.002620
 20
238.150904
 30
0.0
 11
36.208940
 21
237.874594
 31
0.0
  0
LINE
  5
118
100
AcDbEntity
  8
Layer_1
 62
7
100
AcDbLine
 10
36.208940
 20
237.874594
 30
0.0
 11
36.440350
 21
237.619834
 31
0.0
  0
LINE
  5
119
100
AcDbEntity
  8
Layer_1
 62
7
100
AcDbLine
 10
36.440350
 20
237.619834
 30
0.0
 11
36.695070
 21
237.388374
 31
0.0
  0
LINE
  5
11a
100
AcDbEntity
  8
Layer_1
 62
7
100
AcDbLine
 10
36.695070
 20
237.388374
 30
0.0
 11
36.971320
 21
237.182004
 31
0.0
  0
LINE
  5
11b
100
AcDbEntity
  8
Layer_1
 62
7
100
AcDbLine
 10
36.971320
 20
237.182004
 30
0.0
 11
37.267330
 21
237.002514
 31
0.0
  0
LINE
  5
11c
100
AcDbEntity
  8
Layer_1
 62
7
100
AcDbLine
 10
37.267330
 20
237.002514
 30
0.0
 11
37.581330
 21
236.851664
 31
0.0
  0
LINE
  5
11d
100
AcDbEntity
  8
Layer_1
 62
7
100
AcDbLine
 10
37.581330
 20
236.851664
 30
0.0
 11
37.911530
 21
236.731244
 31
0.0
  0
LINE
  5
11e
100
AcDbEntity
  8
Layer_1
 62
7
100
AcDbLine
 10
37.911530
 20
236.731244
 30
0.0
 11
38.256150
 21
236.643044
 31
0.0
  0
LINE
  5
11f
100
AcDbEntity
  8
Layer_1
 62
7
100
AcDbLine
 10
38.256150
 20
236.643044
 30
0.0
 11
38.613420
 21
236.588844
 31
0.0
  0
LINE
  5
120
100
AcDbEntity
  8
Layer_1
 62
7
100
AcDbLine
 10
38.613420
 20
236.588844
 30
0.0
 11
38.981570
 21
236.570344
 31
0.0
  0
LINE
  5
121
100
AcDbEntity
  8
Layer_1
 62
7
100
AcDbLine
 10
38.981570
 20
236.570344
 30
0.0
 11
50.680600
 21
236.570344
 31
0.0
  0
LINE
  5
122
100
AcDbEntity
  8
Layer_1
 62
7
100
AcDbLine
 10
50.680600
 20
236.570344
 30
0.0
 11
51.101010
 21
236.338594
 31
0.0
  0
LINE
  5
123
100
AcDbEntity
  8
Layer_1
 62
7
100
AcDbLine
 10
51.101010
 20
236.338594
 30
0.0
 11
51.504410
 21
236.070654
 31
0.0
  0
LINE
  5
124
100
AcDbEntity
  8
Layer_1
 62
7
100
AcDbLine
 10
51.504410
 20
236.070654
 30
0.0
 11
51.887640
 21
235.769684
 31
0.0
  0
LINE
  5
125
100
AcDbEntity
  8
Layer_1
 62
7
100
AcDbLine
 10
51.887640
 20
235.769684
 30
0.0
 11
52.247560
 21
235.438844
 31
0.0
  0
LINE
  5
126
100
AcDbEntity
  8
Layer_1
 62
7
100
AcDbLine
 10
52.247560
 20
235.438844
 30
0.0
 11
52.581000
 21
235.081304
 31
0.0
  0
LINE
  5
127
100
AcDbEntity
  8
Layer_1
 62
7
100
AcDbLine
 10
52.581000
 20
235.081304
 30
0.0
 11
52.884830
 21
234.700214
 31
0.0
  0
LINE
  5
128
100
AcDbEntity
  8
Layer_1
 62
7
100
AcDbLine
 10
52.884830
 20
234.700214
 30
0.0
 11
53.155890
 21
234.298744
 31
0.0
  0
LINE
  5
129
100
AcDbEntity
  8
Layer_1
 62
7
100
AcDbLine
 10
53.155890
 20
234.298744
 30
0.0
 11
53.391030
 21
233.880064
 31
0.0
  0
LINE
  5
12a
100
AcDbEntity
  8
Layer_1
 62
7
100
AcDbLine
 10
53.391030
 20
233.880064
 30
0.0
 11
53.391030
 21
196.318024
 31
0.0
  0
LINE
  5
12b
100
AcDbEntity
  8
Layer_1
 62
7
100
AcDbLine
 10
53.391030
 20
196.318024
 30
0.0
 11
53.421030
 21
196.318024
 31
0.0
  0
LINE
  5
12c
100
AcDbEntity
  8
Layer_1
 62
7
100
AcDbLine
 10
53.421030
 20
196.318024
 30
0.0
 11
53.415030
 21
196.294224
 31
0.0
  0
LINE
  5
12d
100
AcDbEntity
  8
Layer_1
 62
7
100
AcDbLine
 10
53.415030
 20
196.294224
 30
0.0
 11
55.891360
 21
179.322134
 31
0.0
  0
LINE
  5
12e
100
AcDbEntity
  8
Layer_1
 62
7
100
AcDbLine
 10
55.891360
 20
179.322134
 30
0.0
 11
55.891360
 21
179.304034
 31
0.0
  0
LINE
  5
12f
100
AcDbEntity
  8
Layer_1
 62
7
100
AcDbLine
 10
55.891360
 20
179.304034
 30
0.0
 11
55.902960
 21
179.073344
 31
0.0
  0
LINE
  5
130
100
AcDbEntity
  8
Layer_1
 62
7
100
AcDbLine
 10
55.902960
 20
179.073344
 30
0.0
 11
55.936960
 21
178.849474
 31
0.0
  0
LINE
  5
131
100
AcDbEntity
  8
Layer_1
 62
7
100
AcDbLine
 10
55.936960
 20
178.849474
 30
0.0
 11
55.992260
 21
178.633514
 31
0.0
  0
LINE
  5
132
100
AcDbEntity
  8
Layer_1
 62
7
100
AcDbLine
 10
55.992260
 20
178.633514
 30
0.0
 11
56.067660
 21
178.426604
 31
0.0
  0
LINE
  5
133
100
AcDbEntity
  8
Layer_1
 62
7
100
AcDbLine
 10
56.067660
 20
178.426604
 30
0.0
 11
56.162160
 21
178.229834
 31
0.0
  0
LINE
  5
134
100
AcDbEntity
  8
Layer_1
 62
7
100
AcDbLine
 10
56.162160
 20
178.229834
 30
0.0
 11
56.274620
 21
178.044334
 31
0.0
  0
LINE
  5
135
100
AcDbEntity
  8
Layer_1
 62
7
100
AcDbLine
 10
56.274620
 20
178.044334
 30
0.0
 11
56.403920
 21
177.871214
 31
0.0
  0
LINE
  5
136
100
AcDbEntity
  8
Layer_1
 62
7
100
AcDbLine
 10
56.403920
 20
177.871214
 30
0.0
 11
56.548940
 21
177.711594
 31
0.0
  0
LINE
  5
137
100
AcDbEntity
  8
Layer_1
 62
7
100
AcDbLine
 10
56.548940
 20
177.711594
 30
0.0
 11
56.708560
 21
177.566574
 31
0.0
  0
LINE
  5
138
100
AcDbEntity
  8
Layer_1
 62
7
100
AcDbLine
 10
56.708560
 20
177.566574
 30
0.0
 11
56.881680
 21
177.437274
 31
0.0
  0
LINE
  5
139
100
AcDbEntity
  8
Layer_1
 62
7
100
AcDbLine
 10
56.881680
 20
177.437274
 30
0.0
 11
57.067180
 21
177.324814
 31
0.0
  0
LINE
  5
13a
100
AcDbEntity
  8
Layer_1
 62
7
100
AcDbLine
 10
57.067180
 20
177.324814
 30
0.0
 11
57.263940
 21
177.230314
 31
0.0
  0
LINE
  5
13b
100
AcDbEntity
  8
Layer_1
 62
7
100
AcDbLine
 10
57.263940
 20
177.230314
 30
0.0
 11
57.470860
 21
177.154914
 31
0.0
  0
LINE
  5
13c
100
AcDbEntity
  8
Layer_1
 62
7
100
AcDbLine
 10
57.470860
 20
177.154914
 30
0.0
 11
57.686810
 21
177.099614
 31
0.0
  0
LINE
  5
13d
100
AcDbEntity
  8
Layer_1
 62
7
100
AcDbLine
 10
57.686810
 20
177.099614
 30
0.0
 11
57.910690
 21
177.065614
 31
0.0
  0
LINE
  5
13e
100
AcDbEntity
  8
Layer_1
 62
7
100
AcDbLine
 10
57.910690
 20
177.065614
 30
0.0
 11
58.141370
 21
177.054014
 31
0.0
  0
LINE
  5
13f
100
AcDbEntity
  8
Layer_1
 62
7
100
AcDbLine
 10
58.141370
 20
177.054014
 30
0.0
 11
58.372060
 21
177.065614
 31
0.0
  0
LINE
  5
140
100
AcDbEntity
  8
Layer_1
 62
7
100
AcDbLine
 10
58.372060
 20
177.065614
 30
0.0
 11
58.595930
 21
177.099614
 31
0.0
  0
LINE
  5
141
100
AcDbEntity
  8
Layer_1
 62
7
100
AcDbLine
 10
58.595930
 20
177.099614
 30
0.0
 11
58.811880
 21
177.154914
 31
0.0
  0
LINE
  5
142
100
AcDbEntity
  8
Layer_1
 62
7
100
AcDbLine
 10
58.811880
 20
177.154914
 30
0.0
 11
59.018800
 21
177.230314
 31
0.0
  0
LINE
  5
143
100
AcDbEntity
  8
Layer_1
 62
7
100
AcDbLine
 10
59.018800
 20
177.230314
 30
0.0
 11
59.215560
 21
177.324814
 31
0.0
  0
LINE
  5
144
100
AcDbEntity
  8
Layer_1
 62
7
100
AcDbLine
 10
59.215560
 20
177.324814
 30
0.0
 11
59.401060
 21
177.437274
 31
0.0
  0
LINE
  5
145
100
AcDbEntity
  8
Layer_1
 62
7
100
AcDbLine
 10
59.401060
 20
177.437274
 30
0.0
 11
59.574180
 21
177.566574
 31
0.0
  0
LINE
  5
146
100
AcDbEntity
  8
Layer_1
 62
7
100
AcDbLine
 10
59.574180
 20
177.566574
 30
0.0
 11
59.733800
 21
177.711594
 31
0.0
  0
LINE
  5
147
100
AcDbEntity
  8
Layer_1
 62
7
100
AcDbLine
 10
59.733800
 20
177.711594
 30
0.0
 11
59.878820
 21
177.871214
 31
0.0
  0
LINE
  5
148
100
AcDbEntity
  8
Layer_1
 62
7
100
AcDbLine
 10
59.878820
 20
177.871214
 30
0.0
 11
60.008120
 21
178.044334
 31
0.0
  0
LINE
  5
149
100
AcDbEntity
  8
Layer_1
 62
7
100
AcDbLine
 10
60.008120
 20
178.044334
 30
0.0
 11
60.120580
 21
178.229834
 31
0.0
  0
LINE
  5
14a
100
AcDbEntity
  8
Layer_1
 62
7
100
AcDbLine
 10
60.120580
 20
178.229834
 30
0.0
 11
60.215080
 21
178.426604
 31
0.0
  0
LINE
  5
14b
100
AcDbEntity
  8
Layer_1
 62
7
100
AcDbLine
 10
60.215080
 20
178.426604
 30
0.0
 11
60.290580
 21
178.633514
 31
0.0
  0
LINE
  5
14c
100
AcDbEntity
  8
Layer_1
 62
7
100
AcDbLine
 10
60.290580
 20
178.633514
 30
0.0
 11
60.345880
 21
178.849474
 31
0.0
  0
LINE
  5
14d
100
AcDbEntity
  8
Layer_1
 62
7
100
AcDbLine
 10
60.345880
 20
178.849474
 30
0.0
 11
60.379880
 21
179.073344
 31
0.0
  0
LINE
  5
14e
100
AcDbEntity
  8
Layer_1
 62
7
100
AcDbLine
 10
60.379880
 20
179.073344
 30
0.0
 11
60.391480
 21
179.304034
 31
0.0
  0
LINE
  5
14f
100
AcDbEntity
  8
Layer_1
 62
7
100
AcDbLine
 10
60.391480
 20
179.304034
 30
0.0
 11
60.391480
 21
179.322134
 31
0.0
  0
LINE
  5
150
100
AcDbEntity
  8
Layer_1
 62
7
100
AcDbLine
 10
60.391480
 20
179.322134
 30
0.0
 11
60.438480
 21
179.322134
 31
0.0
  0
LINE
  5
151
100
AcDbEntity
  8
Layer_1
 62
7
100
AcDbLine
 10
60.438480
 20
179.322134
 30
0.0
 11
62.891570
 21
196.317994
 31
0.0
  0
LINE
  5
152
100
AcDbEntity
  8
Layer_1
 62
7
100
AcDbLine
 10
62.891570
 20
196.317994
 30
0.0
 11
62.891570
 21
234.582334
 31
0.0
  0
LINE
  5
153
100
AcDbEntity
  8
Layer_1
 62
7
100
AcDbLine
 10
62.891570
 20
234.582334
 30
0.0
 11
63.152380
 21
235.181464
 31
0.0
  0
LINE
  5
154
100
AcDbEntity
  8
Layer_1
 62
7
100
AcDbLine
 10
63.152380
 20
235.181464
 30
0.0
 11
63.447970
 21
235.720204
 31
0.0
  0
LINE
  5
155
100
AcDbEntity
  8
Layer_1
 62
7
100
AcDbLine
 10
63.447970
 20
235.720204
 30
0.0
 11
63.606240
 21
235.963324
 31
0.0
  0
LINE
  5
156
100
AcDbEntity
  8
Layer_1
 62
7
100
AcDbLine
 10
63.606240
 20
235.963324
 30
0.0
 11
63.770120
 21
236.187014
 31
0.0
  0
LINE
  5
157
100
AcDbEntity
  8
Layer_1
 62
7
100
AcDbLine
 10
63.770120
 20
236.187014
 30
0.0
 11
63.938590
 21
236.389824
 31
0.0
  0
LINE
  5
158
100
AcDbEntity
  8
Layer_1
 62
7
100
AcDbLine
 10
63.938590
 20
236.389824
 30
0.0
 11
64.110620
 21
236.570324
 31
0.0
  0
LINE
  5
159
100
AcDbEntity
  8
Layer_1
 62
7
100
AcDbLine
 10
64.110620
 20
236.570324
 30
0.0
 11
66.171990
 21
236.570324
 31
0.0
  0
LINE
  5
15a
100
AcDbEntity
  8
Layer_1
 62
7
100
AcDbLine
 10
66.171990
 20
236.570324
 30
0.0
 11
66.344010
 21
236.389794
 31
0.0
  0
LINE
  5
15b
100
AcDbEntity
  8
Layer_1
 62
7
100
AcDbLine
 10
66.344010
 20
236.389794
 30
0.0
 11
66.512480
 21
236.186914
 31
0.0
  0
LINE
  5
15c
100
AcDbEntity
  8
Layer_1
 62
7
100
AcDbLine
 10
66.512480
 20
236.186914
 30
0.0
 11
66.676360
 21
235.963134
 31
0.0
  0
LINE
  5
15d
100
AcDbEntity
  8
Layer_1
 62
7
100
AcDbLine
 10
66.676360
 20
235.963134
 30
0.0
 11
66.834640
 21
235.719934
 31
0.0
  0
LINE
  5
15e
100
AcDbEntity
  8
Layer_1
 62
7
100
AcDbLine
 10
66.834640
 20
235.719934
 30
0.0
 11
67.130230
 21
235.181024
 31
0.0
  0
LINE
  5
15f
100
AcDbEntity
  8
Layer_1
 62
7
100
AcDbLine
 10
67.130230
 20
235.181024
 30
0.0
 11
67.391040
 21
234.581814
 31
0.0
  0
LINE
  5
160
100
AcDbEntity
  8
Layer_1
 62
7
100
AcDbLine
 10
67.391040
 20
234.581814
 30
0.0
 11
67.391040
 21
196.334024
 31
0.0
  0
LINE
  5
161
100
AcDbEntity
  8
Layer_1
 62
7
100
AcDbLine
 10
67.391040
 20
196.334024
 30
0.0
 11
67.421040
 21
196.334024
 31
0.0
  0
LINE
  5
162
100
AcDbEntity
  8
Layer_1
 62
7
100
AcDbLine
 10
67.421040
 20
196.334024
 30
0.0
 11
67.415040
 21
196.310224
 31
0.0
  0
LINE
  5
163
100
AcDbEntity
  8
Layer_1
 62
7
100
AcDbLine
 10
67.415040
 20
196.310224
 30
0.0
 11
69.891370
 21
179.338134
 31
0.0
  0
LINE
  5
164
100
AcDbEntity
  8
Layer_1
 62
7
100
AcDbLine
 10
69.891370
 20
179.338134
 30
0.0
 11
69.891370
 21
179.320034
 31
0.0
  0
LINE
  5
165
100
AcDbEntity
  8
Layer_1
 62
7
100
AcDbLine
 10
69.891370
 20
179.320034
 30
0.0
 11
69.902970
 21
179.089344
 31
0.0
  0
LINE
  5
166
100
AcDbEntity
  8
Layer_1
 62
7
100
AcDbLine
 10
69.902970
 20
179.089344
 30
0.0
 11
69.936970
 21
178.865474
 31
0.0
  0
LINE
  5
167
100
AcDbEntity
  8
Layer_1
 62
7
100
AcDbLine
 10
69.936970
 20
178.865474
 30
0.0
 11
69.992270
 21
178.649514
 31
0.0
  0
LINE
  5
168
100
AcDbEntity
  8
Layer_1
 62
7
100
AcDbLine
 10
69.992270
 20
178.649514
 30
0.0
 11
70.067770
 21
178.442604
 31
0.0
  0
LINE
  5
169
100
AcDbEntity
  8
Layer_1
 62
7
100
AcDbLine
 10
70.067770
 20
178.442604
 30
0.0
 11
70.162270
 21
178.245834
 31
0.0
  0
LINE
  5
16a
100
AcDbEntity
  8
Layer_1
 62
7
100
AcDbLine
 10
70.162270
 20
178.245834
 30
0.0
 11
70.274730
 21
178.060334
 31
0.0
  0
LINE
  5
16b
100
AcDbEntity
  8
Layer_1
 62
7
100
AcDbLine
 10
70.274730
 20
178.060334
 30
0.0
 11
70.404020
 21
177.887214
 31
0.0
  0
LINE
  5
16c
100
AcDbEntity
  8
Layer_1
 62
7
100
AcDbLine
 10
70.404020
 20
177.887214
 30
0.0
 11
70.549040
 21
177.727594
 31
0.0
  0
LINE
  5
16d
100
AcDbEntity
  8
Layer_1
 62
7
100
AcDbLine
 10
70.549040
 20
177.727594
 30
0.0
 11
70.708670
 21
177.582574
 31
0.0
  0
LINE
  5
16e
100
AcDbEntity
  8
Layer_1
 62
7
100
AcDbLine
 10
70.708670
 20
177.582574
 30
0.0
 11
70.881790
 21
177.453274
 31
0.0
  0
LINE
  5
16f
100
AcDbEntity
  8
Layer_1
 62
7
100
AcDbLine
 10
70.881790
 20
177.453274
 30
0.0
 11
71.067280
 21
177.340814
 31
0.0
  0
LINE
  5
170
100
AcDbEntity
  8
Layer_1
 62
7
100
AcDbLine
 10
71.067280
 20
177.340814
 30
0.0
 11
71.264050
 21
177.246314
 31
0.0
  0
LINE
  5
171
100
AcDbEntity
  8
Layer_1
 62
7
100
AcDbLine
 10
71.264050
 20
177.246314
 30
0.0
 11
71.470960
 21
177.170814
 31
0.0
  0
LINE
  5
172
100
AcDbEntity
  8
Layer_1
 62
7
100
AcDbLine
 10
71.470960
 20
177.170814
 30
0.0
 11
71.686920
 21
177.115514
 31
0.0
  0
LINE
  5
173
100
AcDbEntity
  8
Layer_1
 62
7
100
AcDbLine
 10
71.686920
 20
177.115514
 30
0.0
 11
71.910790
 21
177.081514
 31
0.0
  0
LINE
  5
174
100
AcDbEntity
  8
Layer_1
 62
7
100
AcDbLine
 10
71.910790
 20
177.081514
 30
0.0
 11
72.141480
 21
177.069914
 31
0.0
  0
LINE
  5
175
100
AcDbEntity
  8
Layer_1
 62
7
100
AcDbLine
 10
72.141480
 20
177.069914
 30
0.0
 11
72.372160
 21
177.081514
 31
0.0
  0
LINE
  5
176
100
AcDbEntity
  8
Layer_1
 62
7
100
AcDbLine
 10
72.372160
 20
177.081514
 30
0.0
 11
72.596040
 21
177.115514
 31
0.0
  0
LINE
  5
177
100
AcDbEntity
  8
Layer_1
 62
7
100
AcDbLine
 10
72.596040
 20
177.115514
 30
0.0
 11
72.811990
 21
177.170814
 31
0.0
  0
LINE
  5
178
100
AcDbEntity
  8
Layer_1
 62
7
100
AcDbLine
 10
72.811990
 20
177.170814
 30
0.0
 11
73.018900
 21
177.246314
 31
0.0
  0
LINE
  5
179
100
AcDbEntity
  8
Layer_1
 62
7
100
AcDbLine
 10
73.018900
 20
177.246314
 30
0.0
 11
73.215670
 21
177.340814
 31
0.0
  0
LINE
  5
17a
100
AcDbEntity
  8
Layer_1
 62
7
100
AcDbLine
 10
73.215670
 20
177.340814
 30
0.0
 11
73.401160
 21
177.453274
 31
0.0
  0
LINE
  5
17b
100
AcDbEntity
  8
Layer_1
 62
7
100
AcDbLine
 10
73.401160
 20
177.453274
 30
0.0
 11
73.574280
 21
177.582574
 31
0.0
  0
LINE
  5
17c
100
AcDbEntity
  8
Layer_1
 62
7
100
AcDbLine
 10
73.574280
 20
177.582574
 30
0.0
 11
73.733910
 21
177.727594
 31
0.0
  0
LINE
  5
17d
100
AcDbEntity
  8
Layer_1
 62
7
100
AcDbLine
 10
73.733910
 20
177.727594
 30
0.0
 11
73.878930
 21
177.887214
 31
0.0
  0
LINE
  5
17e
100
AcDbEntity
  8
Layer_1
 62
7
100
AcDbLine
 10
73.878930
 20
177.887214
 30
0.0
 11
74.008220
 21
178.060334
 31
0.0
  0
LINE
  5
17f
100
AcDbEntity
  8
Layer_1
 62
7
100
AcDbLine
 10
74.008220
 20
178.060334
 30
0.0
 11
74.120680
 21
178.245834
 31
0.0
  0
LINE
  5
180
100
AcDbEntity
  8
Layer_1
 62
7
100
AcDbLine
 10
74.120680
 20
178.245834
 30
0.0
 11
74.215180
 21
178.442604
 31
0.0
  0
LINE
  5
181
100
AcDbEntity
  8
Layer_1
 62
7
100
AcDbLine
 10
74.215180
 20
178.442604
 30
0.0
 11
74.290680
 21
178.649514
 31
0.0
  0
LINE
  5
182
100
AcDbEntity
  8
Layer_1
 62
7
100
AcDbLine
 10
74.290680
 20
178.649514
 30
0.0
 11
74.345980
 21
178.865474
 31
0.0
  0
LINE
  5
183
100
AcDbEntity
  8
Layer_1
 62
7
100
AcDbLine
 10
74.345980
 20
178.865474
 30
0.0
 11
74.379980
 21
179.089344
 31
0.0
  0
LINE
  5
184
100
AcDbEntity
  8
Layer_1
 62
7
100
AcDbLine
 10
74.379980
 20
179.089344
 30
0.0
 11
74.391580
 21
179.320034
 31
0.0
  0
LINE
  5
185
100
AcDbEntity
  8
Layer_1
 62
7
100
AcDbLine
 10
74.391580
 20
179.320034
 30
0.0
 11
74.391580
 21
179.338134
 31
0.0
  0
LINE
  5
186
100
AcDbEntity
  8
Layer_1
 62
7
100
AcDbLine
 10
74.391580
 20
179.338134
 30
0.0
 11
74.438580
 21
179.338134
 31
0.0
  0
LINE
  5
187
100
AcDbEntity
  8
Layer_1
 62
7
100
AcDbLine
 10
74.438580
 20
179.338134
 30
0.0
 11
76.891670
 21
196.333994
 31
0.0
  0
LINE
  5
188
100
AcDbEntity
  8
Layer_1
 62
7
100
AcDbLine
 10
76.891670
 20
196.333994
 30
0.0
 11
76.891670
 21
233.874844
 31
0.0
  0
LINE
  5
189
100
AcDbEntity
  8
Layer_1
 62
7
100
AcDbLine
 10
76.891670
 20
233.874844
 30
0.0
 11
77.126450
 21
234.294694
 31
0.0
  0
LINE
  5
18a
100
AcDbEntity
  8
Layer_1
 62
7
100
AcDbLine
 10
77.126450
 20
234.294694
 30
0.0
 11
77.397140
 21
234.697124
 31
0.0
  0
LINE
  5
18b
100
AcDbEntity
  8
Layer_1
 62
7
100
AcDbLine
 10
77.397140
 20
234.697124
 30
0.0
 11
77.700650
 21
235.078994
 31
0.0
  0
LINE
  5
18c
100
AcDbEntity
  8
Layer_1
 62
7
100
AcDbLine
 10
77.700650
 20
235.078994
 30
0.0
 11
78.033870
 21
235.437164
 31
0.0
  0
LINE
  5
18d
100
AcDbEntity
  8
Layer_1
 62
7
100
AcDbLine
 10
78.033870
 20
235.437164
 30
0.0
 11
78.393680
 21
235.768514
 31
0.0
  0
LINE
  5
18e
100
AcDbEntity
  8
Layer_1
 62
7
100
AcDbLine
 10
78.393680
 20
235.768514
 30
0.0
 11
78.776979
 21
236.069914
 31
0.0
  0
LINE
  5
18f
100
AcDbEntity
  8
Layer_1
 62
7
100
AcDbLine
 10
78.776979
 20
236.069914
 30
0.0
 11
79.180648
 21
236.338204
 31
0.0
  0
LINE
  5
190
100
AcDbEntity
  8
Layer_1
 62
7
100
AcDbLine
 10
79.180648
 20
236.338204
 30
0.0
 11
79.601582
 21
236.570284
 31
0.0
  0
LINE
  5
191
100
AcDbEntity
  8
Layer_1
 62
7
100
AcDbLine
 10
79.601582
 20
236.570284
 30
0.0
 11
91.301126
 21
236.570284
 31
0.0
  0
LINE
  5
192
100
AcDbEntity
  8
Layer_1
 62
7
100
AcDbLine
 10
91.301126
 20
236.570284
 30
0.0
 11
91.669273
 21
236.588784
 31
0.0
  0
LINE
  5
193
100
AcDbEntity
  8
Layer_1
 62
7
100
AcDbLine
 10
91.669273
 20
236.588784
 30
0.0
 11
92.026548
 21
236.642984
 31
0.0
  0
LINE
  5
194
100
AcDbEntity
  8
Layer_1
 62
7
100
AcDbLine
 10
92.026548
 20
236.642984
 30
0.0
 11
92.371173
 21
236.731184
 31
0.0
  0
LINE
  5
195
100
AcDbEntity
  8
Layer_1
 62
7
100
AcDbLine
 10
92.371173
 20
236.731184
 30
0.0
 11
92.701370
 21
236.851604
 31
0.0
  0
LINE
  5
196
100
AcDbEntity
  8
Layer_1
 62
7
100
AcDbLine
 10
92.701370
 20
236.851604
 30
0.0
 11
93.015364
 21
237.002454
 31
0.0
  0
LINE
  5
197
100
AcDbEntity
  8
Layer_1
 62
7
100
AcDbLine
 10
93.015364
 20
237.002454
 30
0.0
 11
93.311375
 21
237.181954
 31
0.0
  0
LINE
  5
198
100
AcDbEntity
  8
Layer_1
 62
7
100
AcDbLine
 10
93.311375
 20
237.181954
 30
0.0
 11
93.587629
 21
237.388314
 31
0.0
  0
LINE
  5
199
100
AcDbEntity
  8
Layer_1
 62
7
100
AcDbLine
 10
93.587629
 20
237.388314
 30
0.0
 11
93.842349
 21
237.619774
 31
0.0
  0
LINE
  5
19a
100
AcDbEntity
  8
Layer_1
 62
7
100
AcDbLine
 10
93.842349
 20
237.619774
 30
0.0
 11
94.073756
 21
237.874544
 31
0.0
  0
LINE
  5
19b
100
AcDbEntity
  8
Layer_1
 62
7
100
AcDbLine
 10
94.073756
 20
237.874544
 30
0.0
 11
94.280075
 21
238.150844
 31
0.0
  0
LINE
  5
19c
100
AcDbEntity
  8
Layer_1
 62
7
100
AcDbLine
 10
94.280075
 20
238.150844
 30
0.0
 11
94.459529
 21
238.446904
 31
0.0
  0
LINE
  5
19d
100
AcDbEntity
  8
Layer_1
 62
7
100
AcDbLine
 10
94.459529
 20
238.446904
 30
0.0
 11
94.610336
 21
238.760934
 31
0.0
  0
LINE
  5
19e
100
AcDbEntity
  8
Layer_1
 62
7
100
AcDbLine
 10
94.610336
 20
238.760934
 30
0.0
 11
94.730727
 21
239.091164
 31
0.0
  0
LINE
  5
19f
100
AcDbEntity
  8
Layer_1
 62
7
100
AcDbLine
 10
94.730727
 20
239.091164
 30
0.0
 11
94.818917
 21
239.435814
 31
0.0
  0
LINE
  5
1a0
100
AcDbEntity
  8
Layer_1
 62
7
100
AcDbLine
 10
94.818917
 20
239.435814
 30
0.0
 11
94.873137
 21
239.793104
 31
0.0
  0
LINE
  5
1a1
100
AcDbEntity
  8
Layer_1
 62
7
100
AcDbLine
 10
94.873137
 20
239.793104
 30
0.0
 11
94.891607
 21
240.161254
 31
0.0
  0
LINE
  5
1a2
100
AcDbEntity
  8
Layer_1
 62
7
100
AcDbLine
 10
94.891607
 20
240.161254
 30
0.0
 11
94.891607
 21
272.479704
 31
0.0
  0
LINE
  5
1a3
100
AcDbEntity
  8
Layer_1
 62
7
100
AcDbLine
 10
94.891607
 20
272.479704
 30
0.0
 11
94.873147
 21
272.847854
 31
0.0
  0
LINE
  5
1a4
100
AcDbEntity
  8
Layer_1
 62
7
100
AcDbLine
 10
94.873147
 20
272.847854
 30
0.0
 11
94.818927
 21
273.205144
 31
0.0
  0
LINE
  5
1a5
100
AcDbEntity
  8
Layer_1
 62
7
100
AcDbLine
 10
94.818927
 20
273.205144
 30
0.0
 11
94.730737
 21
273.549794
 31
0.0
  0
LINE
  5
1a6
100
AcDbEntity
  8
Layer_1
 62
7
100
AcDbLine
 10
94.730737
 20
273.549794
 30
0.0
 11
94.610349
 21
273.880024
 31
0.0
  0
LINE
  5
1a7
100
AcDbEntity
  8
Layer_1
 62
7
100
AcDbLine
 10
94.610349
 20
273.880024
 30
0.0
 11
94.459539
 21
274.194054
 31
0.0
  0
LINE
  5
1a8
100
AcDbEntity
  8
Layer_1
 62
7
100
AcDbLine
 10
94.459539
 20
274.194054
 30
0.0
 11
94.280086
 21
274.490114
 31
0.0
  0
LINE
  5
1a9
100
AcDbEntity
  8
Layer_1
 62
7
100
AcDbLine
 10
94.280086
 20
274.490114
 30
0.0
 11
94.073766
 21
274.766414
 31
0.0
  0
LINE
  5
1aa
100
AcDbEntity
  8
Layer_1
 62
7
100
AcDbLine
 10
94.073766
 20
274.766414
 30
0.0
 11
93.842362
 21
275.021184
 31
0.0
  0
LINE
  5
1ab
100
AcDbEntity
  8
Layer_1
 62
7
100
AcDbLine
 10
93.842362
 20
275.021184
 30
0.0
 11
93.587639
 21
275.252634
 31
0.0
  0
LINE
  5
1ac
100
AcDbEntity
  8
Layer_1
 62
7
100
AcDbLine
 10
93.587639
 20
275.252634
 30
0.0
 11
93.311385
 21
275.459004
 31
0.0
  0
LINE
  5
1ad
100
AcDbEntity
  8
Layer_1
 62
7
100
AcDbLine
 10
93.311385
 20
275.459004
 30
0.0
 11
93.015375
 21
275.638494
 31
0.0
  0
LINE
  5
1ae
100
AcDbEntity
  8
Layer_1
 62
7
100
AcDbLine
 10
93.015375
 20
275.638494
 30
0.0
 11
92.701380
 21
275.789344
 31
0.0
  0
LINE
  5
1af
100
AcDbEntity
  8
Layer_1
 62
7
100
AcDbLine
 10
92.701380
 20
275.789344
 30
0.0
 11
92.371183
 21
275.909774
 31
0.0
  0
LINE
  5
1b0
100
AcDbEntity
  8
Layer_1
 62
7
100
AcDbLine
 10
92.371183
 20
275.909774
 30
0.0
 11
92.026558
 21
275.997974
 31
0.0
  0
LINE
  5
1b1
100
AcDbEntity
  8
Layer_1
 62
7
100
AcDbLine
 10
92.026558
 20
275.997974
 30
0.0
 11
91.669283
 21
276.052174
 31
0.0
  0
LINE
  5
1b2
100
AcDbEntity
  8
Layer_1
 62
7
100
AcDbLine
 10
91.669283
 20
276.052174
 30
0.0
 11
91.301137
 21
276.070674
 31
0.0
  0
LINE
  5
1b3
100
AcDbEntity
  8
Layer_1
 62
7
100
AcDbLine
 10
91.301137
 20
276.070674
 30
0.0
 11
38.982380
 21
276.070674
 31
0.0
  0
SPLINE
  5
1b4
100
AcDbEntity
  8
Layer_1
 62
7
100
AcDbSpline
 70
8
 71
3
 72
8
 73
4
 74
0
 40
0
 40
0
 40
0
 40
0
 40
1
 40
1
 40
1
 40
1
 10
41.391760
 20
260.262354
 30
0.0
 10
41.391760
 20
259.815772
 30
0.0
 10
41.153511
 20
259.403113
 30
0.0
 10
40.766760
 20
259.179822
 30
0.0
  0
SPLINE
  5
1b5
100
AcDbEntity
  8
Layer_1
 62
7
100
AcDbSpline
 70
8
 71
3
 72
8
 73
4
 74
0
 40
0
 40
0
 40
0
 40
0
 40
1
 40
1
 40
1
 40
1
 10
40.766760
 20
259.179822
 30
0.0
 10
40.380009
 20
258.956531
 30
0.0
 10
39.903511
 20
258.956531
 30
0.0
 10
39.516760
 20
259.179822
 30
0.0
  0
SPLINE
  5
1b6
100
AcDbEntity
  8
Layer_1
 62
7
100
AcDbSpline
 70
8
 71
3
 72
8
 73
4
 74
0
 40
0
 40
0
 40
0
 40
0
 40
1
 40
1
 40
1
 40
1
 10
39.516760
 20
259.179822
 30
0.0
 10
39.130009
 20
259.403113
 30
0.0
 10
38.891760
 20
259.815772
 30
0.0
 10
38.891760
 20
260.262354
 30
0.0
  0
SPLINE
  5
1b7
100
AcDbEntity
  8
Layer_1
 62
7
100
AcDbSpline
 70
8
 71
3
 72
8
 73
4
 74
0
 40
0
 40
0
 40
0
 40
0
 40
1
 40
1
 40
1
 40
1
 10
38.891760
 20
260.262354
 30
0.0
 10
38.891760
 20
260.708936
 30
0.0
 10
39.130009
 20
261.121595
 30
0.0
 10
39.516760
 20
261.344886
 30
0.0
  0
SPLINE
  5
1b8
100
AcDbEntity
  8
Layer_1
 62
7
100
AcDbSpline
 70
8
 71
3
 72
8
 73
4
 74
0
 40
0
 40
0
 40
0
 40
0
 40
1
 40
1
 40
1
 40
1
 10
39.516760
 20
261.344886
 30
0.0
 10
39.903511
 20
261.568177
 30
0.0
 10
40.380009
 20
261.568177
 30
0.0
 10
40.766760
 20
261.344886
 30
0.0
  0
SPLINE
  5
1b9
100
AcDbEntity
  8
Layer_1
 62
7
100
AcDbSpline
 70
8
 71
3
 72
8
 73
4
 74
0
 40
0
 40
0
 40
0
 40
0
 40
1
 40
1
 40
1
 40
1
 10
40.766760
 20
261.344886
 30
0.0
 10
41.153511
 20
261.121595
 30
0.0
 10
41.391760
 20
260.708936
 30
0.0
 10
41.391760
 20
260.262354
 30
0.0
  0
LINE
  5
1ba
100
AcDbEntity
  8
Layer_1
 62
7
100
AcDbLine
 10
41.391760
 20
260.262354
 30
0.0
 11
41.391760
 21
260.262354
 31
0.0
  0
SPLINE
  5
1bb
100
AcDbEntity
  8
Layer_1
 62
7
100
AcDbSpline
 70
8
 71
3
 72
8
 73
4
 74
0
 40
0
 40
0
 40
0
 40
0
 40
1
 40
1
 40
1
 40
1
 10
91.391756
 20
260.262354
 30
0.0
 10
91.391756
 20
259.815772
 30
0.0
 10
91.153507
 20
259.403113
 30
0.0
 10
90.766756
 20
259.179822
 30
0.0
  0
SPLINE
  5
1bc
100
AcDbEntity
  8
Layer_1
 62
7
100
AcDbSpline
 70
8
 71
3
 72
8
 73
4
 74
0
 40
0
 40
0
 40
0
 40
0
 40
1
 40
1
 40
1
 40
1
 10
90.766756
 20
259.179822
 30
0.0
 10
90.380005
 20
258.956531
 30
0.0
 10
89.903507
 20
258.956531
 30
0.0
 10
89.516756
 20
259.179822
 30
0.0
  0
SPLINE
  5
1bd
100
AcDbEntity
  8
Layer_1
 62
7
100
AcDbSpline
 70
8
 71
3
 72
8
 73
4
 74
0
 40
0
 40
0
 40
0
 40
0
 40
1
 40
1
 40
1
 40
1
 10
89.516756
 20
259.179822
 30
0.0
 10
89.130005
 20
259.403113
 30
0.0
 10
88.891756
 20
259.815772
 30
0.0
 10
88.891756
 20
260.262354
 30
0.0
  0
SPLINE
  5
1be
100
AcDbEntity
  8
Layer_1
 62
7
100
AcDbSpline
 70
8
 71
3
 72
8
 73
4
 74
0
 40
0
 40
0
 40
0
 40
0
 40
1
 40
1
 40
1
 40
1
 10
88.891756
 20
260.262354
 30
0.0
 10
88.891756
 20
260.708936
 30
0.0
 10
89.130005
 20
261.121595
 30
0.0
 10
89.516756
 20
261.344886
 30
0.0
  0
SPLINE
  5
1bf
100
AcDbEntity
  8
Layer_1
 62
7
100
AcDbSpline
 70
8
 71
3
 72
8
 73
4
 74
0
 40
0
 40
0
 40
0
 40
0
 40
1
 40
1
 40
1
 40
1
 10
89.516756
 20
261.344886
 30
0.0
 10
89.903507
 20
261.568177
 30
0.0
 10
90.380005
 20
261.568177
 30
0.0
 10
90.766756
 20
261.344886
 30
0.0
  0
SPLINE
  5
1c0
100
AcDbEntity
  8
Layer_1
 62
7
100
AcDbSpline
 70
8
 71
3
 72
8
 73
4
 74
0
 40
0
 40
0
 40
0
 40
0
 40
1
 40
1
 40
1
 40
1
 10
90.766756
 20
261.344886
 30
0.0
 10
91.153507
 20
261.121595
 30
0.0
 10
91.391756
 20
260.708936
 30
0.0
 10
91.391756
 20
260.262354
 30
0.0
  0
LINE
  5
1c1
100
AcDbEntity
  8
Layer_1
 62
7
100
AcDbLine
 10
91.391756
 20
260.262354
 30
0.0
 11
91.391756
 21
260.262354
 31
0.0
  0
ENDSEC
  0
SECTION
  2
OBJECTS
  0
DICTIONARY
  5
C
330
0
100
AcDbDictionary
  3
ACAD_GROUP
350
D
  3
ACAD_MLINESTYLE
350
17
  0
DICTIONARY
  5
D
330
C
100
AcDbDictionary
  0
DICTIONARY
  5
1A
330
C
100
AcDbDictionary
  0
DICTIONARY
  5
17
330
C
100
AcDbDictionary
  3
STANDARD
350
18
  0
DICTIONARY
  5
19
330
C
100
AcDbDictionary
  0
ENDSEC
  0
EOF
