G04 #@! TF.GenerationSoftware,KiCad,Pcbnew,9.0.0*
G04 #@! TF.CreationDate,2025-06-10T13:42:17+01:00*
G04 #@! TF.ProjectId,SolarSoilSensor_r_v2,536f6c61-7253-46f6-996c-53656e736f72,rev?*
G04 #@! TF.SameCoordinates,PX5faea10PY77e7cd0*
G04 #@! TF.FileFunction,Legend,Bot*
G04 #@! TF.FilePolarity,Positive*
%FSLAX46Y46*%
G04 Gerber Fmt 4.6, Leading zero omitted, Abs format (unit mm)*
G04 Created by KiCad (PCBNEW 9.0.0) date 2025-06-10 13:42:17*
%MOMM*%
%LPD*%
G01*
G04 APERTURE LIST*
%ADD10C,0.150000*%
%ADD11C,0.300000*%
%ADD12C,0.500000*%
%ADD13C,0.010000*%
G04 APERTURE END LIST*
D10*
X32730839Y26341615D02*
X32730839Y25693996D01*
X32730839Y25693996D02*
X32692744Y25617806D01*
X32692744Y25617806D02*
X32654649Y25579710D01*
X32654649Y25579710D02*
X32578458Y25541615D01*
X32578458Y25541615D02*
X32426077Y25541615D01*
X32426077Y25541615D02*
X32349887Y25579710D01*
X32349887Y25579710D02*
X32311792Y25617806D01*
X32311792Y25617806D02*
X32273696Y25693996D01*
X32273696Y25693996D02*
X32273696Y26341615D01*
X31930840Y25579710D02*
X31854649Y25541615D01*
X31854649Y25541615D02*
X31702268Y25541615D01*
X31702268Y25541615D02*
X31626078Y25579710D01*
X31626078Y25579710D02*
X31587982Y25655901D01*
X31587982Y25655901D02*
X31587982Y25693996D01*
X31587982Y25693996D02*
X31626078Y25770187D01*
X31626078Y25770187D02*
X31702268Y25808282D01*
X31702268Y25808282D02*
X31816554Y25808282D01*
X31816554Y25808282D02*
X31892744Y25846377D01*
X31892744Y25846377D02*
X31930840Y25922568D01*
X31930840Y25922568D02*
X31930840Y25960663D01*
X31930840Y25960663D02*
X31892744Y26036853D01*
X31892744Y26036853D02*
X31816554Y26074949D01*
X31816554Y26074949D02*
X31702268Y26074949D01*
X31702268Y26074949D02*
X31626078Y26036853D01*
X30940363Y25579710D02*
X31016554Y25541615D01*
X31016554Y25541615D02*
X31168935Y25541615D01*
X31168935Y25541615D02*
X31245125Y25579710D01*
X31245125Y25579710D02*
X31283221Y25655901D01*
X31283221Y25655901D02*
X31283221Y25960663D01*
X31283221Y25960663D02*
X31245125Y26036853D01*
X31245125Y26036853D02*
X31168935Y26074949D01*
X31168935Y26074949D02*
X31016554Y26074949D01*
X31016554Y26074949D02*
X30940363Y26036853D01*
X30940363Y26036853D02*
X30902268Y25960663D01*
X30902268Y25960663D02*
X30902268Y25884472D01*
X30902268Y25884472D02*
X31283221Y25808282D01*
X29949887Y25541615D02*
X29949887Y26341615D01*
X29949887Y26036853D02*
X29873697Y26074949D01*
X29873697Y26074949D02*
X29721316Y26074949D01*
X29721316Y26074949D02*
X29645125Y26036853D01*
X29645125Y26036853D02*
X29607030Y25998758D01*
X29607030Y25998758D02*
X29568935Y25922568D01*
X29568935Y25922568D02*
X29568935Y25693996D01*
X29568935Y25693996D02*
X29607030Y25617806D01*
X29607030Y25617806D02*
X29645125Y25579710D01*
X29645125Y25579710D02*
X29721316Y25541615D01*
X29721316Y25541615D02*
X29873697Y25541615D01*
X29873697Y25541615D02*
X29949887Y25579710D01*
X29226077Y25541615D02*
X29226077Y26074949D01*
X29226077Y26341615D02*
X29264173Y26303520D01*
X29264173Y26303520D02*
X29226077Y26265425D01*
X29226077Y26265425D02*
X29187982Y26303520D01*
X29187982Y26303520D02*
X29226077Y26341615D01*
X29226077Y26341615D02*
X29226077Y26265425D01*
X28502268Y26074949D02*
X28502268Y25427330D01*
X28502268Y25427330D02*
X28540363Y25351139D01*
X28540363Y25351139D02*
X28578459Y25313044D01*
X28578459Y25313044D02*
X28654649Y25274949D01*
X28654649Y25274949D02*
X28768935Y25274949D01*
X28768935Y25274949D02*
X28845125Y25313044D01*
X28502268Y25579710D02*
X28578459Y25541615D01*
X28578459Y25541615D02*
X28730840Y25541615D01*
X28730840Y25541615D02*
X28807030Y25579710D01*
X28807030Y25579710D02*
X28845125Y25617806D01*
X28845125Y25617806D02*
X28883221Y25693996D01*
X28883221Y25693996D02*
X28883221Y25922568D01*
X28883221Y25922568D02*
X28845125Y25998758D01*
X28845125Y25998758D02*
X28807030Y26036853D01*
X28807030Y26036853D02*
X28730840Y26074949D01*
X28730840Y26074949D02*
X28578459Y26074949D01*
X28578459Y26074949D02*
X28502268Y26036853D01*
X27511791Y25541615D02*
X27511791Y26341615D01*
X27511791Y26036853D02*
X27435601Y26074949D01*
X27435601Y26074949D02*
X27283220Y26074949D01*
X27283220Y26074949D02*
X27207029Y26036853D01*
X27207029Y26036853D02*
X27168934Y25998758D01*
X27168934Y25998758D02*
X27130839Y25922568D01*
X27130839Y25922568D02*
X27130839Y25693996D01*
X27130839Y25693996D02*
X27168934Y25617806D01*
X27168934Y25617806D02*
X27207029Y25579710D01*
X27207029Y25579710D02*
X27283220Y25541615D01*
X27283220Y25541615D02*
X27435601Y25541615D01*
X27435601Y25541615D02*
X27511791Y25579710D01*
X26673696Y25541615D02*
X26749886Y25579710D01*
X26749886Y25579710D02*
X26787981Y25655901D01*
X26787981Y25655901D02*
X26787981Y26341615D01*
X26254648Y25541615D02*
X26330838Y25579710D01*
X26330838Y25579710D02*
X26368933Y25617806D01*
X26368933Y25617806D02*
X26407029Y25693996D01*
X26407029Y25693996D02*
X26407029Y25922568D01*
X26407029Y25922568D02*
X26368933Y25998758D01*
X26368933Y25998758D02*
X26330838Y26036853D01*
X26330838Y26036853D02*
X26254648Y26074949D01*
X26254648Y26074949D02*
X26140362Y26074949D01*
X26140362Y26074949D02*
X26064171Y26036853D01*
X26064171Y26036853D02*
X26026076Y25998758D01*
X26026076Y25998758D02*
X25987981Y25922568D01*
X25987981Y25922568D02*
X25987981Y25693996D01*
X25987981Y25693996D02*
X26026076Y25617806D01*
X26026076Y25617806D02*
X26064171Y25579710D01*
X26064171Y25579710D02*
X26140362Y25541615D01*
X26140362Y25541615D02*
X26254648Y25541615D01*
X25645123Y25541615D02*
X25645123Y26341615D01*
X25645123Y26036853D02*
X25568933Y26074949D01*
X25568933Y26074949D02*
X25416552Y26074949D01*
X25416552Y26074949D02*
X25340361Y26036853D01*
X25340361Y26036853D02*
X25302266Y25998758D01*
X25302266Y25998758D02*
X25264171Y25922568D01*
X25264171Y25922568D02*
X25264171Y25693996D01*
X25264171Y25693996D02*
X25302266Y25617806D01*
X25302266Y25617806D02*
X25340361Y25579710D01*
X25340361Y25579710D02*
X25416552Y25541615D01*
X25416552Y25541615D02*
X25568933Y25541615D01*
X25568933Y25541615D02*
X25645123Y25579710D01*
X24197504Y25541615D02*
X24273694Y25579710D01*
X24273694Y25579710D02*
X24311789Y25617806D01*
X24311789Y25617806D02*
X24349885Y25693996D01*
X24349885Y25693996D02*
X24349885Y25922568D01*
X24349885Y25922568D02*
X24311789Y25998758D01*
X24311789Y25998758D02*
X24273694Y26036853D01*
X24273694Y26036853D02*
X24197504Y26074949D01*
X24197504Y26074949D02*
X24083218Y26074949D01*
X24083218Y26074949D02*
X24007027Y26036853D01*
X24007027Y26036853D02*
X23968932Y25998758D01*
X23968932Y25998758D02*
X23930837Y25922568D01*
X23930837Y25922568D02*
X23930837Y25693996D01*
X23930837Y25693996D02*
X23968932Y25617806D01*
X23968932Y25617806D02*
X24007027Y25579710D01*
X24007027Y25579710D02*
X24083218Y25541615D01*
X24083218Y25541615D02*
X24197504Y25541615D01*
X23702265Y26074949D02*
X23397503Y26074949D01*
X23587979Y25541615D02*
X23587979Y26227330D01*
X23587979Y26227330D02*
X23549884Y26303520D01*
X23549884Y26303520D02*
X23473694Y26341615D01*
X23473694Y26341615D02*
X23397503Y26341615D01*
X22559408Y25579710D02*
X22483217Y25541615D01*
X22483217Y25541615D02*
X22330836Y25541615D01*
X22330836Y25541615D02*
X22254646Y25579710D01*
X22254646Y25579710D02*
X22216550Y25655901D01*
X22216550Y25655901D02*
X22216550Y25693996D01*
X22216550Y25693996D02*
X22254646Y25770187D01*
X22254646Y25770187D02*
X22330836Y25808282D01*
X22330836Y25808282D02*
X22445122Y25808282D01*
X22445122Y25808282D02*
X22521312Y25846377D01*
X22521312Y25846377D02*
X22559408Y25922568D01*
X22559408Y25922568D02*
X22559408Y25960663D01*
X22559408Y25960663D02*
X22521312Y26036853D01*
X22521312Y26036853D02*
X22445122Y26074949D01*
X22445122Y26074949D02*
X22330836Y26074949D01*
X22330836Y26074949D02*
X22254646Y26036853D01*
X21759408Y25541615D02*
X21835598Y25579710D01*
X21835598Y25579710D02*
X21873693Y25617806D01*
X21873693Y25617806D02*
X21911789Y25693996D01*
X21911789Y25693996D02*
X21911789Y25922568D01*
X21911789Y25922568D02*
X21873693Y25998758D01*
X21873693Y25998758D02*
X21835598Y26036853D01*
X21835598Y26036853D02*
X21759408Y26074949D01*
X21759408Y26074949D02*
X21645122Y26074949D01*
X21645122Y26074949D02*
X21568931Y26036853D01*
X21568931Y26036853D02*
X21530836Y25998758D01*
X21530836Y25998758D02*
X21492741Y25922568D01*
X21492741Y25922568D02*
X21492741Y25693996D01*
X21492741Y25693996D02*
X21530836Y25617806D01*
X21530836Y25617806D02*
X21568931Y25579710D01*
X21568931Y25579710D02*
X21645122Y25541615D01*
X21645122Y25541615D02*
X21759408Y25541615D01*
X21035598Y25541615D02*
X21111788Y25579710D01*
X21111788Y25579710D02*
X21149883Y25655901D01*
X21149883Y25655901D02*
X21149883Y26341615D01*
X20387978Y25541615D02*
X20387978Y26341615D01*
X20387978Y25579710D02*
X20464169Y25541615D01*
X20464169Y25541615D02*
X20616550Y25541615D01*
X20616550Y25541615D02*
X20692740Y25579710D01*
X20692740Y25579710D02*
X20730835Y25617806D01*
X20730835Y25617806D02*
X20768931Y25693996D01*
X20768931Y25693996D02*
X20768931Y25922568D01*
X20768931Y25922568D02*
X20730835Y25998758D01*
X20730835Y25998758D02*
X20692740Y26036853D01*
X20692740Y26036853D02*
X20616550Y26074949D01*
X20616550Y26074949D02*
X20464169Y26074949D01*
X20464169Y26074949D02*
X20387978Y26036853D01*
X19702263Y25579710D02*
X19778454Y25541615D01*
X19778454Y25541615D02*
X19930835Y25541615D01*
X19930835Y25541615D02*
X20007025Y25579710D01*
X20007025Y25579710D02*
X20045121Y25655901D01*
X20045121Y25655901D02*
X20045121Y25960663D01*
X20045121Y25960663D02*
X20007025Y26036853D01*
X20007025Y26036853D02*
X19930835Y26074949D01*
X19930835Y26074949D02*
X19778454Y26074949D01*
X19778454Y26074949D02*
X19702263Y26036853D01*
X19702263Y26036853D02*
X19664168Y25960663D01*
X19664168Y25960663D02*
X19664168Y25884472D01*
X19664168Y25884472D02*
X20045121Y25808282D01*
X19321311Y25541615D02*
X19321311Y26074949D01*
X19321311Y25922568D02*
X19283216Y25998758D01*
X19283216Y25998758D02*
X19245121Y26036853D01*
X19245121Y26036853D02*
X19168930Y26074949D01*
X19168930Y26074949D02*
X19092740Y26074949D01*
X32845125Y24786994D02*
X32540363Y24786994D01*
X32730839Y24253660D02*
X32730839Y24939375D01*
X32730839Y24939375D02*
X32692744Y25015565D01*
X32692744Y25015565D02*
X32616554Y25053660D01*
X32616554Y25053660D02*
X32540363Y25053660D01*
X32273696Y24253660D02*
X32273696Y24786994D01*
X32273696Y24634613D02*
X32235601Y24710803D01*
X32235601Y24710803D02*
X32197506Y24748898D01*
X32197506Y24748898D02*
X32121315Y24786994D01*
X32121315Y24786994D02*
X32045125Y24786994D01*
X31664173Y24253660D02*
X31740363Y24291755D01*
X31740363Y24291755D02*
X31778458Y24329851D01*
X31778458Y24329851D02*
X31816554Y24406041D01*
X31816554Y24406041D02*
X31816554Y24634613D01*
X31816554Y24634613D02*
X31778458Y24710803D01*
X31778458Y24710803D02*
X31740363Y24748898D01*
X31740363Y24748898D02*
X31664173Y24786994D01*
X31664173Y24786994D02*
X31549887Y24786994D01*
X31549887Y24786994D02*
X31473696Y24748898D01*
X31473696Y24748898D02*
X31435601Y24710803D01*
X31435601Y24710803D02*
X31397506Y24634613D01*
X31397506Y24634613D02*
X31397506Y24406041D01*
X31397506Y24406041D02*
X31435601Y24329851D01*
X31435601Y24329851D02*
X31473696Y24291755D01*
X31473696Y24291755D02*
X31549887Y24253660D01*
X31549887Y24253660D02*
X31664173Y24253660D01*
X31054648Y24253660D02*
X31054648Y24786994D01*
X31054648Y24710803D02*
X31016553Y24748898D01*
X31016553Y24748898D02*
X30940363Y24786994D01*
X30940363Y24786994D02*
X30826077Y24786994D01*
X30826077Y24786994D02*
X30749886Y24748898D01*
X30749886Y24748898D02*
X30711791Y24672708D01*
X30711791Y24672708D02*
X30711791Y24253660D01*
X30711791Y24672708D02*
X30673696Y24748898D01*
X30673696Y24748898D02*
X30597505Y24786994D01*
X30597505Y24786994D02*
X30483220Y24786994D01*
X30483220Y24786994D02*
X30407029Y24748898D01*
X30407029Y24748898D02*
X30368934Y24672708D01*
X30368934Y24672708D02*
X30368934Y24253660D01*
X29264172Y24253660D02*
X29340362Y24291755D01*
X29340362Y24291755D02*
X29378457Y24329851D01*
X29378457Y24329851D02*
X29416553Y24406041D01*
X29416553Y24406041D02*
X29416553Y24634613D01*
X29416553Y24634613D02*
X29378457Y24710803D01*
X29378457Y24710803D02*
X29340362Y24748898D01*
X29340362Y24748898D02*
X29264172Y24786994D01*
X29264172Y24786994D02*
X29149886Y24786994D01*
X29149886Y24786994D02*
X29073695Y24748898D01*
X29073695Y24748898D02*
X29035600Y24710803D01*
X29035600Y24710803D02*
X28997505Y24634613D01*
X28997505Y24634613D02*
X28997505Y24406041D01*
X28997505Y24406041D02*
X29035600Y24329851D01*
X29035600Y24329851D02*
X29073695Y24291755D01*
X29073695Y24291755D02*
X29149886Y24253660D01*
X29149886Y24253660D02*
X29264172Y24253660D01*
X28768933Y24786994D02*
X28464171Y24786994D01*
X28654647Y25053660D02*
X28654647Y24367946D01*
X28654647Y24367946D02*
X28616552Y24291755D01*
X28616552Y24291755D02*
X28540362Y24253660D01*
X28540362Y24253660D02*
X28464171Y24253660D01*
X28197504Y24253660D02*
X28197504Y25053660D01*
X27854647Y24253660D02*
X27854647Y24672708D01*
X27854647Y24672708D02*
X27892742Y24748898D01*
X27892742Y24748898D02*
X27968933Y24786994D01*
X27968933Y24786994D02*
X28083219Y24786994D01*
X28083219Y24786994D02*
X28159409Y24748898D01*
X28159409Y24748898D02*
X28197504Y24710803D01*
X27168932Y24291755D02*
X27245123Y24253660D01*
X27245123Y24253660D02*
X27397504Y24253660D01*
X27397504Y24253660D02*
X27473694Y24291755D01*
X27473694Y24291755D02*
X27511790Y24367946D01*
X27511790Y24367946D02*
X27511790Y24672708D01*
X27511790Y24672708D02*
X27473694Y24748898D01*
X27473694Y24748898D02*
X27397504Y24786994D01*
X27397504Y24786994D02*
X27245123Y24786994D01*
X27245123Y24786994D02*
X27168932Y24748898D01*
X27168932Y24748898D02*
X27130837Y24672708D01*
X27130837Y24672708D02*
X27130837Y24596517D01*
X27130837Y24596517D02*
X27511790Y24520327D01*
X26787980Y24253660D02*
X26787980Y24786994D01*
X26787980Y24634613D02*
X26749885Y24710803D01*
X26749885Y24710803D02*
X26711790Y24748898D01*
X26711790Y24748898D02*
X26635599Y24786994D01*
X26635599Y24786994D02*
X26559409Y24786994D01*
X25721314Y24291755D02*
X25645123Y24253660D01*
X25645123Y24253660D02*
X25492742Y24253660D01*
X25492742Y24253660D02*
X25416552Y24291755D01*
X25416552Y24291755D02*
X25378456Y24367946D01*
X25378456Y24367946D02*
X25378456Y24406041D01*
X25378456Y24406041D02*
X25416552Y24482232D01*
X25416552Y24482232D02*
X25492742Y24520327D01*
X25492742Y24520327D02*
X25607028Y24520327D01*
X25607028Y24520327D02*
X25683218Y24558422D01*
X25683218Y24558422D02*
X25721314Y24634613D01*
X25721314Y24634613D02*
X25721314Y24672708D01*
X25721314Y24672708D02*
X25683218Y24748898D01*
X25683218Y24748898D02*
X25607028Y24786994D01*
X25607028Y24786994D02*
X25492742Y24786994D01*
X25492742Y24786994D02*
X25416552Y24748898D01*
X25035599Y24253660D02*
X25035599Y24786994D01*
X25035599Y25053660D02*
X25073695Y25015565D01*
X25073695Y25015565D02*
X25035599Y24977470D01*
X25035599Y24977470D02*
X24997504Y25015565D01*
X24997504Y25015565D02*
X25035599Y25053660D01*
X25035599Y25053660D02*
X25035599Y24977470D01*
X24311790Y24253660D02*
X24311790Y25053660D01*
X24311790Y24291755D02*
X24387981Y24253660D01*
X24387981Y24253660D02*
X24540362Y24253660D01*
X24540362Y24253660D02*
X24616552Y24291755D01*
X24616552Y24291755D02*
X24654647Y24329851D01*
X24654647Y24329851D02*
X24692743Y24406041D01*
X24692743Y24406041D02*
X24692743Y24634613D01*
X24692743Y24634613D02*
X24654647Y24710803D01*
X24654647Y24710803D02*
X24616552Y24748898D01*
X24616552Y24748898D02*
X24540362Y24786994D01*
X24540362Y24786994D02*
X24387981Y24786994D01*
X24387981Y24786994D02*
X24311790Y24748898D01*
X23626075Y24291755D02*
X23702266Y24253660D01*
X23702266Y24253660D02*
X23854647Y24253660D01*
X23854647Y24253660D02*
X23930837Y24291755D01*
X23930837Y24291755D02*
X23968933Y24367946D01*
X23968933Y24367946D02*
X23968933Y24672708D01*
X23968933Y24672708D02*
X23930837Y24748898D01*
X23930837Y24748898D02*
X23854647Y24786994D01*
X23854647Y24786994D02*
X23702266Y24786994D01*
X23702266Y24786994D02*
X23626075Y24748898D01*
X23626075Y24748898D02*
X23587980Y24672708D01*
X23587980Y24672708D02*
X23587980Y24596517D01*
X23587980Y24596517D02*
X23968933Y24520327D01*
X22749885Y24786994D02*
X22445123Y24786994D01*
X22635599Y25053660D02*
X22635599Y24367946D01*
X22635599Y24367946D02*
X22597504Y24291755D01*
X22597504Y24291755D02*
X22521314Y24253660D01*
X22521314Y24253660D02*
X22445123Y24253660D01*
X22064171Y24253660D02*
X22140361Y24291755D01*
X22140361Y24291755D02*
X22178456Y24329851D01*
X22178456Y24329851D02*
X22216552Y24406041D01*
X22216552Y24406041D02*
X22216552Y24634613D01*
X22216552Y24634613D02*
X22178456Y24710803D01*
X22178456Y24710803D02*
X22140361Y24748898D01*
X22140361Y24748898D02*
X22064171Y24786994D01*
X22064171Y24786994D02*
X21949885Y24786994D01*
X21949885Y24786994D02*
X21873694Y24748898D01*
X21873694Y24748898D02*
X21835599Y24710803D01*
X21835599Y24710803D02*
X21797504Y24634613D01*
X21797504Y24634613D02*
X21797504Y24406041D01*
X21797504Y24406041D02*
X21835599Y24329851D01*
X21835599Y24329851D02*
X21873694Y24291755D01*
X21873694Y24291755D02*
X21949885Y24253660D01*
X21949885Y24253660D02*
X22064171Y24253660D01*
X32387982Y23003800D02*
X32464173Y22965705D01*
X32464173Y22965705D02*
X32616554Y22965705D01*
X32616554Y22965705D02*
X32692744Y23003800D01*
X32692744Y23003800D02*
X32730839Y23041896D01*
X32730839Y23041896D02*
X32768935Y23118086D01*
X32768935Y23118086D02*
X32768935Y23346658D01*
X32768935Y23346658D02*
X32730839Y23422848D01*
X32730839Y23422848D02*
X32692744Y23460943D01*
X32692744Y23460943D02*
X32616554Y23499039D01*
X32616554Y23499039D02*
X32464173Y23499039D01*
X32464173Y23499039D02*
X32387982Y23460943D01*
X31930840Y22965705D02*
X32007030Y23003800D01*
X32007030Y23003800D02*
X32045125Y23041896D01*
X32045125Y23041896D02*
X32083221Y23118086D01*
X32083221Y23118086D02*
X32083221Y23346658D01*
X32083221Y23346658D02*
X32045125Y23422848D01*
X32045125Y23422848D02*
X32007030Y23460943D01*
X32007030Y23460943D02*
X31930840Y23499039D01*
X31930840Y23499039D02*
X31816554Y23499039D01*
X31816554Y23499039D02*
X31740363Y23460943D01*
X31740363Y23460943D02*
X31702268Y23422848D01*
X31702268Y23422848D02*
X31664173Y23346658D01*
X31664173Y23346658D02*
X31664173Y23118086D01*
X31664173Y23118086D02*
X31702268Y23041896D01*
X31702268Y23041896D02*
X31740363Y23003800D01*
X31740363Y23003800D02*
X31816554Y22965705D01*
X31816554Y22965705D02*
X31930840Y22965705D01*
X31321315Y23499039D02*
X31321315Y22965705D01*
X31321315Y23422848D02*
X31283220Y23460943D01*
X31283220Y23460943D02*
X31207030Y23499039D01*
X31207030Y23499039D02*
X31092744Y23499039D01*
X31092744Y23499039D02*
X31016553Y23460943D01*
X31016553Y23460943D02*
X30978458Y23384753D01*
X30978458Y23384753D02*
X30978458Y22965705D01*
X30597505Y23499039D02*
X30597505Y22965705D01*
X30597505Y23422848D02*
X30559410Y23460943D01*
X30559410Y23460943D02*
X30483220Y23499039D01*
X30483220Y23499039D02*
X30368934Y23499039D01*
X30368934Y23499039D02*
X30292743Y23460943D01*
X30292743Y23460943D02*
X30254648Y23384753D01*
X30254648Y23384753D02*
X30254648Y22965705D01*
X29568933Y23003800D02*
X29645124Y22965705D01*
X29645124Y22965705D02*
X29797505Y22965705D01*
X29797505Y22965705D02*
X29873695Y23003800D01*
X29873695Y23003800D02*
X29911791Y23079991D01*
X29911791Y23079991D02*
X29911791Y23384753D01*
X29911791Y23384753D02*
X29873695Y23460943D01*
X29873695Y23460943D02*
X29797505Y23499039D01*
X29797505Y23499039D02*
X29645124Y23499039D01*
X29645124Y23499039D02*
X29568933Y23460943D01*
X29568933Y23460943D02*
X29530838Y23384753D01*
X29530838Y23384753D02*
X29530838Y23308562D01*
X29530838Y23308562D02*
X29911791Y23232372D01*
X28845124Y23003800D02*
X28921315Y22965705D01*
X28921315Y22965705D02*
X29073696Y22965705D01*
X29073696Y22965705D02*
X29149886Y23003800D01*
X29149886Y23003800D02*
X29187981Y23041896D01*
X29187981Y23041896D02*
X29226077Y23118086D01*
X29226077Y23118086D02*
X29226077Y23346658D01*
X29226077Y23346658D02*
X29187981Y23422848D01*
X29187981Y23422848D02*
X29149886Y23460943D01*
X29149886Y23460943D02*
X29073696Y23499039D01*
X29073696Y23499039D02*
X28921315Y23499039D01*
X28921315Y23499039D02*
X28845124Y23460943D01*
X28616553Y23499039D02*
X28311791Y23499039D01*
X28502267Y23765705D02*
X28502267Y23079991D01*
X28502267Y23079991D02*
X28464172Y23003800D01*
X28464172Y23003800D02*
X28387982Y22965705D01*
X28387982Y22965705D02*
X28311791Y22965705D01*
X27473696Y23003800D02*
X27397505Y22965705D01*
X27397505Y22965705D02*
X27245124Y22965705D01*
X27245124Y22965705D02*
X27168934Y23003800D01*
X27168934Y23003800D02*
X27130838Y23079991D01*
X27130838Y23079991D02*
X27130838Y23118086D01*
X27130838Y23118086D02*
X27168934Y23194277D01*
X27168934Y23194277D02*
X27245124Y23232372D01*
X27245124Y23232372D02*
X27359410Y23232372D01*
X27359410Y23232372D02*
X27435600Y23270467D01*
X27435600Y23270467D02*
X27473696Y23346658D01*
X27473696Y23346658D02*
X27473696Y23384753D01*
X27473696Y23384753D02*
X27435600Y23460943D01*
X27435600Y23460943D02*
X27359410Y23499039D01*
X27359410Y23499039D02*
X27245124Y23499039D01*
X27245124Y23499039D02*
X27168934Y23460943D01*
X26673696Y22965705D02*
X26749886Y23003800D01*
X26749886Y23003800D02*
X26787981Y23041896D01*
X26787981Y23041896D02*
X26826077Y23118086D01*
X26826077Y23118086D02*
X26826077Y23346658D01*
X26826077Y23346658D02*
X26787981Y23422848D01*
X26787981Y23422848D02*
X26749886Y23460943D01*
X26749886Y23460943D02*
X26673696Y23499039D01*
X26673696Y23499039D02*
X26559410Y23499039D01*
X26559410Y23499039D02*
X26483219Y23460943D01*
X26483219Y23460943D02*
X26445124Y23422848D01*
X26445124Y23422848D02*
X26407029Y23346658D01*
X26407029Y23346658D02*
X26407029Y23118086D01*
X26407029Y23118086D02*
X26445124Y23041896D01*
X26445124Y23041896D02*
X26483219Y23003800D01*
X26483219Y23003800D02*
X26559410Y22965705D01*
X26559410Y22965705D02*
X26673696Y22965705D01*
X25949886Y22965705D02*
X26026076Y23003800D01*
X26026076Y23003800D02*
X26064171Y23079991D01*
X26064171Y23079991D02*
X26064171Y23765705D01*
X25302266Y22965705D02*
X25302266Y23384753D01*
X25302266Y23384753D02*
X25340361Y23460943D01*
X25340361Y23460943D02*
X25416552Y23499039D01*
X25416552Y23499039D02*
X25568933Y23499039D01*
X25568933Y23499039D02*
X25645123Y23460943D01*
X25302266Y23003800D02*
X25378457Y22965705D01*
X25378457Y22965705D02*
X25568933Y22965705D01*
X25568933Y22965705D02*
X25645123Y23003800D01*
X25645123Y23003800D02*
X25683219Y23079991D01*
X25683219Y23079991D02*
X25683219Y23156181D01*
X25683219Y23156181D02*
X25645123Y23232372D01*
X25645123Y23232372D02*
X25568933Y23270467D01*
X25568933Y23270467D02*
X25378457Y23270467D01*
X25378457Y23270467D02*
X25302266Y23308562D01*
X24921313Y22965705D02*
X24921313Y23499039D01*
X24921313Y23346658D02*
X24883218Y23422848D01*
X24883218Y23422848D02*
X24845123Y23460943D01*
X24845123Y23460943D02*
X24768932Y23499039D01*
X24768932Y23499039D02*
X24692742Y23499039D01*
X23816551Y23499039D02*
X23816551Y22699039D01*
X23816551Y23460943D02*
X23740361Y23499039D01*
X23740361Y23499039D02*
X23587980Y23499039D01*
X23587980Y23499039D02*
X23511789Y23460943D01*
X23511789Y23460943D02*
X23473694Y23422848D01*
X23473694Y23422848D02*
X23435599Y23346658D01*
X23435599Y23346658D02*
X23435599Y23118086D01*
X23435599Y23118086D02*
X23473694Y23041896D01*
X23473694Y23041896D02*
X23511789Y23003800D01*
X23511789Y23003800D02*
X23587980Y22965705D01*
X23587980Y22965705D02*
X23740361Y22965705D01*
X23740361Y22965705D02*
X23816551Y23003800D01*
X22749884Y22965705D02*
X22749884Y23384753D01*
X22749884Y23384753D02*
X22787979Y23460943D01*
X22787979Y23460943D02*
X22864170Y23499039D01*
X22864170Y23499039D02*
X23016551Y23499039D01*
X23016551Y23499039D02*
X23092741Y23460943D01*
X22749884Y23003800D02*
X22826075Y22965705D01*
X22826075Y22965705D02*
X23016551Y22965705D01*
X23016551Y22965705D02*
X23092741Y23003800D01*
X23092741Y23003800D02*
X23130837Y23079991D01*
X23130837Y23079991D02*
X23130837Y23156181D01*
X23130837Y23156181D02*
X23092741Y23232372D01*
X23092741Y23232372D02*
X23016551Y23270467D01*
X23016551Y23270467D02*
X22826075Y23270467D01*
X22826075Y23270467D02*
X22749884Y23308562D01*
X22368931Y23499039D02*
X22368931Y22965705D01*
X22368931Y23422848D02*
X22330836Y23460943D01*
X22330836Y23460943D02*
X22254646Y23499039D01*
X22254646Y23499039D02*
X22140360Y23499039D01*
X22140360Y23499039D02*
X22064169Y23460943D01*
X22064169Y23460943D02*
X22026074Y23384753D01*
X22026074Y23384753D02*
X22026074Y22965705D01*
X21340359Y23003800D02*
X21416550Y22965705D01*
X21416550Y22965705D02*
X21568931Y22965705D01*
X21568931Y22965705D02*
X21645121Y23003800D01*
X21645121Y23003800D02*
X21683217Y23079991D01*
X21683217Y23079991D02*
X21683217Y23384753D01*
X21683217Y23384753D02*
X21645121Y23460943D01*
X21645121Y23460943D02*
X21568931Y23499039D01*
X21568931Y23499039D02*
X21416550Y23499039D01*
X21416550Y23499039D02*
X21340359Y23460943D01*
X21340359Y23460943D02*
X21302264Y23384753D01*
X21302264Y23384753D02*
X21302264Y23308562D01*
X21302264Y23308562D02*
X21683217Y23232372D01*
X20845122Y22965705D02*
X20921312Y23003800D01*
X20921312Y23003800D02*
X20959407Y23079991D01*
X20959407Y23079991D02*
X20959407Y23765705D01*
D11*
X56847856Y18567600D02*
X56676428Y18510458D01*
X56676428Y18510458D02*
X56390713Y18510458D01*
X56390713Y18510458D02*
X56276428Y18567600D01*
X56276428Y18567600D02*
X56219285Y18624743D01*
X56219285Y18624743D02*
X56162142Y18739029D01*
X56162142Y18739029D02*
X56162142Y18853315D01*
X56162142Y18853315D02*
X56219285Y18967600D01*
X56219285Y18967600D02*
X56276428Y19024743D01*
X56276428Y19024743D02*
X56390713Y19081886D01*
X56390713Y19081886D02*
X56619285Y19139029D01*
X56619285Y19139029D02*
X56733570Y19196172D01*
X56733570Y19196172D02*
X56790713Y19253315D01*
X56790713Y19253315D02*
X56847856Y19367600D01*
X56847856Y19367600D02*
X56847856Y19481886D01*
X56847856Y19481886D02*
X56790713Y19596172D01*
X56790713Y19596172D02*
X56733570Y19653315D01*
X56733570Y19653315D02*
X56619285Y19710458D01*
X56619285Y19710458D02*
X56333570Y19710458D01*
X56333570Y19710458D02*
X56162142Y19653315D01*
X55419285Y19710458D02*
X55190713Y19710458D01*
X55190713Y19710458D02*
X55076428Y19653315D01*
X55076428Y19653315D02*
X54962142Y19539029D01*
X54962142Y19539029D02*
X54904999Y19310458D01*
X54904999Y19310458D02*
X54904999Y18910458D01*
X54904999Y18910458D02*
X54962142Y18681886D01*
X54962142Y18681886D02*
X55076428Y18567600D01*
X55076428Y18567600D02*
X55190713Y18510458D01*
X55190713Y18510458D02*
X55419285Y18510458D01*
X55419285Y18510458D02*
X55533571Y18567600D01*
X55533571Y18567600D02*
X55647856Y18681886D01*
X55647856Y18681886D02*
X55704999Y18910458D01*
X55704999Y18910458D02*
X55704999Y19310458D01*
X55704999Y19310458D02*
X55647856Y19539029D01*
X55647856Y19539029D02*
X55533571Y19653315D01*
X55533571Y19653315D02*
X55419285Y19710458D01*
X53819285Y18510458D02*
X54390713Y18510458D01*
X54390713Y18510458D02*
X54390713Y19710458D01*
X53476427Y18853315D02*
X52904999Y18853315D01*
X53590713Y18510458D02*
X53190713Y19710458D01*
X53190713Y19710458D02*
X52790713Y18510458D01*
X51704999Y18510458D02*
X52104999Y19081886D01*
X52390713Y18510458D02*
X52390713Y19710458D01*
X52390713Y19710458D02*
X51933570Y19710458D01*
X51933570Y19710458D02*
X51819285Y19653315D01*
X51819285Y19653315D02*
X51762142Y19596172D01*
X51762142Y19596172D02*
X51704999Y19481886D01*
X51704999Y19481886D02*
X51704999Y19310458D01*
X51704999Y19310458D02*
X51762142Y19196172D01*
X51762142Y19196172D02*
X51819285Y19139029D01*
X51819285Y19139029D02*
X51933570Y19081886D01*
X51933570Y19081886D02*
X52390713Y19081886D01*
X50276427Y18510458D02*
X50276427Y19710458D01*
X50276427Y19710458D02*
X49819284Y19710458D01*
X49819284Y19710458D02*
X49704999Y19653315D01*
X49704999Y19653315D02*
X49647856Y19596172D01*
X49647856Y19596172D02*
X49590713Y19481886D01*
X49590713Y19481886D02*
X49590713Y19310458D01*
X49590713Y19310458D02*
X49647856Y19196172D01*
X49647856Y19196172D02*
X49704999Y19139029D01*
X49704999Y19139029D02*
X49819284Y19081886D01*
X49819284Y19081886D02*
X50276427Y19081886D01*
X49247856Y19710458D02*
X48847856Y18510458D01*
X48847856Y18510458D02*
X48447856Y19710458D01*
D12*
X14096904Y30387667D02*
X12573095Y30387667D01*
X13334999Y29625762D02*
X13334999Y31149572D01*
D13*
X55085863Y7452348D02*
X55173728Y7334701D01*
X55276750Y7157208D01*
X55356949Y7003223D01*
X55418739Y6875387D01*
X55452832Y6793333D01*
X55456667Y6776802D01*
X55415117Y6753251D01*
X55292874Y6737945D01*
X55093546Y6731273D01*
X55033334Y6731000D01*
X54830851Y6735148D01*
X54688640Y6746903D01*
X54616785Y6765236D01*
X54610000Y6774273D01*
X54627988Y6829374D01*
X54676072Y6939884D01*
X54745435Y7086017D01*
X54779806Y7155273D01*
X54883624Y7345513D01*
X54964571Y7457094D01*
X55023223Y7492406D01*
X55085863Y7452348D01*
G36*
X55085863Y7452348D02*
G01*
X55173728Y7334701D01*
X55276750Y7157208D01*
X55356949Y7003223D01*
X55418739Y6875387D01*
X55452832Y6793333D01*
X55456667Y6776802D01*
X55415117Y6753251D01*
X55292874Y6737945D01*
X55093546Y6731273D01*
X55033334Y6731000D01*
X54830851Y6735148D01*
X54688640Y6746903D01*
X54616785Y6765236D01*
X54610000Y6774273D01*
X54627988Y6829374D01*
X54676072Y6939884D01*
X54745435Y7086017D01*
X54779806Y7155273D01*
X54883624Y7345513D01*
X54964571Y7457094D01*
X55023223Y7492406D01*
X55085863Y7452348D01*
G37*
X60018813Y5267079D02*
X60016729Y4645822D01*
X60014720Y4103728D01*
X60012639Y3635293D01*
X60010341Y3235013D01*
X60007679Y2897383D01*
X60004507Y2616900D01*
X60000677Y2388061D01*
X59996044Y2205361D01*
X59990461Y2063296D01*
X59983782Y1956362D01*
X59975860Y1879057D01*
X59966549Y1825875D01*
X59955702Y1791313D01*
X59943173Y1769867D01*
X59928816Y1756033D01*
X59925326Y1753412D01*
X59911328Y1749355D01*
X59879463Y1745480D01*
X59827895Y1741784D01*
X59754789Y1738261D01*
X59658311Y1734908D01*
X59536626Y1731722D01*
X59387899Y1728697D01*
X59210296Y1725830D01*
X59001981Y1723117D01*
X58761120Y1720554D01*
X58485878Y1718137D01*
X58174420Y1715862D01*
X57824912Y1713724D01*
X57435519Y1711721D01*
X57004406Y1709847D01*
X56529737Y1708099D01*
X56009679Y1706473D01*
X55442397Y1704965D01*
X54826056Y1703570D01*
X54158821Y1702285D01*
X53438856Y1701106D01*
X52664329Y1700028D01*
X51833403Y1699048D01*
X50944244Y1698162D01*
X49995018Y1697366D01*
X48983888Y1696655D01*
X47909022Y1696025D01*
X46768583Y1695474D01*
X45560737Y1694996D01*
X44283649Y1694587D01*
X42935486Y1694244D01*
X41514410Y1693962D01*
X40018589Y1693738D01*
X38446187Y1693568D01*
X36795369Y1693446D01*
X35064301Y1693371D01*
X33251148Y1693337D01*
X32489303Y1693333D01*
X30666282Y1693339D01*
X28926003Y1693358D01*
X27266540Y1693396D01*
X25685971Y1693460D01*
X24182370Y1693553D01*
X22753812Y1693682D01*
X21398373Y1693853D01*
X20114128Y1694070D01*
X18899153Y1694339D01*
X17751523Y1694665D01*
X16669313Y1695054D01*
X15650599Y1695511D01*
X14693455Y1696043D01*
X13795958Y1696653D01*
X12956183Y1697348D01*
X12172205Y1698133D01*
X11442099Y1699013D01*
X10763941Y1699994D01*
X10135807Y1701082D01*
X9555770Y1702281D01*
X9021908Y1703598D01*
X8532295Y1705037D01*
X8085006Y1706604D01*
X7678118Y1708304D01*
X7309705Y1710144D01*
X6977842Y1712128D01*
X6680606Y1714262D01*
X6416071Y1716550D01*
X6182313Y1719000D01*
X5977407Y1721616D01*
X5799428Y1724403D01*
X5646452Y1727367D01*
X5516555Y1730513D01*
X5407811Y1733847D01*
X5318296Y1737375D01*
X5246085Y1741101D01*
X5189254Y1745031D01*
X5145878Y1749171D01*
X5114033Y1753526D01*
X5091793Y1758101D01*
X5077234Y1762902D01*
X5068432Y1767935D01*
X5065395Y1770750D01*
X5052572Y1790300D01*
X5041402Y1822395D01*
X5031774Y1872575D01*
X5023574Y1946381D01*
X5016690Y2049352D01*
X5011008Y2187028D01*
X5006417Y2364951D01*
X5002803Y2588660D01*
X5000054Y2863695D01*
X4998057Y3195598D01*
X4996699Y3589907D01*
X4995867Y4052163D01*
X4995450Y4587907D01*
X4995334Y5202679D01*
X4995334Y5214356D01*
X4995405Y5827951D01*
X4995704Y6362462D01*
X4995926Y6519333D01*
X47159334Y6519333D01*
X47159334Y6053667D01*
X47709667Y6053667D01*
X47963667Y6053667D01*
X50038000Y6053667D01*
X50334334Y6053667D01*
X50842334Y6053667D01*
X50842334Y6752167D01*
X50843008Y7010937D01*
X50845877Y7196902D01*
X50852208Y7321915D01*
X50863268Y7397833D01*
X50880324Y7436510D01*
X50904645Y7449802D01*
X50917012Y7450667D01*
X50958107Y7426181D01*
X51018067Y7348574D01*
X51100662Y7211626D01*
X51209659Y7009115D01*
X51340181Y6752167D01*
X51688671Y6053667D01*
X52134691Y6053667D01*
X52483181Y6752167D01*
X52619495Y7018463D01*
X52732951Y7225741D01*
X52820395Y7368654D01*
X52878673Y7441859D01*
X52895336Y7450667D01*
X52919229Y7439683D01*
X52936436Y7399204D01*
X52947986Y7317935D01*
X52954909Y7184585D01*
X52958234Y6987859D01*
X52959000Y6752167D01*
X52959000Y6053667D01*
X53509334Y6053667D01*
X53629948Y6053667D01*
X54230370Y6053667D01*
X54301026Y6201833D01*
X54371681Y6350000D01*
X55694986Y6350000D01*
X55765641Y6201833D01*
X55836297Y6053667D01*
X56431938Y6053667D01*
X56642000Y6053667D01*
X57118250Y6055104D01*
X57594500Y6056540D01*
X58080253Y6753604D01*
X58230787Y6965924D01*
X58367767Y7152179D01*
X58483058Y7301861D01*
X58568526Y7404466D01*
X58616036Y7449488D01*
X58620003Y7450667D01*
X58640969Y7431117D01*
X58656121Y7366197D01*
X58666185Y7246505D01*
X58671888Y7062635D01*
X58673957Y6805185D01*
X58674000Y6752167D01*
X58674000Y6053667D01*
X59182000Y6053667D01*
X59182000Y7874000D01*
X58216941Y7874000D01*
X57734012Y7188820D01*
X57583289Y6977634D01*
X57446611Y6791133D01*
X57332224Y6640166D01*
X57248372Y6535585D01*
X57203303Y6488240D01*
X57200542Y6486792D01*
X57180768Y6502785D01*
X57166419Y6571244D01*
X57156904Y6700204D01*
X57151628Y6897700D01*
X57150000Y7171767D01*
X57150000Y7874000D01*
X56642000Y7874000D01*
X56642000Y6053667D01*
X56431938Y6053667D01*
X56132731Y6614583D01*
X56008491Y6848796D01*
X55880899Y7091553D01*
X55763607Y7316747D01*
X55670265Y7498269D01*
X55656828Y7524750D01*
X55480132Y7874000D01*
X54588834Y7873166D01*
X54393336Y7503166D01*
X54296694Y7320082D01*
X54175704Y7090603D01*
X54045408Y6843275D01*
X53920853Y6606646D01*
X53913893Y6593417D01*
X53629948Y6053667D01*
X53509334Y6053667D01*
X53509334Y7874000D01*
X52990750Y7872931D01*
X52472167Y7871862D01*
X52212678Y7299098D01*
X52119424Y7097607D01*
X52036261Y6926012D01*
X51970147Y6798058D01*
X51928037Y6727492D01*
X51918632Y6718084D01*
X51889668Y6751440D01*
X51832928Y6848807D01*
X51755445Y6997019D01*
X51664250Y7182907D01*
X51617819Y7281333D01*
X51351562Y7852833D01*
X50842948Y7864720D01*
X50334334Y7876606D01*
X50334334Y6053667D01*
X50038000Y6053667D01*
X50038000Y7874000D01*
X48006000Y7874000D01*
X48006000Y7493000D01*
X49530000Y7493000D01*
X49530000Y7196667D01*
X48090667Y7196667D01*
X48090667Y6817714D01*
X48799750Y6806107D01*
X49508834Y6794500D01*
X49521972Y6635750D01*
X49535111Y6477000D01*
X47963667Y6477000D01*
X47963667Y6053667D01*
X47709667Y6053667D01*
X47709667Y6477000D01*
X47709667Y6519333D01*
X47159334Y6519333D01*
X4995926Y6519333D01*
X4996357Y6823472D01*
X4996578Y6900333D01*
X47159334Y6900333D01*
X47709667Y6900333D01*
X47709667Y7366000D01*
X47159334Y7366000D01*
X47159334Y6900333D01*
X4996578Y6900333D01*
X4997488Y7216565D01*
X4998272Y7366000D01*
X4999224Y7547323D01*
X5001690Y7821329D01*
X5005012Y8044166D01*
X5009317Y8221417D01*
X5014729Y8358665D01*
X5021375Y8461492D01*
X5029381Y8535482D01*
X5038871Y8586218D01*
X5049973Y8619283D01*
X5062811Y8640259D01*
X5072750Y8650606D01*
X5081773Y8655280D01*
X5099548Y8659742D01*
X5127980Y8663998D01*
X5168978Y8668052D01*
X5224448Y8671910D01*
X5296296Y8675576D01*
X5386431Y8679054D01*
X5496758Y8682350D01*
X5629185Y8685469D01*
X5785618Y8688415D01*
X5967966Y8691194D01*
X6178133Y8693810D01*
X6418028Y8696268D01*
X6689557Y8698573D01*
X6994627Y8700729D01*
X7335146Y8702742D01*
X7713019Y8704617D01*
X8130155Y8706358D01*
X8588459Y8707970D01*
X9089839Y8709458D01*
X9636202Y8710827D01*
X10229454Y8712081D01*
X10871503Y8713227D01*
X11564255Y8714267D01*
X12309618Y8715208D01*
X13109498Y8716054D01*
X13965802Y8716811D01*
X14880437Y8717482D01*
X15855311Y8718072D01*
X16892329Y8718588D01*
X17993399Y8719032D01*
X19160429Y8719411D01*
X20395323Y8719730D01*
X21699991Y8719992D01*
X23076338Y8720203D01*
X24526271Y8720367D01*
X26051698Y8720491D01*
X27654525Y8720577D01*
X29336659Y8720632D01*
X31100008Y8720660D01*
X32590146Y8720667D01*
X60030126Y8720667D01*
X60018813Y5267079D01*
G36*
X60018813Y5267079D02*
G01*
X60016729Y4645822D01*
X60014720Y4103728D01*
X60012639Y3635293D01*
X60010341Y3235013D01*
X60007679Y2897383D01*
X60004507Y2616900D01*
X60000677Y2388061D01*
X59996044Y2205361D01*
X59990461Y2063296D01*
X59983782Y1956362D01*
X59975860Y1879057D01*
X59966549Y1825875D01*
X59955702Y1791313D01*
X59943173Y1769867D01*
X59928816Y1756033D01*
X59925326Y1753412D01*
X59911328Y1749355D01*
X59879463Y1745480D01*
X59827895Y1741784D01*
X59754789Y1738261D01*
X59658311Y1734908D01*
X59536626Y1731722D01*
X59387899Y1728697D01*
X59210296Y1725830D01*
X59001981Y1723117D01*
X58761120Y1720554D01*
X58485878Y1718137D01*
X58174420Y1715862D01*
X57824912Y1713724D01*
X57435519Y1711721D01*
X57004406Y1709847D01*
X56529737Y1708099D01*
X56009679Y1706473D01*
X55442397Y1704965D01*
X54826056Y1703570D01*
X54158821Y1702285D01*
X53438856Y1701106D01*
X52664329Y1700028D01*
X51833403Y1699048D01*
X50944244Y1698162D01*
X49995018Y1697366D01*
X48983888Y1696655D01*
X47909022Y1696025D01*
X46768583Y1695474D01*
X45560737Y1694996D01*
X44283649Y1694587D01*
X42935486Y1694244D01*
X41514410Y1693962D01*
X40018589Y1693738D01*
X38446187Y1693568D01*
X36795369Y1693446D01*
X35064301Y1693371D01*
X33251148Y1693337D01*
X32489303Y1693333D01*
X30666282Y1693339D01*
X28926003Y1693358D01*
X27266540Y1693396D01*
X25685971Y1693460D01*
X24182370Y1693553D01*
X22753812Y1693682D01*
X21398373Y1693853D01*
X20114128Y1694070D01*
X18899153Y1694339D01*
X17751523Y1694665D01*
X16669313Y1695054D01*
X15650599Y1695511D01*
X14693455Y1696043D01*
X13795958Y1696653D01*
X12956183Y1697348D01*
X12172205Y1698133D01*
X11442099Y1699013D01*
X10763941Y1699994D01*
X10135807Y1701082D01*
X9555770Y1702281D01*
X9021908Y1703598D01*
X8532295Y1705037D01*
X8085006Y1706604D01*
X7678118Y1708304D01*
X7309705Y1710144D01*
X6977842Y1712128D01*
X6680606Y1714262D01*
X6416071Y1716550D01*
X6182313Y1719000D01*
X5977407Y1721616D01*
X5799428Y1724403D01*
X5646452Y1727367D01*
X5516555Y1730513D01*
X5407811Y1733847D01*
X5318296Y1737375D01*
X5246085Y1741101D01*
X5189254Y1745031D01*
X5145878Y1749171D01*
X5114033Y1753526D01*
X5091793Y1758101D01*
X5077234Y1762902D01*
X5068432Y1767935D01*
X5065395Y1770750D01*
X5052572Y1790300D01*
X5041402Y1822395D01*
X5031774Y1872575D01*
X5023574Y1946381D01*
X5016690Y2049352D01*
X5011008Y2187028D01*
X5006417Y2364951D01*
X5002803Y2588660D01*
X5000054Y2863695D01*
X4998057Y3195598D01*
X4996699Y3589907D01*
X4995867Y4052163D01*
X4995450Y4587907D01*
X4995334Y5202679D01*
X4995334Y5214356D01*
X4995405Y5827951D01*
X4995704Y6362462D01*
X4995926Y6519333D01*
X47159334Y6519333D01*
X47159334Y6053667D01*
X47709667Y6053667D01*
X47963667Y6053667D01*
X50038000Y6053667D01*
X50334334Y6053667D01*
X50842334Y6053667D01*
X50842334Y6752167D01*
X50843008Y7010937D01*
X50845877Y7196902D01*
X50852208Y7321915D01*
X50863268Y7397833D01*
X50880324Y7436510D01*
X50904645Y7449802D01*
X50917012Y7450667D01*
X50958107Y7426181D01*
X51018067Y7348574D01*
X51100662Y7211626D01*
X51209659Y7009115D01*
X51340181Y6752167D01*
X51688671Y6053667D01*
X52134691Y6053667D01*
X52483181Y6752167D01*
X52619495Y7018463D01*
X52732951Y7225741D01*
X52820395Y7368654D01*
X52878673Y7441859D01*
X52895336Y7450667D01*
X52919229Y7439683D01*
X52936436Y7399204D01*
X52947986Y7317935D01*
X52954909Y7184585D01*
X52958234Y6987859D01*
X52959000Y6752167D01*
X52959000Y6053667D01*
X53509334Y6053667D01*
X53629948Y6053667D01*
X54230370Y6053667D01*
X54301026Y6201833D01*
X54371681Y6350000D01*
X55694986Y6350000D01*
X55765641Y6201833D01*
X55836297Y6053667D01*
X56431938Y6053667D01*
X56642000Y6053667D01*
X57118250Y6055104D01*
X57594500Y6056540D01*
X58080253Y6753604D01*
X58230787Y6965924D01*
X58367767Y7152179D01*
X58483058Y7301861D01*
X58568526Y7404466D01*
X58616036Y7449488D01*
X58620003Y7450667D01*
X58640969Y7431117D01*
X58656121Y7366197D01*
X58666185Y7246505D01*
X58671888Y7062635D01*
X58673957Y6805185D01*
X58674000Y6752167D01*
X58674000Y6053667D01*
X59182000Y6053667D01*
X59182000Y7874000D01*
X58216941Y7874000D01*
X57734012Y7188820D01*
X57583289Y6977634D01*
X57446611Y6791133D01*
X57332224Y6640166D01*
X57248372Y6535585D01*
X57203303Y6488240D01*
X57200542Y6486792D01*
X57180768Y6502785D01*
X57166419Y6571244D01*
X57156904Y6700204D01*
X57151628Y6897700D01*
X57150000Y7171767D01*
X57150000Y7874000D01*
X56642000Y7874000D01*
X56642000Y6053667D01*
X56431938Y6053667D01*
X56132731Y6614583D01*
X56008491Y6848796D01*
X55880899Y7091553D01*
X55763607Y7316747D01*
X55670265Y7498269D01*
X55656828Y7524750D01*
X55480132Y7874000D01*
X54588834Y7873166D01*
X54393336Y7503166D01*
X54296694Y7320082D01*
X54175704Y7090603D01*
X54045408Y6843275D01*
X53920853Y6606646D01*
X53913893Y6593417D01*
X53629948Y6053667D01*
X53509334Y6053667D01*
X53509334Y7874000D01*
X52990750Y7872931D01*
X52472167Y7871862D01*
X52212678Y7299098D01*
X52119424Y7097607D01*
X52036261Y6926012D01*
X51970147Y6798058D01*
X51928037Y6727492D01*
X51918632Y6718084D01*
X51889668Y6751440D01*
X51832928Y6848807D01*
X51755445Y6997019D01*
X51664250Y7182907D01*
X51617819Y7281333D01*
X51351562Y7852833D01*
X50842948Y7864720D01*
X50334334Y7876606D01*
X50334334Y6053667D01*
X50038000Y6053667D01*
X50038000Y7874000D01*
X48006000Y7874000D01*
X48006000Y7493000D01*
X49530000Y7493000D01*
X49530000Y7196667D01*
X48090667Y7196667D01*
X48090667Y6817714D01*
X48799750Y6806107D01*
X49508834Y6794500D01*
X49521972Y6635750D01*
X49535111Y6477000D01*
X47963667Y6477000D01*
X47963667Y6053667D01*
X47709667Y6053667D01*
X47709667Y6477000D01*
X47709667Y6519333D01*
X47159334Y6519333D01*
X4995926Y6519333D01*
X4996357Y6823472D01*
X4996578Y6900333D01*
X47159334Y6900333D01*
X47709667Y6900333D01*
X47709667Y7366000D01*
X47159334Y7366000D01*
X47159334Y6900333D01*
X4996578Y6900333D01*
X4997488Y7216565D01*
X4998272Y7366000D01*
X4999224Y7547323D01*
X5001690Y7821329D01*
X5005012Y8044166D01*
X5009317Y8221417D01*
X5014729Y8358665D01*
X5021375Y8461492D01*
X5029381Y8535482D01*
X5038871Y8586218D01*
X5049973Y8619283D01*
X5062811Y8640259D01*
X5072750Y8650606D01*
X5081773Y8655280D01*
X5099548Y8659742D01*
X5127980Y8663998D01*
X5168978Y8668052D01*
X5224448Y8671910D01*
X5296296Y8675576D01*
X5386431Y8679054D01*
X5496758Y8682350D01*
X5629185Y8685469D01*
X5785618Y8688415D01*
X5967966Y8691194D01*
X6178133Y8693810D01*
X6418028Y8696268D01*
X6689557Y8698573D01*
X6994627Y8700729D01*
X7335146Y8702742D01*
X7713019Y8704617D01*
X8130155Y8706358D01*
X8588459Y8707970D01*
X9089839Y8709458D01*
X9636202Y8710827D01*
X10229454Y8712081D01*
X10871503Y8713227D01*
X11564255Y8714267D01*
X12309618Y8715208D01*
X13109498Y8716054D01*
X13965802Y8716811D01*
X14880437Y8717482D01*
X15855311Y8718072D01*
X16892329Y8718588D01*
X17993399Y8719032D01*
X19160429Y8719411D01*
X20395323Y8719730D01*
X21699991Y8719992D01*
X23076338Y8720203D01*
X24526271Y8720367D01*
X26051698Y8720491D01*
X27654525Y8720577D01*
X29336659Y8720632D01*
X31100008Y8720660D01*
X32590146Y8720667D01*
X60030126Y8720667D01*
X60018813Y5267079D01*
G37*
D11*
X6015000Y39765000D02*
X6015000Y9765000D01*
X6015000Y39765000D02*
X59015000Y39765000D01*
X59015000Y39765000D02*
X59015000Y9765000D01*
X59015000Y9765000D02*
X6015000Y9765000D01*
M02*
