M48
; DRILL file {KiCad 9.0.0} date 2025-06-10T13:42:15+0100
; FORMAT={-:-/ absolute / inch / decimal}
; #@! TF.CreationDate,2025-06-10T13:42:15+01:00
; #@! TF.GenerationSoftware,Kicad,Pcbnew,9.0.0
; #@! TF.FileFunction,MixedPlating,1,2
FMAT,2
INCH
; #@! TA.AperFunction,Plated,PTH,ComponentDrill
T1C0.0197
; #@! TA.AperFunction,Plated,PTH,ComponentDrill
T2C0.0300
; #@! TA.AperFunction,Plated,PTH,ComponentDrill
T3C0.0315
; #@! TA.AperFunction,Plated,PTH,ComponentDrill
T4C0.0315
; #@! TA.AperFunction,Plated,PTH,ComponentDrill
T5C0.0320
; #@! TA.AperFunction,Plated,PTH,ComponentDrill
T6C0.0394
; #@! TA.AperFunction,Plated,PTH,ComponentDrill
T7C0.0394
; #@! TA.AperFunction,Plated,PTH,ComponentDrill
T8C0.0400
; #@! TA.AperFunction,Plated,PTH,ComponentDrill
T9C0.1969
%
G90
G05
T2
X1.0781Y-0.0547
X1.4719Y-0.0547
T3
X0.925Y-0.25
X0.925Y-0.5
X0.925Y-0.75
X0.925Y-1.0
X0.925Y-1.25
X0.925Y-1.5
X1.075Y-0.25
X1.075Y-0.5
X1.075Y-0.75
X1.075Y-1.0
X1.075Y-1.25
X1.075Y-1.5
X1.475Y-0.25
X1.475Y-0.5
X1.475Y-0.75
X1.475Y-1.0
X1.475Y-1.25
X1.475Y-1.5
X1.625Y-0.25
X1.625Y-0.5
X1.625Y-0.75
X1.625Y-1.0
X1.625Y-1.25
X1.625Y-1.5
T4
X0.3Y0.75
X0.3Y0.45
X0.425Y0.75
X0.425Y0.45
X0.55Y0.75
X0.55Y0.45
X0.675Y0.75
X0.675Y0.45
X1.4Y0.7
X1.4Y0.575
X1.6Y0.575
X1.675Y1.425
X1.675Y1.325
X1.7Y0.7
X1.775Y1.425
X1.9Y1.5
X1.9Y1.2
T5
X0.275Y0.2
X0.375Y0.2
X1.4Y1.15
X1.4Y1.05
X1.4Y0.95
X1.4Y0.85
X1.7Y1.15
X1.7Y1.05
X1.7Y0.95
X1.7Y0.85
T6
X1.275Y1.45
X1.275Y1.35
X1.375Y1.45
X1.375Y1.35
X1.475Y1.45
X1.475Y1.35
T7
X0.3Y1.475
X0.67Y1.475
X2.0Y1.475
X2.0Y1.275
X2.3Y1.475
X2.3Y1.275
T8
X1.8563Y0.45
X2.25Y0.45
T1
G00X0.675Y1.2598
M15
G01X0.675Y1.2402
M16
G05
G00X0.745Y1.2598
M15
G01X0.745Y1.2402
M16
G05
G00X0.8Y0.7348
M15
G01X0.8Y0.7152
M16
G05
G00X0.815Y1.2598
M15
G01X0.815Y1.2402
M16
G05
G00X0.87Y0.7348
M15
G01X0.87Y0.7152
M16
G05
G00X0.94Y0.7348
M15
G01X0.94Y0.7152
M16
G05
G00X1.175Y1.2598
M15
G01X1.175Y1.2402
M16
G05
G00X1.3Y0.7348
M15
G01X1.3Y0.7152
M16
G05
T9
G00X0.4337Y0.975
M15
G01X0.5518Y0.975
M16
G05
G00X2.1266Y0.975
M15
G01X2.0085Y0.975
M16
G05
M30
