G04 #@! TF.GenerationSoftware,KiCad,Pcbnew,(5.1.0)-1*
G04 #@! TF.CreationDate,2020-04-16T11:46:00+01:00*
G04 #@! TF.ProjectId,SolarSoilSensor,536f6c61-7253-46f6-996c-53656e736f72,rev?*
G04 #@! TF.SameCoordinates,PX5faea10PY77e7cd0*
G04 #@! TF.FileFunction,Legend,Bot*
G04 #@! TF.FilePolarity,Positive*
%FSLAX46Y46*%
G04 Gerber Fmt 4.6, Leading zero omitted, Abs format (unit mm)*
G04 Created by KiCad (PCBNEW (5.1.0)-1) date 2020-04-16 11:46:00*
%MOMM*%
%LPD*%
G04 APERTURE LIST*
%ADD10C,0.300000*%
%ADD11C,0.010000*%
%ADD12C,0.500000*%
G04 APERTURE END LIST*
D10*
X59015000Y39370000D02*
X59015000Y9370000D01*
X6015000Y39370000D02*
X6015000Y9370000D01*
X6015000Y39370000D02*
X59015000Y39370000D01*
X59015000Y9370000D02*
X6015000Y9370000D01*
D11*
G36*
X55085863Y7452348D02*
G01*
X55173728Y7334701D01*
X55276750Y7157208D01*
X55356949Y7003223D01*
X55418739Y6875387D01*
X55452832Y6793333D01*
X55456667Y6776802D01*
X55415117Y6753251D01*
X55292874Y6737945D01*
X55093546Y6731273D01*
X55033334Y6731000D01*
X54830851Y6735148D01*
X54688640Y6746903D01*
X54616785Y6765236D01*
X54610000Y6774273D01*
X54627988Y6829374D01*
X54676072Y6939884D01*
X54745435Y7086017D01*
X54779806Y7155273D01*
X54883624Y7345513D01*
X54964571Y7457094D01*
X55023223Y7492406D01*
X55085863Y7452348D01*
X55085863Y7452348D01*
G37*
X55085863Y7452348D02*
X55173728Y7334701D01*
X55276750Y7157208D01*
X55356949Y7003223D01*
X55418739Y6875387D01*
X55452832Y6793333D01*
X55456667Y6776802D01*
X55415117Y6753251D01*
X55292874Y6737945D01*
X55093546Y6731273D01*
X55033334Y6731000D01*
X54830851Y6735148D01*
X54688640Y6746903D01*
X54616785Y6765236D01*
X54610000Y6774273D01*
X54627988Y6829374D01*
X54676072Y6939884D01*
X54745435Y7086017D01*
X54779806Y7155273D01*
X54883624Y7345513D01*
X54964571Y7457094D01*
X55023223Y7492406D01*
X55085863Y7452348D01*
G36*
X60018813Y5267079D02*
G01*
X60016729Y4645822D01*
X60014720Y4103728D01*
X60012639Y3635293D01*
X60010341Y3235013D01*
X60007679Y2897383D01*
X60004507Y2616900D01*
X60000677Y2388061D01*
X59996044Y2205361D01*
X59990461Y2063296D01*
X59983782Y1956362D01*
X59975860Y1879057D01*
X59966549Y1825875D01*
X59955702Y1791313D01*
X59943173Y1769867D01*
X59928816Y1756033D01*
X59925326Y1753412D01*
X59911328Y1749355D01*
X59879463Y1745480D01*
X59827895Y1741784D01*
X59754789Y1738261D01*
X59658311Y1734908D01*
X59536626Y1731722D01*
X59387899Y1728697D01*
X59210296Y1725830D01*
X59001981Y1723117D01*
X58761120Y1720554D01*
X58485878Y1718137D01*
X58174420Y1715862D01*
X57824912Y1713724D01*
X57435519Y1711721D01*
X57004406Y1709847D01*
X56529737Y1708099D01*
X56009679Y1706473D01*
X55442397Y1704965D01*
X54826056Y1703570D01*
X54158821Y1702285D01*
X53438856Y1701106D01*
X52664329Y1700028D01*
X51833403Y1699048D01*
X50944244Y1698162D01*
X49995018Y1697366D01*
X48983888Y1696655D01*
X47909022Y1696025D01*
X46768583Y1695474D01*
X45560737Y1694996D01*
X44283649Y1694587D01*
X42935486Y1694244D01*
X41514410Y1693962D01*
X40018589Y1693738D01*
X38446187Y1693568D01*
X36795369Y1693446D01*
X35064301Y1693371D01*
X33251148Y1693337D01*
X32489303Y1693333D01*
X30666282Y1693339D01*
X28926003Y1693358D01*
X27266540Y1693396D01*
X25685971Y1693460D01*
X24182370Y1693553D01*
X22753812Y1693682D01*
X21398373Y1693853D01*
X20114128Y1694070D01*
X18899153Y1694339D01*
X17751523Y1694665D01*
X16669313Y1695054D01*
X15650599Y1695511D01*
X14693455Y1696043D01*
X13795958Y1696653D01*
X12956183Y1697348D01*
X12172205Y1698133D01*
X11442099Y1699013D01*
X10763941Y1699994D01*
X10135807Y1701082D01*
X9555770Y1702281D01*
X9021908Y1703598D01*
X8532295Y1705037D01*
X8085006Y1706604D01*
X7678118Y1708304D01*
X7309705Y1710144D01*
X6977842Y1712128D01*
X6680606Y1714262D01*
X6416071Y1716550D01*
X6182313Y1719000D01*
X5977407Y1721616D01*
X5799428Y1724403D01*
X5646452Y1727367D01*
X5516555Y1730513D01*
X5407811Y1733847D01*
X5318296Y1737375D01*
X5246085Y1741101D01*
X5189254Y1745031D01*
X5145878Y1749171D01*
X5114033Y1753526D01*
X5091793Y1758101D01*
X5077234Y1762902D01*
X5068432Y1767935D01*
X5065395Y1770750D01*
X5052572Y1790300D01*
X5041402Y1822395D01*
X5031774Y1872575D01*
X5023574Y1946381D01*
X5016690Y2049352D01*
X5011008Y2187028D01*
X5006417Y2364951D01*
X5002803Y2588660D01*
X5000054Y2863695D01*
X4998057Y3195598D01*
X4996699Y3589907D01*
X4995867Y4052163D01*
X4995450Y4587907D01*
X4995334Y5202679D01*
X4995334Y5214356D01*
X4995405Y5827951D01*
X4995704Y6362462D01*
X4995926Y6519333D01*
X47159334Y6519333D01*
X47159334Y6053667D01*
X47709667Y6053667D01*
X47709667Y6477000D01*
X47963667Y6477000D01*
X47963667Y6053667D01*
X50038000Y6053667D01*
X50334334Y6053667D01*
X50842334Y6053667D01*
X50842334Y6752167D01*
X50843008Y7010937D01*
X50845877Y7196902D01*
X50852208Y7321915D01*
X50863268Y7397833D01*
X50880324Y7436510D01*
X50904645Y7449802D01*
X50917012Y7450667D01*
X50958107Y7426181D01*
X51018067Y7348574D01*
X51100662Y7211626D01*
X51209659Y7009115D01*
X51340181Y6752167D01*
X51688671Y6053667D01*
X52134691Y6053667D01*
X52483181Y6752167D01*
X52619495Y7018463D01*
X52732951Y7225741D01*
X52820395Y7368654D01*
X52878673Y7441859D01*
X52895336Y7450667D01*
X52919229Y7439683D01*
X52936436Y7399204D01*
X52947986Y7317935D01*
X52954909Y7184585D01*
X52958234Y6987859D01*
X52959000Y6752167D01*
X52959000Y6053667D01*
X53509334Y6053667D01*
X53629948Y6053667D01*
X54230370Y6053667D01*
X54301026Y6201833D01*
X54371681Y6350000D01*
X55694986Y6350000D01*
X55765641Y6201833D01*
X55836297Y6053667D01*
X56431938Y6053667D01*
X56132731Y6614583D01*
X56008491Y6848796D01*
X55880899Y7091553D01*
X55763607Y7316747D01*
X55670265Y7498269D01*
X55656828Y7524750D01*
X55480132Y7874000D01*
X56642000Y7874000D01*
X56642000Y6053667D01*
X57118250Y6055104D01*
X57594500Y6056540D01*
X58080253Y6753604D01*
X58230787Y6965924D01*
X58367767Y7152179D01*
X58483058Y7301861D01*
X58568526Y7404466D01*
X58616036Y7449488D01*
X58620003Y7450667D01*
X58640969Y7431117D01*
X58656121Y7366197D01*
X58666185Y7246505D01*
X58671888Y7062635D01*
X58673957Y6805185D01*
X58674000Y6752167D01*
X58674000Y6053667D01*
X59182000Y6053667D01*
X59182000Y7874000D01*
X58216941Y7874000D01*
X57734012Y7188820D01*
X57583289Y6977634D01*
X57446611Y6791133D01*
X57332224Y6640166D01*
X57248372Y6535585D01*
X57203303Y6488240D01*
X57200542Y6486792D01*
X57180768Y6502785D01*
X57166419Y6571244D01*
X57156904Y6700204D01*
X57151628Y6897700D01*
X57150000Y7171767D01*
X57150000Y7874000D01*
X56642000Y7874000D01*
X55480132Y7874000D01*
X54588834Y7873166D01*
X54393336Y7503166D01*
X54296694Y7320082D01*
X54175704Y7090603D01*
X54045408Y6843275D01*
X53920853Y6606646D01*
X53913893Y6593417D01*
X53629948Y6053667D01*
X53509334Y6053667D01*
X53509334Y7874000D01*
X52990750Y7872931D01*
X52472167Y7871862D01*
X52212678Y7299098D01*
X52119424Y7097607D01*
X52036261Y6926012D01*
X51970147Y6798058D01*
X51928037Y6727492D01*
X51918632Y6718084D01*
X51889668Y6751440D01*
X51832928Y6848807D01*
X51755445Y6997019D01*
X51664250Y7182907D01*
X51617819Y7281333D01*
X51351562Y7852833D01*
X50842948Y7864720D01*
X50334334Y7876606D01*
X50334334Y6053667D01*
X50038000Y6053667D01*
X50038000Y7874000D01*
X48006000Y7874000D01*
X48006000Y7493000D01*
X49530000Y7493000D01*
X49530000Y7196667D01*
X48090667Y7196667D01*
X48090667Y6817714D01*
X48799750Y6806107D01*
X49508834Y6794500D01*
X49521972Y6635750D01*
X49535111Y6477000D01*
X47963667Y6477000D01*
X47709667Y6477000D01*
X47709667Y6519333D01*
X47159334Y6519333D01*
X4995926Y6519333D01*
X4996357Y6823472D01*
X4997488Y7216565D01*
X4998272Y7366000D01*
X47159334Y7366000D01*
X47159334Y6900333D01*
X47709667Y6900333D01*
X47709667Y7366000D01*
X47159334Y7366000D01*
X4998272Y7366000D01*
X4999224Y7547323D01*
X5001690Y7821329D01*
X5005012Y8044166D01*
X5009317Y8221417D01*
X5014729Y8358665D01*
X5021375Y8461492D01*
X5029381Y8535482D01*
X5038871Y8586218D01*
X5049973Y8619283D01*
X5062811Y8640259D01*
X5072750Y8650606D01*
X5081773Y8655280D01*
X5099548Y8659742D01*
X5127980Y8663998D01*
X5168978Y8668052D01*
X5224448Y8671910D01*
X5296296Y8675576D01*
X5386431Y8679054D01*
X5496758Y8682350D01*
X5629185Y8685469D01*
X5785618Y8688415D01*
X5967966Y8691194D01*
X6178133Y8693810D01*
X6418028Y8696268D01*
X6689557Y8698573D01*
X6994627Y8700729D01*
X7335146Y8702742D01*
X7713019Y8704617D01*
X8130155Y8706358D01*
X8588459Y8707970D01*
X9089839Y8709458D01*
X9636202Y8710827D01*
X10229454Y8712081D01*
X10871503Y8713227D01*
X11564255Y8714267D01*
X12309618Y8715208D01*
X13109498Y8716054D01*
X13965802Y8716811D01*
X14880437Y8717482D01*
X15855311Y8718072D01*
X16892329Y8718588D01*
X17993399Y8719032D01*
X19160429Y8719411D01*
X20395323Y8719730D01*
X21699991Y8719992D01*
X23076338Y8720203D01*
X24526271Y8720367D01*
X26051698Y8720491D01*
X27654525Y8720577D01*
X29336659Y8720632D01*
X31100008Y8720660D01*
X32590146Y8720667D01*
X60030126Y8720667D01*
X60018813Y5267079D01*
X60018813Y5267079D01*
G37*
X60018813Y5267079D02*
X60016729Y4645822D01*
X60014720Y4103728D01*
X60012639Y3635293D01*
X60010341Y3235013D01*
X60007679Y2897383D01*
X60004507Y2616900D01*
X60000677Y2388061D01*
X59996044Y2205361D01*
X59990461Y2063296D01*
X59983782Y1956362D01*
X59975860Y1879057D01*
X59966549Y1825875D01*
X59955702Y1791313D01*
X59943173Y1769867D01*
X59928816Y1756033D01*
X59925326Y1753412D01*
X59911328Y1749355D01*
X59879463Y1745480D01*
X59827895Y1741784D01*
X59754789Y1738261D01*
X59658311Y1734908D01*
X59536626Y1731722D01*
X59387899Y1728697D01*
X59210296Y1725830D01*
X59001981Y1723117D01*
X58761120Y1720554D01*
X58485878Y1718137D01*
X58174420Y1715862D01*
X57824912Y1713724D01*
X57435519Y1711721D01*
X57004406Y1709847D01*
X56529737Y1708099D01*
X56009679Y1706473D01*
X55442397Y1704965D01*
X54826056Y1703570D01*
X54158821Y1702285D01*
X53438856Y1701106D01*
X52664329Y1700028D01*
X51833403Y1699048D01*
X50944244Y1698162D01*
X49995018Y1697366D01*
X48983888Y1696655D01*
X47909022Y1696025D01*
X46768583Y1695474D01*
X45560737Y1694996D01*
X44283649Y1694587D01*
X42935486Y1694244D01*
X41514410Y1693962D01*
X40018589Y1693738D01*
X38446187Y1693568D01*
X36795369Y1693446D01*
X35064301Y1693371D01*
X33251148Y1693337D01*
X32489303Y1693333D01*
X30666282Y1693339D01*
X28926003Y1693358D01*
X27266540Y1693396D01*
X25685971Y1693460D01*
X24182370Y1693553D01*
X22753812Y1693682D01*
X21398373Y1693853D01*
X20114128Y1694070D01*
X18899153Y1694339D01*
X17751523Y1694665D01*
X16669313Y1695054D01*
X15650599Y1695511D01*
X14693455Y1696043D01*
X13795958Y1696653D01*
X12956183Y1697348D01*
X12172205Y1698133D01*
X11442099Y1699013D01*
X10763941Y1699994D01*
X10135807Y1701082D01*
X9555770Y1702281D01*
X9021908Y1703598D01*
X8532295Y1705037D01*
X8085006Y1706604D01*
X7678118Y1708304D01*
X7309705Y1710144D01*
X6977842Y1712128D01*
X6680606Y1714262D01*
X6416071Y1716550D01*
X6182313Y1719000D01*
X5977407Y1721616D01*
X5799428Y1724403D01*
X5646452Y1727367D01*
X5516555Y1730513D01*
X5407811Y1733847D01*
X5318296Y1737375D01*
X5246085Y1741101D01*
X5189254Y1745031D01*
X5145878Y1749171D01*
X5114033Y1753526D01*
X5091793Y1758101D01*
X5077234Y1762902D01*
X5068432Y1767935D01*
X5065395Y1770750D01*
X5052572Y1790300D01*
X5041402Y1822395D01*
X5031774Y1872575D01*
X5023574Y1946381D01*
X5016690Y2049352D01*
X5011008Y2187028D01*
X5006417Y2364951D01*
X5002803Y2588660D01*
X5000054Y2863695D01*
X4998057Y3195598D01*
X4996699Y3589907D01*
X4995867Y4052163D01*
X4995450Y4587907D01*
X4995334Y5202679D01*
X4995334Y5214356D01*
X4995405Y5827951D01*
X4995704Y6362462D01*
X4995926Y6519333D01*
X47159334Y6519333D01*
X47159334Y6053667D01*
X47709667Y6053667D01*
X47709667Y6477000D01*
X47963667Y6477000D01*
X47963667Y6053667D01*
X50038000Y6053667D01*
X50334334Y6053667D01*
X50842334Y6053667D01*
X50842334Y6752167D01*
X50843008Y7010937D01*
X50845877Y7196902D01*
X50852208Y7321915D01*
X50863268Y7397833D01*
X50880324Y7436510D01*
X50904645Y7449802D01*
X50917012Y7450667D01*
X50958107Y7426181D01*
X51018067Y7348574D01*
X51100662Y7211626D01*
X51209659Y7009115D01*
X51340181Y6752167D01*
X51688671Y6053667D01*
X52134691Y6053667D01*
X52483181Y6752167D01*
X52619495Y7018463D01*
X52732951Y7225741D01*
X52820395Y7368654D01*
X52878673Y7441859D01*
X52895336Y7450667D01*
X52919229Y7439683D01*
X52936436Y7399204D01*
X52947986Y7317935D01*
X52954909Y7184585D01*
X52958234Y6987859D01*
X52959000Y6752167D01*
X52959000Y6053667D01*
X53509334Y6053667D01*
X53629948Y6053667D01*
X54230370Y6053667D01*
X54301026Y6201833D01*
X54371681Y6350000D01*
X55694986Y6350000D01*
X55765641Y6201833D01*
X55836297Y6053667D01*
X56431938Y6053667D01*
X56132731Y6614583D01*
X56008491Y6848796D01*
X55880899Y7091553D01*
X55763607Y7316747D01*
X55670265Y7498269D01*
X55656828Y7524750D01*
X55480132Y7874000D01*
X56642000Y7874000D01*
X56642000Y6053667D01*
X57118250Y6055104D01*
X57594500Y6056540D01*
X58080253Y6753604D01*
X58230787Y6965924D01*
X58367767Y7152179D01*
X58483058Y7301861D01*
X58568526Y7404466D01*
X58616036Y7449488D01*
X58620003Y7450667D01*
X58640969Y7431117D01*
X58656121Y7366197D01*
X58666185Y7246505D01*
X58671888Y7062635D01*
X58673957Y6805185D01*
X58674000Y6752167D01*
X58674000Y6053667D01*
X59182000Y6053667D01*
X59182000Y7874000D01*
X58216941Y7874000D01*
X57734012Y7188820D01*
X57583289Y6977634D01*
X57446611Y6791133D01*
X57332224Y6640166D01*
X57248372Y6535585D01*
X57203303Y6488240D01*
X57200542Y6486792D01*
X57180768Y6502785D01*
X57166419Y6571244D01*
X57156904Y6700204D01*
X57151628Y6897700D01*
X57150000Y7171767D01*
X57150000Y7874000D01*
X56642000Y7874000D01*
X55480132Y7874000D01*
X54588834Y7873166D01*
X54393336Y7503166D01*
X54296694Y7320082D01*
X54175704Y7090603D01*
X54045408Y6843275D01*
X53920853Y6606646D01*
X53913893Y6593417D01*
X53629948Y6053667D01*
X53509334Y6053667D01*
X53509334Y7874000D01*
X52990750Y7872931D01*
X52472167Y7871862D01*
X52212678Y7299098D01*
X52119424Y7097607D01*
X52036261Y6926012D01*
X51970147Y6798058D01*
X51928037Y6727492D01*
X51918632Y6718084D01*
X51889668Y6751440D01*
X51832928Y6848807D01*
X51755445Y6997019D01*
X51664250Y7182907D01*
X51617819Y7281333D01*
X51351562Y7852833D01*
X50842948Y7864720D01*
X50334334Y7876606D01*
X50334334Y6053667D01*
X50038000Y6053667D01*
X50038000Y7874000D01*
X48006000Y7874000D01*
X48006000Y7493000D01*
X49530000Y7493000D01*
X49530000Y7196667D01*
X48090667Y7196667D01*
X48090667Y6817714D01*
X48799750Y6806107D01*
X49508834Y6794500D01*
X49521972Y6635750D01*
X49535111Y6477000D01*
X47963667Y6477000D01*
X47709667Y6477000D01*
X47709667Y6519333D01*
X47159334Y6519333D01*
X4995926Y6519333D01*
X4996357Y6823472D01*
X4997488Y7216565D01*
X4998272Y7366000D01*
X47159334Y7366000D01*
X47159334Y6900333D01*
X47709667Y6900333D01*
X47709667Y7366000D01*
X47159334Y7366000D01*
X4998272Y7366000D01*
X4999224Y7547323D01*
X5001690Y7821329D01*
X5005012Y8044166D01*
X5009317Y8221417D01*
X5014729Y8358665D01*
X5021375Y8461492D01*
X5029381Y8535482D01*
X5038871Y8586218D01*
X5049973Y8619283D01*
X5062811Y8640259D01*
X5072750Y8650606D01*
X5081773Y8655280D01*
X5099548Y8659742D01*
X5127980Y8663998D01*
X5168978Y8668052D01*
X5224448Y8671910D01*
X5296296Y8675576D01*
X5386431Y8679054D01*
X5496758Y8682350D01*
X5629185Y8685469D01*
X5785618Y8688415D01*
X5967966Y8691194D01*
X6178133Y8693810D01*
X6418028Y8696268D01*
X6689557Y8698573D01*
X6994627Y8700729D01*
X7335146Y8702742D01*
X7713019Y8704617D01*
X8130155Y8706358D01*
X8588459Y8707970D01*
X9089839Y8709458D01*
X9636202Y8710827D01*
X10229454Y8712081D01*
X10871503Y8713227D01*
X11564255Y8714267D01*
X12309618Y8715208D01*
X13109498Y8716054D01*
X13965802Y8716811D01*
X14880437Y8717482D01*
X15855311Y8718072D01*
X16892329Y8718588D01*
X17993399Y8719032D01*
X19160429Y8719411D01*
X20395323Y8719730D01*
X21699991Y8719992D01*
X23076338Y8720203D01*
X24526271Y8720367D01*
X26051698Y8720491D01*
X27654525Y8720577D01*
X29336659Y8720632D01*
X31100008Y8720660D01*
X32590146Y8720667D01*
X60030126Y8720667D01*
X60018813Y5267079D01*
D10*
X13185714Y25732858D02*
X13242857Y25561429D01*
X13242857Y25275715D01*
X13185714Y25161429D01*
X13128571Y25104286D01*
X13014285Y25047143D01*
X12900000Y25047143D01*
X12785714Y25104286D01*
X12728571Y25161429D01*
X12671428Y25275715D01*
X12614285Y25504286D01*
X12557142Y25618572D01*
X12500000Y25675715D01*
X12385714Y25732858D01*
X12271428Y25732858D01*
X12157142Y25675715D01*
X12100000Y25618572D01*
X12042857Y25504286D01*
X12042857Y25218572D01*
X12100000Y25047143D01*
X12042857Y24304286D02*
X12042857Y24075715D01*
X12100000Y23961429D01*
X12214285Y23847143D01*
X12442857Y23790000D01*
X12842857Y23790000D01*
X13071428Y23847143D01*
X13185714Y23961429D01*
X13242857Y24075715D01*
X13242857Y24304286D01*
X13185714Y24418572D01*
X13071428Y24532858D01*
X12842857Y24590000D01*
X12442857Y24590000D01*
X12214285Y24532858D01*
X12100000Y24418572D01*
X12042857Y24304286D01*
X13242857Y22704286D02*
X13242857Y23275715D01*
X12042857Y23275715D01*
X12900000Y22361429D02*
X12900000Y21790000D01*
X13242857Y22475715D02*
X12042857Y22075715D01*
X13242857Y21675715D01*
X13242857Y20590000D02*
X12671428Y20990000D01*
X13242857Y21275715D02*
X12042857Y21275715D01*
X12042857Y20818572D01*
X12100000Y20704286D01*
X12157142Y20647143D01*
X12271428Y20590000D01*
X12442857Y20590000D01*
X12557142Y20647143D01*
X12614285Y20704286D01*
X12671428Y20818572D01*
X12671428Y21275715D01*
X13242857Y19161429D02*
X12042857Y19161429D01*
X12042857Y18704286D01*
X12100000Y18590000D01*
X12157142Y18532858D01*
X12271428Y18475715D01*
X12442857Y18475715D01*
X12557142Y18532858D01*
X12614285Y18590000D01*
X12671428Y18704286D01*
X12671428Y19161429D01*
X12042857Y18132858D02*
X13242857Y17732858D01*
X12042857Y17332858D01*
D12*
X10286904Y20812143D02*
X8763095Y20812143D01*
X9525000Y20050239D02*
X9525000Y21574048D01*
M02*
